<?xml version="1.0" encoding="utf-8"?>
<!-- Generator: Adobe Illustrator 22.0.0, SVG Export Plug-In . SVG Version: 6.00 Build 0)  -->
<svg version="1.1" id="Layer_1" xmlns="http://www.w3.org/2000/svg" xmlns:xlink="http://www.w3.org/1999/xlink" x="0px" y="0px"
	 viewBox="0 0 561.8 443.7" style="enable-background:new 0 0 561.8 443.7;" xml:space="preserve">
<style type="text/css">
	.st0{fill:#93A2BB;}
	.st1{fill:#FEFEFE;}
</style>
<path class="st0" d="M37,85c1.7-1,1.4-2.9,1.9-4.4C44.5,62.1,61.7,49.1,81.1,49c121.3,0,242.6,0,363.9,0c24.8,0,44.5,19.3,44.8,44.2
	c0.3,34.8,0.1,69.6,0,104.4c0,8.5-5,13.8-12.5,13.7c-7.2-0.1-11.8-5.5-11.8-13.8c-0.1-10.7-0.1-10.7-10.9-10.7
	c-129.5,0-258.9,0-388.4-0.1c-4.4,0-5.1,1.4-5.1,5.3c0.1,45.2,0.1,90.3,0.1,135.5c0,12.9,8.6,21.6,21.6,21.6c74.2,0,148.3,0,222.5,0
	c5.8,0,10.6,1.5,13.3,6.9c4.1,8.2-1.8,17.2-11.4,17.2c-18.5,0.1-37,0.1-55.5,0.1c-55.6,0-111.3,0-166.9,0
	c-24.5,0-39.5-11.2-46.8-34.7c-0.2-0.6-0.7-1-1-1.5C37,253,37,169,37,85z M263.5,113c65.7,0,131.3,0,197,0.1c3.7,0,5.4-0.7,5-4.8
	c-0.4-3.8-0.1-7.7-0.1-11.5c0.1-15.6-7.8-23.6-23.6-23.6c-57.8,0-115.7,0-173.5,0c-61.8,0-123.7,0-185.5,0
	c-12.9,0-21.6,8.7-21.7,21.6c0,4.3,0.4,8.7-0.1,13c-0.5,4.6,1.3,5.3,5.5,5.3C132.2,113,197.9,113,263.5,113z M263,162.5
	c37.8,0,75.7,0,113.5,0c28.2,0,56.3-0.1,84.5,0c3.4,0,4.7-0.8,4.5-4.4c-0.3-5-0.4-10,0-15c0.5-5.1-1.2-6.2-6.2-6.2
	c-101.7,0.2-203.3,0.1-305,0.1c-29.7,0-59.3,0.1-89,0c-3.1,0-4.5,0.6-4.3,4.1c0.3,5,0,10,0.1,15c0.1,6.9-1.3,6.4,6.4,6.4
	C132.7,162.6,197.8,162.5,263,162.5z"/>
<path class="st0" d="M549,342c-2.2,3.3-1.8,7.2-2.7,10.8c-9.4,36.5-30.9,62.5-65.8,77.5c-73.9,31.7-156.7-26.8-151.7-108.5
	c3.2-52.7,43.4-95.7,95.8-102.6c59.4-7.8,115.4,34.9,123.5,94.3c0.1,0.9-0.2,2.1,1,2.5C549,324.7,549,333.3,549,342z M352.7,328.4
	c0.5,48.4,39.2,86.9,86.8,86.4c47-0.5,85.6-40.1,85.3-87.3c-0.4-47.2-39.9-85.4-87.9-84.9C390.5,243.2,352.3,282.1,352.7,328.4z"/>
<path class="st0" d="M151.6,278.9c-17.8,0-35.6,0-53.4,0c-8.3,0-13.6-5.3-13.3-12.8c0.3-6.7,5.2-11.3,12.6-11.3
	c17.5-0.1,34.9-0.1,52.4-0.1c18.5,0,36.9,0,55.4,0c8.3,0,13.6,4.8,13.7,11.9c0,7.3-5.6,12.3-14,12.3
	C187.2,279,169.4,278.9,151.6,278.9C151.6,278.9,151.6,278.9,151.6,278.9z"/>
<path class="st0" d="M124.3,321.4c-8.8,0-17.7,0.1-26.5,0c-8-0.1-12.9-4.9-12.9-12.1c0-7,5.3-12,13.1-12.1c17.5-0.1,35-0.1,52.5,0
	c6.8,0,11.1,3.3,12.7,9.1c1.4,5.1-0.8,10.6-5.3,13.4c-2.4,1.5-5,1.7-7.7,1.7C141.6,321.4,133,321.4,124.3,321.4z"/>
<path class="st1" d="M263.5,113c-65.7,0-131.3,0-197,0.1c-4.2,0-6-0.7-5.5-5.3c0.5-4.3,0.1-8.7,0.1-13c0.1-12.9,8.8-21.6,21.7-21.6
	c61.8,0,123.7,0,185.5,0c57.8,0,115.7,0,173.5,0c15.7,0,23.7,8,23.6,23.6c0,3.8-0.3,7.7,0.1,11.5c0.4,4.1-1.3,4.8-5,4.8
	C394.8,113,329.2,113,263.5,113z"/>
<path class="st1" d="M263,162.5c-65.2,0-130.3,0-195.5,0c-7.7,0-6.3,0.5-6.4-6.4c-0.1-5,0.2-10-0.1-15c-0.2-3.5,1.1-4.1,4.3-4.1
	c29.7,0.1,59.3,0,89,0c101.7,0,203.3,0,305-0.1c5,0,6.7,1.2,6.2,6.2c-0.5,5-0.4,10,0,15c0.2,3.6-1.1,4.4-4.5,4.4
	c-28.2-0.1-56.3,0-84.5,0C338.7,162.5,300.8,162.5,263,162.5z"/>
<path class="st1" d="M352.7,328.4c-0.4-46.3,37.8-85.2,84.2-85.7c48-0.6,87.5,37.6,87.9,84.9c0.4,47.2-38.3,86.8-85.3,87.3
	C391.9,415.3,353.2,376.9,352.7,328.4z M463.9,340.4c3.4,0,6.4,0.1,9.3,0c7.9-0.2,12.9-5,12.9-12.1c0-7.1-5.2-11.9-13.1-12.1
	c-6.2-0.1-12.3-0.2-18.5,0.1c-3.5,0.2-4.2-1.1-4.1-4.3c0.2-6.2,0.2-12.3,0-18.5c-0.2-7.9-5.1-12.9-12.2-12.9
	c-7.1,0.1-11.9,5.3-12.1,13.1c-0.1,5.8-0.2,11.7,0.1,17.5c0.2,3.7-0.6,5.3-4.8,5c-5.8-0.4-11.6-0.2-17.5-0.1
	c-8.1,0.1-13.4,5-13.3,12.3c0.1,7.1,5.1,11.8,13.1,11.9c6.2,0.1,12.3,0.2,18.5,0c3-0.1,4.1,0.8,4,3.9c-0.2,6.7-0.3,13.3,0,20
	c0.3,7.1,5.5,11.9,12.3,11.8c6.5-0.1,11.4-4.8,11.8-11.7c0.2-3.5,0-7,0.1-10.5c0.1-4.3-1.9-9.9,0.7-12.5
	C454.1,338.5,459.8,340.9,463.9,340.4z"/>
<path class="st0" d="M463.9,340.4c-4.1,0.5-9.7-1.9-12.6,1c-2.6,2.7-0.6,8.2-0.7,12.5c-0.1,3.5,0.1,7-0.1,10.5
	c-0.4,6.9-5.3,11.6-11.8,11.7c-6.8,0.1-12-4.7-12.3-11.8c-0.3-6.6-0.2-13.3,0-20c0.1-3.1-1-4-4-3.9c-6.2,0.2-12.3,0.2-18.5,0
	c-8-0.1-13.1-4.8-13.1-11.9c-0.1-7.3,5.2-12.2,13.3-12.3c5.8-0.1,11.7-0.3,17.5,0.1c4.2,0.3,5-1.3,4.8-5c-0.3-5.8-0.2-11.6-0.1-17.5
	c0.1-7.8,5-13,12.1-13.1c7.1-0.1,12,5,12.2,12.9c0.2,6.2,0.2,12.3,0,18.5c-0.1,3.1,0.7,4.4,4.1,4.3c6.1-0.3,12.3-0.2,18.5-0.1
	c7.9,0.2,13,5,13.1,12.1c0,7.2-5,11.9-12.9,12.1C470.2,340.5,467.2,340.4,463.9,340.4z"/>
</svg>
