<svg xmlns="http://www.w3.org/2000/svg" viewBox="751.333 -2279 31.667 31.496">
  <defs>
    <style>
      .cls-1 {
        fill: #f0f7e7;
      }

      .cls-2 {
        fill: #fff;
      }

      .cls-3 {
        fill: #8ac440;
      }
    </style>
  </defs>
  <g id="Group_854" data-name="Group 854" transform="translate(751.333 -2279)">
    <path id="Path_520" data-name="Path 520" class="cls-1" d="M17.349.641l2.742,2.468a2.385,2.385,0,0,0,1.554.64l3.656.183a2.385,2.385,0,0,1,2.285,2.285l.183,3.656a2.592,2.592,0,0,0,.64,1.554l2.468,2.742a2.5,2.5,0,0,1,0,3.29l-2.559,2.65a2.385,2.385,0,0,0-.64,1.554l-.183,3.656A2.385,2.385,0,0,1,25.209,27.6l-3.656.183a2.592,2.592,0,0,0-1.554.64l-2.742,2.468a2.5,2.5,0,0,1-3.29,0l-2.742-2.468a2.385,2.385,0,0,0-1.554-.64L6.017,27.6a2.385,2.385,0,0,1-2.285-2.285L3.549,21.66a2.592,2.592,0,0,0-.64-1.554L.442,17.365a2.5,2.5,0,0,1,0-3.29l2.468-2.742a2.385,2.385,0,0,0,.64-1.554l.183-3.656A2.385,2.385,0,0,1,6.017,3.839l3.656-.183a2.592,2.592,0,0,0,1.554-.64L13.968.549A2.743,2.743,0,0,1,17.349.641Z" transform="translate(0.175 -0.012)"/>
    <g id="XMLID_1_" transform="translate(9.5 9.5)">
      <g id="Group_854-2" data-name="Group 854" transform="translate(0 0)">
        <path id="Path_526" data-name="Path 526" class="cls-2" d="M2.919,6.73s-.352-.352.117-.821a.574.574,0,0,1,.821.117L5.03,7.2l3.284-3.87A.414.414,0,0,1,8.9,3.212c.235.235,0,.586,0,.586L5.5,8.959s-.235.352-.469.352a.809.809,0,0,1-.586-.352Z" transform="translate(0.131 0.189)"/>
        <path id="Path_527" data-name="Path 527" class="cls-3" d="M3.467,6.4a.574.574,0,0,0-.117.821L4.874,9.565a.585.585,0,0,0,.586.352.523.523,0,0,0,.469-.352l3.4-5.278s.235-.352,0-.586a.414.414,0,0,0-.586.117L5.46,7.689,4.288,6.516A.574.574,0,0,0,3.467,6.4Zm3.167,6.568a6.333,6.333,0,1,1,6.333-6.333A6.307,6.307,0,0,1,6.633,12.967Z" transform="translate(-0.3 -0.3)"/>
      </g>
    </g>
  </g>
</svg>
