<svg xmlns="http://www.w3.org/2000/svg" width="18.4" height="19.1">
  <g fill="#93a2bb" >
    <path d="M15.6 19.1H2.9c-.6 0-1-.4-1-1V7.7c0-.6.4-1 1-1s1 .4 1 1v9.4h10.7V7.7c0-.6.4-1 1-1s1 .4 1 1v10.4c0 .6-.5 1-1 1zM17.4 5.2H1c-.6 0-1-.4-1-1s.4-1 1-1h16.4c.6 0 1 .4 1 1s-.4 1-1 1zM12.7 2H5.8c-.6 0-1-.4-1-1s.4-1 1-1h6.9c.6 0 1 .4 1 1s-.5 1-1 1z"/>
    <path d="M7.3 14.4c-.6 0-1-.4-1-1V7.7c0-.6.4-1 1-1s1 .4 1 1v5.6c0 .6-.4 1.1-1 1.1zM11.2 14.4c-.6 0-1-.4-1-1V7.7c0-.6.4-1 1-1s1 .4 1 1v5.6c0 .6-.5 1.1-1 1.1z"/>
  </g>
</svg>