<svg xmlns="http://www.w3.org/2000/svg" width="28.5" height="22">
  <g fill="#93a2bb">
    <path class="st0" d="M25 22H14c-.6 0-1-.4-1-1V1c0-.6.4-1 1-1h11c.6 0 1 .4 1 1v20c0 .6-.4 1-1 1zm-10-2h9V2h-9v18z"/>
    <path class="st0" d="M14 22H4.5c-.6 0-1-.4-1-1V6c0-.6.4-1 1-1H14c.6 0 1 .4 1 1v15c0 .6-.4 1-1 1zm-8.5-2H13V7H5.5v13z"/>
    <path class="st0" d="M27.5 22H1c-.6 0-1-.4-1-1s.4-1 1-1h26.5c.6 0 1 .4 1 1s-.4 1-1 1zM11.5 12h-4c-.6 0-1-.4-1-1s.4-1 1-1h4c.6 0 1 .4 1 1s-.4 1-1 1zM11.5 16h-4c-.6 0-1-.4-1-1s.4-1 1-1h4c.6 0 1 .4 1 1s-.4 1-1 1zM21.5 6.5h-4c-.6 0-1-.4-1-1s.4-1 1-1h4c.6 0 1 .4 1 1s-.4 1-1 1zM21.5 11h-4c-.6 0-1-.4-1-1s.4-1 1-1h4c.6 0 1 .4 1 1s-.4 1-1 1zM21.5 15.5h-4c-.6 0-1-.4-1-1s.4-1 1-1h4c.6 0 1 .4 1 1s-.4 1-1 1z"/>
  </g>
</svg>