<svg xmlns="http://www.w3.org/2000/svg" viewBox="0 0 20 22" fill:"#93a2bb;">
	<title>Calendar</title>
	<path d="M17,22H3a3,3,0,0,1-3-3V5A3,3,0,0,1,3,2H17a3,3,0,0,1,3,3V19A3,3,0,0,1,17,22ZM3,4A1,1,0,0,0,2,5V19a1,1,0,0,0,1,1H17a1,1,0,0,0,1-1V5a1,1,0,0,0-1-1Z"/><path d="M14,6a1,1,0,0,1-1-1V1a1,1,0,0,1,2,0V5A1,1,0,0,1,14,6Z"/><path d="M6,6A1,1,0,0,1,5,5V1A1,1,0,0,1,7,1V5A1,1,0,0,1,6,6Z"/><path d="M19,9.5H1a1,1,0,0,1,0-2H19a1,1,0,0,1,0,2Z"/><path class="cls-1" d="M14.5,14.1H5a1,1,0,0,1,0-2h9.5a1,1,0,0,1,0,2Z"/><path d="M10.4,17.3H5a1,1,0,1,1,0-2h5.4a1,1,0,1,1,0,2Z"/>
</svg>