<?xml version="1.0" encoding="utf-8"?>
<!-- Generator: Adobe Illustrator 19.0.0, SVG Export Plug-In . SVG Version: 6.00 Build 0)  -->
<svg version="1.1" id="Layer_1" xmlns="http://www.w3.org/2000/svg" xmlns:xlink="http://www.w3.org/1999/xlink" x="0px" y="0px"
	 viewBox="-468 271 22.9 19" style="enable-background:new -468 271 22.9 19;" xml:space="preserve">
<style type="text/css">
	.st0{fill:#93A2BB;}
</style>
<g id="XMLID_18_">
	<path class="st0" d="M-448.1,290h-17c-1.6,0-2.9-1.3-2.9-2.9v-10.4c0-1.6,1.3-2.9,2.9-2.9h3.3l1.6-2.4c0.2-0.3,0.5-0.4,0.8-0.4h5.7
		c0.3,0,0.6,0.2,0.8,0.4l1.6,2.4h3.3c1.6,0,2.9,1.3,2.9,2.9v10.4c0,0.2-0.1,0.4-0.1,0.5C-445.5,289-446.7,290-448.1,290z
		 M-465.1,275.8c-0.5,0-0.9,0.4-0.9,0.9v10.4c0,0.5,0.4,0.9,0.9,0.9h17c0.5,0,0.9-0.4,0.9-0.9c0-0.2,0-0.3,0.1-0.4v-10
		c0-0.5-0.4-0.9-0.9-0.9h-3.8c-0.3,0-0.6-0.2-0.8-0.4l-1.6-2.4h-4.6l-1.6,2.4c-0.2,0.3-0.5,0.4-0.8,0.4H-465.1z"/>
</g>
<g id="XMLID_17_">
	<path class="st0" d="M-456.6,286.3c-2.6,0-4.8-2.2-4.8-4.8s2.2-4.8,4.8-4.8c2.6,0,4.8,2.2,4.8,4.8S-454,286.3-456.6,286.3z
		 M-456.6,278.7c-1.5,0-2.8,1.3-2.8,2.8s1.3,2.8,2.8,2.8c1.5,0,2.8-1.3,2.8-2.8S-455.1,278.7-456.6,278.7z"/>
</g>
</svg>
