<svg xmlns="http://www.w3.org/2000/svg" width="24.5" height="21.7">
  <g>
    <path class="st0" d="M18.5 16c-3.3 0-6-2.7-6-6s2.7-6 6-6 6 2.7 6 6-2.7 6-6 6zm0-10c-2.2 0-4 1.8-4 4s1.8 4 4 4 4-1.8 4-4-1.8-4-4-4z"/>
    <path class="st0" d="M14.9 21.7c-.2 0-.4-.1-.5-.2-.3-.2-.5-.6-.4-1l.9-6.5c.1-.5.6-.9 1.1-.9.5.1.9.6.9 1.1l-.6 4.5 1.8-1.1c.3-.2.7-.2 1 0l1.8 1.1-.6-4.5c-.1-.5.3-1.1.9-1.1.5-.1 1.1.3 1.1.9l.9 6.5c.1.4-.1.8-.4 1-.3.2-.7.2-1.1 0l-3.1-1.8-3.1 1.8c-.2.2-.4.2-.6.2zM10 18H2.3C1 18 0 16.9 0 15.7V2.3C0 1 1 0 2.3 0h19.4C23 0 24 1 24 2.3c0 .6-.4 1-1 1s-1-.4-1-1c0-.2-.1-.3-.3-.3H2.3c-.2 0-.3.1-.3.3v13.4c0 .1.1.3.3.3H10c.6 0 1 .4 1 1s-.4 1-1 1z"/>
    <path class="st0" d="M11 7.5H4.9c-.6 0-1-.4-1-1s.4-1 1-1H11c.6 0 1 .4 1 1s-.4 1-1 1z"/>
    <path class="st0" d="M9.1 13.3H4.9c-.6 0-1-.4-1-1s.4-1 1-1h4.2c.6 0 1 .4 1 1s-.4 1-1 1z"/>
  </g>
</svg>