<?xml version="1.0" encoding="utf-8"?>
<!-- Generator: Adobe Illustrator 16.0.0, SVG Export Plug-In . SVG Version: 6.00 Build 0)  -->
<!DOCTYPE svg PUBLIC "-//W3C//DTD SVG 1.1//EN" "http://www.w3.org/Graphics/SVG/1.1/DTD/svg11.dtd" [
	<!ENTITY ns_extend "http://ns.adobe.com/Extensibility/1.0/">
	<!ENTITY ns_ai "http://ns.adobe.com/AdobeIllustrator/10.0/">
	<!ENTITY ns_graphs "http://ns.adobe.com/Graphs/1.0/">
	<!ENTITY ns_vars "http://ns.adobe.com/Variables/1.0/">
	<!ENTITY ns_imrep "http://ns.adobe.com/ImageReplacement/1.0/">
	<!ENTITY ns_sfw "http://ns.adobe.com/SaveForWeb/1.0/">
	<!ENTITY ns_custom "http://ns.adobe.com/GenericCustomNamespace/1.0/">
	<!ENTITY ns_adobe_xpath "http://ns.adobe.com/XPath/1.0/">
]>
<svg version="1.1" id="Capa_1" xmlns:x="&ns_extend;" xmlns:i="&ns_ai;" xmlns:graph="&ns_graphs;"
	 xmlns="http://www.w3.org/2000/svg" xmlns:xlink="http://www.w3.org/1999/xlink" x="0px" y="0px" width="12.02px" height="9px"
	 viewBox="250.129 251.5 12.02 9" enable-background="new 250.129 251.5 12.02 9" xml:space="preserve">
<metadata>
	<sfw  xmlns="&ns_sfw;">
		<slices></slices>
		<sliceSourceBounds  width="11.554" height="8.87" y="396.064" x="633.922" bottomLeftOrigin="true"></sliceSourceBounds>
	</sfw>
</metadata>
<g>
	<g>
		<path fill="#10B17E" stroke="#10B17E" stroke-miterlimit="10" d="M255.7,259.576c-0.478,0.479-1.254,0.479-1.733,0l-2.686-2.687
			c-0.479-0.477-0.479-1.254,0-1.732c0.479-0.479,1.254-0.479,1.733,0l1.6,1.6c0.121,0.121,0.317,0.121,0.438,0l4.333-4.333
			c0.478-0.478,1.254-0.478,1.733,0c0.229,0.23,0.357,0.542,0.357,0.867c0,0.326-0.128,0.636-0.357,0.867L255.7,259.576z"/>
	</g>
</g>
</svg>
