<svg xmlns="http://www.w3.org/2000/svg" viewBox="-20402.5 -17540.5 105.699 94.5">
  <defs>
    <style>
      .cls-1 {
        fill: #dfe3ec;
      }

      .cls-2 {
        fill: none;
      }

      .cls-2, .cls-3 {
        stroke: #6a7e9c;
      }

      .cls-2, .cls-3, .cls-4 {
        stroke-linecap: round;
        stroke-miterlimit: 10;
        stroke-width: 3px;
      }

      .cls-3, .cls-4 {
        fill: #fff;
      }

      .cls-4 {
        stroke: #448afa;
        stroke-linejoin: round;
      }
    </style>
  </defs>
  <g id="Group_826" data-name="Group 826" transform="translate(-20402.5 -17540.5)">
    <path id="Path_541" data-name="Path 541" class="cls-1" d="M71.7,16.2h-39a3.543,3.543,0,0,0-3.5,3.5v8a3.543,3.543,0,0,1,3.5-3.5h39a3.543,3.543,0,0,1,3.5,3.5v-8A3.612,3.612,0,0,0,71.7,16.2Z"/>
    <path id="Path_542" data-name="Path 542" class="cls-1" d="M8.5,10.8a2.326,2.326,0,0,1,2.3-2.3H46.2l.3-.6V2.8A2.326,2.326,0,0,0,44.2.5H2.8A2.326,2.326,0,0,0,.5,2.8V62a2.326,2.326,0,0,0,2.3,2.3H8.5Z"/>
    <path id="Path_543" data-name="Path 543" class="cls-1" d="M96.2,86.7A2.326,2.326,0,0,1,93.9,89H58.5l-.3.6v1.2a2.326,2.326,0,0,0,2.3,2.3h41.4a2.326,2.326,0,0,0,2.3-2.3V31.5a2.326,2.326,0,0,0-2.3-2.3H96.2V86.7Z"/>
    <path id="Path_544" data-name="Path 544" class="cls-2" d="M21.8,65.2H5a3.543,3.543,0,0,1-3.5-3.5V5A3.543,3.543,0,0,1,5,1.5H44A3.543,3.543,0,0,1,47.5,5V9"/>
    <path id="Path_545" data-name="Path 545" class="cls-2" d="M83.4,29.2h17.3a3.543,3.543,0,0,1,3.5,3.5V89.5a3.543,3.543,0,0,1-3.5,3.5h-39a3.543,3.543,0,0,1-3.5-3.5"/>
    <path id="Path_546" data-name="Path 546" class="cls-2" d="M75.1,19.7V76.5A3.543,3.543,0,0,1,71.6,80h-39a3.543,3.543,0,0,1-3.5-3.5V19.7a3.543,3.543,0,0,1,3.5-3.5h39A3.478,3.478,0,0,1,75.1,19.7Z"/>
    <circle id="Ellipse_165" data-name="Ellipse 165" class="cls-3" cx="14" cy="14" r="14" transform="translate(39.5 34.1)"/>
    <path id="Path_547" data-name="Path 547" class="cls-4" d="M49.1,49l2.8,3.1,5.8-6.8"/>
  </g>
</svg>
