<svg xmlns="http://www.w3.org/2000/svg" width="20.5" height="24">
  <path class="st0" d="M13 24c-.6 0-1.1-.2-1.6-.5l-4.9-3.9c-.6-.5-1-1.2-1-2V7.9c0-1.4 1.1-2.6 2.6-2.6h9.8c1.4 0 2.6 1.1 2.6 2.6v9.7c0 .8-.4 1.5-1 2l-4.9 3.9c-.5.3-1 .5-1.6.5zM8.1 7.3c-.3 0-.6.3-.6.6v9.7c0 .2.1.3.2.4l4.9 3.9c.2.2.5.2.7 0l4.9-3.9c.1-.1.2-.3.2-.4V7.9c0-.3-.3-.6-.6-.6H8.1z"/>
  <path class="st0" d="M3.4 13.3c-.4 0-.8-.2-.9-.6L.2 7.4c-.3-.6-.3-1.3 0-2C.5 4.8.9 4.3 1.6 4l9-3.9c1.3-.6 2.8 0 3.4 1.3l.9 2.1c.2.5 0 1.1-.5 1.3-.5.2-1.1 0-1.3-.5l-.9-2.1c-.2-.1-.5-.3-.8-.2l-9 3.9c-.2.1-.3.2-.4.3s0 .3 0 .4l2.3 5.3c.2.5 0 1.1-.5 1.3-.1.1-.3.1-.4.1zM8.9 11.3h3.2v2H8.9zM14.4 11.3h3.2v2h-3.2zM13 19.6c-2.6 0-4.7-2.1-4.7-4.7h2c0 1.5 1.2 2.7 2.7 2.7s2.7-1.2 2.7-2.7h2c0 2.6-2.1 4.7-4.7 4.7z"/>
</svg>