<svg width="42" height="42" viewBox="0 0 42 42" fill="none" xmlns="http://www.w3.org/2000/svg">
<path d="M23.2406 0.840247L26.877 4.13116C27.4382 4.65763 28.1707 4.96094 28.9379 4.98456L33.7864 5.22858C34.5796 5.26138 35.3316 5.59292 35.893 6.15737C36.4543 6.72182 36.7841 7.4779 36.8167 8.27548L37.0594 13.1505C37.1056 13.9169 37.4042 14.6459 37.9081 15.2227L41.1811 18.879C41.7091 19.4864 42 20.2658 42 21.0725C42 21.8792 41.7091 22.6585 41.1811 23.266L37.7875 26.7996C37.2638 27.3639 36.9622 28.1003 36.9387 28.8717L36.696 33.7468C36.6621 34.5436 36.3316 35.2986 35.77 35.8619C35.2085 36.4253 34.457 36.756 33.6644 36.7883L28.8158 37.0323C28.0537 37.0788 27.3286 37.379 26.755 37.8857L23.1186 41.1767C22.5144 41.7075 21.7393 42 20.937 42C20.1347 42 19.3596 41.7075 18.7554 41.1767L15.1191 37.8857C14.5578 37.3593 13.8254 37.056 13.0582 37.0323L8.21231 36.7883C7.41907 36.7555 6.6671 36.424 6.10572 35.8595C5.54434 35.2951 5.21461 34.539 5.18199 33.7414L4.9393 28.8677C4.89312 28.1014 4.5945 27.3723 4.09054 26.7956L0.818857 23.1406C0.290934 22.5332 0 21.7538 0 20.9471C0 20.1404 0.290934 19.3611 0.818857 18.7536L4.09187 15.0973C4.61547 14.533 4.91713 13.7966 4.94062 13.0252L5.18331 8.15014C5.21623 7.35301 5.54593 6.59744 6.107 6.03331C6.66806 5.46917 7.41952 5.13767 8.21231 5.10457L13.0608 4.86055C13.823 4.81413 14.5481 4.51387 15.1217 4.00716L18.7568 0.717571C19.4103 0.231273 20.207 -0.0208818 21.0197 0.00135414C21.8324 0.02359 22.6143 0.318935 23.2406 0.840247Z" fill="#E6EFFE"/>
<path d="M25 11C22.24 11 20 13.24 20 16C20 18.76 22.24 21 25 21C27.76 21 30 18.76 30 16C30 13.24 27.76 11 25 11ZM25 19C23.34 19 22 17.66 22 16C22 14.34 23.34 13 25 13C26.66 13 28 14.34 28 16C28 17.66 26.66 19 25 19ZM28 25H26C26 23.8 25.25 22.72 24.13 22.3L17.97 20H10V31H16V29.56L23 31.5L31 29V28C31 26.34 29.66 25 28 25ZM14 29H12V22H14V29ZM22.97 29.41L16 27.5V22H17.61L23.43 24.17C23.77 24.3 24 24.63 24 25C24 25 22 24.95 21.7 24.85L19.32 24.06L18.69 25.96L21.07 26.75C21.58 26.92 22.11 27 22.65 27H28C28.39 27 28.74 27.24 28.9 27.57L22.97 29.41Z" fill="#2FC495"/>
<path d="M25 13C26.7 13 28 14.3 28 16C28 17.7 26.7 19 25 19C23.3 19 22 17.7 22 16C22 14.3 23.3 13 25 13Z" fill="#33C597" stroke="white" stroke-width="2"/>
</svg>
