<svg width="42" height="42" viewBox="0 0 42 42" fill="none" xmlns="http://www.w3.org/2000/svg">
<path d="M23.2406 0.840247L26.877 4.13116C27.4382 4.65763 28.1707 4.96094 28.9379 4.98456L33.7864 5.22858C34.5796 5.26138 35.3316 5.59292 35.893 6.15737C36.4543 6.72182 36.7841 7.4779 36.8167 8.27548L37.0594 13.1505C37.1056 13.9169 37.4042 14.6459 37.9081 15.2227L41.1811 18.879C41.7091 19.4864 42 20.2658 42 21.0725C42 21.8792 41.7091 22.6585 41.1811 23.266L37.7875 26.7996C37.2638 27.3639 36.9622 28.1003 36.9387 28.8717L36.696 33.7468C36.6621 34.5436 36.3316 35.2986 35.77 35.8619C35.2085 36.4253 34.457 36.756 33.6644 36.7883L28.8158 37.0323C28.0537 37.0788 27.3286 37.379 26.755 37.8857L23.1186 41.1767C22.5144 41.7075 21.7393 42 20.937 42C20.1347 42 19.3596 41.7075 18.7554 41.1767L15.1191 37.8857C14.5578 37.3593 13.8254 37.056 13.0582 37.0323L8.21231 36.7883C7.41907 36.7555 6.6671 36.424 6.10572 35.8595C5.54434 35.2951 5.21461 34.539 5.18199 33.7414L4.9393 28.8677C4.89312 28.1014 4.5945 27.3723 4.09054 26.7956L0.818857 23.1406C0.290934 22.5332 0 21.7538 0 20.9471C0 20.1404 0.290934 19.3611 0.818857 18.7536L4.09187 15.0973C4.61547 14.533 4.91713 13.7966 4.94062 13.0252L5.18331 8.15014C5.21623 7.35301 5.54593 6.59744 6.107 6.03331C6.66806 5.46917 7.41952 5.13767 8.21231 5.10457L13.0608 4.86055C13.823 4.81413 14.5481 4.51387 15.1217 4.00716L18.7568 0.717571C19.4103 0.231273 20.207 -0.0208818 21.0197 0.00135414C21.8324 0.02359 22.6143 0.318935 23.2406 0.840247Z" fill="#E6EFFE"/>
<path fill-rule="evenodd" clip-rule="evenodd" d="M28.6 14.6H24.7V12.8C24.7 11.8 23.9 11 22.9 11H17.8C16.8 11 16 11.8 16 12.8V14.6H12.2C11 14.6 10 15.6 10 16.8V28.9C10 30 11 31 12.2 31H28.6C29.7 31 30.7 30.1 30.7 28.9V16.8C30.7 15.6 29.7 14.6 28.6 14.6ZM17.6 12.8C17.6 12.7 17.7 12.6 17.8 12.6H22.9C23.1 12.6 23.2 12.7 23.2 12.8V14.7H17.6V12.8ZM29.2 28.9C29.2 29.2 28.9 29.5 28.5 29.5H12.2C11.9 29.5 11.6 29.2 11.6 28.9V16.8C11.6 16.4 11.9 16.2 12.2 16.2H28.6C28.9 16.2 29.2 16.4 29.2 16.8V28.9Z" fill="#33C597" stroke="#33C597" stroke-width="0.5"/>
<path d="M30.8999 13.5C32.5999 13.5 33.8999 14.8 33.8999 16.5C33.8999 18.2 32.5999 19.5 30.8999 19.5C29.1999 19.5 27.8999 18.2 27.8999 16.5C27.8999 14.8 29.1999 13.5 30.8999 13.5Z" fill="#33C597" stroke="white" stroke-width="2"/>
</svg>
