<?xml version="1.0" standalone="no"?><!-- Generator: Gravit.io --><svg xmlns="http://www.w3.org/2000/svg" xmlns:xlink="http://www.w3.org/1999/xlink" style="isolation:isolate" viewBox="0 0 308 330" width="308" height="330"><defs><clipPath id="_clipPath_XdGpyBkiOIEC9VHse3OhjpS79xyxcUoL"><rect width="308" height="330"/></clipPath></defs><g clip-path="url(#_clipPath_XdGpyBkiOIEC9VHse3OhjpS79xyxcUoL)"><g><path d=" M 28.3 274.1 L 28.3 27 C 28.3 22 30.3 17.1 33.8 13.6 C 37.4 10 42.2 8 47.3 8 L 26.2 8 C 21.2 8 16.3 10 12.8 13.5 C 9.1 17.1 7.2 21.9 7.2 27 L 7.2 274.5 C 7.2 279.5 9.2 284.4 12.7 287.9 C 16.3 291.5 21.1 293.5 26.1 293.4 L 47.2 293.4 C 36.7 293.2 28.3 284.7 28.3 274.1 Z " fill="rgb(223,227,236)"/></g><g><path d=" M 225.8 8 L 26.2 8 C 21.2 8 16.3 10 12.8 13.5 C 9.1 17.1 7.2 21.9 7.2 27 L 7.2 62.2 C 7.2 57.2 9.2 52.3 12.7 48.8 C 16.3 45.2 21.1 43.2 26.1 43.3 L 226.1 43.3 C 231.1 43.3 236 45.3 239.5 48.8 C 243.1 52.4 245.1 57.2 245 62.2 L 245 27 C 244.9 16.5 236.4 8.1 225.8 8 L 225.8 8 L 225.8 8 Z " fill="rgb(223,227,236)"/></g><g><path d=" M 26.1 298.4 C 19.8 298.4 13.5 295.8 9 291.3 C 4.5 286.8 1.9 280.5 1.9 274.1 L 1.9 27 C 1.9 20.6 4.5 14.4 9 9.8 C 13.5 5.3 19.7 2.7 26.1 2.7 C 26.1 2.7 26.2 2.7 26.2 2.7 L 226.2 2.7 C 232.6 2.7 238.8 5.3 243.4 9.8 C 247.9 14.3 250.5 20.6 250.5 27 L 250.5 209.8 C 250.5 212.7 248.1 215.1 245.2 215.1 C 242.3 215.1 239.9 212.7 239.9 209.8 L 239.9 27 C 239.9 23.4 238.5 19.8 235.9 17.3 C 233.4 14.8 229.8 13.3 226.3 13.3 C 226.3 13.3 226.3 13.3 226.2 13.3 L 26.2 13.3 C 26.2 13.3 26.2 13.3 26.1 13.3 C 22.5 13.3 19 14.8 16.4 17.3 C 13.8 19.9 12.4 23.4 12.4 27 L 12.4 274.2 C 12.4 277.8 13.8 281.4 16.4 283.9 C 18.9 286.4 22.5 287.9 26 287.9 C 26 287.9 26 287.9 26.1 287.9 L 173.4 287.9 C 176.3 287.9 178.7 290.3 178.7 293.2 C 178.7 296.1 176.3 298.5 173.4 298.5 L 26.1 298.5 C 26.1 298.4 26.1 298.4 26.1 298.4 Z " fill="rgb(106,126,156)"/></g><g><path d=" M 138.3 83.2 L 55.7 83.2 C 52.8 83.2 50.4 80.8 50.4 77.9 C 50.4 75 52.8 72.6 55.7 72.6 L 138.3 72.6 C 141.2 72.6 143.6 75 143.6 77.9 C 143.6 80.8 141.2 83.2 138.3 83.2 Z " fill="rgb(68,138,250)"/></g><g><path d=" M 138.3 242.8 L 55.7 242.8 C 52.8 242.8 50.4 240.4 50.4 237.5 C 50.4 234.6 52.8 232.2 55.7 232.2 L 138.3 232.2 C 141.2 232.2 143.6 234.6 143.6 237.5 C 143.6 240.4 141.2 242.8 138.3 242.8 Z " fill="rgb(106,126,156)"/></g><g><path d=" M 195.6 128.9 L 55.7 128.9 C 52.8 128.9 50.4 126.5 50.4 123.6 C 50.4 120.7 52.8 118.3 55.7 118.3 L 195.6 118.3 C 198.5 118.3 200.9 120.7 200.9 123.6 C 200.9 126.5 198.5 128.9 195.6 128.9 Z " fill="rgb(106,126,156)"/></g><g><path d=" M 160.5 169 L 131 169 C 128.1 169 125.7 166.6 125.7 163.7 C 125.7 160.8 128.1 158.4 131 158.4 L 160.5 158.4 C 163.4 158.4 165.8 160.8 165.8 163.7 C 165.7 166.7 163.4 169 160.5 169 Z " fill="rgb(106,126,156)"/></g><g><path d=" M 101 169 L 55.7 169 C 52.8 169 50.4 166.6 50.4 163.7 C 50.4 160.8 52.8 158.4 55.7 158.4 L 101 158.4 C 103.9 158.4 106.3 160.8 106.3 163.7 C 106.3 166.7 104 169 101 169 Z " fill="rgb(106,126,156)"/></g><g><g><g><g><g><g><path d=" M 224.6 295.1 L 220.6 295.1 C 209.1 293.2 200.3 283.2 200.3 271.1 C 200.3 267.1 201.3 263.3 203.1 259.9 L 206.1 264 C 208.3 267 212.9 266.2 213.9 262.6 L 216.3 254.1 L 219.6 242.3 C 220.4 239.5 218.3 236.7 215.3 236.7 L 203.8 236.7 L 195.1 236.7 C 191.5 236.7 189.4 240.8 191.5 243.7 L 197 251.3 C 193 256.9 190.7 263.7 190.7 271 C 190.7 288 203.2 302.1 219.4 304.6 C 219.8 304.7 220.3 304.7 220.7 304.6 L 220.7 304.7 L 224.7 304.7 C 227.3 304.7 229.5 302.6 229.5 299.9 L 229.5 299.8 C 229.4 297.3 227.2 295.1 224.6 295.1 Z  M 261.9 290.2 C 265.9 284.6 268.2 277.8 268.2 270.5 C 268.2 253.5 255.7 239.4 239.5 236.9 C 239.1 236.8 238.6 236.8 238.2 236.9 L 238.2 236.8 L 234.2 236.8 C 231.6 236.8 229.4 238.9 229.4 241.6 L 229.4 241.7 C 229.4 244.3 231.5 246.5 234.2 246.5 L 238.2 246.5 C 249.7 248.4 258.5 258.4 258.5 270.5 C 258.5 274.5 257.5 278.3 255.7 281.7 L 252.7 277.6 C 250.5 274.6 245.9 275.4 244.9 279 L 242.5 287.5 L 239.2 299.3 C 238.4 302.1 240.5 304.9 243.5 304.9 L 255 304.9 L 263.7 304.9 C 267.3 304.9 269.4 300.8 267.3 297.9 L 261.9 290.2 L 261.9 290.2 Z " fill="rgb(106,126,156)"/></g></g></g></g></g></g><g><path d=" M 202.042 48.083 C 189.61 48.083 179.483 58.21 179.483 70.642 C 179.483 83.074 189.61 93.2 202.042 93.2 C 212.259 93.2 220.92 86.36 223.68 77.021 C 224.279 74.997 224.6 72.856 224.6 70.642 C 224.6 58.21 214.474 48.083 202.042 48.083 Z  M 202.042 88.688 C 192.048 88.688 183.995 80.635 183.995 70.642 C 183.995 60.648 192.048 52.595 202.042 52.595 C 212.035 52.595 220.088 60.648 220.088 70.642 C 220.088 80.635 212.035 88.688 202.042 88.688 Z " fill="rgb(106,126,156)"/><path d=" M 202.042 55.697 C 197.929 55.697 194.985 59.002 195.274 63.028 C 195.342 63.976 195.682 65.862 195.98 66.764 C 196.759 69.146 199.332 70.642 202.042 70.642 C 204.787 70.642 207.422 69.119 208.175 66.694 C 208.45 65.805 208.751 63.955 208.809 63.028 C 208.981 60.357 207.799 57.693 204.437 57.037 L 203.734 55.697 L 202.042 55.697 Z  M 201.902 75.153 C 195.143 75.153 191.392 78.424 189.635 80.653 C 192.533 84.195 196.977 86.432 201.902 86.432 C 206.826 86.432 211.198 84.195 214.097 80.651 C 212.34 78.424 208.66 75.153 201.902 75.153 Z " fill="rgb(106,126,156)"/></g></g></svg>