<svg width="529.4" height="375.4" xmlns="http://www.w3.org/2000/svg">
 <!-- Created with Method Draw - http://github.com/duopixel/Method-Draw/ -->

 <g>
  <title>background</title>
  <rect fill="none" id="canvas_background" height="377.4" width="531.4" y="-1" x="-1"/>
 </g>
 <g>
  <title>Layer 1</title>
  <style transform="matrix(0.06599982142788363,0,0,0.06599982142788363,0,0) ">.st1{stroke-dasharray:4,4}.st1,.st2,.st3,.st4{fill:none;stroke:#77819c;stroke-linecap:round;stroke-linejoin:round;stroke-miterlimit:10}.st3,.st4{fill:#fff}.st4{fill:#66dab5}.st9{fill:#fff}</style>
  <g stroke="null" id="svg_42">
   <path stroke="null" id="svg_10" fill="#f5f7ff" d="m33.857599,248.713592c2.949561,3.307084 5.988503,6.435406 9.116825,9.384967c18.591173,17.161083 29.674373,41.115095 32.266412,66.677958c3.217703,30.925702 17.161083,60.510694 41.919521,82.766474c50.500062,45.405366 129.780691,43.349611 180.995799,-4.737174l1.072568,-1.072568c25.473483,-24.400915 53.717765,-45.852269 84.911609,-62.030165c15.28409,-7.865496 29.406231,-18.769935 41.472618,-32.713315c45.405366,-52.198295 45.226605,-130.048833 -0.446903,-179.029425c-29.763754,-31.819508 -71.504513,-44.958463 -111.904563,-39.774385c-30.300037,3.843368 -60.510694,-5.273458 -81.693906,-26.45667l-1.876993,-1.876993c-53.807146,-51.483249 -141.400175,-46.835456 -193.062185,11.261961c-45.315985,51.125727 -46.567314,127.993078 -2.7708,177.599334z"/>
   <path stroke="null" id="svg_11" d="m252.181041,368.905489c-69.806426,-16.580919 -121.669118,-79.194709 -121.669118,-153.998124c0,-87.371601 70.866394,-158.237994 158.389418,-158.237994c32.934702,0 63.446622,10.069691 88.810128,27.180593m67.459355,105.542471c1.362815,8.328315 2.044223,16.808055 2.044223,25.51493c0,87.371601 -70.866394,158.237994 -158.389418,158.237994" class="st1"/>
   <path stroke="null" id="svg_12" d="m250.408177,344.094423s1.968511,29.527664 17.640886,30.587631c14.915256,1.059967 19.382261,-15.293816 20.896501,-22.865012c3.785598,-19.003702 10.82681,-76.620502 10.82681,-76.620502" class="st2"/>
   <path stroke="null" id="svg_13" d="m226.710334,272.016638c-1.438527,-0.37856 -2.801342,-0.75712 -4.23987,-1.135679c-1.362815,-0.37856 -2.801342,-0.832832 -4.012734,-1.665663c-4.921277,-3.331326 -5.072701,-7.192636 -5.754109,-12.492473c-0.75712,-5.451261 -1.135679,-11.053946 -1.135679,-16.580919c0,-1.968511 0,-3.937022 0.151424,-5.905533c-4.996989,1.892799 -8.10118,5.754109 -13.552441,5.905533l-8.782587,0l-8.782587,0c-5.451261,-0.151424 -8.479739,-4.012734 -13.552441,-5.905533c0.075712,1.968511 0.151424,3.937022 0.151424,5.905533c0,5.526973 -0.454272,11.053946 -1.135679,16.580919c-0.681408,5.224125 -0.832832,9.085435 -5.754109,12.492473c-1.211391,0.832832 -2.574207,1.287103 -4.012734,1.665663c-1.438527,0.37856 -2.801342,0.75712 -4.23987,1.135679" class="st3"/>
   <path stroke="null" id="svg_14" d="m128.209075,322.667939l0,73.213464l122.274814,0l0,-54.209763l8.10118,0l12.568185,-54.436898c-14.763832,-17.338039 -46.335719,-20.972213 -46.335719,-20.972213c-1.438527,-0.37856 -2.801342,-0.75712 -4.23987,-1.135679c-0.605696,-0.151424 -1.211391,-4.164158 -1.817087,-4.391294c-7.874044,6.889788 -29.451952,22.486452 -29.451952,22.486452s-21.577908,-15.672375 -29.451952,-22.486452c-0.605696,0.227136 -1.211391,4.23987 -1.817087,4.391294c-1.438527,0.37856 -2.801342,0.908544 -4.23987,1.135679c-33.010414,4.921277 -43.6858,18.54943 -43.6858,18.54943s-19.230838,19.30655 -19.230838,71.093529l37.09886,0" class="st4"/>
   <path stroke="null" id="svg_15" d="m232.237307,203.194467c-0.151424,-0.37856 -0.302848,-0.681408 -0.529984,-0.908544c-0.37856,-0.37856 -0.984255,-0.454272 -1.589951,-0.529984c-1.211391,-0.075712 -2.498495,0 -3.709886,0.302848l0.832832,-8.252604c3.331326,-23.016435 -16.883767,-38.310251 -37.931691,-38.385963c-21.047925,0 -41.263018,15.369528 -37.931691,38.385963l0.832832,8.252604c-1.135679,-0.227136 -2.347071,-0.302848 -3.558462,-0.227136c-0.605696,0.075712 -1.211391,0.151424 -1.589951,0.529984c-0.227136,0.227136 -0.37856,0.605696 -0.529984,0.908544c-0.75712,1.968511 -0.908544,4.164158 -0.529984,6.284093c2.044223,3.028478 4.391294,5.981245 5.829821,9.312571c0.37856,0.984255 1.211391,2.877054 2.498495,2.952766l0.75712,7.646908c0.454272,2.877054 1.589951,5.602685 3.331326,7.949756l16.959479,16.959479c0.302848,0.302848 0.529984,0.605696 0.832832,0.908544c2.271359,2.649919 5.602685,4.164158 9.161147,4.164158l7.72262,0c3.558462,0 6.889788,-1.514239 9.161147,-4.164158c0.302848,-0.302848 0.529984,-0.605696 0.832832,-0.908544l16.959479,-16.959479c1.817087,-2.271359 2.952766,-4.996989 3.331326,-7.949756l0.75712,-7.646908l0.151424,0c1.211391,-0.151424 2.044223,-2.044223 2.498495,-2.952766c1.362815,-3.331326 3.785598,-6.284093 5.829821,-9.312571c0.529984,-2.195647 0.37856,-4.391294 -0.37856,-6.359805z" class="st3"/>
   <path stroke="null" id="svg_16" d="m227.391741,165.03564c-2.498495,-7.646908 -6.738364,-15.975223 -14.158136,-18.398006c-1.438527,-0.454272 -3.028478,-0.302848 -4.467006,-0.227136c-4.012734,0.37856 -8.252604,0.454272 -12.038201,-0.984255c-3.028478,-1.135679 -5.678397,-3.255614 -8.631163,-4.618429c-5.148413,-2.422783 -11.356794,-2.574207 -16.656631,-0.302848c-7.192636,3.028478 -11.20537,9.236859 -11.886778,16.808055c-5.375549,0.075712 -8.404027,5.829821 -9.993979,10.221114c-4.769853,13.628153 1.589951,34.297517 1.589951,34.297517l4.769853,2.271359c-0.227136,-3.407038 1.059967,-15.520952 2.271359,-19.155126c4.467006,-13.855288 20.139381,-21.27506 33.388974,-14.30956c5.678397,2.952766 20.972213,18.54943 26.27205,7.041212c0.227136,-0.151424 4.164158,8.176892 4.391294,8.858299c1.892799,5.602685 2.725631,11.659642 2.347071,17.489463l4.012734,-2.271359c0.832832,-0.454272 1.362815,-5.375549 1.514239,-6.511228c0.454272,-2.649919 0.681408,-5.375549 0.75712,-8.10118c0.151424,-5.224125 -0.454272,-10.523962 -1.665663,-15.596664c-0.529984,-1.968511 -1.059967,-4.164158 -1.817087,-6.511228z" class="st3"/>
   <path stroke="null" id="svg_17" d="m269.184743,292.837427l7.798332,-22.183604s1.665663,-8.025468 -0.605696,-15.44524c-2.347071,-7.419772 -2.725631,-16.278071 1.892799,-21.350772l2.119935,-27.029169s0.227136,-6.9655 5.072701,-6.9655s4.467006,6.9655 4.467006,6.9655l-1.892799,21.350772m11.886778,40.884458l13.931,-23.470707s5.526973,-8.934011 1.817087,-12.416761c-3.179902,-2.952766 -7.874044,11.735354 -15.44524,12.946745m-12.265337,-1.362815s6.814076,7.874044 3.48275,19.382261" class="st2"/>
   <path stroke="null" id="svg_18" d="m312.491983,234.236371s4.921277,-6.284093 1.514239,-8.479739c-2.574207,-1.741375 -6.435517,2.271359 -9.539707,6.738364c-3.10419,4.391294 -5.981245,8.782587 -9.842555,9.766843" class="st2"/>
   <path stroke="null" id="svg_19" d="m308.554961,227.498006s2.801342,-6.435517 -1.741375,-6.738364c-4.542718,-0.302848 -4.694141,11.356794 -23.394995,22.41074m12.568185,-19.30655s0.832832,-5.754109 -2.498495,-6.284093c-3.331326,-0.454272 -4.769853,2.498495 -4.769853,2.498495" class="st2"/>
   <path stroke="null" id="svg_20" d="m299.923798,228.103702s2.119935,-6.662652 -3.709886,-4.088446c-5.072701,2.271359 -17.489463,9.236859 -17.489463,9.236859" class="st2"/>
   <path stroke="null" id="svg_21" d="m202.785355,230.223637c0,6.814076 -5.526973,12.341049 -12.416761,12.341049c-6.814076,0 -12.416761,-5.526973 -12.416761,-12.341049l24.833523,0z" class="st3"/>
   <path stroke="null" id="svg_22" d="m94.441541,356.73832l0,39.597354" class="st2"/>
   <path stroke="null" id="svg_23" d="m250.483889,322.819362l0,19.230838" class="st4"/>
   <path stroke="null" id="svg_24" d="m252.906671,156.707325c0,4.164158 3.407038,7.571196 7.571196,7.571196l214.794827,0c4.164158,0 7.571196,-3.407038 7.571196,-7.571196l0,-69.882138c0,-4.164158 -3.407038,-7.571196 -7.571196,-7.571196l-214.794827,0c-4.164158,0 -7.571196,3.407038 -7.571196,7.571196l0,59.358176" class="st3"/>
   <path stroke="null" id="svg_25" d="m272.516069,96.970589l40.884458,0l0,40.58161l-40.884458,0l0,-40.58161z" fill="#448afa"/>
   <path stroke="null" id="svg_26" d="m326.952967,96.970589l136.281526,0m-136.281526,22.940724l83.510291,0m-83.510291,-11.508218l87.295889,0m9.085435,0l30.966191,0" class="st3"/>
   <g transform="matrix(0.7571195887720085,0,0,0.7571195887720085,-2535.1720363559975,-1855.350419498531) " stroke="null" id="svg_27">
    <path stroke="null" id="svg_28" d="m3780.281282,2624.016341l80.5,0m12,0l75.7,0" class="st3"/>
   </g>
   <path stroke="#77819c" id="svg_29" stroke-miterlimit="10" stroke-linejoin="round" stroke-linecap="round" fill="#ffb415" d="m405.769116,178.133809l-75.863383,0c-2.119935,0 -3.785598,-1.741375 -3.785598,-3.785598l0,-17.110903c0,-2.119935 1.741375,-3.785598 3.785598,-3.785598l75.863383,0c2.119935,0 3.785598,1.741375 3.785598,3.785598l0,17.110903c0,2.119935 -1.665663,3.785598 -3.785598,3.785598z"/>
   <g transform="matrix(0.7571195887720085,0,0,0.7571195887720085,-2535.1720363559975,-1855.350419498531) " stroke="null" id="svg_30">
    <path stroke="#6a7e9c" id="svg_31" stroke-miterlimit="10" stroke-linejoin="round" stroke-linecap="round" fill="#b6c2d6" d="m3880.681282,2894.416341c-11.2,11.2 -29.5,11.2 -40.7,0c-11.2,-11.2 -11.2,-29.5 0,-40.7s29.5,-11.2 40.7,0s11.2,29.5 0,40.7z"/>
    <g stroke="null" id="svg_6">
     <path stroke="null" id="svg_8" d="m3869.881282,2864.516341c1,1 1,2.7 0,3.8l-15.4,15.4c-1,1 -2.7,1 -3.8,0s-1,-2.7 0,-3.8l15.4,-15.4c1.1,-1.1 2.8,-1.1 3.8,0z" class="st9"/>
     <path stroke="null" id="svg_7" d="m3869.881282,2864.516341c0.5,0.5 0.8,1.2 0.8,1.9l0,11.6c0,1.5 -1.2,2.7 -2.7,2.7c-1.5,0 -2.7,-1.2 -2.7,-2.7l0,-8.9l-8.9,0c-1.5,0 -2.7,-1.2 -2.7,-2.7c0,-1.5 1.2,-2.7 2.7,-2.7l11.6,0c0.8,0 1.4,0.3 1.9,0.8z" class="st9"/>
    </g>
   </g>
   <g transform="matrix(0.7571195887720085,0,0,0.7571195887720085,-2535.1720363559975,-1855.350419498531) " stroke="null" id="svg_32">
    <path stroke="null" id="svg_33" d="m3527.081282,2589.916341l0,5.4c0,1 -0.9,1.9 -1.9,1.9l-49.8,0c-1,0 -1.9,-0.9 -1.9,-1.9l0,-33.4c0,-1 0.9,-1.9 1.9,-1.9l49.8,0c1,0 1.9,0.9 1.9,1.9l0,22.1" class="st2"/>
    <path stroke="null" id="svg_34" d="m3526.281282,2560.316341l-26.1,24.7l-25.9,-24.7" class="st4"/>
    <g stroke="null" id="svg_35">
     <path stroke="null" id="svg_36" d="m3489.181282,2535.816341l0,23.1m11.9,-29.4l0,11.2m0,6.3l0,11.2m10.9,-13.4l0,14.1" class="st2"/>
    </g>
   </g>
   <g transform="matrix(0.7571195887720085,0,0,0.7571195887720085,-2535.1720363559975,-1855.350419498531) " stroke="null" id="svg_37">
    <path stroke="null" id="svg_38" d="m3471.181282,2691.716341l12.2,0m-15.2,-20.6l15.2,8m0,25.1l-15.2,8" class="st2"/>
   </g>
   <path stroke="#ffb415" id="svg_39" d="m116.776569,25.801348l8.176892,-7.268348l1.817087,10.902522l-9.993979,-3.634174z" stroke-miterlimit="10" stroke-width="3" fill="none"/>
   <path stroke="#448afa" id="svg_40" d="m432.57115,363.249549l-8.252604,-2.119935l2.119935,-8.176892l8.252604,2.044223l-2.119935,8.252604z" stroke-miterlimit="10" stroke-width="3" fill="none"/>
   <circle transform="matrix(0.7571195887720085,0,0,0.7571195887720085,-2535.1720363559975,-1855.350419498531) " stroke="#66dab5" id="svg_41" stroke-miterlimit="10" stroke-width="3" fill="none" r="6.3" cy="2762.616427" cx="3846.881274"/>
  </g>
 </g>
</svg>