<svg xmlns="http://www.w3.org/2000/svg" viewBox="-19934.5 -17539.5 81.4 92.6">
  <defs>
    <style>
      .cls-1 {
        fill: #dfe3ec;
      }

      .cls-2 {
        fill: none;
        stroke: #6a7e9c;
      }

      .cls-2, .cls-4 {
        stroke-linecap: round;
        stroke-width: 3px;
      }

      .cls-2, .cls-3, .cls-4 {
        stroke-miterlimit: 10;
      }

      .cls-3 {
        fill: #448afa;
      }

      .cls-3, .cls-4 {
        stroke: #448afa;
      }

      .cls-4 {
        fill: #fff;
        stroke-linejoin: round;
      }
    </style>
  </defs>
  <g id="Group_829" data-name="Group 829" transform="translate(-19934.5 -17539.5)">
    <path id="Path_555" data-name="Path 555" class="cls-1" d="M7.5,77.2V6.9a5.378,5.378,0,0,1,5.4-5.4h-6A5.378,5.378,0,0,0,1.5,6.9V77.3a5.378,5.378,0,0,0,5.4,5.4h6A5.529,5.529,0,0,1,7.5,77.2Z"/>
    <path id="Path_556" data-name="Path 556" class="cls-1" d="M63.7,1.5H6.9A5.378,5.378,0,0,0,1.5,6.9v10a5.378,5.378,0,0,1,5.4-5.4H63.8a5.378,5.378,0,0,1,5.4,5.4V6.9A5.529,5.529,0,0,0,63.7,1.5Z"/>
    <g id="Group_828" data-name="Group 828">
      <path id="XMLID_2_" class="cls-2" d="M79.9,80.6v8.2a2.263,2.263,0,0,1-2.3,2.3H60.5a2.263,2.263,0,0,1-2.3-2.3v-18a2.263,2.263,0,0,1,2.3-2.3h7.3"/>
      <path id="XMLID_1_" class="cls-3" d="M67.5,81.7l3-1,9.2-10.1a.828.828,0,0,0,0-1.1l-.9-.9a.885.885,0,0,0-1.1.1c-.5.5-9,9.9-9,9.9Z"/>
    </g>
    <path id="Path_557" data-name="Path 557" class="cls-2" d="M48.8,82.6H6.9a5.378,5.378,0,0,1-5.4-5.4V6.9A5.378,5.378,0,0,1,6.9,1.5H63.8a5.378,5.378,0,0,1,5.4,5.4v52"/>
    <line id="Line_408" data-name="Line 408" class="cls-4" x2="23.5" transform="translate(15.3 21.4)"/>
    <line id="Line_409" data-name="Line 409" class="cls-2" x2="23.5" transform="translate(15.3 66.8)"/>
    <line id="Line_410" data-name="Line 410" class="cls-2" x2="39.8" transform="translate(15.3 34.4)"/>
    <line id="Line_411" data-name="Line 411" class="cls-2" x2="8.4" transform="translate(36.7 45.8)"/>
    <line id="Line_412" data-name="Line 412" class="cls-2" x2="12.9" transform="translate(15.3 45.8)"/>
  </g>
</svg>
