<?xml version="1.0" ?><!DOCTYPE svg  PUBLIC '-//W3C//DTD SVG 1.1//EN'  'http://www.w3.org/Graphics/SVG/1.1/DTD/svg11.dtd'><svg fill="#9eabc0" enable-background="new 0 0 64 64"  id="Layer_1" version="1.1" viewBox="0 0 64 64"  xml:space="preserve" xmlns="http://www.w3.org/2000/svg" xmlns:xlink="http://www.w3.org/1999/xlink"><g><path d="   M57,28.6c-1.9-5.2-7.6-7.9-12.8-6c-0.9,0.3-23.6,0.3-24.3,0c-5.2-1.9-10.9,0.8-12.8,6c-1.9,5.2-2.6,20.3,2.6,22.2   c4.4,1.6,11.7-6.9,14.9-12.6c5,0.5,10,0.5,15,0.1C42.8,44,50,52.4,54.4,50.8C59.6,48.9,58.9,33.8,57,28.6z" fill="none" stroke="#4D4D4D" stroke-linecap="round" stroke-linejoin="round" stroke-miterlimit="10" stroke-width="2"/><circle cx="16.6" cy="31.8" fill="none" r="6.8" stroke="#4D4D4D" stroke-linecap="round" stroke-linejoin="round" stroke-miterlimit="10" stroke-width="2"/><circle cx="47.6" cy="31.8" fill="none" r="6.8" stroke="#4D4D4D" stroke-linecap="round" stroke-linejoin="round" stroke-miterlimit="10" stroke-width="2"/><line fill="none" stroke="#4D4D4D" stroke-linecap="round" stroke-linejoin="round" stroke-miterlimit="10" stroke-width="2" x1="34" x2="36" y1="35.2" y2="35.2"/><line fill="none" stroke="#4D4D4D" stroke-linecap="round" stroke-linejoin="round" stroke-miterlimit="10" stroke-width="2" x1="28" x2="30" y1="35.2" y2="35.2"/><path d="   M31.4,22.2V15c0-1.1,0.9-2,2-2h1.4c1.1,0,2,0.9,2,2" fill="none" stroke="#4D4D4D" stroke-linecap="round" stroke-linejoin="round" stroke-miterlimit="10" stroke-width="2"/></g></svg>