<?xml version="1.0" encoding="utf-8"?>
<!-- Generator: Adobe Illustrator 16.0.0, SVG Export Plug-In . SVG Version: 6.00 Build 0)  -->
<!DOCTYPE svg PUBLIC "-//W3C//DTD SVG 1.1//EN" "http://www.w3.org/Graphics/SVG/1.1/DTD/svg11.dtd" [
	<!ENTITY ns_extend "http://ns.adobe.com/Extensibility/1.0/">
	<!ENTITY ns_ai "http://ns.adobe.com/AdobeIllustrator/10.0/">
	<!ENTITY ns_graphs "http://ns.adobe.com/Graphs/1.0/">
	<!ENTITY ns_vars "http://ns.adobe.com/Variables/1.0/">
	<!ENTITY ns_imrep "http://ns.adobe.com/ImageReplacement/1.0/">
	<!ENTITY ns_sfw "http://ns.adobe.com/SaveForWeb/1.0/">
	<!ENTITY ns_custom "http://ns.adobe.com/GenericCustomNamespace/1.0/">
	<!ENTITY ns_adobe_xpath "http://ns.adobe.com/XPath/1.0/">
]>
<svg version="1.1" id="Layer_1" xmlns:x="&ns_extend;" xmlns:i="&ns_ai;" xmlns:graph="&ns_graphs;"
	 xmlns="http://www.w3.org/2000/svg" xmlns:xlink="http://www.w3.org/1999/xlink" x="0px" y="0px" width="512px" height="512px"
	 viewBox="0 0 512 512" enable-background="new 0 0 512 512" xml:space="preserve">
<metadata>
	<sfw  xmlns="&ns_sfw;">
		<slices></slices>
		<sliceSourceBounds  height="512" width="400.666" y="144.5" x="439.166" bottomLeftOrigin="true"></sliceSourceBounds>
	</sfw>
</metadata>
<g>
	<g>
		<g>
			<path fill="#B1BCCF" d="M226.932,399.948c-19.96,18.444-47.567,22.576-72.053,10.786c-8.852-4.264-16.322-10.149-22.17-17.199
				l-33.341,73.744c-1.517,3.354,0.177,5.884,0.975,6.814c0.798,0.931,3.039,2.989,6.585,2.003l24.272-6.756
				c2.766-0.769,5.562-1.14,8.319-1.14c11.631,0,22.578,6.583,27.849,17.492l10.962,22.685c1.601,3.315,4.604,3.646,5.854,3.621
				c1.226-0.016,4.242-0.414,5.758-3.77l53.033-117.304C237.148,392.603,231.63,395.606,226.932,399.948z"/>
		</g>
	</g>
	<g>
		<g>
			<path fill="#B1BCCF" d="M412.631,467.279l-33.341-73.744c-5.849,7.051-13.317,12.937-22.17,17.199
				c-24.487,11.79-52.093,7.658-72.054-10.786c-4.697-4.343-10.215-7.346-16.045-9.022l53.033,117.305
				c1.518,3.355,4.533,3.753,5.758,3.769c1.25,0.025,4.254-0.306,5.854-3.621l10.962-22.685c5.27-10.909,16.218-17.492,27.85-17.492
				c2.756,0,5.554,0.371,8.318,1.14l24.272,6.756c3.546,0.987,5.788-1.071,6.585-2.003
				C412.454,473.162,414.148,470.633,412.631,467.279z"/>
		</g>
	</g>
	<g>
		<g>
			<path fill="#B1BCCF" d="M438.821,207.791c-27.69-18.96-36.282-56.605-19.561-85.702c10.052-17.491,4.82-34.775-3.427-45.118
				c-8.248-10.34-23.936-19.285-43.223-13.38c-32.084,9.827-66.877-6.925-79.201-38.141C286.002,6.686,269.227,0,256,0
				c-13.227,0-30.002,6.686-37.41,25.451c-12.324,31.217-47.114,47.967-79.201,38.141c-19.289-5.904-34.974,3.039-43.223,13.38
				c-8.247,10.343-13.478,27.625-3.427,45.118c16.722,29.096,8.13,66.742-19.56,85.702c-16.646,11.399-19.431,29.24-16.489,42.136
				c2.942,12.896,13.194,27.762,33.137,30.809c33.174,5.068,57.248,35.256,54.809,68.727c-1.468,20.121,10.745,33.423,22.662,39.163
				c11.918,5.739,29.932,6.995,44.748-6.698c12.322-11.387,28.141-17.083,43.953-17.083c15.817,0,31.628,5.693,43.952,17.083
				c14.818,13.694,32.833,12.438,44.75,6.698c11.917-5.739,24.129-19.041,22.662-39.162c-2.439-33.471,21.635-63.659,54.809-68.728
				c19.943-3.047,30.193-17.913,33.137-30.809C458.252,237.03,455.465,219.189,438.821,207.791z M256,335.923
				c-72.575,0-131.619-59.044-131.619-131.619c0-72.575,59.043-131.62,131.619-131.62s131.619,59.044,131.619,131.619
				C387.618,276.878,328.575,335.923,256,335.923z"/>
		</g>
	</g>
</g>
<g>
	<g>
		<path fill="#B1BCCF" d="M255.999,97.347c-59.044,0-107.079,48.036-107.079,107.079c0,59.027,48.034,107.062,107.079,107.062
			s107.079-48.035,107.079-107.062C363.078,145.383,315.043,97.347,255.999,97.347z"/>
	</g>
</g>
<polygon fill="#FFFFFF" points="297.126,262.816 257.512,243.443 219.04,265.02 225.273,221.335 192.836,191.471 236.291,183.896 
	254.686,143.811 275.344,182.808 319.162,187.883 288.409,219.596 "/>
</svg>
