<svg xmlns="http://www.w3.org/2000/svg" viewBox="-1627 -907 29 24.009">
  <defs>
    <style>
      .cls-1 {
        fill: none;
        stroke: #93a2bb;
        stroke-linecap: round;
        stroke-linejoin: round;
        stroke-width: 2px;
      }
    </style>
  </defs>
  <g id="Group_1240" data-name="Group 1240" transform="translate(-2116 -3481)">
    <g id="Group_1155" data-name="Group 1155" transform="translate(489 2574)">
      <path id="Path_675" data-name="Path 675" class="cls-1" d="M21.6,1s-2.3,1.8-1.7,2.7a45.711,45.711,0,0,0,5.9,5.8c.7.1,2.2-1.7,2.2-1.7"/>
      <path id="Path_676" data-name="Path 676" class="cls-1" d="M20.4,4.5S19.3,6,18.3,5.9c-1.1-.2-1.8-.6-3.2.5S11,10.1,11,10.1a1.537,1.537,0,0,0,0,2.3c1.2,1.2,3.3-1.2,4.4-2s2.3-.3,3.5.8,4.2,4.6,4.2,4.6.6,1.1,0,1.8a1.949,1.949,0,0,1-1.705.48A1.107,1.107,0,0,1,21.1,19.7a1.589,1.589,0,0,1-1.581.236S20.1,21.2,19.1,21.7a2.443,2.443,0,0,1-2.1-.2S16.8,23,15.7,23s-1.2.2-2.3-.9-6.8-7-6.8-7a5.615,5.615,0,0,1-1.2-2.7c0-1.2,0-2.3-1.1-2.6"/>
      <path id="Path_677" data-name="Path 677" class="cls-1" d="M1,8.4l2.3,2L9.5,4.3,7.8,2.1"/>
      <path id="Path_678" data-name="Path 678" class="cls-1" d="M24.8,8.7A3.6,3.6,0,0,0,23.6,11c-.1,1.4-.2,3.2-1.1,3.8"/>
      <path id="Path_679" data-name="Path 679" class="cls-1" d="M8.9,4.9A2.982,2.982,0,0,0,11.2,6c1.5,0,2.6,0,3.3.8"/>
    </g>
    <path id="Path_680" data-name="Path 680" class="cls-1" d="M-4932.933-2934.494l-4.058-4.146" transform="translate(5439 5530)"/>
    <path id="Path_681" data-name="Path 681" class="cls-1" d="M-4930.683-2936.064l-4.1-4.491" transform="translate(5439 5530)"/>
    <path id="Path_682" data-name="Path 682" class="cls-1" d="M-4928.567-2937.822l-4.18-4.474" transform="translate(5439 5530)"/>
  </g>
</svg>
