<?xml version="1.0" encoding="utf-8"?>
<!-- Generator: Adobe Illustrator 16.0.0, SVG Export Plug-In . SVG Version: 6.00 Build 0)  -->
<!DOCTYPE svg PUBLIC "-//W3C//DTD SVG 1.1//EN" "http://www.w3.org/Graphics/SVG/1.1/DTD/svg11.dtd">
<svg version="1.1" id="Layer_1" xmlns="http://www.w3.org/2000/svg" xmlns:xlink="http://www.w3.org/1999/xlink" x="0px" y="0px"
	 width="1032.073px" height="652.077px" viewBox="-43 31 1032.073 652.077" enable-background="new -43 31 1032.073 652.077"
	 xml:space="preserve">
<g id="reference-icon" transform="translate(-1034.001 -2278)">
	<path id="Path_520" d="M682.938,15.977l69.647,62.688c10.749,10.028,24.778,15.806,39.472,16.256l92.863,4.648
		c31.502,1.295,56.744,26.537,58.039,58.039l4.648,92.862c0.884,14.598,6.604,28.485,16.256,39.472l62.688,69.647
		c20.911,23.931,20.911,59.635,0,83.566l-64.999,67.31c-10.028,10.749-15.806,24.778-16.256,39.472l-4.648,92.863
		c-1.348,31.472-26.59,56.659-58.064,57.938l-92.863,4.648c-14.597,0.885-28.485,6.604-39.472,16.256l-69.647,62.687
		c-23.931,20.911-59.635,20.911-83.566,0l-69.647-62.687c-10.749-10.029-24.778-15.806-39.472-16.256l-92.812-4.648
		c-31.502-1.295-56.744-26.537-58.04-58.039l-4.648-92.837c-0.884-14.598-6.604-28.485-16.256-39.472l-62.662-69.622
		c-20.911-23.931-20.911-59.635,0-83.566l62.688-69.647c10.028-10.749,15.806-24.778,16.256-39.472l4.648-92.863
		c1.308-31.482,26.531-56.706,58.014-58.014l92.862-4.648c14.598-0.884,28.485-6.604,39.472-16.256L597.06,13.64
		C622.817-5.422,658.255-4.458,682.938,15.977z"/>
	<g id="Group_850" transform="translate(8.019 8.159)">
		<path id="Path_521" d="M565.8,490.647h53.34l-34.823-34.824c2.311-2.312,6.959-4.648,9.296-9.296l20.929-13.919h2.312
			c4.648,4.648,11.608,9.296,16.256,13.919c9.677,6.966,20.768,11.718,32.487,13.919c28.841,5.098,58.478-2.524,81.28-20.904
			c2.312-2.312,6.959-4.648,9.296-6.959l0,0c30.339,16.686,53.476,43.955,64.999,76.606c4.737,17.38,7.079,35.326,6.96,53.34v6.959
			H614.542c-6.959-4.648-16.256-11.608-23.215-16.256c-12.334-10.194-21.244-23.927-25.527-39.345
			C568.14,506.318,568.14,498.218,565.8,490.647z"/>
		<path id="Path_522" d="M770.093,346.705c1.408,46.074-34.801,84.567-80.875,85.976c-2.446,0.075-4.896,0.042-7.339-0.098
			c-46.676-0.903-83.937-39.194-83.566-85.877c0.722-47.127,38.751-85.156,85.877-85.878c47.303-0.14,85.763,38.092,85.903,85.395
			C770.093,346.383,770.093,346.544,770.093,346.705z"/>
		<path id="Path_523" d="M486.882,267.787c0.475-32.727,23.642-60.722,55.703-67.311c23.127-4.685,47.001,3.276,62.687,20.904
			c6.833,7.116,11.639,15.93,13.919,25.527v2.312c0,2.312,0,4.648-2.312,4.648c-25.47,12.424-42.937,36.876-46.431,64.999
			c0.61,4.021-0.208,8.128-2.312,11.608c0.014,1.262-0.998,2.297-2.26,2.311c-0.017,0-0.034,0-0.051,0
			c-6.919,1.162-13.984,1.162-20.904,0c-27.889-3.739-50.788-23.892-58.04-51.08C486.882,277.067,486.882,272.427,486.882,267.787z"
			/>
		<path id="Path_524" d="M570.448,562.606c-5.954-2.372-12.199-3.935-18.567-4.648c-15.879-4.801-30.264-13.589-41.783-25.527
			c-13.638-13.354-23.309-30.226-27.94-48.743c0-2.312-2.312-6.96-2.312-9.296c0-2.337,0-2.312-2.312-2.312H447.41
			c18.567-18.567,39.472-37.135,58.039-55.702c18.568,18.567,39.472,37.135,58.04,55.702h-32.512v9.296
			c-0.265,14.469,2.921,28.792,9.296,41.783c5.765,15.944,16.301,29.727,30.175,39.472V562.606z"/>
		<path id="Path_525" d="M491.53,332.786c19.013,20.162,47.159,28.959,74.27,23.216v2.311c2.658,7.475,4.224,15.294,4.648,23.216
			v4.598c-6.596,4.071-12.81,8.73-18.567,13.919c-4.042,4.535-8.732,8.447-13.919,11.608l0,0l-32.487-32.487
			c-1.262-0.014-2.297,0.998-2.311,2.261c0,0.017,0,0.034,0,0.051L463.667,421l-2.312,2.312h-23.216
			c-4.648,0-4.648-2.312-4.648-4.648c3.657-20.429,12.441-39.594,25.527-55.702C466.831,350.069,478.092,339.616,491.53,332.786z"/>
	</g>
</g>
<path id="svg_18" fill="#C7D9CF" d="M494.439,79.575l48.956,44.06c7.556,7.053,17.416,11.112,27.745,11.43l65.275,3.266
	c22.144,0.909,39.886,18.651,40.796,40.794l3.268,65.275c0.621,10.261,4.643,20.023,11.428,27.748l44.064,48.952
	c14.699,16.821,14.699,41.923,0,58.744l-45.689,47.314c-7.047,7.551-11.109,17.418-11.426,27.742l-3.268,65.276
	c-0.947,22.119-18.691,39.826-40.815,40.724l-65.275,3.271c-10.261,0.626-20.023,4.645-27.745,11.425l-48.956,44.065
	c-16.821,14.696-41.92,14.696-58.741,0l-48.956-44.065c-7.557-7.047-17.416-11.112-27.745-11.425l-65.241-3.271
	c-22.143-0.909-39.886-18.651-40.798-40.794l-3.266-65.258c-0.621-10.261-4.643-20.018-11.428-27.742l-44.048-48.941
	c-14.698-16.821-14.698-41.917,0-58.738l44.065-48.958c7.048-7.557,11.11-17.418,11.427-27.742l3.268-65.275
	c0.919-22.131,18.649-39.861,40.779-40.782l65.276-3.266c10.261-0.625,20.023-4.644,27.745-11.425l48.938-44.048
	C452.179,64.532,477.089,65.209,494.439,79.575z"/>
<g>
	<path fill="#79839E" d="M647.363,262.601v106.007c0,0-22.688,4.47-27.363,5.057c-4.658,0.587-19.297,5.315-29.911-4.885
		c-16.362-15.684-74.5-73.506-74.5-73.506s-10.025-9.837-26.122-1.334c-14.776,7.786-36.677,19.2-45.826,23.642
		c-17.293,9.205-31.627-5.397-31.627-16.523c0-8.63,5.385-14.484,13.082-18.791c20.861-12.647,64.828-37.326,83.141-47.056
		c11.131-5.92,19.148-6.427,34.431,6.446c18.821,15.83,35.57,30.258,35.57,30.258s5.463,4.559,14.176,2.723
		C613.808,270.115,647.363,262.601,647.363,262.601z M415.953,442.283c2.814-7.232,1.874-15.324-3.523-20.871
		c-4.852-4.969-11.933-6.277-18.687-4.729c1.891-6.696,0.845-13.828-4.029-18.882c-4.866-4.978-11.934-6.318-18.688-4.748
		c1.874-6.707,0.836-13.835-4.043-18.85c-7.641-7.837-20.857-7.501-29.539,0.774c-8.636,8.289-14.168,23.346-6.461,32.207
		c7.695,8.793,16.536,3.442,23.278,1.908c-1.876,6.685-7.494,12.909-0.575,21.659c6.912,8.761,16.535,3.445,23.284,1.925
		c-1.883,6.659-7.254,13.507-0.601,21.622c6.712,8.141,17.709,3.804,24.973,1.549c-2.806,7.206-8.802,14.974-1.097,23.677
		c7.698,8.764,25.483,4.711,34.168-3.575c8.663-8.289,9.498-21.422,1.877-29.285C431.028,441.272,423.186,440.02,415.953,442.283z
		 M574.46,387.066c-62.795-62.8-33.258-33.246-67.054-67.119c0,0-10.159-10.112-23.543-4.238c-9.4,4.118-21.499,9.73-30.598,14.014
		c-10.003,5.246-17.203,6.87-20.583,6.847c-19.337-0.126-35.029-15.669-35.029-34.99c0-12.533,6.655-23.442,16.58-29.636
		c13.952-9.656,46.073-26.742,46.073-26.742s-9.785-12.399-31.222-12.399c-21.429,0-66.199,29.331-66.199,29.331
		s-12.701,8.135-30.807,0.806l-34.897-12.15v121.301c0,0,9.966,2.885,18.92,6.543c2.021-5.77,5.284-11.093,9.81-15.492
		c14.854-14.147,39.476-14.293,52.988-0.381c4.072,4.233,6.914,9.279,8.365,14.856c5.443,1.68,10.374,4.659,14.34,8.741
		c4.085,4.208,6.913,9.312,8.376,14.886c5.438,1.69,10.363,4.681,14.34,8.769c4.479,4.618,7.462,10.197,8.855,16.239
		c5.687,1.659,10.826,4.74,14.962,8.97c8.122,8.341,11.003,19.658,9.258,30.579c0.015,0,0.041,0,0.053,0.023
		c0.134,0.174,5.031,5.637,8.089,8.718c5.987,5.993,15.764,5.993,21.768,0c5.967-5.993,5.993-15.75,0-21.772
		c-0.214-0.211-21.601-22.58-19.877-24.316c1.708-1.72,28.953,26.627,29.462,27.148c5.979,5.981,15.748,5.981,21.753,0
		c5.993-5.993,5.983-15.747,0-21.758c-0.29-0.281-1.519-1.453-1.973-1.92c0,0-27.014-24.064-24.959-26.123
		c2.082-2.067,35.639,29.244,35.692,29.244c6.033,5.435,15.321,5.395,21.125-0.411c5.647-5.646,5.769-14.574,0.763-20.594
		c-0.106-0.321-25.574-27.003-23.587-29.005c2.016-2.028,27.217,23.985,27.27,24.04c5.965,5.981,15.749,5.981,21.754,0
		c5.982-5.981,5.982-15.794,0-21.85C574.648,387.172,574.542,387.12,574.46,387.066z"/>
</g>
</svg>
