<svg width="23" height="23" viewBox="0 0 23 23" fill="none" xmlns="http://www.w3.org/2000/svg">
<path fill-rule="evenodd" clip-rule="evenodd" d="M22.9963 21.6785L19.4471 18.1274C21.0187 16.2534 21.8783 13.9111 21.8783 11.4368C21.8792 8.64821 20.7933 6.02548 18.8212 4.0543C16.8491 2.08129 14.2264 0.995361 11.4378 0.995361C8.64827 0.995361 6.02645 2.08221 4.05528 4.0543C2.08319 6.02548 0.996338 8.6473 0.996338 11.4368C0.996338 14.2254 2.08319 16.8472 4.05528 18.8184C6.02645 20.7914 8.64827 21.8774 11.4378 21.8774C13.913 21.8774 16.2544 21.0178 18.1293 19.4461L21.6786 22.9954L22.9963 21.6785ZM5.37398 17.4997C3.75287 15.8814 2.86121 13.7278 2.86121 11.4368C2.86121 9.14582 3.75287 6.99228 5.37398 5.37208C6.99326 3.75189 9.14679 2.86023 11.4378 2.86023C13.7288 2.86023 15.8823 3.75189 17.5025 5.37208C19.1227 6.99228 20.0144 9.14582 20.0144 11.4368C20.0144 13.7278 19.1227 15.8814 17.5016 17.5006C15.8823 19.1208 13.7279 20.0134 11.4378 20.0134C9.14679 20.0134 6.99326 19.1208 5.37398 17.4997Z" fill="#90A4AD"/>
</svg>
