<svg width="42" height="42" viewBox="0 0 42 42" fill="none" xmlns="http://www.w3.org/2000/svg">
<path d="M23.2406 0.840247L26.877 4.13116C27.4382 4.65763 28.1707 4.96094 28.9379 4.98456L33.7864 5.22858C34.5796 5.26138 35.3316 5.59292 35.893 6.15737C36.4543 6.72182 36.7841 7.4779 36.8167 8.27548L37.0594 13.1505C37.1056 13.9169 37.4042 14.6459 37.9081 15.2227L41.1811 18.879C41.7091 19.4864 42 20.2658 42 21.0725C42 21.8792 41.7091 22.6585 41.1811 23.266L37.7875 26.7996C37.2638 27.3639 36.9622 28.1003 36.9387 28.8717L36.696 33.7468C36.6621 34.5436 36.3316 35.2986 35.77 35.8619C35.2085 36.4253 34.457 36.756 33.6644 36.7883L28.8158 37.0323C28.0537 37.0788 27.3286 37.379 26.755 37.8857L23.1186 41.1767C22.5144 41.7075 21.7393 42 20.937 42C20.1347 42 19.3596 41.7075 18.7554 41.1767L15.1191 37.8857C14.5578 37.3593 13.8254 37.056 13.0582 37.0323L8.21231 36.7883C7.41907 36.7555 6.6671 36.424 6.10572 35.8595C5.54434 35.2951 5.21461 34.539 5.18199 33.7414L4.9393 28.8677C4.89312 28.1014 4.5945 27.3723 4.09054 26.7956L0.818857 23.1406C0.290934 22.5332 0 21.7538 0 20.9471C0 20.1404 0.290934 19.3611 0.818857 18.7536L4.09187 15.0973C4.61547 14.533 4.91713 13.7966 4.94062 13.0252L5.18331 8.15014C5.21623 7.35301 5.54593 6.59744 6.107 6.03331C6.66806 5.46917 7.41952 5.13767 8.21231 5.10457L13.0608 4.86055C13.823 4.81413 14.5481 4.51387 15.1217 4.00716L18.7568 0.717571C19.4103 0.231273 20.207 -0.0208818 21.0197 0.00135414C21.8324 0.02359 22.6143 0.318935 23.2406 0.840247Z" fill="#E6EFFE"/>
<path fill-rule="evenodd" clip-rule="evenodd" d="M27.29 30.6001H23.42C22.43 30.6001 21.62 29.8801 21.62 28.8901V25.7401C21.62 25.4701 21.44 25.2901 21.26 25.2901H18.83C18.65 25.2901 18.47 25.4701 18.47 25.7401V28.8901C18.47 29.8801 17.66 30.6001 16.67 30.6001H12.8C11.81 30.6001 11 29.8801 11 28.8901V18.8101C11 18.3601 11.27 17.9101 11.63 17.6401L19.28 12.8701C19.73 12.5101 20.36 12.5101 20.81 12.8701L28.37 17.6401C28.82 17.9101 29.09 18.3601 29.09 18.9001V28.8901C29.09 29.7901 28.28 30.6001 27.29 30.6001ZM18.83 23.9401H21.26C22.25 23.9401 22.97 24.7501 22.97 25.7401V28.8901C22.97 29.0701 23.15 29.2501 23.42 29.2501H27.29C27.56 29.2501 27.74 29.0701 27.74 28.8901V18.8101C27.74 18.8101 27.74 18.8101 27.74 18.7201L20.09 13.9501C20.03 13.9501 20 13.9501 20 13.9501L12.44 18.7201C12.38 18.7801 12.35 18.8101 12.35 18.8101V28.8901C12.35 29.0701 12.53 29.2501 12.8 29.2501H16.67C16.94 29.2501 17.12 29.0701 17.12 28.8901V25.7401C17.12 24.7501 17.84 23.9401 18.83 23.9401Z" fill="#2FC495" stroke="#2FC495" stroke-width="0.5"/>
<path d="M20.6001 11C22.3001 11 23.6001 12.3 23.6001 14C23.6001 15.7 22.3001 17 20.6001 17C18.9001 17 17.6001 15.7 17.6001 14C17.6001 12.3 18.9001 11 20.6001 11Z" fill="#2FC495" stroke="white" stroke-width="2"/>
</svg>
