<svg width="133" height="103" viewBox="0 0 133 103" fill="none" xmlns="http://www.w3.org/2000/svg">
<path fill-rule="evenodd" clip-rule="evenodd" d="M131.072 94.726H96.7909V101.319C96.7909 101.927 96.2976 102.417 95.6908 102.417H1.09875C0.49204 102.417 0 101.925 0 101.319V31.9778C0 31.3697 0.49204 30.8777 1.09875 30.8777H8.78737V14.2851C8.78737 13.6771 9.28074 13.1851 9.88746 13.1851H131.072C131.679 13.1851 132.171 13.6771 132.171 14.2851V93.6272C132.171 94.2353 131.677 94.726 131.072 94.726ZM8.78737 93.6259V33.0752H2.19618V100.22H94.5921V94.726H9.88746C9.28074 94.726 8.78737 94.2339 8.78737 93.6259ZM129.973 15.3852H10.9849V31.9738L10.9862 31.9764L10.9849 31.9791V92.5271H95.6882H95.6908H95.6948H129.973V15.3852ZM88.9823 77.5241C88.9716 77.5467 88.9463 77.5574 88.9343 77.5787C88.857 77.7107 88.7556 77.8201 88.6316 77.9094C88.5929 77.9361 88.561 77.9614 88.5196 77.9841C88.3623 78.0694 88.1916 78.1321 87.9996 78.1321H71.5222C70.9142 78.1321 70.4222 77.6387 70.4222 77.032V71.5383H52.8448C52.2367 71.5383 51.746 71.0462 51.746 70.4395C51.746 69.8328 52.2367 69.3407 52.8448 69.3407H71.5196C72.1263 69.3407 72.6197 69.8328 72.6197 70.4395V75.9333H86.2221L82.6231 68.734C82.5485 68.5807 82.5071 68.4127 82.5071 68.2407V39.6744V39.6704V39.6664V33.6606C82.5071 31.5204 84.2486 29.7776 86.3888 29.7776H89.6117C91.7519 29.7776 93.4933 31.5204 93.4933 33.6606V68.2407C93.4933 68.41 93.4533 68.5807 93.376 68.734L88.9823 77.5241ZM91.2972 33.6619C91.2972 32.7338 90.5411 31.9778 89.6117 31.9778L86.3901 31.9764C85.462 31.9764 84.7046 32.7325 84.7046 33.6619V38.5703H91.2972V33.6619ZM91.2972 40.7691H84.7046V67.982L87.9996 74.5758L91.2972 67.982V40.7691ZM61.6348 51.646V59.4506C61.6348 60.0587 61.1428 60.5507 60.5347 60.5507H42.9573C42.3519 60.5507 41.8599 60.0587 41.8599 59.4506V41.8679C41.8599 41.2612 42.3519 40.7691 42.9573 40.7691H50.7593C51.314 35.8381 55.4596 31.9778 60.5347 31.9778C65.9885 31.9778 70.4235 36.4141 70.4235 41.8665C70.4222 46.9443 66.5645 51.0913 61.6348 51.646ZM44.0561 42.9666V58.3519H59.4373V51.6473C54.8729 51.1326 51.2726 47.5323 50.7593 42.9666H44.0561ZM59.4373 49.4472V42.9666H52.9568C53.4435 46.3216 56.0824 48.9618 59.4373 49.4472ZM60.5347 34.1739C56.6704 34.1739 53.4941 37.0515 52.9568 40.7691H60.5347C61.1428 40.7691 61.6348 41.2612 61.6348 41.8679V49.4472C65.3524 48.9084 68.226 45.7309 68.226 41.8665C68.226 37.6262 64.7764 34.1739 60.5347 34.1739ZM96.7896 10.9889C93.7614 10.9889 91.2972 8.52335 91.2972 5.49377C91.2972 2.4642 93.7614 0 96.7896 0C99.8192 0 102.283 2.4642 102.283 5.49377C102.283 8.52335 99.8192 10.9889 96.7896 10.9889ZM96.7896 2.19751C94.9721 2.19751 93.4933 3.67629 93.4933 5.49377C93.4933 7.31258 94.9721 8.79137 96.7896 8.79137C98.6071 8.79137 100.086 7.31258 100.086 5.49377C100.085 3.67629 98.6071 2.19751 96.7896 2.19751Z" fill="#B6C2D6"/>
</svg>
