<?xml version="1.0" encoding="utf-8"?>
<!-- Generator: Adobe Illustrator 23.0.3, SVG Export Plug-In . SVG Version: 6.00 Build 0)  -->
<svg version="1.1" id="Layer_1" xmlns="http://www.w3.org/2000/svg" xmlns:xlink="http://www.w3.org/1999/xlink" x="0px" y="0px"
	 viewBox="0 0 308 330" style="enable-background:new 0 0 308 330;" xml:space="preserve">
<style type="text/css">
	.st0{fill:#DFE3EC;}
	.st1{fill:#6A7E9C;}
	.st2{fill:#448AFA;}
</style>
<g>
	<path class="st0" d="M28.3,274.1V27c0-5,2-9.9,5.5-13.4C37.4,10,42.2,8,47.3,8H26.2c-5,0-9.9,2-13.4,5.5C9.1,17.1,7.2,21.9,7.2,27
		v247.5c0,5,2,9.9,5.5,13.4c3.6,3.6,8.4,5.6,13.4,5.5h21.1C36.7,293.2,28.3,284.7,28.3,274.1z"/>
</g>
<g>
	<path class="st0" d="M225.8,8H26.2c-5,0-9.9,2-13.4,5.5C9.1,17.1,7.2,21.9,7.2,27v35.2c0-5,2-9.9,5.5-13.4
		c3.6-3.6,8.4-5.6,13.4-5.5h200c5,0,9.9,2,13.4,5.5c3.6,3.6,5.6,8.4,5.5,13.4V27C244.9,16.5,236.4,8.1,225.8,8L225.8,8z"/>
</g>
<g>
	<path class="st1" d="M26.1,298.4c-6.3,0-12.6-2.6-17.1-7.1c-4.5-4.5-7.1-10.8-7.1-17.2V27c0-6.4,2.6-12.6,7.1-17.2
		c4.5-4.5,10.7-7.1,17.1-7.1c0,0,0.1,0,0.1,0h200c6.4,0,12.6,2.6,17.2,7.1c4.5,4.5,7.1,10.8,7.1,17.2v182.8c0,2.9-2.4,5.3-5.3,5.3
		s-5.3-2.4-5.3-5.3V27c0-3.6-1.4-7.2-4-9.7c-2.5-2.5-6.1-4-9.6-4c0,0,0,0-0.1,0H26.2c0,0,0,0-0.1,0c-3.6,0-7.1,1.5-9.7,4
		c-2.6,2.6-4,6.1-4,9.7v247.2c0,3.6,1.4,7.2,4,9.7c2.5,2.5,6.1,4,9.6,4c0,0,0,0,0.1,0h147.3c2.9,0,5.3,2.4,5.3,5.3s-2.4,5.3-5.3,5.3
		H26.1C26.1,298.4,26.1,298.4,26.1,298.4z"/>
</g>
<g>
	<path class="st2" d="M138.3,83.2H55.7c-2.9,0-5.3-2.4-5.3-5.3s2.4-5.3,5.3-5.3h82.6c2.9,0,5.3,2.4,5.3,5.3S141.2,83.2,138.3,83.2z"
		/>
</g>
<g>
	<path class="st1" d="M138.3,242.8H55.7c-2.9,0-5.3-2.4-5.3-5.3s2.4-5.3,5.3-5.3h82.6c2.9,0,5.3,2.4,5.3,5.3
		S141.2,242.8,138.3,242.8z"/>
</g>
<g>
	<path class="st1" d="M195.6,128.9H55.7c-2.9,0-5.3-2.4-5.3-5.3s2.4-5.3,5.3-5.3h139.9c2.9,0,5.3,2.4,5.3,5.3
		S198.5,128.9,195.6,128.9z"/>
</g>
<g>
	<path class="st1" d="M160.5,169h-29.5c-2.9,0-5.3-2.4-5.3-5.3c0-2.9,2.4-5.3,5.3-5.3h29.5c2.9,0,5.3,2.4,5.3,5.3
		C165.7,166.7,163.4,169,160.5,169z"/>
</g>
<g>
	<path class="st1" d="M101,169H55.7c-2.9,0-5.3-2.4-5.3-5.3c0-2.9,2.4-5.3,5.3-5.3H101c2.9,0,5.3,2.4,5.3,5.3
		C106.3,166.7,104,169,101,169z"/>
</g>
<g>
	<g>
		<g>
			<g>
				<g>
					<g>
						<path class="st1" d="M224.6,295.1h-4c-11.5-1.9-20.3-11.9-20.3-24c0-4,1-7.8,2.8-11.2l3,4.1c2.2,3,6.8,2.2,7.8-1.4l2.4-8.5
							l3.3-11.8c0.8-2.8-1.3-5.6-4.3-5.6l-11.5,0l-8.7,0c-3.6,0-5.7,4.1-3.6,7l5.5,7.6c-4,5.6-6.3,12.4-6.3,19.7
							c0,17,12.5,31.1,28.7,33.6c0.4,0.1,0.9,0.1,1.3,0v0.1h4c2.6,0,4.8-2.1,4.8-4.8v-0.1C229.4,297.3,227.2,295.1,224.6,295.1z
							 M261.9,290.2c4-5.6,6.3-12.4,6.3-19.7c0-17-12.5-31.1-28.7-33.6c-0.4-0.1-0.9-0.1-1.3,0v-0.1h-4c-2.6,0-4.8,2.1-4.8,4.8v0.1
							c0,2.6,2.1,4.8,4.8,4.8h4c11.5,1.9,20.3,11.9,20.3,24c0,4-1,7.8-2.8,11.2l-3-4.1c-2.2-3-6.8-2.2-7.8,1.4l-2.4,8.5l-3.3,11.8
							c-0.8,2.8,1.3,5.6,4.3,5.6l11.5,0l8.7,0c3.6,0,5.7-4.1,3.6-7L261.9,290.2z"/>
					</g>
				</g>
			</g>
		</g>
	</g>
</g>
</svg>
