<svg xmlns="http://www.w3.org/2000/svg" xmlns:xlink="http://www.w3.org/1999/xlink" preserveAspectRatio="xMidYMid" width="366" height="228" viewBox="0 0 366 228">
  <defs>
    <style>
      .cls-1 {
        fill: #6e819e;
      }

      .cls-1, .cls-2, .cls-3, .cls-4, .cls-5, .cls-6 {
        fill-rule: evenodd;
      }

      .cls-2, .cls-4 {
        fill: #fff;
      }

      .cls-3 {
        fill: #448afa;
      }

      .cls-4 {
        stroke: #fff;
      }

      .cls-4, .cls-6 {
        stroke-width: 1px;
      }

      .cls-5, .cls-6 {
        fill: #01bda7;
      }

      .cls-6 {
        stroke: #01bda7;
      }
    </style>
  </defs>
  <path d="M58.469,23.855 C58.469,24.770 58.269,25.766 57.871,26.844 C57.472,27.922 57.004,28.889 56.465,29.744 C55.925,30.600 55.351,31.426 54.742,32.223 C54.132,33.020 53.646,33.617 53.283,34.016 C52.920,34.414 52.679,34.661 52.562,34.754 C52.422,34.918 52.234,35.000 52.000,35.000 C51.789,35.000 51.601,34.918 51.437,34.754 C51.320,34.661 51.080,34.414 50.717,34.016 C50.353,33.617 49.867,33.020 49.258,32.223 C48.648,31.426 48.074,30.600 47.535,29.744 C46.996,28.889 46.527,27.922 46.129,26.844 C45.730,25.766 45.531,24.770 45.531,23.855 C45.531,21.512 46.222,19.742 47.605,18.547 C48.777,17.516 50.242,17.000 52.000,17.000 C53.758,17.000 55.222,17.516 56.395,18.547 C57.777,19.742 58.469,21.512 58.469,23.855 L58.469,23.855 ZM53.934,30.729 C54.566,29.897 55.217,28.807 55.885,27.459 C56.553,26.112 56.887,24.910 56.887,23.855 C56.887,23.411 56.839,22.953 56.746,22.484 C56.652,22.016 56.459,21.453 56.166,20.797 C55.873,20.141 55.369,19.608 54.654,19.197 C53.939,18.787 53.055,18.582 52.000,18.582 C51.578,18.582 51.150,18.635 50.717,18.740 C50.283,18.846 49.762,19.057 49.152,19.373 C48.543,19.689 48.050,20.234 47.676,21.008 C47.301,21.781 47.113,22.730 47.113,23.855 C47.113,25.613 48.015,27.770 49.820,30.324 C50.429,31.192 51.156,32.106 52.000,33.066 C52.656,32.340 53.301,31.561 53.934,30.729 ZM55.094,23.539 C55.094,24.406 54.795,25.151 54.197,25.771 C53.600,26.393 52.867,26.703 52.000,26.703 C51.133,26.703 50.400,26.399 49.803,25.789 C49.205,25.180 48.906,24.430 48.906,23.539 C48.906,22.672 49.205,21.928 49.803,21.307 C50.400,20.686 51.133,20.375 52.000,20.375 C52.867,20.375 53.600,20.680 54.197,21.289 C54.795,21.899 55.094,22.649 55.094,23.539 L55.094,23.539 ZM53.758,23.539 C53.758,23.024 53.582,22.596 53.230,22.256 C52.879,21.916 52.469,21.746 52.000,21.746 C51.531,21.746 51.121,21.916 50.770,22.256 C50.418,22.596 50.242,23.024 50.242,23.539 C50.242,24.031 50.418,24.453 50.770,24.805 C51.121,25.156 51.531,25.332 52.000,25.332 C52.469,25.332 52.879,25.156 53.230,24.805 C53.582,24.453 53.758,24.031 53.758,23.539 L53.758,23.539 Z" class="cls-1"/>
  <path d="M126.449,108.164 C126.824,108.529 126.824,108.906 126.449,109.295 L121.562,114.584 C121.398,114.753 121.211,114.839 121.000,114.839 C120.789,114.839 120.601,114.753 120.437,114.584 L115.551,109.295 C115.176,108.906 115.176,108.529 115.551,108.164 C115.714,107.994 115.908,107.909 116.131,107.909 C116.353,107.909 116.535,107.994 116.676,108.164 L121.000,112.833 L125.324,108.164 C125.488,107.994 125.676,107.909 125.887,107.909 C126.050,107.909 126.238,107.994 126.449,108.164 L126.449,108.164 Z" class="cls-1"/>
  <path d="M74.168,21.184 C74.355,21.371 74.590,21.465 74.871,21.465 C75.152,21.465 75.386,21.371 75.574,21.184 C75.762,20.996 75.855,20.762 75.855,20.480 L75.855,17.984 C75.855,17.703 75.762,17.469 75.574,17.281 C75.386,17.094 75.152,17.000 74.871,17.000 C74.590,17.000 74.355,17.094 74.168,17.281 C73.980,17.469 73.887,17.703 73.887,17.984 L73.887,20.480 C73.887,20.762 73.980,20.996 74.168,21.184 ZM80.145,20.480 L80.145,17.984 C80.145,17.703 80.238,17.469 80.426,17.281 C80.613,17.094 80.848,17.000 81.129,17.000 C81.410,17.000 81.644,17.094 81.832,17.281 C82.019,17.469 82.113,17.703 82.113,17.984 L82.113,20.480 C82.113,20.762 82.019,20.996 81.832,21.184 C81.644,21.371 81.410,21.465 81.129,21.465 C80.848,21.465 80.613,21.371 80.426,21.184 C80.238,20.996 80.145,20.762 80.145,20.480 L80.145,20.480 ZM73.975,24.611 C73.822,24.459 73.746,24.266 73.746,24.031 C73.746,23.820 73.822,23.639 73.975,23.486 C74.127,23.334 74.309,23.258 74.520,23.258 L81.480,23.258 C81.691,23.258 81.873,23.334 82.025,23.486 C82.178,23.639 82.254,23.820 82.254,24.031 C82.254,24.266 82.178,24.459 82.025,24.611 C81.873,24.764 81.691,24.840 81.480,24.840 L74.520,24.840 C74.309,24.840 74.127,24.764 73.975,24.611 ZM85.980,18.635 C86.144,18.811 86.227,19.004 86.227,19.215 L86.227,34.016 C86.227,34.227 86.150,34.408 85.998,34.561 C85.845,34.713 85.652,34.789 85.418,34.789 L70.582,34.789 C70.347,34.789 70.154,34.713 70.002,34.561 C69.849,34.408 69.773,34.227 69.773,34.016 L69.773,19.215 C69.773,19.004 69.855,18.811 70.020,18.635 C70.183,18.459 70.371,18.371 70.582,18.371 L72.199,18.371 C72.410,18.371 72.591,18.447 72.744,18.600 C72.896,18.752 72.973,18.934 72.973,19.145 C72.973,19.355 72.896,19.537 72.744,19.689 C72.591,19.842 72.410,19.918 72.199,19.918 L71.355,19.918 L71.355,33.242 L84.645,33.242 L84.645,19.918 L83.801,19.918 C83.590,19.918 83.408,19.842 83.256,19.689 C83.103,19.537 83.027,19.355 83.027,19.145 C83.027,18.934 83.103,18.752 83.256,18.600 C83.408,18.447 83.590,18.371 83.801,18.371 L85.418,18.371 C85.629,18.371 85.816,18.459 85.980,18.635 ZM76.787,19.689 C76.634,19.537 76.559,19.355 76.559,19.145 C76.559,18.934 76.634,18.752 76.787,18.600 C76.939,18.447 77.133,18.371 77.367,18.371 L78.633,18.371 C78.867,18.371 79.060,18.447 79.213,18.600 C79.365,18.752 79.441,18.934 79.441,19.145 C79.441,19.355 79.365,19.537 79.213,19.689 C79.060,19.842 78.867,19.918 78.633,19.918 L77.367,19.918 C77.133,19.918 76.939,19.842 76.787,19.689 ZM73.975,28.127 C73.822,27.975 73.746,27.793 73.746,27.582 C73.746,27.348 73.822,27.155 73.975,27.002 C74.127,26.850 74.309,26.773 74.520,26.773 L81.480,26.773 C81.691,26.773 81.873,26.850 82.025,27.002 C82.178,27.155 82.254,27.348 82.254,27.582 C82.254,27.793 82.178,27.975 82.025,28.127 C81.873,28.280 81.691,28.355 81.480,28.355 L74.520,28.355 C74.309,28.355 74.127,28.280 73.975,28.127 Z" class="cls-1"/>
  <path d="M106.449,19.164 C106.824,19.529 106.824,19.906 106.449,20.295 L101.562,25.584 C101.398,25.753 101.211,25.839 101.000,25.839 C100.789,25.839 100.601,25.753 100.437,25.584 L95.551,20.295 C95.176,19.906 95.176,19.529 95.551,19.164 C95.714,18.994 95.908,18.909 96.131,18.909 C96.353,18.909 96.535,18.994 96.676,19.164 L101.000,23.833 L105.324,19.164 C105.488,18.994 105.676,18.909 105.887,18.909 C106.050,18.909 106.238,18.994 106.449,19.164 L106.449,19.164 Z" class="cls-2"/>
  <path d="M113.156,20.137 C112.823,20.441 112.823,20.755 113.156,21.079 L117.500,25.486 C117.646,25.628 117.812,25.699 118.000,25.699 C118.187,25.699 118.354,25.628 118.500,25.486 L122.844,21.079 C123.177,20.755 123.177,20.441 122.844,20.137 C122.698,19.995 122.526,19.924 122.328,19.924 C122.130,19.924 121.969,19.995 121.844,20.137 L118.000,24.027 L114.156,20.137 C114.011,19.995 113.844,19.924 113.656,19.924 C113.511,19.924 113.344,19.995 113.156,20.137 L113.156,20.137 Z" class="cls-2"/>
  <path d="M231.706,90.294 L226.706,85.294 C226.316,84.903 225.683,84.903 225.292,85.294 C224.902,85.684 224.902,86.317 225.292,86.708 L229.587,91.000 L225.294,95.294 C224.903,95.684 224.903,96.317 225.294,96.708 C225.488,96.903 225.744,97.000 226.000,97.000 C226.256,97.000 226.512,96.902 226.707,96.707 L231.707,91.707 C232.097,91.316 232.097,90.684 231.706,90.294 ZM237.706,90.294 L232.706,85.294 C232.316,84.903 231.683,84.903 231.292,85.294 C230.902,85.684 230.902,86.317 231.292,86.708 L235.587,91.000 L231.294,95.294 C230.903,95.684 230.903,96.317 231.294,96.708 C231.487,96.903 231.744,97.000 232.000,97.000 C232.256,97.000 232.512,96.902 232.707,96.707 L237.707,91.707 C238.097,91.316 238.097,90.684 237.706,90.294 Z" class="cls-3"/>
  <path d="M171.855,33.443 C171.125,33.865 170.246,34.373 170.246,34.373 C170.261,34.580 170.270,34.789 170.270,35.000 C170.270,35.211 170.261,35.420 170.246,35.626 C170.246,35.626 171.125,36.135 171.855,36.557 C172.387,36.864 172.568,37.543 172.261,38.074 C171.645,39.142 170.657,40.854 170.041,41.922 C169.895,42.177 169.652,42.363 169.368,42.439 C169.083,42.516 168.780,42.476 168.525,42.328 C167.795,41.906 166.914,41.397 166.914,41.397 C166.571,41.635 166.210,41.845 165.830,42.025 L165.830,43.886 C165.830,44.180 165.713,44.463 165.505,44.671 C165.297,44.880 165.014,44.996 164.720,44.996 L160.280,44.996 C159.986,44.996 159.703,44.880 159.495,44.671 C159.286,44.463 159.170,44.180 159.170,43.886 L159.170,42.025 C158.790,41.845 158.428,41.635 158.085,41.397 C158.085,41.397 157.205,41.906 156.475,42.328 C156.219,42.476 155.916,42.516 155.632,42.439 C155.348,42.363 155.105,42.177 154.958,41.922 C154.342,40.854 153.354,39.142 152.738,38.074 C152.432,37.543 152.613,36.864 153.145,36.557 C153.875,36.135 154.754,35.626 154.754,35.626 C154.738,35.420 154.730,35.211 154.730,35.000 C154.730,34.789 154.738,34.580 154.754,34.373 C154.754,34.373 153.875,33.865 153.145,33.443 C152.613,33.136 152.432,32.456 152.738,31.925 C153.354,30.858 154.342,29.145 154.958,28.078 C155.105,27.822 155.348,27.637 155.632,27.560 C155.916,27.483 156.219,27.524 156.475,27.671 C157.205,28.093 158.085,28.602 158.085,28.602 C158.428,28.364 158.790,28.154 159.170,27.975 L159.170,26.114 C159.170,25.820 159.286,25.536 159.495,25.329 C159.703,25.120 159.986,25.003 160.280,25.003 L164.720,25.003 C165.014,25.003 165.297,25.120 165.505,25.329 C165.713,25.536 165.830,25.820 165.830,26.114 L165.830,27.975 C166.210,28.154 166.571,28.364 166.914,28.602 C166.914,28.602 167.795,28.093 168.525,27.671 C168.780,27.524 169.083,27.483 169.368,27.560 C169.652,27.637 169.895,27.822 170.041,28.078 C170.657,29.145 171.645,30.858 172.261,31.925 C172.568,32.456 172.387,33.136 171.855,33.443 ZM168.050,35.000 C168.050,34.623 168.019,34.231 167.983,33.848 C167.948,33.421 168.163,33.012 168.534,32.796 C169.077,32.483 169.784,32.074 169.784,32.074 L168.674,30.151 C168.674,30.151 167.967,30.559 167.422,30.874 C167.050,31.089 166.587,31.070 166.234,30.825 C165.921,30.602 165.598,30.377 165.274,30.189 C164.949,30.001 164.593,29.832 164.245,29.672 C163.857,29.487 163.610,29.098 163.610,28.668 L163.610,27.225 L161.390,27.225 L161.390,28.668 C161.390,29.098 161.142,29.487 160.755,29.672 C160.406,29.832 160.051,30.001 159.726,30.189 C159.402,30.377 159.079,30.601 158.766,30.823 C158.413,31.069 157.950,31.088 157.578,30.874 C157.033,30.559 156.326,30.151 156.326,30.151 L155.216,32.074 C155.216,32.074 155.923,32.483 156.466,32.796 C156.838,33.011 157.052,33.420 157.017,33.848 C156.981,34.231 156.950,34.623 156.950,35.000 C156.950,35.377 156.981,35.769 157.016,36.152 C157.052,36.579 156.836,36.988 156.466,37.204 C155.923,37.517 155.216,37.926 155.216,37.926 L156.326,39.849 C156.326,39.849 157.033,39.440 157.578,39.126 C157.950,38.911 158.413,38.930 158.766,39.175 C159.079,39.398 159.402,39.623 159.726,39.811 C160.051,39.999 160.406,40.168 160.755,40.328 C161.142,40.513 161.390,40.902 161.390,41.332 L161.390,42.775 L163.610,42.775 L163.610,41.332 C163.610,40.902 163.857,40.513 164.245,40.328 C164.593,40.168 164.949,39.999 165.274,39.811 C165.598,39.623 165.921,39.398 166.234,39.176 C166.587,38.931 167.050,38.912 167.422,39.126 C167.967,39.440 168.674,39.850 168.674,39.850 L169.784,37.926 C169.784,37.926 169.077,37.517 168.534,37.204 C168.162,36.989 167.948,36.579 167.982,36.152 C168.019,35.769 168.050,35.377 168.050,35.000 ZM162.500,38.332 C160.662,38.332 159.170,36.839 159.170,35.000 C159.170,33.160 160.662,31.668 162.500,31.668 C164.338,31.668 165.830,33.160 165.830,35.000 C165.830,36.839 164.338,38.332 162.500,38.332 Z" class="cls-2"/>
  <path d="M224.576,29.070 C223.362,29.297 221.787,29.499 219.876,29.575 C219.876,28.842 219.256,28.236 218.507,28.236 L217.448,28.236 C216.699,28.236 216.079,28.817 216.079,29.575 C214.142,29.499 212.567,29.297 211.353,29.070 L211.353,29.070 C211.198,29.045 211.069,28.893 211.069,28.716 L211.069,26.847 C211.069,26.165 211.611,25.634 212.309,25.634 L215.046,25.634 L215.046,24.750 C215.046,23.790 215.847,23.007 216.828,23.007 L219.101,23.007 C220.082,23.007 220.883,23.790 220.883,24.750 L220.883,25.634 L223.620,25.634 C224.292,25.634 224.860,26.164 224.860,26.847 L224.860,28.716 C224.860,28.893 224.731,29.045 224.576,29.070 ZM219.488,24.750 C219.488,24.573 219.333,24.396 219.127,24.396 L216.854,24.396 C216.648,24.396 216.467,24.548 216.467,24.750 L216.467,25.634 L219.488,25.634 L219.488,24.750 ZM217.474,31.015 C217.242,31.015 217.061,30.838 217.061,30.611 L217.061,29.600 C217.061,29.373 217.242,29.196 217.474,29.196 L218.507,29.196 C218.739,29.196 218.920,29.373 218.920,29.600 L218.920,30.611 C218.920,30.838 218.739,31.015 218.507,31.015 L217.474,31.015 ZM223.982,30.156 L223.982,33.895 C223.982,34.577 223.439,35.107 222.742,35.107 L213.213,35.107 C212.516,35.107 211.973,34.577 211.973,33.895 L211.973,30.156 C213.316,30.358 214.762,30.484 216.105,30.535 L216.105,30.611 C216.105,31.368 216.699,31.975 217.474,31.975 L218.533,31.975 C219.281,31.975 219.901,31.369 219.901,30.611 L219.901,30.535 C221.193,30.484 222.639,30.358 223.982,30.156 ZM218.042,37.128 C218.300,37.153 218.532,37.254 218.713,37.431 C218.894,37.608 218.972,37.861 218.972,38.113 C218.972,38.543 218.662,38.897 218.223,38.998 L218.016,39.048 C216.828,39.301 215.640,39.478 214.426,39.528 L213.394,39.579 C213.083,39.579 212.825,39.857 212.851,40.160 C212.851,40.463 213.135,40.716 213.445,40.690 L214.478,40.640 C215.744,40.564 217.009,40.412 218.249,40.135 L218.455,40.084 C219.385,39.882 220.082,39.073 220.108,38.139 L220.108,37.886 L223.517,36.800 C223.930,36.674 224.395,36.775 224.679,37.078 L224.679,37.078 C224.912,37.305 225.015,37.608 224.989,37.912 C224.963,38.214 224.834,38.492 224.576,38.694 L217.939,43.899 C217.319,44.378 216.518,44.631 215.718,44.555 L211.121,44.176 L206.369,40.766 L210.888,37.532 C211.379,37.179 211.999,36.977 212.593,37.002 L218.042,37.128 ZM208.616,46.804 C208.461,47.006 208.151,47.056 207.944,46.905 L204.200,44.202 C203.993,44.050 203.942,43.747 204.096,43.545 L205.568,41.600 L210.088,44.859 L208.616,46.804 Z" class="cls-2"/>
  <path d="M271.561,26.534 L266.621,26.534 C266.364,25.997 265.912,25.576 265.358,25.358 C264.804,25.140 264.187,25.140 263.632,25.358 C263.078,25.576 262.627,25.997 262.370,26.534 L257.439,26.534 C257.142,26.534 256.857,26.652 256.647,26.862 C256.438,27.072 256.320,27.357 256.320,27.653 L256.320,44.061 C256.320,44.358 256.438,44.642 256.647,44.852 C256.857,45.062 257.142,45.180 257.439,45.180 L271.561,45.180 C271.858,45.180 272.143,45.062 272.352,44.852 C272.562,44.642 272.680,44.358 272.680,44.061 L272.680,27.653 C272.680,27.357 272.562,27.072 272.352,26.862 C272.143,26.652 271.858,26.534 271.561,26.534 L271.561,26.534 ZM261.199,27.877 L263.394,27.877 L263.499,27.387 C263.537,27.193 263.629,27.014 263.764,26.870 C263.899,26.726 264.071,26.623 264.262,26.573 C264.528,26.509 264.808,26.555 265.039,26.700 C265.271,26.846 265.434,27.078 265.493,27.345 L265.607,27.875 L267.802,27.875 L267.802,28.670 C267.802,28.907 267.708,29.135 267.540,29.303 C267.372,29.470 267.144,29.565 266.907,29.565 L262.094,29.565 C261.857,29.565 261.629,29.470 261.461,29.303 C261.293,29.135 261.199,28.907 261.199,28.670 L261.199,27.877 ZM263.725,39.220 L260.848,36.342 L261.797,35.393 L263.727,37.324 L267.202,33.848 L268.151,34.797 L263.725,39.220 Z" class="cls-2"/>
  <path d="M326.720,34.800 C326.720,34.800 326.720,34.800 326.720,34.800 L326.720,34.801 C326.720,34.801 326.720,34.800 326.720,34.800 ZM322.861,41.363 C322.929,41.898 323.031,42.430 323.166,42.948 C323.395,43.834 323.722,44.696 324.137,45.510 C324.172,45.578 324.160,45.661 324.108,45.716 C324.074,45.752 324.027,45.772 323.979,45.772 C323.954,45.772 323.929,45.766 323.905,45.755 C322.790,45.244 321.778,44.561 320.899,43.724 C320.578,43.419 320.271,43.089 319.985,42.741 C318.686,43.161 317.310,43.373 315.894,43.373 C313.738,43.373 311.661,42.874 309.879,41.930 C309.051,42.676 308.115,43.290 307.095,43.757 C307.071,43.768 307.046,43.773 307.021,43.773 C306.973,43.773 306.926,43.754 306.892,43.717 C306.840,43.662 306.828,43.579 306.863,43.511 C307.278,42.697 307.605,41.836 307.834,40.950 C307.864,40.837 307.892,40.721 307.920,40.600 C306.532,39.405 305.608,37.936 305.243,36.344 C304.604,35.229 304.279,34.037 304.279,32.802 C304.279,30.503 305.411,28.345 307.467,26.725 C309.509,25.115 312.222,24.228 315.105,24.228 C317.656,24.228 320.132,24.943 322.079,26.242 C324.004,27.526 325.309,29.307 325.756,31.258 C326.396,32.373 326.720,33.565 326.720,34.800 C326.720,37.343 325.315,39.730 322.861,41.363 ZM325.415,31.364 C324.530,27.437 320.195,24.587 315.105,24.587 C309.332,24.587 304.635,28.273 304.635,32.802 C304.635,33.982 304.948,35.121 305.564,36.188 C306.216,37.315 307.205,38.331 308.425,39.126 C308.482,39.163 308.513,39.230 308.505,39.298 C308.456,39.722 308.384,40.151 308.291,40.573 C308.255,40.738 308.218,40.892 308.178,41.041 C307.986,41.784 307.727,42.510 307.406,43.207 C308.253,42.770 309.034,42.225 309.732,41.581 C309.773,41.543 309.815,41.504 309.856,41.465 C310.197,41.141 310.519,40.790 310.815,40.421 C310.862,40.363 310.940,40.340 311.010,40.363 C312.307,40.797 313.685,41.016 315.105,41.016 L315.105,41.017 C320.878,41.017 325.575,37.332 325.575,32.802 C325.575,32.319 325.521,31.836 325.415,31.364 ZM318.819,36.979 L315.739,36.979 L315.739,38.598 C315.739,38.665 315.701,38.727 315.641,38.758 C315.616,38.771 315.588,38.777 315.561,38.777 C315.523,38.777 315.486,38.765 315.455,38.742 L311.708,35.944 C311.662,35.910 311.636,35.857 311.636,35.800 C311.636,35.743 311.663,35.689 311.708,35.655 L315.455,32.857 C315.509,32.817 315.581,32.811 315.641,32.841 C315.701,32.872 315.739,32.934 315.739,33.002 L315.739,34.621 L318.286,34.621 C319.068,34.621 319.808,34.275 320.316,33.671 C320.826,33.065 321.044,32.267 320.915,31.482 L320.906,31.432 C320.478,28.991 318.296,27.886 318.048,27.768 C317.966,27.729 317.927,27.635 317.955,27.549 C317.984,27.463 318.072,27.412 318.161,27.430 C318.487,27.499 321.385,28.188 322.626,31.133 L322.626,31.133 C322.643,31.173 322.660,31.214 322.676,31.255 C323.184,32.535 323.028,33.985 322.257,35.133 C321.481,36.289 320.195,36.979 318.819,36.979 ZM318.575,29.804 C318.575,29.861 318.548,29.914 318.503,29.948 L314.756,32.746 C314.702,32.787 314.630,32.793 314.570,32.762 C314.510,32.732 314.472,32.670 314.472,32.602 L314.472,30.983 L311.925,30.983 C311.142,30.983 310.402,31.329 309.895,31.933 C309.385,32.539 309.167,33.337 309.296,34.121 C309.299,34.137 309.301,34.152 309.304,34.168 C309.733,36.613 311.915,37.718 312.163,37.836 L312.163,37.836 C312.245,37.874 312.284,37.969 312.256,38.055 C312.231,38.129 312.162,38.178 312.087,38.178 C312.075,38.178 312.063,38.176 312.050,38.174 C311.724,38.105 308.826,37.417 307.585,34.471 L307.578,34.454 C307.563,34.419 307.548,34.384 307.535,34.349 C307.026,33.069 307.183,31.619 307.954,30.470 C308.730,29.315 310.015,28.625 311.392,28.625 L314.472,28.625 L314.472,27.006 C314.472,26.938 314.510,26.876 314.570,26.846 C314.630,26.815 314.702,26.821 314.756,26.862 L318.503,29.660 C318.548,29.693 318.575,29.747 318.575,29.804 Z" class="cls-4"/>
  <path d="M32.465,77.719 C33.191,77.320 34.211,75.375 35.523,71.883 C36.578,71.109 37.035,70.195 36.895,69.141 C36.754,68.133 36.109,67.442 34.961,67.066 C34.211,66.855 33.426,66.657 32.605,66.469 C33.238,65.578 33.678,64.676 33.924,63.762 C34.170,62.848 34.140,61.981 33.836,61.160 C33.461,60.387 32.887,60.000 32.113,60.000 C31.621,60.000 31.193,60.153 30.830,60.457 C30.466,60.762 30.220,61.055 30.092,61.336 C29.963,61.617 29.816,62.004 29.652,62.496 C29.488,62.965 29.107,63.504 28.510,64.113 C27.912,64.723 27.191,65.262 26.348,65.730 C26.089,65.871 25.814,66.035 25.521,66.223 C25.228,66.411 24.964,66.580 24.730,66.732 C24.496,66.885 24.285,67.031 24.098,67.172 C23.910,67.312 23.758,67.430 23.641,67.523 L23.465,67.629 C23.277,67.770 23.184,67.969 23.184,68.227 L23.184,75.891 C23.184,76.172 23.301,76.383 23.535,76.523 C24.004,76.852 25.017,77.180 26.576,77.508 C28.135,77.836 29.512,78.000 30.707,78.000 C31.574,78.000 32.160,77.907 32.465,77.719 L32.465,77.719 ZM24.766,68.613 C25.492,68.051 26.265,67.536 27.086,67.066 C28.070,66.528 28.932,65.889 29.670,65.150 C30.408,64.412 30.894,63.703 31.129,63.023 C31.340,62.438 31.510,62.051 31.639,61.863 C31.767,61.676 31.925,61.582 32.113,61.582 C32.207,61.582 32.289,61.652 32.359,61.793 C32.547,62.238 32.500,62.906 32.219,63.797 C31.937,64.688 31.398,65.567 30.602,66.434 C30.367,66.621 30.308,66.868 30.426,67.172 C30.543,67.500 30.742,67.676 31.023,67.699 C31.046,67.699 31.270,67.746 31.691,67.840 C32.113,67.934 32.605,68.051 33.168,68.191 C33.730,68.332 34.164,68.450 34.469,68.543 C34.961,68.731 35.242,69.000 35.312,69.352 C35.359,69.844 35.043,70.301 34.363,70.723 C34.246,70.840 34.152,70.969 34.082,71.109 C32.957,74.156 32.160,75.903 31.691,76.348 C31.270,76.512 30.203,76.477 28.492,76.242 C26.781,76.008 25.539,75.738 24.766,75.434 L24.766,68.613 ZM21.285,76.857 C21.027,77.104 20.723,77.227 20.371,77.227 C20.020,77.227 19.721,77.104 19.475,76.857 C19.229,76.611 19.105,76.312 19.105,75.961 L19.105,68.156 C19.105,67.782 19.229,67.471 19.475,67.225 C19.721,66.979 20.031,66.855 20.406,66.855 C20.758,66.855 21.057,66.979 21.303,67.225 C21.549,67.471 21.672,67.782 21.672,68.156 L21.672,75.961 C21.672,76.312 21.543,76.611 21.285,76.857 Z" class="cls-5"/>
  <path d="M49.535,60.281 C48.855,60.656 47.848,62.602 46.512,66.117 C45.433,66.891 44.965,67.805 45.105,68.859 C45.246,69.867 45.890,70.559 47.039,70.934 C47.789,71.145 48.574,71.344 49.395,71.531 C48.762,72.422 48.322,73.324 48.076,74.238 C47.830,75.152 47.859,76.020 48.164,76.840 C48.539,77.613 49.113,78.000 49.887,78.000 C50.261,78.000 50.595,77.930 50.889,77.789 C51.181,77.648 51.428,77.426 51.627,77.121 C51.826,76.817 51.966,76.571 52.049,76.383 C52.131,76.195 52.242,75.903 52.383,75.504 C52.523,75.035 52.898,74.496 53.508,73.887 C54.117,73.278 54.844,72.739 55.687,72.270 C56.109,72.036 56.549,71.766 57.006,71.461 C57.463,71.157 57.832,70.898 58.113,70.687 L58.535,70.371 C58.722,70.230 58.816,70.032 58.816,69.773 L58.816,62.109 C58.816,61.828 58.711,61.617 58.500,61.477 C58.008,61.149 56.988,60.821 55.441,60.492 C53.895,60.164 52.511,60.000 51.293,60.000 C50.426,60.000 49.839,60.094 49.535,60.281 L49.535,60.281 ZM57.234,69.387 C56.508,69.949 55.734,70.465 54.914,70.934 C53.930,71.473 53.068,72.111 52.330,72.850 C51.592,73.588 51.105,74.297 50.871,74.977 C50.660,75.563 50.490,75.949 50.361,76.137 C50.232,76.325 50.074,76.418 49.887,76.418 C49.793,76.418 49.711,76.348 49.641,76.207 C49.453,75.762 49.500,75.094 49.781,74.203 C50.062,73.313 50.601,72.434 51.398,71.566 C51.632,71.379 51.691,71.133 51.574,70.828 C51.457,70.500 51.258,70.324 50.977,70.301 C50.953,70.301 50.730,70.254 50.309,70.160 C49.887,70.067 49.395,69.949 48.832,69.809 C48.270,69.668 47.836,69.551 47.531,69.457 C47.039,69.270 46.758,69.000 46.687,68.648 C46.640,68.156 46.957,67.699 47.637,67.277 C47.754,67.160 47.848,67.031 47.918,66.891 C49.043,63.844 49.839,62.098 50.309,61.652 C50.730,61.489 51.797,61.524 53.508,61.758 C55.218,61.992 56.461,62.262 57.234,62.566 L57.234,69.387 ZM60.697,61.143 C60.943,60.896 61.242,60.773 61.594,60.773 C61.968,60.773 62.279,60.896 62.525,61.143 C62.771,61.389 62.895,61.687 62.895,62.039 L62.895,69.844 C62.895,70.195 62.771,70.494 62.525,70.740 C62.279,70.986 61.968,71.109 61.594,71.109 C61.242,71.109 60.943,70.986 60.697,70.740 C60.451,70.494 60.328,70.195 60.328,69.844 L60.328,62.039 C60.328,61.687 60.451,61.389 60.697,61.143 Z" class="cls-5"/>
  <path d="M86.189,64.746 C86.342,64.910 86.418,65.098 86.418,65.309 L86.418,74.484 C86.418,74.695 86.342,74.877 86.189,75.029 C86.037,75.182 85.855,75.258 85.645,75.258 L72.355,75.258 C72.145,75.258 71.963,75.182 71.811,75.029 C71.658,74.877 71.582,74.695 71.582,74.484 L71.582,63.516 C71.582,63.305 71.658,63.123 71.811,62.971 C71.963,62.819 72.145,62.742 72.355,62.742 L77.383,62.742 C77.664,62.742 77.887,62.860 78.051,63.094 L78.895,64.500 L85.645,64.500 C85.855,64.500 86.037,64.582 86.189,64.746 ZM84.871,66.082 L78.437,66.082 C78.133,66.082 77.910,65.953 77.770,65.695 L76.926,64.289 L73.129,64.289 L73.129,73.711 L84.871,73.711 L84.871,66.082 Z" class="cls-5"/>
  <path d="M96.448,77.000 C96.682,77.000 96.929,76.979 97.186,76.938 C97.444,76.897 97.717,76.834 98.004,76.749 C98.291,76.665 98.590,76.559 98.900,76.433 C99.211,76.307 99.533,76.162 99.867,75.998 C100.295,75.781 100.681,75.569 101.027,75.361 C101.373,75.153 101.643,74.984 101.836,74.855 C102.269,74.967 102.713,75.052 103.167,75.110 C103.621,75.169 104.083,75.198 104.552,75.198 C105.114,75.198 105.669,75.156 106.217,75.071 C106.765,74.986 107.292,74.861 107.799,74.697 C108.306,74.533 108.791,74.331 109.254,74.091 C109.717,73.851 110.150,73.572 110.555,73.256 C110.754,73.103 110.941,72.944 111.117,72.777 C111.293,72.610 111.458,72.437 111.614,72.258 C111.769,72.080 111.913,71.895 112.044,71.705 C112.176,71.514 112.298,71.319 112.409,71.120 C112.638,70.698 112.810,70.263 112.928,69.815 C113.045,69.367 113.103,68.911 113.103,68.448 C113.103,67.985 113.045,67.531 112.928,67.086 C112.810,66.641 112.638,66.207 112.409,65.785 C112.298,65.580 112.176,65.382 112.044,65.192 C111.913,65.001 111.769,64.817 111.614,64.638 C111.458,64.459 111.293,64.287 111.117,64.120 C110.941,63.953 110.754,63.793 110.555,63.641 C110.150,63.330 109.717,63.053 109.254,62.810 C108.791,62.567 108.305,62.363 107.795,62.199 C107.285,62.035 106.758,61.911 106.213,61.826 C105.668,61.741 105.114,61.698 104.552,61.698 C103.983,61.698 103.427,61.741 102.882,61.826 C102.337,61.911 101.811,62.035 101.304,62.199 C100.797,62.363 100.311,62.567 99.845,62.810 C99.379,63.053 98.947,63.330 98.549,63.641 C98.349,63.793 98.161,63.953 97.982,64.120 C97.803,64.287 97.638,64.459 97.485,64.638 C97.333,64.817 97.189,65.001 97.055,65.192 C96.920,65.382 96.800,65.580 96.694,65.785 C96.466,66.207 96.293,66.641 96.176,67.086 C96.058,67.531 96.000,67.985 96.000,68.448 C96.000,68.905 96.057,69.356 96.171,69.802 C96.286,70.247 96.454,70.676 96.677,71.089 C96.899,71.502 97.172,71.895 97.494,72.267 C97.816,72.639 98.182,72.983 98.593,73.300 C98.540,73.458 98.458,73.653 98.347,73.884 C98.235,74.116 98.084,74.362 97.894,74.623 C97.703,74.883 97.472,75.148 97.200,75.418 C96.927,75.687 96.600,75.936 96.220,76.165 C96.132,76.218 96.069,76.291 96.031,76.385 C95.993,76.479 95.988,76.572 96.018,76.666 C96.041,76.766 96.094,76.846 96.176,76.908 C96.258,76.969 96.348,77.000 96.448,77.000 L96.448,77.000 ZM104.552,62.603 C105.606,62.603 106.598,62.756 107.527,63.060 C108.455,63.365 109.266,63.783 109.957,64.313 C110.648,64.843 111.195,65.464 111.596,66.176 C111.997,66.888 112.198,67.645 112.198,68.448 C112.198,69.257 111.997,70.016 111.596,70.725 C111.195,71.434 110.648,72.053 109.957,72.583 C109.266,73.114 108.455,73.533 107.527,73.840 C106.598,74.148 105.606,74.302 104.552,74.302 C104.089,74.302 103.635,74.271 103.189,74.209 C102.744,74.148 102.307,74.056 101.880,73.933 C101.815,73.915 101.749,73.911 101.682,73.919 C101.615,73.928 101.555,73.953 101.502,73.994 C101.267,74.152 101.016,74.315 100.746,74.482 C100.476,74.649 100.197,74.810 99.907,74.965 C99.617,75.121 99.322,75.266 99.023,75.400 C98.725,75.535 98.429,75.655 98.136,75.761 C98.376,75.497 98.580,75.236 98.747,74.978 C98.913,74.721 99.053,74.480 99.164,74.258 C99.275,74.035 99.362,73.836 99.423,73.660 C99.485,73.484 99.530,73.347 99.559,73.247 C99.583,73.159 99.578,73.070 99.546,72.979 C99.514,72.888 99.460,72.816 99.384,72.764 C98.985,72.488 98.632,72.185 98.325,71.854 C98.017,71.523 97.758,71.173 97.547,70.804 C97.336,70.435 97.175,70.052 97.063,69.657 C96.952,69.261 96.896,68.858 96.896,68.448 C96.896,67.645 97.097,66.888 97.498,66.176 C97.900,65.464 98.448,64.843 99.142,64.313 C99.836,63.783 100.648,63.365 101.577,63.060 C102.505,62.756 103.497,62.603 104.552,62.603 L104.552,62.603 Z" class="cls-6"/>
  <path d="M34.718,26.250 C34.718,26.872 34.247,27.375 33.625,27.375 L22.843,27.375 L26.548,31.080 C26.987,31.520 26.987,32.232 26.548,32.671 C26.327,32.891 26.038,33.000 25.750,33.000 C25.462,33.000 25.174,32.890 24.955,32.670 L19.330,27.045 C18.890,26.606 18.890,25.894 19.330,25.455 L24.955,19.830 C25.394,19.390 26.106,19.390 26.546,19.830 C26.985,20.269 26.985,20.981 26.546,21.420 L22.843,25.125 L33.625,25.125 C34.247,25.125 34.718,25.628 34.718,26.250 Z" class="cls-3"/>
  <path d="M18.080,111.510 C17.829,111.874 17.627,112.220 17.471,112.548 C17.316,112.876 17.185,113.198 17.077,113.514 C16.970,113.831 16.887,114.130 16.827,114.411 C16.767,114.692 16.726,114.933 16.701,115.132 C16.678,115.331 16.666,115.501 16.666,115.641 L16.630,115.852 C16.630,116.251 16.845,116.509 17.274,116.626 L17.453,116.626 C17.764,116.626 17.991,116.497 18.134,116.239 C19.136,114.505 21.369,113.673 24.830,113.743 L24.830,115.852 C24.830,116.157 25.009,116.403 25.367,116.591 C25.749,116.708 26.060,116.649 26.298,116.415 L31.204,111.528 C31.562,111.176 31.562,110.802 31.204,110.403 L26.263,105.516 C26.024,105.282 25.725,105.224 25.367,105.341 C25.009,105.528 24.830,105.775 24.830,106.079 L24.830,108.153 C22.372,108.294 20.402,109.079 18.922,110.509 C18.612,110.813 18.331,111.147 18.080,111.510 ZM24.472,112.143 C23.876,112.132 22.992,112.226 21.822,112.425 C20.653,112.624 19.650,112.969 18.814,113.462 C19.913,110.954 22.204,109.700 25.690,109.700 C25.904,109.700 26.083,109.624 26.227,109.471 C26.370,109.319 26.442,109.137 26.442,108.926 L26.442,107.977 L29.414,110.966 L26.442,113.954 L26.442,113.005 C26.442,112.536 26.215,112.278 25.761,112.231 C25.499,112.184 25.069,112.155 24.472,112.143 ZM33.102,110.966 L28.733,106.676 C28.352,106.302 28.352,105.927 28.733,105.551 C29.091,105.177 29.462,105.177 29.843,105.551 L34.749,110.438 C34.893,110.579 34.964,110.755 34.964,110.966 C34.964,111.176 34.893,111.364 34.749,111.528 L29.843,116.415 C29.700,116.579 29.509,116.661 29.271,116.661 C29.056,116.661 28.877,116.579 28.733,116.415 C28.352,116.040 28.352,115.676 28.733,115.325 L33.102,110.966 Z" class="cls-1"/>
  <path d="M60.859,111.422 C60.742,111.586 60.590,111.786 60.402,112.020 C60.214,112.254 59.840,112.647 59.277,113.197 C58.715,113.748 58.117,114.229 57.484,114.639 C56.852,115.049 56.037,115.424 55.041,115.764 C54.045,116.104 53.031,116.273 52.000,116.273 C48.672,116.273 45.719,114.668 43.141,111.457 C42.953,111.153 42.953,110.859 43.141,110.578 C43.258,110.414 43.410,110.215 43.598,109.980 C43.785,109.746 44.160,109.354 44.723,108.803 C45.285,108.252 45.883,107.772 46.516,107.361 C47.148,106.952 47.963,106.576 48.959,106.236 C49.955,105.897 50.968,105.727 52.000,105.727 C53.031,105.727 54.045,105.897 55.041,106.236 C56.037,106.576 56.852,106.952 57.484,107.361 C58.117,107.772 58.715,108.252 59.277,108.803 C59.840,109.354 60.214,109.746 60.402,109.980 C60.590,110.215 60.742,110.414 60.859,110.578 C61.070,110.859 61.070,111.141 60.859,111.422 L60.859,111.422 ZM59.242,111.000 C58.820,110.485 58.340,109.993 57.801,109.523 C57.261,109.055 56.447,108.563 55.357,108.047 C54.268,107.532 53.148,107.273 52.000,107.273 C50.851,107.273 49.726,107.526 48.625,108.029 C47.523,108.534 46.709,109.026 46.182,109.506 C45.654,109.987 45.180,110.485 44.758,111.000 C45.180,111.516 45.660,112.008 46.199,112.477 C46.738,112.946 47.553,113.438 48.643,113.953 C49.732,114.469 50.851,114.727 52.000,114.727 C54.742,114.727 57.156,113.485 59.242,111.000 L59.242,111.000 ZM54.566,109.066 C55.105,109.793 55.310,110.602 55.182,111.492 C55.053,112.383 54.637,113.098 53.934,113.637 C53.277,114.059 52.621,114.270 51.965,114.270 C51.941,114.270 51.877,114.264 51.771,114.252 C51.666,114.240 51.590,114.234 51.543,114.234 C50.629,114.094 49.914,113.672 49.398,112.969 C48.859,112.243 48.654,111.439 48.783,110.561 C48.912,109.682 49.328,108.973 50.031,108.434 C50.781,107.871 51.590,107.660 52.457,107.801 C53.347,107.918 54.051,108.340 54.566,109.066 L54.566,109.066 ZM54.021,111.299 C54.103,110.725 53.980,110.203 53.652,109.734 C53.324,109.289 52.867,109.031 52.281,108.961 C51.719,108.844 51.214,108.973 50.770,109.348 C50.324,109.676 50.060,110.127 49.979,110.701 C49.896,111.276 50.019,111.797 50.348,112.266 C50.676,112.711 51.133,112.969 51.719,113.039 C52.281,113.157 52.785,113.028 53.230,112.652 C53.675,112.324 53.939,111.873 54.021,111.299 ZM52.070,109.840 C51.906,109.980 51.824,110.156 51.824,110.367 C51.824,110.578 51.906,110.766 52.070,110.930 C52.211,111.070 52.387,111.141 52.598,111.141 C52.832,111.141 53.020,111.070 53.160,110.930 C53.324,110.766 53.406,110.578 53.406,110.367 C53.406,110.180 53.324,110.004 53.160,109.840 C52.996,109.676 52.809,109.594 52.598,109.594 C52.387,109.594 52.211,109.676 52.070,109.840 L52.070,109.840 Z" class="cls-1"/>
  <path d="M78.289,110.227 L74.773,110.227 L74.773,106.711 C74.773,106.477 74.691,106.271 74.527,106.096 C74.363,105.920 74.152,105.832 73.895,105.832 C73.636,105.832 73.425,105.920 73.262,106.096 C73.097,106.271 73.016,106.477 73.016,106.711 L73.016,110.227 L69.711,110.227 C69.476,110.227 69.271,110.309 69.096,110.473 C68.920,110.637 68.832,110.848 68.832,111.105 C68.832,111.364 68.920,111.575 69.096,111.738 C69.271,111.903 69.476,111.984 69.711,111.984 L73.016,111.984 L73.016,115.289 C73.016,115.524 73.097,115.729 73.262,115.904 C73.425,116.080 73.636,116.168 73.895,116.168 C74.152,116.168 74.363,116.080 74.527,115.904 C74.691,115.729 74.773,115.524 74.773,115.289 L74.773,111.984 L78.289,111.984 C78.523,111.984 78.728,111.903 78.904,111.738 C79.080,111.575 79.168,111.364 79.168,111.105 C79.168,110.848 79.080,110.637 78.904,110.473 C78.728,110.309 78.523,110.227 78.289,110.227 L78.289,110.227 Z" class="cls-1"/>
  <path d="M103.035,115.000 C103.035,115.211 102.959,115.393 102.807,115.545 C102.654,115.698 102.473,115.773 102.262,115.773 L85.809,115.773 C85.598,115.773 85.416,115.698 85.264,115.545 C85.111,115.393 85.035,115.211 85.035,115.000 L85.035,106.000 L85.035,105.965 L85.035,105.895 L85.035,105.859 C85.035,105.836 85.047,105.813 85.070,105.789 L85.070,105.754 L85.070,105.684 C85.093,105.684 85.105,105.661 85.105,105.613 L85.141,105.543 C85.164,105.520 85.187,105.508 85.211,105.508 C85.211,105.485 85.222,105.461 85.246,105.437 C85.269,105.437 85.281,105.432 85.281,105.420 C85.281,105.408 85.293,105.402 85.316,105.402 C85.316,105.379 85.339,105.367 85.387,105.367 C85.387,105.344 85.398,105.332 85.422,105.332 L85.492,105.262 L85.562,105.262 C85.586,105.262 85.609,105.250 85.633,105.227 L85.738,105.227 L85.773,105.227 L102.262,105.227 L102.332,105.227 L102.402,105.227 C102.425,105.227 102.437,105.233 102.437,105.244 C102.437,105.256 102.449,105.262 102.473,105.262 L102.543,105.262 L102.613,105.332 L102.684,105.367 L102.719,105.402 C102.742,105.402 102.765,105.414 102.789,105.437 L102.859,105.508 L102.895,105.543 C102.895,105.590 102.906,105.613 102.930,105.613 C102.930,105.637 102.941,105.661 102.965,105.684 L102.965,105.754 C102.965,105.778 102.976,105.801 103.000,105.824 L103.000,105.859 L103.000,105.895 L103.000,105.965 L103.035,115.000 ZM88.164,106.773 L94.000,111.133 L99.836,106.773 L88.164,106.773 ZM101.418,114.227 L101.418,107.582 L94.457,112.715 C94.293,112.832 94.141,112.891 94.000,112.891 C93.859,112.891 93.707,112.832 93.543,112.715 L86.582,107.582 L86.582,114.227 L101.418,114.227 Z" class="cls-1"/>
  <path d="M126.449,128.164 C126.824,128.529 126.824,128.906 126.449,129.295 L121.562,134.584 C121.398,134.753 121.211,134.839 121.000,134.839 C120.789,134.839 120.601,134.753 120.437,134.584 L115.551,129.295 C115.176,128.906 115.176,128.529 115.551,128.164 C115.714,127.994 115.908,127.909 116.131,127.909 C116.353,127.909 116.535,127.994 116.676,128.164 L121.000,132.833 L125.324,128.164 C125.488,127.994 125.676,127.909 125.887,127.909 C126.050,127.909 126.238,127.994 126.449,128.164 L126.449,128.164 Z" class="cls-2"/>
  <path d="M18.080,131.510 C17.829,131.874 17.627,132.220 17.471,132.548 C17.316,132.876 17.185,133.198 17.077,133.514 C16.970,133.831 16.887,134.130 16.827,134.411 C16.767,134.692 16.726,134.933 16.701,135.132 C16.678,135.331 16.666,135.501 16.666,135.641 L16.630,135.852 C16.630,136.251 16.845,136.509 17.274,136.626 L17.453,136.626 C17.764,136.626 17.991,136.497 18.134,136.239 C19.136,134.505 21.369,133.673 24.830,133.743 L24.830,135.852 C24.830,136.157 25.009,136.403 25.367,136.591 C25.749,136.708 26.060,136.649 26.298,136.415 L31.204,131.528 C31.562,131.176 31.562,130.802 31.204,130.403 L26.263,125.516 C26.024,125.282 25.725,125.224 25.367,125.341 C25.009,125.528 24.830,125.775 24.830,126.079 L24.830,128.153 C22.372,128.294 20.402,129.079 18.922,130.509 C18.612,130.813 18.331,131.147 18.080,131.510 ZM24.472,132.143 C23.876,132.132 22.992,132.226 21.822,132.425 C20.653,132.624 19.650,132.969 18.814,133.462 C19.913,130.954 22.204,129.700 25.690,129.700 C25.904,129.700 26.083,129.624 26.227,129.471 C26.370,129.319 26.442,129.137 26.442,128.926 L26.442,127.977 L29.414,130.966 L26.442,133.954 L26.442,133.005 C26.442,132.536 26.215,132.278 25.761,132.231 C25.499,132.184 25.069,132.155 24.472,132.143 ZM33.102,130.966 L28.733,126.676 C28.352,126.302 28.352,125.927 28.733,125.551 C29.091,125.177 29.462,125.177 29.843,125.551 L34.749,130.438 C34.893,130.579 34.964,130.755 34.964,130.966 C34.964,131.176 34.893,131.364 34.749,131.528 L29.843,136.415 C29.700,136.579 29.509,136.661 29.271,136.661 C29.056,136.661 28.877,136.579 28.733,136.415 C28.352,136.040 28.352,135.676 28.733,135.325 L33.102,130.966 Z" class="cls-2"/>
  <path d="M60.859,131.422 C60.742,131.586 60.590,131.786 60.402,132.020 C60.214,132.254 59.840,132.647 59.277,133.197 C58.715,133.748 58.117,134.229 57.484,134.639 C56.852,135.049 56.037,135.424 55.041,135.764 C54.045,136.104 53.031,136.273 52.000,136.273 C48.672,136.273 45.719,134.668 43.141,131.457 C42.953,131.153 42.953,130.859 43.141,130.578 C43.258,130.414 43.410,130.215 43.598,129.980 C43.785,129.746 44.160,129.354 44.723,128.803 C45.285,128.252 45.883,127.772 46.516,127.361 C47.148,126.952 47.963,126.576 48.959,126.236 C49.955,125.897 50.968,125.727 52.000,125.727 C53.031,125.727 54.045,125.897 55.041,126.236 C56.037,126.576 56.852,126.952 57.484,127.361 C58.117,127.772 58.715,128.252 59.277,128.803 C59.840,129.354 60.214,129.746 60.402,129.980 C60.590,130.215 60.742,130.414 60.859,130.578 C61.070,130.859 61.070,131.141 60.859,131.422 L60.859,131.422 ZM59.242,131.000 C58.820,130.485 58.340,129.993 57.801,129.523 C57.261,129.055 56.447,128.563 55.357,128.047 C54.268,127.532 53.148,127.273 52.000,127.273 C50.851,127.273 49.726,127.526 48.625,128.029 C47.523,128.534 46.709,129.026 46.182,129.506 C45.654,129.986 45.180,130.485 44.758,131.000 C45.180,131.516 45.660,132.008 46.199,132.477 C46.738,132.946 47.553,133.438 48.643,133.953 C49.732,134.469 50.851,134.727 52.000,134.727 C54.742,134.727 57.156,133.485 59.242,131.000 L59.242,131.000 ZM54.566,129.066 C55.105,129.793 55.310,130.602 55.182,131.492 C55.053,132.383 54.637,133.098 53.934,133.637 C53.277,134.059 52.621,134.270 51.965,134.270 C51.941,134.270 51.877,134.264 51.771,134.252 C51.666,134.240 51.590,134.234 51.543,134.234 C50.629,134.094 49.914,133.672 49.398,132.969 C48.859,132.243 48.654,131.439 48.783,130.561 C48.912,129.682 49.328,128.973 50.031,128.434 C50.781,127.871 51.590,127.660 52.457,127.801 C53.347,127.918 54.051,128.340 54.566,129.066 L54.566,129.066 ZM54.021,131.299 C54.103,130.725 53.980,130.203 53.652,129.734 C53.324,129.289 52.867,129.031 52.281,128.961 C51.719,128.844 51.214,128.973 50.770,129.348 C50.324,129.676 50.060,130.127 49.979,130.701 C49.896,131.276 50.019,131.797 50.348,132.266 C50.676,132.711 51.133,132.969 51.719,133.039 C52.281,133.157 52.785,133.028 53.230,132.652 C53.675,132.324 53.939,131.873 54.021,131.299 ZM52.070,129.840 C51.906,129.980 51.824,130.156 51.824,130.367 C51.824,130.578 51.906,130.766 52.070,130.930 C52.211,131.070 52.387,131.141 52.598,131.141 C52.832,131.141 53.020,131.070 53.160,130.930 C53.324,130.766 53.406,130.578 53.406,130.367 C53.406,130.180 53.324,130.004 53.160,129.840 C52.996,129.676 52.809,129.594 52.598,129.594 C52.387,129.594 52.211,129.676 52.070,129.840 L52.070,129.840 Z" class="cls-2"/>
  <path d="M78.289,130.227 L74.773,130.227 L74.773,126.711 C74.773,126.477 74.691,126.271 74.527,126.096 C74.363,125.920 74.152,125.832 73.895,125.832 C73.636,125.832 73.425,125.920 73.262,126.096 C73.097,126.271 73.016,126.477 73.016,126.711 L73.016,130.227 L69.711,130.227 C69.476,130.227 69.271,130.309 69.096,130.473 C68.920,130.637 68.832,130.848 68.832,131.105 C68.832,131.364 68.920,131.575 69.096,131.738 C69.271,131.903 69.476,131.984 69.711,131.984 L73.016,131.984 L73.016,135.289 C73.016,135.524 73.097,135.729 73.262,135.904 C73.425,136.080 73.636,136.168 73.895,136.168 C74.152,136.168 74.363,136.080 74.527,135.904 C74.691,135.729 74.773,135.524 74.773,135.289 L74.773,131.984 L78.289,131.984 C78.523,131.984 78.728,131.903 78.904,131.738 C79.080,131.575 79.168,131.364 79.168,131.105 C79.168,130.848 79.080,130.637 78.904,130.473 C78.728,130.309 78.523,130.227 78.289,130.227 L78.289,130.227 Z" class="cls-2"/>
  <path d="M103.035,135.000 C103.035,135.211 102.959,135.393 102.807,135.545 C102.654,135.698 102.473,135.773 102.262,135.773 L85.809,135.773 C85.598,135.773 85.416,135.698 85.264,135.545 C85.111,135.393 85.035,135.211 85.035,135.000 L85.035,126.000 L85.035,125.965 L85.035,125.895 L85.035,125.859 C85.035,125.836 85.047,125.813 85.070,125.789 L85.070,125.754 L85.070,125.684 C85.093,125.684 85.105,125.661 85.105,125.613 L85.141,125.543 C85.164,125.520 85.187,125.508 85.211,125.508 C85.211,125.485 85.222,125.461 85.246,125.437 C85.269,125.437 85.281,125.432 85.281,125.420 C85.281,125.408 85.293,125.402 85.316,125.402 C85.316,125.379 85.339,125.367 85.387,125.367 C85.387,125.344 85.398,125.332 85.422,125.332 L85.492,125.262 L85.562,125.262 C85.586,125.262 85.609,125.250 85.633,125.227 L85.738,125.227 L85.773,125.227 L102.262,125.227 L102.332,125.227 L102.402,125.227 C102.425,125.227 102.437,125.233 102.437,125.244 C102.437,125.256 102.449,125.262 102.473,125.262 L102.543,125.262 L102.613,125.332 L102.684,125.367 L102.719,125.402 C102.742,125.402 102.765,125.414 102.789,125.437 L102.859,125.508 L102.895,125.543 C102.895,125.590 102.906,125.613 102.930,125.613 C102.930,125.637 102.941,125.661 102.965,125.684 L102.965,125.754 C102.965,125.778 102.976,125.801 103.000,125.824 L103.000,125.859 L103.000,125.895 L103.000,125.965 L103.035,135.000 ZM88.164,126.773 L94.000,131.133 L99.836,126.773 L88.164,126.773 ZM101.418,134.227 L101.418,127.582 L94.457,132.715 C94.293,132.832 94.141,132.891 94.000,132.891 C93.859,132.891 93.707,132.832 93.543,132.715 L86.582,127.582 L86.582,134.227 L101.418,134.227 Z" class="cls-2"/>
  <path d="M137.708,73.000 C137.532,73.000 137.356,72.933 137.222,72.799 C136.954,72.530 136.954,72.095 137.222,71.826 L140.175,68.875 L137.222,65.923 C136.954,65.654 136.954,65.219 137.222,64.951 C137.491,64.682 137.926,64.682 138.195,64.951 L141.632,68.388 C141.901,68.657 141.901,69.092 141.632,69.361 L138.195,72.798 C138.060,72.933 137.884,73.000 137.708,73.000 Z" class="cls-3"/>
  <path d="M185.706,90.294 L180.706,85.294 C180.316,84.903 179.683,84.903 179.292,85.294 C178.902,85.684 178.902,86.317 179.292,86.708 L183.587,91.000 L179.294,95.294 C178.903,95.684 178.903,96.317 179.294,96.708 C179.488,96.903 179.744,97.000 180.000,97.000 C180.256,97.000 180.512,96.902 180.707,96.707 L185.707,91.707 C186.097,91.316 186.097,90.684 185.706,90.294 ZM191.706,90.294 L186.706,85.294 C186.316,84.903 185.683,84.903 185.292,85.294 C184.902,85.684 184.902,86.317 185.292,86.708 L189.587,91.000 L185.294,95.294 C184.903,95.684 184.903,96.317 185.294,96.708 C185.487,96.903 185.744,97.000 186.000,97.000 C186.256,97.000 186.512,96.902 186.707,96.707 L191.707,91.707 C192.097,91.316 192.097,90.684 191.706,90.294 Z" class="cls-2"/>
</svg>
