<?xml version="1.0" encoding="UTF-8" standalone="no"?><!-- Generator: Gravit.io --><svg xmlns="http://www.w3.org/2000/svg" xmlns:xlink="http://www.w3.org/1999/xlink" style="isolation:isolate" viewBox="0 0 26 33" width="26pt" height="33pt"><defs><clipPath id="_clipPath_q3EMcK512wLJbmLgWMbi3r6oQAkjSyz9"><rect width="26" height="33"/></clipPath></defs><g clip-path="url(#_clipPath_q3EMcK512wLJbmLgWMbi3r6oQAkjSyz9)"><rect width="26" height="33" style="fill:rgb(0,0,0)" fill-opacity="0"/><path d=" M 16 32 L 4 32 C 2.3 32 1 30.7 1 29 L 1 13 C 1 11.3 2.3 10 4 10 L 11 10 C 11.3 10 11.5 10.1 11.7 10.3 L 18.7 17.3 C 18.9 17.5 19 17.7 19 18 L 19 29 C 19 30.7 17.7 32 16 32 Z  M 4 12 C 3.4 12 3 12.4 3 13 L 3 29 C 3 29.6 3.4 30 4 30 L 16 30 C 16.6 30 17 29.6 17 29 L 17 18.4 L 10.6 12 L 4 12 Z " fill="rgb(147,162,187)"/><path d=" M 12.338 28.2 L 5.762 28.2 C 4.885 28.2 4.3 27.8 4.3 27.2 C 4.3 26.6 4.885 26.2 5.762 26.2 L 12.338 26.2 C 13.215 26.2 13.8 26.6 13.8 27.2 C 13.8 27.8 13.215 28.2 12.338 28.2 Z " fill="rgb(147,162,187)"/><path d=" M 12.762 25.2 L 5.838 25.2 C 4.915 25.2 4.3 24.8 4.3 24.2 C 4.3 23.6 4.915 23.2 5.838 23.2 L 12.762 23.2 C 13.685 23.2 14.3 23.6 14.3 24.2 C 14.3 24.8 13.685 25.2 12.762 25.2 Z " fill="rgb(147,162,187)"/><path d=" M 9.8 22.2 L 5.3 22.2 C 4.7 22.2 4.3 21.8 4.3 21.2 C 4.3 20.6 4.7 20.2 5.3 20.2 L 9.8 20.2 C 10.4 20.2 10.8 20.6 10.8 21.2 C 10.8 21.8 10.4 22.2 9.8 22.2 Z " fill="rgb(147,162,187)"/><path d=" M 18 19 L 11 19 C 10.4 19 10 18.6 10 18 L 10 11 C 10 10.4 10.4 10 11 10 C 11.6 10 12 10.4 12 11 L 12 17 L 18 17 C 18.6 17 19 17.4 19 18 C 19 18.6 18.6 19 18 19 Z " fill="rgb(147,162,187)"/><g><mask id="_mask_qT3ttKHT11hYHYy5QGzB8DsFj6wUNJb7" x="-200%" y="-200%" width="400%" height="400%"><rect x="-200%" y="-200%" width="400%" height="400%" style="fill:white;"/><path d=" M 20.175 4.075 L 14.989 4.075 C 14.703 4.083 14.473 4.314 14.464 4.6 L 14.464 9.261 C 14.473 9.547 14.703 9.777 14.989 9.786 L 16.532 9.786 L 17.582 10.835 L 18.631 9.786 L 20.175 9.786 C 20.461 9.777 20.692 9.547 20.7 9.261 L 20.7 4.6 C 20.692 4.314 20.462 4.084 20.175 4.075 Z " fill="black" stroke="none"/></mask><path d=" M 20.175 4.075 L 14.989 4.075 C 14.703 4.083 14.473 4.314 14.464 4.6 L 14.464 9.261 C 14.473 9.547 14.703 9.777 14.989 9.786 L 16.532 9.786 L 17.582 10.835 L 18.631 9.786 L 20.175 9.786 C 20.461 9.777 20.692 9.547 20.7 9.261 L 20.7 4.6 C 20.692 4.314 20.462 4.084 20.175 4.075 Z " fill="none" mask="url(#_mask_qT3ttKHT11hYHYy5QGzB8DsFj6wUNJb7)" vector-effect="non-scaling-stroke" stroke-width="3.606" stroke="rgb(147,162,187)" stroke-linejoin="round" stroke-linecap="round" stroke-miterlimit="4"/><path d=" M 20.175 4.075 L 14.989 4.075 C 14.703 4.083 14.473 4.314 14.464 4.6 L 14.464 9.261 C 14.473 9.547 14.703 9.777 14.989 9.786 L 16.532 9.786 L 17.582 10.835 L 18.631 9.786 L 20.175 9.786 C 20.461 9.777 20.692 9.547 20.7 9.261 L 20.7 4.6 C 20.692 4.314 20.462 4.084 20.175 4.075 Z " fill="none"/></g><path d="M 17.457 6.7 L 17.943 6.7 C 18.085 6.7 18.2 6.815 18.2 6.957 L 18.2 8.943 C 18.2 9.085 18.085 9.2 17.943 9.2 L 17.457 9.2 C 17.315 9.2 17.2 9.085 17.2 8.943 L 17.2 6.957 C 17.2 6.815 17.315 6.7 17.457 6.7 Z" style="stroke:none;fill:#93A2BB;stroke-miterlimit:10;"/><path d="M 17.7 5.6 L 17.7 5.6 C 17.976 5.6 18.2 5.782 18.2 6.006 L 18.2 6.006 C 18.2 6.23 17.976 6.413 17.7 6.413 L 17.7 6.413 C 17.424 6.413 17.2 6.23 17.2 6.006 L 17.2 6.006 C 17.2 5.782 17.424 5.6 17.7 5.6 Z" style="stroke:none;fill:#93A2BB;stroke-miterlimit:10;"/></g></svg>Zlyqnlt9rUB6Bv56E9RVz9M)" vector-effect="non-scaling-stroke" stroke-width="3.606" stroke="rgb(147,162,187)" stroke-linejoin="round" stroke-linecap="round" stroke-miterlimit="4"/><path d=" M 21.886 2.95 L 15.317 2.95 C 14.954 2.96 14.662 3.252 14.652 3.615 L 14.652 9.518 C 14.662 9.881 14.954 10.172 15.317 10.183 L 17.271 10.183 L 18.601 11.512 L 19.93 10.183 L 21.885 10.183 C 22.248 10.172 22.539 9.881 22.55 9.518 L 22.55 3.615 C 22.539 3.252 22.248 2.961 21.886 2.95 Z " fill="none"/></g></g></svg>