<?xml version="1.0" standalone="no"?><!-- Generator: Gravit.io --><svg xmlns="http://www.w3.org/2000/svg" xmlns:xlink="http://www.w3.org/1999/xlink" style="isolation:isolate" viewBox="0 0 350 271" width="350" height="271"><defs><clipPath id="_clipPath_QhJxrYDuKZBEpnsdbbaVJH82ECrg1lu2"><rect width="350" height="271"/></clipPath></defs><g clip-path="url(#_clipPath_QhJxrYDuKZBEpnsdbbaVJH82ECrg1lu2)"><g><path d=" M 295.18 225.368 C 295.345 231.627 292.739 237.674 287.97 242.101 C 283.2 246.528 276.684 248.946 269.941 248.793 L 44.596 248.793 C 37.853 248.946 31.337 246.528 26.567 242.101 C 21.798 237.674 19.192 231.627 19.357 225.368 L 19.357 88.165 C 19.192 81.907 21.798 75.859 26.567 71.433 C 31.337 67.006 37.853 64.587 44.596 64.74 L 269.941 64.74 C 276.684 64.587 283.2 67.006 287.97 71.433 C 292.739 75.859 295.345 81.907 295.18 88.165 L 295.18 225.368 Z " fill="none" vector-effect="non-scaling-stroke" stroke-width="6" stroke="rgb(174,164,164)" stroke-linejoin="round" stroke-linecap="round" stroke-miterlimit="4"/><path d=" M 77.046 113.263 L 152.762 175.172 L 237.492 113.263" fill="none" vector-effect="non-scaling-stroke" stroke-width="6" stroke="rgb(174,164,164)" stroke-linejoin="round" stroke-linecap="round" stroke-miterlimit="4"/></g><ellipse vector-effect="non-scaling-stroke" cx="279.9185450894528" cy="70.3820937735502" rx="65.88706605789808" ry="62.74958672180766" fill="rgb(255,255,255)"/><g><g><path d=" M 280.128 18.279 C 305.621 18.279 326.479 39.137 326.479 64.63 C 326.479 90.123 305.621 110.981 280.128 110.981 C 254.635 110.981 233.777 90.123 233.777 64.63 C 233.777 39.137 254.635 18.279 280.128 18.279 Z  M 280.128 6.691 C 248.261 6.691 222.189 32.764 222.189 64.63 C 222.189 96.496 248.261 122.569 280.128 122.569 C 311.994 122.569 338.066 96.496 338.066 64.63 C 338.066 32.764 311.994 6.691 280.128 6.691 L 280.128 6.691 Z " fill="rgb(255,0,0)"/></g><line x1="316.05" y1="100.552" x2="244.206" y2="28.708" vector-effect="non-scaling-stroke" stroke-width="2" stroke="rgb(255,0,0)" stroke-linejoin="miter" stroke-linecap="butt" stroke-miterlimit="10"/></g></g></svg>