<?xml version="1.0" encoding="UTF-8" standalone="no"?><!-- Generator: Gravit.io --><svg xmlns="http://www.w3.org/2000/svg" xmlns:xlink="http://www.w3.org/1999/xlink" style="isolation:isolate" viewBox="0 0 350 271" width="350pt" height="271pt"><defs><clipPath id="_clipPath_Y3oFjFmleI9QfEneB6tnpsPisEdQtGfP"><rect width="350" height="271"/></clipPath></defs><g clip-path="url(#_clipPath_Y3oFjFmleI9QfEneB6tnpsPisEdQtGfP)"><rect width="350" height="271" style="fill:rgb(0,0,0)" fill-opacity="0"/><g><path d=" M 297.18 225.368 C 297.345 231.627 294.739 237.674 289.97 242.101 C 285.2 246.528 278.684 248.946 271.941 248.793 L 46.596 248.793 C 39.853 248.946 33.337 246.528 28.567 242.101 C 23.798 237.674 21.192 231.627 21.357 225.368 L 21.357 88.165 C 21.192 81.907 23.798 75.859 28.567 71.433 C 33.337 67.006 39.853 64.587 46.596 64.74 L 271.941 64.74 C 278.684 64.587 285.2 67.006 289.97 71.433 C 294.739 75.859 297.345 81.907 297.18 88.165 L 297.18 225.368 Z " fill="none" vector-effect="non-scaling-stroke" stroke-width="2" stroke="rgb(106,126,156)" stroke-linejoin="round" stroke-linecap="round" stroke-miterlimit="4"/><path d=" M 79.046 113.263 L 154.762 175.172 L 239.492 113.263" fill="none" vector-effect="non-scaling-stroke" stroke-width="2" stroke="rgb(106,126,156)" stroke-linejoin="round" stroke-linecap="round" stroke-miterlimit="4"/></g><ellipse vector-effect="non-scaling-stroke" cx="279.9185450894528" cy="70.3820937735502" rx="65.88706605789808" ry="62.74958672180766" fill="rgb(255,255,255)"/><g><g><path d=" M 276.24 18.41 C 306.183 18.41 330.681 42.909 330.681 72.851 C 330.681 102.794 306.183 127.292 276.24 127.292 C 246.298 127.292 221.799 102.794 221.799 72.851 C 221.799 42.909 246.298 18.41 276.24 18.41 Z  M 276.24 4.8 C 238.812 4.8 208.189 35.423 208.189 72.851 C 208.189 110.279 238.812 140.902 276.24 140.902 C 313.668 140.902 344.291 110.279 344.291 72.851 C 344.291 35.423 313.668 4.8 276.24 4.8 L 276.24 4.8 Z " fill="rgb(202,78,78)"/></g><line x1="317.115" y1="115.71" x2="236.428" y2="34.084" vector-effect="non-scaling-stroke" stroke-width="2" stroke="rgb(202,78,78)" stroke-linejoin="miter" stroke-linecap="butt" stroke-miterlimit="10"/></g></g></svg>