<?xml version="1.0" encoding="utf-8"?>
<!-- Generator: Adobe Illustrator 22.0.0, SVG Export Plug-In . SVG Version: 6.00 Build 0)  -->
<svg version="1.1" id="Capa_1" xmlns="http://www.w3.org/2000/svg" xmlns:xlink="http://www.w3.org/1999/xlink" x="0px" y="0px"
	 viewBox="0 0 512 512" style="enable-background:new 0 0 512 512;" xml:space="preserve">
<style type="text/css">
	.st0{fill:#6A7E9C;}
</style>
<path class="st0" d="M240.7,260.1C240.7,260.1,240.7,260.1,240.7,260.1c52.6,0,105.1,0,157.7,0c1.7,0,3.3,0.1,5-0.1
	c3.8-0.6,6.4-3.2,6-6.7c-0.3-2.6-2.6-5.3-4.7-7.2c-1.2-1.1-3.8-0.8-5.7-0.8c-104.8,0-209.6-0.1-314.4,0c-2.3,0-4.7,0-6.8,0.7
	c-3.6,1.1-5.3,3.9-5,7.6c0.4,3.7,2.6,6,6.3,6.5c1.3,0.2,2.6,0.1,4,0.1C135.6,260.1,188.1,260.1,240.7,260.1z"/>
<path class="st0" d="M241.3,99c-52.4,0-104.8,0-157.2,0c-1.5,0-3,0-4.5,0.1c-4,0.3-6.5,2.6-6.9,6.5c-0.4,4.2,1.8,6.9,5.9,7.9
	c1.6,0.4,3.3,0.4,4.9,0.4c105,0,209.9,0,314.9,0c7.4,0,11.2-2.6,11.2-7.5c0-5-3.6-7.4-11.2-7.4C346.1,99,293.7,99,241.3,99z"/>
<path class="st0" d="M240.7,186.9c52.2,0,104.5,0,156.7,0c1.8,0,3.6,0.1,5.5-0.1c4.1-0.3,6.4-2.9,6.7-6.7c0.3-4.1-1.9-7-6.1-7.7
	c-2.1-0.4-4.3-0.3-6.4-0.3c-104.3,0-208.6,0-312.9,0c-7.8,0-11.6,2.5-11.5,7.7c0.1,5,3.5,7.2,11.4,7.2
	C136.2,186.9,188.4,186.9,240.7,186.9z"/>
<path class="st0" d="M160.5,333.4C160.5,333.4,160.5,333.4,160.5,333.4c25.6,0,51.2,0,76.8,0c1.6,0,3.4,0.2,4.9-0.2
	c4-0.9,6.4-3.4,6.2-7.7c-0.2-4.1-2.7-6.2-6.5-6.9c-1.3-0.2-2.6-0.1-4-0.1c-51.5,0-103,0-154.6,0c-1.3,0-2.7-0.1-4,0.1
	c-4.1,0.6-6.6,3.1-6.7,7.3c0,4.2,2.5,6.7,6.6,7.4c1.8,0.3,3.6,0.1,5.4,0.1C109.9,333.4,135.2,333.4,160.5,333.4z"/>
<path class="st0" d="M434.7,2c4.4,1.4,9,2.3,13.1,4.2c14.6,6.9,23.2,18.5,26.6,34.3c0.3,1.6,2,3.6,3.6,4.3
	c19.6,7.8,30.8,24.1,31,45.2c0.1,8.8,0,17.5,0,26.3c0,6.1-3,9.7-7.6,9.6c-4.5-0.1-7.2-3.5-7.2-9.4c0-9.4,0.1-18.8,0-28.3
	c-0.3-12.6-7.8-23.8-18.8-27.8c-0.1,2.2-0.3,4.2-0.3,6.3c0,86.5-0.1,172.9,0.1,259.4c0,13.1-4.2,23.4-13.7,32.6
	c-34,32.9-67.6,66.1-101.2,99.4c-7.9,7.8-16.8,11.5-27.9,11.5c-67.4-0.2-134.9-0.1-202.3,0c-7.7,0-11.2-2.3-11.3-7.3
	c-0.1-5.1,3.7-7.6,11.6-7.6c66.6,0,133.2,0,199.9,0c2.3,0,4.6,0,7.4,0c0.1-2.2,0.3-3.9,0.3-5.6c0-28.1,0-56.2,0-84.3
	c0-19,11.2-30.2,30.2-30.1c28.9,0,57.9,0,86.8,0c1.5,0,2.9,0,4.8,0c0.1-2.5,0.4-4.6,0.4-6.7c0-92.1,0-184.2,0-276.2
	c0-22.1-12.7-34.7-34.8-34.7c-122.8,0-245.7,0-368.5,0C35,17,22.2,29.7,22.2,51.4c0,123.2,0.1,246.3-0.2,369.5
	c0,20,15,34.8,33.9,33.8c10.5-0.6,21.2-0.1,31.7-0.1c1.5,0,3,0,4.4,0.2c4.3,0.7,6.9,3.8,6.5,7.9c-0.4,4.3-3,6.6-7.2,6.7
	c-9.3,0.1-18.5,0.1-27.8,0.1c-2,0-3.9,0-6.7,0c0.6,2.1,0.9,3.8,1.5,5.4c4.7,12.6,16.2,20.2,30.6,20.2c63,0,126,0,189,0
	c60.5,0,121,0,181.5,0c22,0,34.6-12.7,34.6-34.9c0-100.7,0-201.4,0-302c0-1.7-0.1-3.3,0-5c0.2-4.2,2.6-6.7,6.7-7.2
	c4-0.5,7.3,2.3,8,6.5c0.2,1.5,0.1,3,0.1,4.5c0,100.8,0,201.7,0,302.5c0,27-12.5,43-38.8,49.9c-0.3,0.1-0.5,0.4-0.7,0.6
	c-129.3,0-258.6,0-387.9,0c-0.4-0.2-0.9-0.5-1.3-0.6c-21.4-4.4-34.1-17.5-38.5-38.9c-0.3-1.2-1.7-2.6-3-3.2
	C17.4,458.4,7.2,443.2,7.2,420c0-91.4,0-182.8,0-274.2c0-32.1-0.1-64.1,0-96.2C7.3,28.3,19.6,10.9,38.9,4.4c2.6-0.9,5.3-1.6,7.9-2.4
	C176.1,2,305.4,2,434.7,2z M353.1,444.1c32.2-31.7,63.7-62.7,96.2-94.7c-28,0-54.2,0-80.5,0c-11.9,0-16.1,4.2-16.1,16.1
	c0,24.5,0,48.9,0,73.4C352.8,440.3,352.9,441.7,353.1,444.1z"/>
<path class="st0" d="M240.7,260.1c-52.6,0-105.1,0-157.7,0c-1.3,0-2.7,0.1-4-0.1c-3.7-0.6-6-2.8-6.3-6.5c-0.4-3.7,1.4-6.5,5-7.6
	c2.2-0.6,4.6-0.7,6.8-0.7c104.8,0,209.6,0,314.4,0c2,0,4.5-0.3,5.7,0.8c2.1,1.9,4.4,4.6,4.7,7.2c0.4,3.5-2.2,6.1-6,6.7
	c-1.6,0.2-3.3,0.1-5,0.1C345.8,260.1,293.3,260.1,240.7,260.1C240.7,260.1,240.7,260.1,240.7,260.1z"/>
<path class="st0" d="M241.3,99c52.4,0,104.8,0,157.2,0c7.6,0,11.2,2.4,11.2,7.4c0,5-3.8,7.5-11.2,7.5c-105,0-209.9,0-314.9,0
	c-1.6,0-3.3,0-4.9-0.4c-4.1-1-6.3-3.7-5.9-7.9c0.4-3.9,2.8-6.2,6.9-6.5c1.5-0.1,3-0.1,4.5-0.1C136.5,99,188.9,99,241.3,99z"/>
<path class="st0" d="M240.7,186.9c-52.2,0-104.5,0-156.7,0c-7.8,0-11.2-2.2-11.4-7.2c-0.1-5.2,3.6-7.7,11.5-7.7
	c104.3,0,208.6,0,312.9,0c2.1,0,4.3-0.1,6.4,0.3c4.2,0.8,6.4,3.6,6.1,7.7c-0.3,3.8-2.6,6.4-6.7,6.7c-1.8,0.2-3.6,0.1-5.5,0.1
	C345.1,186.9,292.9,186.9,240.7,186.9z"/>
<path class="st0" d="M160.5,333.4c-25.3,0-50.5,0-75.8,0c-1.8,0-3.7,0.2-5.4-0.1c-4.1-0.7-6.6-3.2-6.6-7.4c0-4.2,2.6-6.6,6.7-7.3
	c1.3-0.2,2.6-0.1,4-0.1c51.5,0,103,0,154.6,0c1.3,0,2.7-0.1,4,0.1c3.9,0.7,6.3,2.8,6.5,6.9c0.2,4.3-2.1,6.8-6.2,7.7
	c-1.6,0.3-3.3,0.2-4.9,0.2C211.7,333.4,186.1,333.4,160.5,333.4C160.5,333.4,160.5,333.4,160.5,333.4z"/>
</svg>
