<?xml version="1.0" encoding="UTF-8" standalone="no"?><!-- Generator: Gravit.io --><svg xmlns="http://www.w3.org/2000/svg" xmlns:xlink="http://www.w3.org/1999/xlink" style="isolation:isolate" viewBox="0 0 90 83" width="90pt" height="83pt"><defs><clipPath id="_clipPath_IbHv9FwAl3FrBf8dwk2vxtu4q7WJ0Fyb"><rect width="90" height="83"/></clipPath></defs><g clip-path="url(#_clipPath_IbHv9FwAl3FrBf8dwk2vxtu4q7WJ0Fyb)"><g><g><g><path d=" M 87.81 74.57 C 90.715 69.557 90.733 63.581 87.847 58.586 L 58.875 8.411 C 56.007 3.36 50.827 0.363 45.017 0.363 C 39.208 0.363 34.028 3.379 31.16 8.393 L 2.151 58.623 C -0.735 63.673 -0.717 69.686 2.206 74.7 C 5.092 79.658 10.254 82.637 16.026 82.637 L 73.897 82.637 C 79.688 82.637 84.887 79.621 87.81 74.57 Z  M 81.52 70.944 C 79.91 73.719 77.061 75.366 73.879 75.366 L 16.008 75.366 C 12.863 75.366 10.032 73.756 8.46 71.037 C 6.869 68.28 6.85 64.987 8.441 62.212 L 37.451 12 C 39.023 9.244 41.835 7.616 45.017 7.616 C 48.181 7.616 51.012 9.262 52.584 12.019 L 81.575 62.23 C 83.129 64.931 83.111 68.188 81.52 70.944 Z " fill="rgb(106,126,156)"/><path d=" M 48.248 59.555 C 47.422 58.701 46.266 58.179 44.999 58.179 C 42.483 58.179 40.374 60.288 40.374 62.804 C 40.374 65.32 42.483 67.429 44.999 67.429 C 47.422 67.429 49.624 65.32 49.513 62.915 C 49.569 61.592 49.074 60.408 48.248 59.555 Z " fill="rgb(255,180,21)"/><path d=" M 43.852 25.709 C 41.65 26.339 40.281 28.337 40.281 30.76 C 40.392 32.222 40.485 33.702 40.596 35.163 C 40.91 40.732 41.225 46.19 41.539 51.759 C 41.65 53.646 43.112 55.015 44.999 55.015 C 46.886 55.015 48.366 53.553 48.459 51.648 C 48.459 50.501 48.459 49.446 48.57 48.281 C 48.773 44.71 48.995 41.139 49.199 37.569 C 49.31 35.256 49.513 32.943 49.624 30.631 C 49.624 29.798 49.513 29.058 49.199 28.318 C 48.255 26.246 46.053 25.191 43.852 25.709 Z " fill="rgb(255,180,21)"/></g></g></g></g></svg>