<?xml version="1.0" encoding="UTF-8" standalone="no"?><!-- Generator: Gravit.io --><svg xmlns="http://www.w3.org/2000/svg" xmlns:xlink="http://www.w3.org/1999/xlink" style="isolation:isolate" viewBox="0 0 90 83" width="90pt" height="83pt"><defs><clipPath id="_clipPath_VFN2tW7Dfwb3J4RvVFMuYDh3oGCW93jS"><rect width="90" height="83"/></clipPath></defs><g clip-path="url(#_clipPath_VFN2tW7Dfwb3J4RvVFMuYDh3oGCW93jS)"><rect width="90" height="83" style="fill:rgb(0,0,0)" fill-opacity="0"/><g><g><path d=" M 27.877 39.062 C 26.734 37.919 24.876 37.919 23.733 39.062 C 22.59 40.205 22.59 42.062 23.733 43.205 L 37.236 56.708 C 37.808 57.28 38.522 57.566 39.308 57.566 C 39.379 57.566 39.379 57.566 39.451 57.566 C 40.237 57.494 41.023 57.137 41.594 56.494 L 75.387 15.985 C 76.388 14.771 76.245 12.913 75.03 11.841 C 73.816 10.841 71.958 10.984 70.886 12.199 L 39.094 50.278 L 27.877 39.062 Z " fill="rgb(102,218,181)"/><path d=" M 66.885 6.34 C 50.453 -3.948 29.377 -1.519 15.66 12.199 C -0.487 28.345 -0.487 54.708 15.66 70.854 C 23.733 78.928 34.378 83 44.952 83 C 55.526 83 66.171 78.928 74.244 70.854 C 88.033 57.066 90.391 35.918 80.031 19.486 C 79.174 18.128 77.388 17.7 76.03 18.557 C 74.673 19.414 74.244 21.201 75.102 22.558 C 84.032 36.704 81.96 54.851 70.1 66.711 C 56.24 80.571 33.592 80.571 19.732 66.711 C 5.872 52.85 5.872 30.203 19.732 16.342 C 31.592 4.554 49.667 2.482 63.813 11.27 C 65.171 12.127 66.957 11.698 67.814 10.341 C 68.672 8.984 68.243 7.197 66.885 6.34 Z " fill="rgb(106,126,156)"/></g></g></g></svg>