<?xml version="1.0" encoding="UTF-8" standalone="no"?><!-- Generator: Gravit.io --><svg xmlns="http://www.w3.org/2000/svg" xmlns:xlink="http://www.w3.org/1999/xlink" style="isolation:isolate" viewBox="0 0 308 330" width="308pt" height="330pt"><defs><clipPath id="_clipPath_7kPJsq8AEZ8t1YxCtr1BaGBgCNvqRd40"><rect width="308" height="330"/></clipPath></defs><g clip-path="url(#_clipPath_7kPJsq8AEZ8t1YxCtr1BaGBgCNvqRd40)"><g><path d=" M 28.3 274.1 L 28.3 27 C 28.3 22 30.3 17.1 33.8 13.6 C 37.4 10 42.2 8 47.3 8 L 26.2 8 C 21.2 8 16.3 10 12.8 13.5 C 9.1 17.1 7.2 21.9 7.2 27 L 7.2 274.5 C 7.2 279.5 9.2 284.4 12.7 287.9 C 16.3 291.5 21.1 293.5 26.1 293.4 L 47.2 293.4 C 36.7 293.2 28.3 284.7 28.3 274.1 Z " fill="rgb(223,227,236)"/></g><g><path d=" M 225.8 8 L 26.2 8 C 21.2 8 16.3 10 12.8 13.5 C 9.1 17.1 7.2 21.9 7.2 27 L 7.2 62.2 C 7.2 57.2 9.2 52.3 12.7 48.8 C 16.3 45.2 21.1 43.2 26.1 43.3 L 226.1 43.3 C 231.1 43.3 236 45.3 239.5 48.8 C 243.1 52.4 245.1 57.2 245 62.2 L 245 27 C 244.9 16.5 236.4 8.1 225.8 8 L 225.8 8 Z " fill="rgb(223,227,236)"/></g><g><path d=" M 26.1 298.4 C 19.8 298.4 13.5 295.8 9 291.3 C 4.5 286.8 1.9 280.5 1.9 274.1 L 1.9 27 C 1.9 20.6 4.5 14.4 9 9.8 C 13.5 5.3 19.7 2.7 26.1 2.7 C 26.1 2.7 26.2 2.7 26.2 2.7 L 226.2 2.7 C 232.6 2.7 238.8 5.3 243.4 9.8 C 247.9 14.3 250.5 20.6 250.5 27 L 250.5 209.8 C 250.5 212.7 248.1 215.1 245.2 215.1 C 242.3 215.1 239.9 212.7 239.9 209.8 L 239.9 27 C 239.9 23.4 238.5 19.8 235.9 17.3 C 233.4 14.8 229.8 13.3 226.3 13.3 C 226.3 13.3 226.3 13.3 226.2 13.3 L 26.2 13.3 C 26.2 13.3 26.2 13.3 26.1 13.3 C 22.5 13.3 19 14.8 16.4 17.3 C 13.8 19.9 12.4 23.4 12.4 27 L 12.4 274.2 C 12.4 277.8 13.8 281.4 16.4 283.9 C 18.9 286.4 22.5 287.9 26 287.9 C 26 287.9 26 287.9 26.1 287.9 L 173.4 287.9 C 176.3 287.9 178.7 290.3 178.7 293.2 C 178.7 296.1 176.3 298.5 173.4 298.5 L 26.1 298.5 C 26.1 298.4 26.1 298.4 26.1 298.4 Z " fill="rgb(106,126,156)"/></g><g><path d=" M 138.3 83.2 L 55.7 83.2 C 52.8 83.2 50.4 80.8 50.4 77.9 C 50.4 75 52.8 72.6 55.7 72.6 L 138.3 72.6 C 141.2 72.6 143.6 75 143.6 77.9 C 143.6 80.8 141.2 83.2 138.3 83.2 Z " fill="rgb(68,138,250)"/></g><g><path d=" M 138.3 242.8 L 55.7 242.8 C 52.8 242.8 50.4 240.4 50.4 237.5 C 50.4 234.6 52.8 232.2 55.7 232.2 L 138.3 232.2 C 141.2 232.2 143.6 234.6 143.6 237.5 C 143.6 240.4 141.2 242.8 138.3 242.8 Z " fill="rgb(106,126,156)"/></g><g><path d=" M 195.6 128.9 L 55.7 128.9 C 52.8 128.9 50.4 126.5 50.4 123.6 C 50.4 120.7 52.8 118.3 55.7 118.3 L 195.6 118.3 C 198.5 118.3 200.9 120.7 200.9 123.6 C 200.9 126.5 198.5 128.9 195.6 128.9 Z " fill="rgb(106,126,156)"/></g><g><path d=" M 160.5 169 L 131 169 C 128.1 169 125.7 166.6 125.7 163.7 C 125.7 160.8 128.1 158.4 131 158.4 L 160.5 158.4 C 163.4 158.4 165.8 160.8 165.8 163.7 C 165.7 166.7 163.4 169 160.5 169 Z " fill="rgb(106,126,156)"/></g><g><path d=" M 101 169 L 55.7 169 C 52.8 169 50.4 166.6 50.4 163.7 C 50.4 160.8 52.8 158.4 55.7 158.4 L 101 158.4 C 103.9 158.4 106.3 160.8 106.3 163.7 C 106.3 166.7 104 169 101 169 Z " fill="rgb(106,126,156)"/></g><g><path d=" M 202.042 48.083 C 189.61 48.083 179.483 58.21 179.483 70.642 C 179.483 83.074 189.61 93.2 202.042 93.2 C 212.259 93.2 220.92 86.36 223.68 77.021 C 224.279 74.997 224.6 72.856 224.6 70.642 C 224.6 58.21 214.474 48.083 202.042 48.083 Z  M 202.042 88.688 C 192.048 88.688 183.995 80.635 183.995 70.642 C 183.995 60.648 192.048 52.595 202.042 52.595 C 212.035 52.595 220.088 60.648 220.088 70.642 C 220.088 80.635 212.035 88.688 202.042 88.688 Z " fill="rgb(106,126,156)"/><path d=" M 202.042 55.697 C 197.929 55.697 194.985 59.002 195.274 63.028 C 195.342 63.976 195.682 65.862 195.98 66.764 C 196.759 69.146 199.332 70.642 202.042 70.642 C 204.787 70.642 207.422 69.119 208.175 66.694 C 208.45 65.805 208.751 63.955 208.809 63.028 C 208.981 60.357 207.799 57.693 204.437 57.037 L 203.734 55.697 L 202.042 55.697 Z  M 201.902 75.153 C 195.143 75.153 191.392 78.424 189.635 80.653 C 192.533 84.195 196.977 86.432 201.902 86.432 C 206.826 86.432 211.198 84.195 214.097 80.651 C 212.34 78.424 208.66 75.153 201.902 75.153 Z " fill="rgb(106,126,156)"/></g><g><g><mask id="_mask_FlnHhbiFGd8xAtMnpNI0k6KK7ViRFfJy" x="-200%" y="-200%" width="400%" height="400%"><rect x="-200%" y="-200%" width="400%" height="400%" style="fill:white;"/><path d=" M 207.124 251.015 C 205.696 249.587 203.375 249.587 201.947 251.015 C 200.519 252.443 200.519 254.764 201.947 256.192 L 218.817 273.062 C 219.531 273.776 220.424 274.133 221.406 274.133 C 221.495 274.133 221.495 274.133 221.584 274.133 C 222.566 274.044 223.548 273.598 224.262 272.794 L 266.482 222.184 C 267.732 220.666 267.553 218.345 266.036 217.007 C 264.518 215.757 262.198 215.935 260.859 217.453 L 221.138 265.029 L 207.124 251.015 Z " fill="black" stroke="none"/></mask><path d=" M 207.124 251.015 C 205.696 249.587 203.375 249.587 201.947 251.015 C 200.519 252.443 200.519 254.764 201.947 256.192 L 218.817 273.062 C 219.531 273.776 220.424 274.133 221.406 274.133 C 221.495 274.133 221.495 274.133 221.584 274.133 C 222.566 274.044 223.548 273.598 224.262 272.794 L 266.482 222.184 C 267.732 220.666 267.553 218.345 266.036 217.007 C 264.518 215.757 262.198 215.935 260.859 217.453 L 221.138 265.029 L 207.124 251.015 Z " fill="rgb(102,218,181)" mask="url(#_mask_FlnHhbiFGd8xAtMnpNI0k6KK7ViRFfJy)" vector-effect="non-scaling-stroke" stroke-width="2" stroke="rgb(106,126,156)" stroke-linejoin="miter" stroke-linecap="butt" stroke-miterlimit="4"/><path d=" M 207.124 251.015 C 205.696 249.587 203.375 249.587 201.947 251.015 C 200.519 252.443 200.519 254.764 201.947 256.192 L 218.817 273.062 C 219.531 273.776 220.424 274.133 221.406 274.133 C 221.495 274.133 221.495 274.133 221.584 274.133 C 222.566 274.044 223.548 273.598 224.262 272.794 L 266.482 222.184 C 267.732 220.666 267.553 218.345 266.036 217.007 C 264.518 215.757 262.198 215.935 260.859 217.453 L 221.138 265.029 L 207.124 251.015 Z " fill="rgb(102,218,181)"/><path d=" M 244.885 228.34 C 228.453 218.052 207.377 220.481 193.66 234.199 C 177.513 250.345 177.513 276.708 193.66 292.854 C 201.733 300.928 212.378 305 222.952 305 C 233.526 305 244.171 300.928 252.244 292.854 C 266.033 279.066 268.391 257.918 258.031 241.486 C 257.174 240.128 255.388 239.7 254.03 240.557 C 252.673 241.414 252.244 243.201 253.102 244.558 C 262.032 258.704 259.96 276.851 248.1 288.711 C 234.24 302.571 211.592 302.571 197.732 288.711 C 183.872 274.85 183.872 252.203 197.732 238.342 C 209.592 226.554 227.667 224.482 241.813 233.27 C 243.171 234.127 244.957 233.698 245.814 232.341 C 246.672 230.984 246.243 229.197 244.885 228.34 Z " fill="rgb(106,126,156)"/></g></g></g></svg>