<?xml version="1.0" encoding="UTF-8" standalone="no"?><!-- Generator: Gravit.io --><svg xmlns="http://www.w3.org/2000/svg" xmlns:xlink="http://www.w3.org/1999/xlink" style="isolation:isolate" viewBox="0 0 90 83" width="90pt" height="83pt"><defs><clipPath id="_clipPath_XZ5j8HGDPMDqXhpqGGpiMxqkfBHn9T0y"><rect width="90" height="83"/></clipPath></defs><g clip-path="url(#_clipPath_XZ5j8HGDPMDqXhpqGGpiMxqkfBHn9T0y)"><g><g><g><g><g><g><path d=" M 39.6 65.1 L 35.6 65.1 C 24.1 63.2 15.3 53.2 15.3 41.1 C 15.3 37.1 16.3 33.3 18.1 29.9 L 21.1 34 C 23.3 37 27.9 36.2 28.9 32.6 L 31.3 24.1 L 34.6 12.3 C 35.4 9.5 33.3 6.7 30.3 6.7 L 18.8 6.7 L 10.1 6.7 C 6.5 6.7 4.4 10.8 6.5 13.7 L 12 21.3 C 8 26.9 5.7 33.7 5.7 41 C 5.7 58 18.2 72.1 34.4 74.6 C 34.8 74.7 35.3 74.7 35.7 74.6 L 35.7 74.7 L 39.7 74.7 C 42.3 74.7 44.5 72.6 44.5 69.9 L 44.5 69.8 C 44.4 67.3 42.2 65.1 39.6 65.1 Z  M 76.9 60.2 C 80.9 54.6 83.2 47.8 83.2 40.5 C 83.2 23.5 70.7 9.4 54.5 6.9 C 54.1 6.8 53.6 6.8 53.2 6.9 L 53.2 6.8 L 49.2 6.8 C 46.6 6.8 44.4 8.9 44.4 11.6 L 44.4 11.7 C 44.4 14.3 46.5 16.5 49.2 16.5 L 53.2 16.5 C 64.7 18.4 73.5 28.4 73.5 40.5 C 73.5 44.5 72.5 48.3 70.7 51.7 L 67.7 47.6 C 65.5 44.6 60.9 45.4 59.9 49 L 57.5 57.5 L 54.2 69.3 C 53.4 72.1 55.5 74.9 58.5 74.9 L 70 74.9 L 78.7 74.9 C 82.3 74.9 84.4 70.8 82.3 67.9 L 76.9 60.2 Z " fill="rgb(106,126,156)"/></g></g></g></g></g></g></g></svg>