<svg xmlns="http://www.w3.org/2000/svg" width="29" height="24">
  <g>
    <path d="M21.6 1s-2.3 1.8-1.7 2.7c1.8 2.1 3.8 4 5.9 5.8.7.1 2.2-1.7 2.2-1.7"/>
    <path d="M20.4 4.5S19.3 6 18.3 5.9c-1.1-.2-1.8-.6-3.2.5S11 10.1 11 10.1c-.6.6-.7 1.5-.1 2.2l.1.1c1.2 1.2 3.3-1.2 4.4-2s2.3-.3 3.5.8 4.2 4.6 4.2 4.6.6 1.1 0 1.8c-.5.4-1.1.6-1.7.5.4.5.3 1.2-.2 1.6 0 0-.1 0-.1.1-.4.4-1 .4-1.6.2 0 0 .6 1.3-.4 1.8-.7.3-1.5.2-2.1-.2 0 0-.2 1.5-1.3 1.5s-1.2.2-2.3-.9-6.8-7-6.8-7c-.6-.8-1-1.7-1.2-2.7 0-1.2 0-2.3-1.1-2.6"/>
    <path d="M1 8.4l2.3 2 6.2-6.1-1.7-2.2"/>
    <path d="M24.8 8.7c-.7.6-1.1 1.4-1.2 2.3-.1 1.4-.2 3.2-1.1 3.8"/>
    <path d="M8.9 4.9c.6.7 1.4 1.1 2.3 1.1 1.5 0 2.6 0 3.3.8"/>
    <path d="M17.1 21.5L13 17.4"/>
    <path d="M19.3 19.9l-4.1-4.5"/>
    <path d="M21.4 18.2l-4.2-4.5"/>
  </g>
</svg>