<svg xmlns="http://www.w3.org/2000/svg" width="27.4" height="37">
  <g>
    <path  d="M6.4 32.6h-.1c-.5 0-1-.3-1.3-.7-.2-.3-.4-.9-.3-1.5.1-.8.7-1.5 1.6-2.1.3-.2 1.3-1 3.3-1.8.4-.7.6-1.2.6-1.2.7-1.7 1.2-3.1 1.6-4.3-.1-.1-.1-.2-.2-.3-.2-.5-1.3-2.7-1.1-4.3 0-.8.6-2 2-2.1.2 0 .9 0 1.5.6.5.5.6 1.3.5 2.2 0 .3-.1 1.6-.6 3.6.6.9 1.3 1.9 1.3 1.9.5.7 1 1.3 1.5 1.7 1.1-.2 2.3-.4 3.5-.4.3 0 1.5.1 2.2.9.3.4.5.8.4 1.3 0 .2-.1.6-.4 1-.6.6-1.4.9-2.5.9h-.1c-.1 0-1.8-.2-3.6-1.5-1.3.3-2.3.6-2.3.6-1.1.3-2.1.6-2.9 1-.6 1.1-1.5 2.4-2.6 3.5-.2.2-1.1 1-2 1zm6.7-9.4c-.3.7-.6 1.5-.9 2.4.3-.1.7-.2 1-.3 0 0 .5-.2 1.1-.3-.3-.3-.6-.7-.8-1.1.1-.1-.1-.4-.4-.7zm-.6-6.8V16.9c.1-.3 0-.4 0-.5z" id="XMLID_5_"/>
    <path  d="M25.5 37H1.9c-1 0-1.9-.8-1.9-1.9V1.9C0 .8.8 0 1.9 0H16c.6 0 1 .4 1 1v8.4h9.4c.6 0 1 .4 1 1v24.7c0 1.1-.9 1.9-1.9 1.9zM2 35h23.4V11.4H16c-.6 0-1-.4-1-1V2H2v33z" id="XMLID_4_"/>
    <path  d="M26.4 11.4H15.9c-.6 0-1-.4-1-1V1c0-.4.2-.8.6-.9.4-.2.8-.1 1.1.2L27 9.7c.3.3.4.7.3 1.1-.2.4-.5.6-.9.6zm-9.5-2h6.8l-6.8-6.2v6.2z" id="XMLID_3_"/>
  </g>
</svg>