<?xml version="1.0" encoding="utf-8"?>
<!-- Generator: Adobe Illustrator 21.0.2, SVG Export Plug-In . SVG Version: 6.00 Build 0)  -->
<svg version="1.1" id="Layer_1" xmlns="http://www.w3.org/2000/svg" xmlns:xlink="http://www.w3.org/1999/xlink" x="0px" y="0px"
	 viewBox="0 0 108.1 95.9" style="enable-background:new 0 0 108.1 95.9;" xml:space="preserve">
<style type="text/css">
	
		.st0{clip-path:url(#SVGID_2_);fill:none;stroke:#B6C2D6;stroke-width:2;stroke-linecap:round;stroke-linejoin:round;stroke-miterlimit:10;}
	.st1{fill:none;stroke:#B6C2D6;stroke-width:2;stroke-linecap:round;stroke-linejoin:round;stroke-miterlimit:10;}
	
		.st2{clip-path:url(#SVGID_4_);fill:none;stroke:#B6C2D6;stroke-width:2;stroke-linecap:round;stroke-linejoin:round;stroke-miterlimit:10;}
</style>
<g>
	<defs>
		<rect id="SVGID_1_" y="0" width="108.1" height="95.9"/>
	</defs>
	<clipPath id="SVGID_2_">
		<use xlink:href="#SVGID_1_"  style="overflow:visible;"/>
	</clipPath>
	<line class="st0" x1="46.4" y1="1" x2="65.1" y2="1"/>
	<line class="st0" x1="70" y1="1" x2="77.5" y2="1"/>
	<line class="st0" x1="107.1" y1="55.1" x2="99.3" y2="55.1"/>
</g>
<line class="st1" x1="95" y1="55.1" x2="92.6" y2="55.1"/>
<line class="st1" x1="27.1" y1="19.4" x2="25.2" y2="21.3"/>
<line class="st1" x1="27.1" y1="28.5" x2="25.2" y2="26.6"/>
<line class="st1" x1="18.4" y1="28.1" x2="20.3" y2="26.2"/>
<line class="st1" x1="18" y1="19.4" x2="19.9" y2="21.3"/>
<g>
	<defs>
		<rect id="SVGID_3_" y="0" width="108.1" height="95.9"/>
	</defs>
	<clipPath id="SVGID_4_">
		<use xlink:href="#SVGID_3_"  style="overflow:visible;"/>
	</clipPath>
	<circle class="st2" cx="13.7" cy="48.9" r="2.3"/>
	<circle class="st2" cx="89.9" cy="71.2" r="3.9"/>
	<path class="st2" d="M88.7,18.9c0,0,1.5,1.7,4.1,0.7c2.6-1,3.6,0.3,3.6,0.3"/>
	<path class="st2" d="M72.9,91.1c0,0-4.9-1.2-8.2,3.8"/>
	<path class="st2" d="M1,77.7c3.5,0,2.7,4.1,5.9,4.1c3.1,0,4.5-4.1,8.8-4.1c4.2,0,3.4,5.7,7.3,5.7"/>
	<path class="st2" d="M65.1,10.3c-6.7-1.6-14,0-19.3,4.7c-5.9,5.3-9.4,14.2,0.3,28.7c0,0,3.3,4.3,3.3,10.3v5.4"/>
	<path class="st2" d="M72.5,13.8c-1-0.7-2-1.3-3.1-1.9"/>
	<path class="st2" d="M70.5,56.7c0-9.4,3.2-13,3.2-13c8.6-12.8,6.9-21.2,2.4-26.7"/>
	<line class="st2" x1="51.4" y1="32.7" x2="54" y2="47"/>
	<line class="st2" x1="68.8" y1="32.7" x2="65" y2="53.3"/>
	<path class="st2" d="M51.7,34.4h3.9v-0.8c0-0.7,0.5-1.3,1.2-1.3h0c0.7,0,1.2,0.6,1.2,1.3v1.2h3.7v-1.2c0-0.7,0.5-1.3,1.2-1.3H63
		c0.7,0,1.2,0.6,1.2,1.3v1.2h4.2"/>
	<line class="st2" x1="59.4" y1="53.3" x2="72.7" y2="53.3"/>
	<line class="st2" x1="47.5" y1="53.3" x2="53.5" y2="53.3"/>
	<line class="st2" x1="47.5" y1="58.7" x2="72.7" y2="58.7"/>
	<path class="st2" d="M36,30.5c-3.2,5.5-3.3,10.8-3.3,10.8c0,1.2,0.1,2.3,0.2,3l-6.8,10.5c-0.8,1.2,0.1,2.7,1.5,2.7h3.4v9
		c0,2.4,1,4.6,2.7,6.1c0.6,0.5,1.2,1,2,1.3c1.1,0.5,2.4,0.9,3.7,0.9h10v6.7"/>
	<path class="st2" d="M77.6,85.8V59.3c2.1-2.4,6.5-8.1,6.7-15.9c0.1-2.4-0.3-4.8-0.9-7.1"/>
	<line class="st2" x1="51.4" y1="62.7" x2="68.4" y2="62.7"/>
	<line class="st2" x1="59.9" y1="62.7" x2="59.9" y2="86"/>
</g>
</svg>
