<svg xmlns="http://www.w3.org/2000/svg" width="16.825px" height="17.1px" viewBox="-1338.225 -3161.4 16.825 17.1">
  <defs>
    <style>
      .cls-1 {
        fill: none;
        stroke: #93a2bb;
        stroke-linecap: round;
        stroke-linejoin: round;
        stroke-width: 2px;
      }
    </style>
  </defs>
  <path id="phn-icon" class="cls-1" d="M654.3,203.9a3.752,3.752,0,0,1,2.9,2.9m-2.9-5.8a6.389,6.389,0,0,1,5.7,5.7m-.6,5.8v2.2a1.367,1.367,0,0,1-1.4,1.4h-.1a13.607,13.607,0,0,1-6.2-2.2,14.686,14.686,0,0,1-4.3-4.3,14,14,0,0,1-2.2-6.3,1.456,1.456,0,0,1,1.3-1.6h2.3a1.4,1.4,0,0,1,1.4,1.2,11.694,11.694,0,0,0,.5,2,1.4,1.4,0,0,1-.3,1.5l-.9.9a11.108,11.108,0,0,0,4.3,4.3l.9-.9a1.4,1.4,0,0,1,1.5-.3,14.621,14.621,0,0,0,2,.5A1.855,1.855,0,0,1,659.4,212.5Z" transform="translate(-1982.4 -3361.4)"/>
</svg>
