<svg width="580" height="400" xmlns="http://www.w3.org/2000/svg">
 <!-- Created with Method Draw - http://github.com/duopixel/Method-Draw/ -->

 <g>
  <title>background</title>
  <rect fill="none" id="canvas_background" height="402" width="582" y="-1" x="-1"/>
  <g display="none" overflow="visible" y="0" x="0" height="100%" width="100%" id="canvasGrid">
   <rect fill="url(#gridpattern)" stroke-width="0" y="0" x="0" height="100%" width="100%"/>
  </g>
 </g>
 <g>
  <title>Layer 1</title>
  <style transform="matrix(0.058556390781583374,0,0,0.058556390781583374,0,0) ">.st4,.st5,.st6,.st7{fill:none;stroke:#77819c;stroke-linecap:round;stroke-linejoin:round;stroke-miterlimit:10}.st5,.st6,.st7{fill:#fff}.st6,.st7{fill:#66dab5}.st7{fill:none;stroke:#fff}.st8{fill:#448afa}.st9{fill:#777f99;stroke:#77819c;stroke-linecap:round;stroke-linejoin:round;stroke-miterlimit:10}.st10{fill:#e1e7f9}.st11,.st12{fill:none;stroke:#fff;stroke-width:3;stroke-linecap:round;stroke-linejoin:round;stroke-miterlimit:10}.st12{stroke:#e1e7f9}.st13,.st14,.st16{stroke:#77819c;stroke-miterlimit:10}.st13{fill:#fff}.st14,.st16{stroke-linecap:round;stroke-linejoin:round}.st14{fill-rule:evenodd;clip-rule:evenodd;fill:#fff}.st16{fill:#77819c}.st23{fill:#3980e5}</style>
  <g stroke="null" id="svg_100">
   <path stroke="null" id="svg_4" fill="#f5f7ff" d="m110.332285,225.177092c3.102577,2.863917 6.284708,5.489175 9.546391,7.875773c19.251889,14.319587 32.059964,35.719415 37.07182,59.50584c6.125601,28.798281 22.19536,55.209964 47.731957,73.745874c52.107386,37.708246 126.648793,27.843642 170.084874,-22.513573c0.318213,-0.397766 0.636426,-0.715979 0.954639,-1.113746c21.558934,-25.536597 46.061339,-48.52749 73.90498,-66.904293c13.603608,-8.909965 25.85481,-20.604295 35.798968,-34.923882c37.628693,-53.698452 29.673367,-126.967006 -18.29725,-168.414255c-31.105325,-26.889002 -71.757042,-35.082988 -109.306182,-26.252576c-28.161855,6.682474 -57.517008,1.034192 -79.632815,-16.706185c-0.636426,-0.556873 -1.272852,-1.034192 -1.988832,-1.591065c-55.84639,-43.038315 -137.945356,-29.912026 -180.824564,29.912026c-37.708246,52.664259 -31.264432,125.057727 14.956013,167.380063z"/>
   <path stroke="#ffb415" id="svg_5" d="m328.149116,13.883629l8.512199,-7.637113l1.909278,11.45567l-10.421477,-3.818557z" stroke-miterlimit="10" stroke-width="3" fill="none"/>
   <path stroke="#448afa" id="svg_6" d="m453.206844,397.409903l-8.671306,-2.227491l2.227491,-8.671306l8.671306,2.227491l-2.227491,8.671306z" stroke-miterlimit="10" stroke-width="3" fill="none"/>
   <circle stroke="#66dab5" transform="matrix(0.7955326173622016,0,0,0.7955326173622016,-3590.7590937648065,-2463.141793682366) " id="svg_7" stroke-miterlimit="10" stroke-width="3" fill="none" r="6.3" cy="3573.369218" cx="4664.543975"/>
   <path stroke="null" id="svg_8" d="m100.865447,83.333626l-25.775257,0c-0.079553,0 -0.23866,-0.079553 -0.23866,-0.23866l0,-32.219071c0,-0.079553 0.079553,-0.23866 0.23866,-0.23866l49.323022,0c0.079553,0 0.23866,0.079553 0.23866,0.23866l0,12.092096" class="st4"/>
   <path stroke="null" id="svg_9" d="m75.010637,50.716789l-0.079553,-0.079553l22.831786,-19.649656c1.193299,-1.034192 2.943471,-1.034192 4.13677,0l22.67268,19.570102" class="st4"/>
   <path stroke="null" id="svg_10" d="m82.88641,57.240156l0,-21.797594l33.41237,0l0,21.797594" class="st5"/>
   <path stroke="null" id="svg_11" d="m103.888471,66.786548l3.341237,2.704811" class="st4"/>
   <path stroke="null" id="svg_12" d="m82.88641,56.921943l0,-21.479381l33.41237,0l0,21.638487l-16.626632,12.967182l-16.785738,-13.126288z" class="st6"/>
   <path stroke="null" id="svg_13" d="m88.932458,42.681909l5.091409,0m2.704811,0l13.524054,0m-21.320274,5.886941l13.683161,0m2.625258,0l5.011855,0m-21.320274,5.568728l9.387285,0m2.227491,0l9.705498,0" class="st7"/>
   <path stroke="null" id="svg_14" d="m74.931084,50.637235l20.524742,16.387972l-20.524742,16.308419m49.720789,-32.537284l-20.683848,15.990206l-2.704811,-2.386598c-0.795533,-0.715979 -1.988832,-0.715979 -2.784364,0l-3.023024,2.625258" class="st4"/>
   <path stroke="null" id="svg_15" d="m468.560623,248.406644l0,80.110135" class="st5"/>
   <path stroke="null" id="svg_16" d="m106.115963,209.186886l0,-129.114944c0,-6.205154 5.091409,-11.376116 11.376116,-11.376116l339.771981,0c6.205154,0 11.376116,5.091409 11.376116,11.376116l0,72.313915m-0.079553,174.539856c0,0.556873 0,1.113746 -0.079553,1.670618l-362.285554,0c-0.079553,-0.556873 -0.079553,-1.113746 -0.079553,-1.670618l0,-103.498794" class="st4"/>
   <path stroke="null" id="svg_17" d="m130.379707,90.0161l72.552575,0l0,238.421125l-72.552575,0l0,-238.421125z" class="st8"/>
   <g stroke="null" transform="matrix(0.7955326173622016,0,0,0.7955326173622016,-3590.7590937648065,-2463.141793682366) " id="svg_18">
    <path stroke="null" id="svg_19" d="m4795.043805,3262.569264l0,5.6c0,1.8 1.5,3.3 3.3,3.3l270.3,0c1.8,0 3.3,-1.5 3.3,-3.3l0,-55.5c0,-1.8 -1.5,-3.3 -3.3,-3.3l-223.2,0c-0.1,-0.1 -47.1,0 -47.1,0c-1.8,0 -3.3,1.5 -3.3,3.3l0,49.9z" class="st4"/>
    <path stroke="null" id="svg_20" d="m5025.443805,3257.369264l-21.5,0c-0.3,0 -0.5,-0.2 -0.5,-0.5l0,-4.7c0,-0.3 0.2,-0.5 0.5,-0.5l21.5,0c0.3,0 0.5,0.2 0.5,0.5l0,4.7c0,0.3 -0.2,0.5 -0.5,0.5zm32.1,0l-21.5,0c-0.3,0 -0.5,-0.2 -0.5,-0.5l0,-4.7c0,-0.3 0.2,-0.5 0.5,-0.5l21.5,0c0.3,0 0.5,0.2 0.5,0.5l0,4.7c0,0.3 -0.2,0.5 -0.5,0.5z" class="st10"/>
    <path stroke="null" id="svg_21" d="m4862.743805,3252.869264l53.2,0m-53.2,-6.8l23.4,0m7.1,0l60.4,0m0,-6.7l-24.7,0m-7.2,0l-59,0" class="st4"/>
    <path stroke="null" id="svg_22" d="m4862.143805,3226.269264l79,0l0,6l-79,0l0,-6z" class="st10"/>
    <g stroke="null" id="svg_23">
     <path stroke="null" id="svg_24" d="m4993.343805,3257.369264l-21.5,0c-0.3,0 -0.5,-0.2 -0.5,-0.5l0,-4.7c0,-0.3 0.2,-0.5 0.5,-0.5l21.5,0c0.3,0 0.5,0.2 0.5,0.5l0,4.7c0,0.3 -0.2,0.5 -0.5,0.5z" class="st10"/>
    </g>
    <g stroke="null" id="svg_25">
     <path stroke="null" id="svg_26" d="m4982.543805,3244.369264c-5,0 -9,-4 -9,-9s4,-9 9,-9" class="st11"/>
     <path stroke="null" id="svg_27" d="m4982.543805,3226.369264c5,0 9,4 9,9s-4,9 -9,9c0,0 -8.2,0.3 -9,-8.9" class="st12"/>
    </g>
    <g stroke="null" id="svg_28">
     <path stroke="null" id="svg_29" d="m5021.043805,3241.569264c-3.5,3.5 -9.2,3.5 -12.6,0c-3.5,-3.5 -3.5,-9.2 0,-12.7s9.2,-3.5 12.6,0c2.7,2.7 3.3,6.7 1.8,10" class="st11"/>
     <path stroke="null" id="svg_30" d="m5014.743805,3226.269264c4.9,0 8.9,4 8.9,9s-4,9 -8.9,9c-1.7,0 -3.3,-0.5 -4.6,-1.3" class="st12"/>
    </g>
    <g stroke="null" id="svg_31">
     <path stroke="null" id="svg_32" d="m5053.143805,3241.469264c-3.5,3.5 -9.1,3.5 -12.6,0s-3.5,-9.2 0,-12.7s9.1,-3.5 12.6,0c2.7,2.7 3.3,6.7 1.8,10" class="st11"/>
     <path stroke="null" id="svg_33" d="m5046.743805,3226.169264c4.9,0 8.9,4 8.9,9s-4,9 -8.9,9" class="st12"/>
    </g>
    <g stroke="null" id="svg_34">
     <circle stroke="null" id="svg_35" r="20.5" cy="3241.069264" cx="4828.143805" class="st13"/>
     <path stroke="null" id="svg_36" d="m4848.643805,3241.469264c-0.2,11.3 -9.6,20.3 -21,20.1c-11.3,-0.2 -20.3,-9.6 -20.1,-21c0.2,-11.3 9.6,-20.3 21,-20.1c9.9,0.2 18,7.3 19.7,16.7" class="st4"/>
     <path stroke="null" id="svg_37" d="m4830.743805,3244.669264l0.6,5.5l-3.4,5.2l-3.3,-5.5l0.4,-5.3l5.7,0.1z" class="st5"/>
     <path stroke="null" id="svg_38" d="m4827.943805,3229.069264l-0.9,0l0,0.1l-0.1,0c-1.9,0.1 -3.6,1.1 -4.8,2.6c-1.1,1.5 -1.3,3.4 -1.2,5.2c0.2,4.6 2.9,9.9 7,9.9s6.7,-5.3 7,-9.9c0.1,-1.8 -0.1,-3.7 -1.2,-5.2c-1.1,-1.5 -2.9,-2.5 -4.8,-2.6l-0.1,0l0,-0.1l-0.9,0z" class="st14"/>
     <path stroke="null" id="svg_39" d="m4832.943805,3232.769264c-2.3,1.6 -6.6,2.6 -5.7,2.3c0.4,-0.1 0.7,-0.5 1,-0.8c0.2,-0.3 0.4,-0.6 0.6,-1c0,0 -0.6,0.7 -3.7,1.8c-1.6,0.6 -2.6,0.7 -3.2,0.8c0,0 -0.1,2.9 0.1,4.1c0.3,2.5 2.7,7.3 1.2,8.3c-2,1.3 -4.8,-1.1 -4.4,-1.2c3.2,-0.8 1.3,-11.3 1.8,-13.7c0.3,-1.9 1.3,-3.2 2.5,-4.2c1.9,-1.5 5.9,-1.8 8,-0.9c0.3,0.1 0.6,0.2 0.8,0.3c0.2,0.1 0.4,0.3 0.6,0.4c7.4,0.1 -0.7,14.1 4.3,17.8c0.7,0.6 -3.4,3.1 -5,0.5c-1,-1.6 2.2,-4.5 2.4,-8.7c0.1,0.1 0.6,-2.7 -1.3,-5.8z" class="st14"/>
     <path stroke="null" id="svg_40" d="m4839.543805,3249.369264c0.7,0.1 1.2,0.8 1.2,1.5l0,6.3s-4.5,4.5 -12.7,4.5s-12.8,-4.6 -12.8,-4.6l0,-5.8c0,-1 1,-1.7 1.8,-1.9l7.7,-1.2l3.2,2.7l3.1,-2.6l8.5,1.1z" class="st13"/>
    </g>
   </g>
   <g stroke="null" transform="matrix(0.7955326173622016,0,0,0.7955326173622016,-3590.7590937648065,-2463.141793682366) " id="svg_41">
    <path stroke="#77819c" id="svg_42" stroke-dasharray="4,4" stroke-miterlimit="10" stroke-linejoin="round" stroke-linecap="round" fill="#fff" d="m4795.043805,3378.969264l0,4.7c0,2.3 1.9,4.2 4.2,4.2l347.7,0c2.3,0 4.2,-1.9 4.2,-4.2l0,-71.4c0,-2.3 -1.9,-4.2 -4.2,-4.2l-287.1,0c-0.2,-0.2 -60.6,0 -60.6,0c-2.3,0 -4.2,1.9 -4.2,4.2l0,66.7z"/>
    <circle stroke="null" id="svg_43" r="26.5" cy="3348.869264" cx="4838.043805" class="st5"/>
    <path stroke="null" id="svg_44" d="m4821.143805,3369.169264l1.3,-3.2c0.1,-0.9 1.2,-2.8 3,-3.4l5.2,-1.2l1,-0.2l0.7,-0.1c0.2,0 0.4,-0.1 0.5,-0.3l0.1,0.1c0.4,2.4 1.9,6.9 5.1,6.9c3,0 4.4,-4.3 4.9,-6.9l7.9,1.8c1.6,0.4 3,2.4 3.1,3.3l1.1,3.2s-6.5,6.2 -16.5,6.2c-10,-0.1 -17.4,-6.2 -17.4,-6.2z" class="st6"/>
    <path stroke="null" id="svg_45" d="m4846.543805,3350.669264c-0.1,-4.2 -0.6,-4.8 -0.6,-4.8c-3,-0.3 -5.3,-3.5 -5.3,-3.5c-5.7,3.1 -9.8,0 -9.8,0c-2.9,2.8 -2.6,6.5 -2.6,6.5l0,1.5c-0.1,-0.2 -0.2,-0.6 -0.2,-1c-0.5,-2.1 -1.1,-6.6 1.5,-9.1c0,0 0.1,-3.5 0.3,-4.6c0,0 2.1,0.7 3.6,-0.1c0,0 -0.4,-1.6 0.5,-3.5c0,0 2.1,2.4 4.5,2.6c2.4,0.2 7.7,3.7 8.7,10c0.8,4.5 -0.3,5.7 -0.6,6z" class="st16"/>
    <path stroke="null" id="svg_46" d="m4846.443805,3355.469264c-0.2,0.9 -0.8,2.8 -3.7,4.8c-0.1,0.1 -0.3,0.2 -0.4,0.3c-3.6,2.4 -6.3,3 -9.9,-0.1c-0.2,-0.2 -0.5,-0.4 -0.7,-0.6c-3.2,-3 -3.1,-4.7 -3.1,-5.8l0,-6.8l0,-1.3s-0.3,-3.1 2.5,-5.4c0,0 4,2.5 9.6,0c0,0 2.3,2.7 5.2,2.9c0,0 0.5,0.5 0.6,3.9l0,7.5s0,0.3 -0.1,0.6z" class="st5"/>
    <path stroke="null" id="svg_47" d="m4828.243805,3354.069264c-0.6,0.1 -1,-0.1 -1.3,-0.4c-0.7,-0.7 -0.8,-2.3 -1.1,-4.5c-0.5,-3 2.1,-2.8 2.1,-2.8m19.3,-0.3s2.6,-0.2 2.1,2.8c-0.3,2.1 -0.4,3.8 -1.1,4.5c-0.3,0.3 -0.7,0.4 -1.3,0.4" class="st4"/>
    <path stroke="null" id="svg_48" d="m4847.443805,3346.969264s2.5,-9.1 -1.2,-12s-5.9,1.2 -12.2,-2.9m-4.3,4.2s-0.4,0.7 -1.5,1.4s-2.3,4.8 -0.5,10.6c0,0 1.2,-3.9 1.2,-4.4c0,-0.5 2.1,-3.4 2.1,-3.4l-1.3,-4.2z" class="st16"/>
    <path stroke="null" id="svg_49" d="m4833.543805,3333.569264s-1.7,0.4 -1.7,-0.7s-0.7,1.9 0,2.8s-1.5,0.6 -1.5,0.6l1.3,3.6s4.8,1 5.1,0.6s3.1,-2.4 1.8,-3.9s-2.3,-2.2 -2.5,-2.3c-0.2,0.1 -2.5,-0.7 -2.5,-0.7z" class="st16"/>
    <g stroke="null" id="svg_50">
     <path stroke="null" id="svg_51" d="m5085.743805,3349.469264c-4.5,4.5 -11.8,4.5 -16.3,0s-4.5,-11.8 0,-16.3s11.8,-4.5 16.3,0c3.5,3.5 4.3,8.6 2.4,12.8" class="st11"/>
     <path stroke="#ffb415" id="svg_52" stroke-miterlimit="10" stroke-linejoin="round" stroke-linecap="round" stroke-width="3" fill="none" d="m5077.643805,3329.869264c6.4,0 11.5,5.2 11.5,11.5s-5.2,11.5 -11.5,11.5c-6.4,0 -11.5,-5.2 -11.5,-11.5c0,-4.9 3.1,-9.1 7.4,-10.8"/>
     <path stroke="null" id="svg_53" fill="#ffb415" d="m5091.643805,3369.769264l-28,0c-0.3,0 -0.5,-0.2 -0.5,-0.5l0,-6.3c0,-0.3 0.2,-0.5 0.5,-0.5l28,0c0.3,0 0.5,0.2 0.5,0.5l0,6.3c0,0.3 -0.2,0.5 -0.5,0.5z"/>
    </g>
    <g stroke="null" id="svg_54">
     <path stroke="null" id="svg_55" d="m5118.943805,3352.969264c-6.4,0 -11.5,-5.2 -11.5,-11.5c0,-6.4 5.2,-11.5 11.5,-11.5" class="st11"/>
     <path stroke="#448afa" id="svg_56" stroke-miterlimit="10" stroke-linejoin="round" stroke-linecap="round" stroke-width="3" fill="none" d="m5118.943805,3329.869264c6.4,0 11.5,5.2 11.5,11.5c0,6.4 -5.2,11.5 -11.5,11.5c0,0 -10.5,0.3 -11.6,-11.4c0,0 -0.5,-4 3.2,-7.9"/>
     <path stroke="null" id="svg_57" d="m5132.943805,3369.769264l-28,0c-0.3,0 -0.5,-0.2 -0.5,-0.5l0,-6.3c0,-0.3 0.2,-0.5 0.5,-0.5l28,0c0.3,0 0.5,0.2 0.5,0.5l0,6.3c0,0.3 -0.2,0.5 -0.5,0.5z" class="st8"/>
    </g>
    <g stroke="null" id="svg_58">
     <path stroke="null" id="svg_59" d="m4882.143805,3363.969264l68.5,0m-68.5,-8.7l30,0m9.2,0l77.8,0" class="st4"/>
     <g stroke="null" id="svg_60">
      <path stroke="null" id="svg_61" d="m4999.143805,3346.569264l-31.9,0m-9.1,0l-76,0" class="st4"/>
     </g>
     <path stroke="null" id="svg_62" d="m4881.343805,3329.869264l76.3,0l0,7.8l-76.3,0l0,-7.8z" class="st10"/>
    </g>
    <g stroke="null" id="svg_63">
     <path stroke="null" id="svg_64" d="m5044.543805,3349.569264c-4.5,4.5 -11.8,4.5 -16.3,0s-4.5,-11.8 0,-16.4c4.5,-4.5 11.8,-4.5 16.3,0c3.5,3.5 4.3,8.6 2.4,12.9" class="st11"/>
     <path stroke="#66dab5" id="svg_65" stroke-miterlimit="10" stroke-linejoin="round" stroke-linecap="round" stroke-width="3" fill="none" d="m5036.343805,3329.869264c6.4,0 11.5,5.2 11.5,11.6c0,6.4 -5.2,11.6 -11.5,11.6c-6.4,0 -11.5,-5.2 -11.5,-11.6c0,-3.5 1.6,-6.7 4.1,-8.8"/>
     <path stroke="null" id="svg_66" fill="#66dab5" d="m5050.343805,3369.769264l-28,0c-0.3,0 -0.5,-0.2 -0.5,-0.5l0,-6.3c0,-0.3 0.2,-0.5 0.5,-0.5l28,0c0.3,0 0.5,0.2 0.5,0.5l0,6.3c0,0.3 -0.2,0.5 -0.5,0.5z"/>
    </g>
   </g>
   <g stroke="null" transform="matrix(0.7955326173622016,0,0,0.7955326173622016,-3590.7590937648065,-2463.141793682366) " id="svg_67">
    <path stroke="null" id="svg_68" d="m4795.043805,3473.069264l0,5.6c0,1.8 1.5,3.3 3.3,3.3l270.3,0c1.8,0 3.3,-1.5 3.3,-3.3l0,-55.5c0,-1.8 -1.5,-3.3 -3.3,-3.3l-223.2,0c-0.1,-0.1 -47.1,0 -47.1,0c-1.8,0 -3.3,1.5 -3.3,3.3l0,49.9z" class="st4"/>
    <path stroke="null" id="svg_69" d="m5025.443805,3467.769264l-21.5,0c-0.3,0 -0.5,-0.2 -0.5,-0.5l0,-4.7c0,-0.3 0.2,-0.5 0.5,-0.5l21.5,0c0.3,0 0.5,0.2 0.5,0.5l0,4.7c0,0.3 -0.2,0.5 -0.5,0.5zm32.1,0l-21.5,0c-0.3,0 -0.5,-0.2 -0.5,-0.5l0,-4.7c0,-0.3 0.2,-0.5 0.5,-0.5l21.5,0c0.3,0 0.5,0.2 0.5,0.5l0,4.7c0,0.3 -0.2,0.5 -0.5,0.5z" class="st10"/>
    <path stroke="null" id="svg_70" d="m4862.743805,3463.269264l53.2,0m-53.2,-6.7l23.4,0m7.1,0l60.4,0m0,-6.8l-24.7,0m-7.2,0l-59,0" class="st4"/>
    <path stroke="null" id="svg_71" d="m4862.143805,3436.769264l79,0l0,6l-79,0l0,-6zm131.2,31l-21.5,0c-0.3,0 -0.5,-0.2 -0.5,-0.5l0,-4.7c0,-0.3 0.2,-0.5 0.5,-0.5l21.5,0c0.3,0 0.5,0.2 0.5,0.5l0,4.7c0,0.3 -0.2,0.5 -0.5,0.5z" class="st10"/>
    <g stroke="null" id="svg_72">
     <path stroke="null" id="svg_73" d="m4982.643805,3454.869264c-5,0 -9,-4 -9,-9s4,-9 9,-9" class="st11"/>
     <path stroke="null" id="svg_74" d="m4982.643805,3436.869264c5,0 9,4 9,9s-4,9 -9,9c0,0 -8.2,0.3 -9,-8.9c0,0 -0.3,-4.1 3.5,-7.2" class="st12"/>
    </g>
    <g stroke="null" id="svg_75">
     <path stroke="null" id="svg_76" d="m5021.043805,3451.969264c-3.5,3.5 -9.2,3.5 -12.6,0c-3.5,-3.5 -3.5,-9.2 0,-12.7s9.2,-3.5 12.6,0c2.7,2.7 3.3,6.7 1.8,10" class="st11"/>
     <path stroke="null" id="svg_77" d="m5014.643805,3436.769264c4.9,0 8.9,4 8.9,9s-4,9 -8.9,9c-1.7,0 -3.3,-0.5 -4.6,-1.3" class="st12"/>
    </g>
    <g stroke="null" id="svg_78">
     <path stroke="null" id="svg_79" d="m5053.043805,3451.969264c-3.5,3.5 -9.1,3.5 -12.6,0s-3.5,-9.2 0,-12.7s9.1,-3.5 12.6,0c2.7,2.7 3.3,6.7 1.8,10" class="st11"/>
     <path stroke="null" id="svg_80" d="m5046.743805,3436.669264c4.9,0 8.9,4 8.9,9c0,4.9 -4,9 -8.9,9c0,0 -5.5,0.8 -8.4,-6.1" class="st12"/>
    </g>
    <g stroke="null" id="svg_81">
     <circle stroke="null" id="svg_82" r="20.6" cy="3451.569264" cx="4828.243805" class="st13"/>
     <path stroke="null" id="svg_83" d="m4808.343805,3446.369264c2.4,-9 10.6,-15.5 20.3,-15.3c11.4,0.2 20.4,9.6 20.1,21c-0.2,11.4 -9.6,20.4 -21,20.1c-11.4,-0.2 -20.4,-9.6 -20.1,-21" class="st4"/>
     <path stroke="null" id="svg_84" d="m4833.943805,3459.469264l5.4,1.3c0.8,0.2 1.7,1.1 1.8,1.9l0,5s-5,4.5 -12.3,4.5c-8.4,0 -13.3,-4.5 -13.3,-4.5l0,-5c0.1,-0.8 1,-1.8 1.8,-2l5.4,-1.3c-0.1,0.1 4.7,-1.2 11.2,0.1z" class="st13"/>
     <path stroke="null" id="svg_85" d="m4831.743805,3457.569264c0,5.9 -3.5,5.4 -3.5,5.4c-2.9,0 -3.3,-3.6 -3.6,-5.4l0.6,-1.3l5.9,0l0.6,1.3z" class="st5"/>
     <path stroke="null" id="svg_86" d="m4834.443805,3454.269264c-0.1,0.6 -0.6,1.9 -2.5,3.3c-0.1,0.1 -0.2,0.1 -0.3,0.2c-2.4,1.6 -4.3,2 -6.7,-0.1c-0.2,-0.1 -0.3,-0.3 -0.5,-0.4c-2.2,-2 -2.1,-3.2 -2.1,-4l0,-4.6l0,-0.9s-0.2,-2.1 1.7,-3.6c0,0 2.7,1.7 6.5,0c0,0 1.5,1.8 3.5,2c0,0 0.3,0.3 0.4,2.7l0,5.1s0.1,0.1 0,0.3z" class="st5"/>
     <path stroke="null" id="svg_87" d="m4834.043805,3441.469264c-2.3,-1.8 -3.3,-0.2 -6.6,-1.7c-0.7,-0.5 -1.2,-1 -1.2,-1c-0.6,1.3 -0.7,2 -0.7,2c-1,0.6 -2,0.4 -2,0.4c0,0.1 0,0.3 -0.1,0.4c0,0 -0.3,0.5 -1,1s-1.5,3 -0.3,6.9c0,0.3 0.1,0.5 0.1,0.7c0.1,0.3 0.1,0.5 0.2,0.7l0,-1s-0.2,-2.5 1.7,-4.4c0,0 2.7,2.1 6.5,0c0,0 1.5,2.2 3.5,2.4c0,0 0.3,0.4 0.4,3.2c-0.1,-0.1 1.9,-7.8 -0.5,-9.6z" class="st5"/>
    </g>
   </g>
   <g stroke="null" transform="matrix(0.7955326173622016,0,0,0.7955326173622016,-3590.7590937648065,-2463.141793682366) " id="svg_88">
    <path stroke="null" id="svg_89" fill="#fff" d="m4752.943805,3248.369264l-59.6,0c-1.7,0 -3,-1.4 -3,-3l0,-7.4c0,-1.6 1.3,-3 3,-3l59.6,0c1.7,0 3,1.4 3,3l0,7.4c0,1.7 -1.3,3 -3,3z"/>
    <path stroke="null" id="svg_90" d="m4752.943805,3430.869264l-59.6,0c-1.7,0 -3,-1.3 -3,-3l0,-53.4c0,-1.6 1.3,-3 3,-3l59.6,0c1.7,0 3,1.4 3,3l0,53.3c0,1.7 -1.3,3.1 -3,3.1zm-54,-115.2l-5.6,0c-1.7,0 -3,-1.4 -3,-3l0,-5.5c0,-1.6 1.3,-3 3,-3l5.6,0c1.6,0 3,1.4 3,3l0,5.5c0,1.6 -1.3,3 -3,3zm18,0l-5.6,0c-1.7,0 -3,-1.4 -3,-3l0,-5.5c0,-1.6 1.3,-3 3,-3l5.6,0c1.6,0 3,1.4 3,3l0,5.5c0,1.6 -1.3,3 -3,3zm18,0l-5.6,0c-1.7,0 -3,-1.4 -3,-3l0,-5.5c0,-1.6 1.3,-3 3,-3l5.6,0c1.6,0 3,1.4 3,3l0,5.5c0,1.6 -1.3,3 -3,3zm18,0l-5.6,0c-1.7,0 -3,-1.4 -3,-3l0,-5.5c0,-1.6 1.3,-3 3,-3l5.6,0c1.7,0 3,1.4 3,3l0,5.5c0,1.6 -1.3,3 -3,3z" class="st23"/>
    <path stroke="null" id="svg_91" d="m4749.443805,3242.069264c-0.1,0.7 -0.4,1.3 -0.8,1.8c-0.5,0.5 -1.1,0.9 -1.8,1c-1.7,0.3 -3.4,-0.9 -3.7,-2.6c-0.3,-1.7 0.9,-3.4 2.6,-3.7c1.5,-0.3 2.9,0.5 3.5,1.8m-0.4,3.2l1.4,1.2" class="st5"/>
    <path stroke="null" id="svg_92" d="m4690.343805,3268.369264l65.6,0l0,4.6l-65.6,0l0,-4.6zm0,11.1l52.5,0l0,4.6l-52.5,0l0,-4.6zm0,56.4l52.5,0l0,4.6l-52.5,0l0,-4.6zm0,11.1l39.4,0l0,4.6l-39.4,0l0,-4.6z" class="st23"/>
   </g>
   <path stroke="null" id="svg_93" d="m494.654093,328.119012l0.556873,2.307045c0,9.387285 -7.637113,17.024398 -17.024398,17.024398l-377.082461,0c-9.387285,0 -16.547078,-7.637113 -16.547078,-17.024398l-0.556873,-2.307045l410.653937,0z" class="st5"/>
   <g stroke="null" transform="matrix(0.7955326173622016,0,0,0.7955326173622016,-3590.7590937648065,-2463.141793682366) " id="svg_94">
    <path stroke="null" id="svg_95" d="m4605.343805,3532.969264l544,0" class="st4"/>
   </g>
   <g stroke="null" transform="matrix(0.7955326173622016,0,0,0.7955326173622016,-3590.7590937648065,-2463.141793682366) " id="svg_96">
    <path stroke="null" id="svg_97" d="m4834.243805,3550.669264l250.2,0" class="st4"/>
   </g>
   <g stroke="null" transform="matrix(0.7955326173622016,0,0,0.7955326173622016,-3590.7590937648065,-2463.141793682366) " id="svg_98">
    <path stroke="null" id="svg_99" d="m4718.143805,3550.669264l100.3,0" class="st4"/>
   </g>
  </g>
 </g>
</svg>