<svg xmlns="http://www.w3.org/2000/svg" width="20" height="20">
  <path d="M1 20c-.3 0-.5-.1-.7-.3-.3-.3-.4-.7-.2-1l1.8-5.3c-.6-1.2-.9-2.6-.9-3.9C1 5.9 3 2.6 6.3 1 7.6.3 9 0 10.5 0h.5c4.9.3 8.7 4.1 9 8.9v.6c0 1.5-.3 2.9-1 4.3-1.6 3.2-4.9 5.2-8.5 5.2-1.3 0-2.6-.3-3.8-.8L1.3 20H1zm9.5-18c-1.2 0-2.3.3-3.3.8C4.6 4.1 3 6.6 3 9.5c0 1.2.3 2.3.8 3.3.1.2.1.5.1.8l-1.3 3.8 3.8-1.3c.3-.1.5-.1.8.1 1 .5 2.2.8 3.3.8 2.9 0 5.4-1.6 6.7-4.1.5-1 .8-2.2.8-3.3V9c-.2-3.8-3.2-6.8-7.1-7h-.4z" fill="#93a2bb"/>
  <path d="M10.1 7c.4-.4.9-.5 1.5-.5s1.2.2 1.6.5.6.8.6 1.4c0 .6-.2 1-.5 1.3-.3.3-.8.4-1.5.4v.8h-1.4V9.1h.6c.5 0 .8-.1 1-.2.2-.1.3-.3.3-.6 0-.2-.1-.4-.2-.5-.1-.1-.3-.2-.5-.2s-.4.1-.5.2-.1.3-.1.5H9.6c0-.5.1-1 .5-1.3zm1 6.1c-.2 0-.4-.1-.6-.2s-.2-.4-.2-.6c0-.2.1-.4.2-.6s.4-.2.6-.2.4.1.6.2.2.4.2.6c0 .2-.1.4-.2.6s-.4.2-.6.2z" fill="#929fb8"/>
</svg>