<svg xmlns="http://www.w3.org/2000/svg" viewBox="-748.5 -1853.5 119.7 119.7">
  <defs>
    <style>
      .cls-1 {
        fill: #5b5b5b;
      }

      .cls-2 {
        fill: #f5f6fa;
      }

      .cls-3 {
        fill: #f8f8f8;
      }

      .cls-4 {
        fill: #66dab5;
      }

      .cls-5, .cls-6 {
        fill: none;
        stroke: #fff;
      }

      .cls-5 {
        stroke-miterlimit: 10;
      }

      .cls-7 {
        fill: #9eabc0;
      }

      .cls-8 {
        fill: #fff;
      }
    </style>
  </defs>
  <g id="S-Disc" transform="translate(-2103 -2975)">
    <path id="Path_590" data-name="Path 590" class="cls-1" d="M.6,0V-5.579h.733V0ZM3.276-.563h1.03a2.127,2.127,0,0,0,1.61-.58,2.243,2.243,0,0,0,.555-1.618,2.243,2.243,0,0,0-.555-1.618,2.127,2.127,0,0,0-1.61-.58H3.276Zm1.03-5.015a2.936,2.936,0,0,1,2.133.757,2.736,2.736,0,0,1,.781,2.061A2.643,2.643,0,0,1,6.44-.729,3,3,0,0,1,4.307,0H2.544V-5.579Z" transform="translate(1421.436 1134.746)"/>
    <path id="Path_591" data-name="Path 591" class="cls-1" d="M1.336-.563h1.03a2.127,2.127,0,0,0,1.61-.58,2.243,2.243,0,0,0,.555-1.618,2.243,2.243,0,0,0-.555-1.618,2.127,2.127,0,0,0-1.61-.58H1.336Zm1.03-5.015A2.936,2.936,0,0,1,4.5-4.822a2.736,2.736,0,0,1,.781,2.061A2.643,2.643,0,0,1,4.5-.729,3,3,0,0,1,2.367,0H.6V-5.579ZM6.207,0V-5.579h.733V0Z" transform="translate(1397.94 1132.246)"/>
    <path id="Path_478" data-name="Path 478" class="cls-2" d="M59.8.5V59.8H.5A59.365,59.365,0,0,1,59.8.5Z" transform="translate(1354.5 1121.5)"/>
    <path id="Path_592" data-name="Path 592" class="cls-3" d="M29.6,51.4,0,0" transform="translate(1384.7 1129.9)"/>
    <path id="Path_593" data-name="Path 593" class="cls-3" d="M51.3,29.7,0,0" transform="translate(1363 1151.6)"/>
    <path id="Path_479" data-name="Path 479" class="cls-2" d="M119.2,59.8H59.8V.5A59.386,59.386,0,0,1,119.2,59.8Z" transform="translate(1354.5 1121.5)"/>
    <path id="Path_594" data-name="Path 594" class="cls-3" d="M0,29.6,51.4,0" transform="translate(1414.3 1151.7)"/>
    <path id="Path_595" data-name="Path 595" class="cls-3" d="M0,51.3,29.8,0" transform="translate(1414.3 1130)"/>
    <path id="Path_480" data-name="Path 480" class="cls-4" d="M59.8,119.2V59.8h59.3A59.258,59.258,0,0,1,59.8,119.2Z" transform="translate(1354.5 1121.5)"/>
    <path id="Path_596" data-name="Path 596" class="cls-3" d="M0,0,29.7,51.4" transform="translate(1414.3 1181.3)"/>
    <path id="Path_597" data-name="Path 597" class="cls-3" d="M0,0,51.4,29.8" transform="translate(1414.3 1181.3)"/>
    <path id="Path_481" data-name="Path 481" class="cls-2" d="M.5,59.8H59.8v59.3A59.237,59.237,0,0,1,.5,59.8Z" transform="translate(1354.5 1121.5)"/>
    <path id="Path_598" data-name="Path 598" class="cls-3" d="M51.4,0,0,29.7" transform="translate(1362.9 1181.3)"/>
    <path id="Path_599" data-name="Path 599" class="cls-3" d="M29.7,0,0,51.4" transform="translate(1384.6 1181.3)"/>
    <path id="Path_482" data-name="Path 482" class="cls-5" d="M59.8.5V59.8H.5A59.365,59.365,0,0,1,59.8.5Z" transform="translate(1354.5 1121.5)"/>
    <path id="Path_600" data-name="Path 600" class="cls-6" d="M29.6,51.4,0,0" transform="translate(1384.7 1129.9)"/>
    <path id="Path_601" data-name="Path 601" class="cls-6" d="M51.3,29.7,0,0" transform="translate(1363 1151.6)"/>
    <path id="Path_483" data-name="Path 483" class="cls-5" d="M119.2,59.8H59.8V.5A59.386,59.386,0,0,1,119.2,59.8Z" transform="translate(1354.5 1121.5)"/>
    <path id="Path_602" data-name="Path 602" class="cls-6" d="M0,29.6,51.4,0" transform="translate(1414.3 1151.7)"/>
    <path id="Path_603" data-name="Path 603" class="cls-6" d="M0,51.3,29.8,0" transform="translate(1414.3 1130)"/>
    <path id="Path_484" data-name="Path 484" class="cls-5" d="M59.8,119.2V59.8h59.3A59.258,59.258,0,0,1,59.8,119.2Z" transform="translate(1354.5 1121.5)"/>
    <path id="Path_604" data-name="Path 604" class="cls-6" d="M0,0,29.7,51.4" transform="translate(1414.3 1181.3)"/>
    <path id="Path_605" data-name="Path 605" class="cls-6" d="M0,0,51.4,29.8" transform="translate(1414.3 1181.3)"/>
    <path id="Path_485" data-name="Path 485" class="cls-5" d="M.5,59.8H59.8v59.3A59.237,59.237,0,0,1,.5,59.8Z" transform="translate(1354.5 1121.5)"/>
    <path id="Path_606" data-name="Path 606" class="cls-6" d="M51.4,0,0,29.7" transform="translate(1362.9 1181.3)"/>
    <path id="Path_607" data-name="Path 607" class="cls-6" d="M29.7,0,0,51.4" transform="translate(1384.6 1181.3)"/>
    <path id="Path_608" data-name="Path 608" class="cls-7" d="M3.45-1.709H4.983A3.563,3.563,0,0,0,7.714-2.747a3.942,3.942,0,0,0,.974-2.811,3.942,3.942,0,0,0-.974-2.811A3.563,3.563,0,0,0,4.983-9.406H3.45Zm1.533-9.438A6.122,6.122,0,0,1,9.318-9.614a5.27,5.27,0,0,1,1.653,4.056,5.22,5.22,0,0,1-1.653,4.04A6.16,6.16,0,0,1,4.983,0H1.2V-11.147Z" transform="translate(1378.838 1155.631)"/>
    <path id="Path_609" data-name="Path 609" class="cls-7" d="M1.2,0V-11.147H3.45V0Z" transform="translate(1442.943 1155.149)"/>
    <path id="Path_610" data-name="Path 610" class="cls-7" d="M.6,0V-5.579h.733V0ZM3.276-.563h1.03a2.127,2.127,0,0,0,1.61-.58,2.243,2.243,0,0,0,.555-1.618,2.243,2.243,0,0,0-.555-1.618,2.127,2.127,0,0,0-1.61-.58H3.276Zm1.03-5.015a2.936,2.936,0,0,1,2.133.757,2.736,2.736,0,0,1,.781,2.061A2.643,2.643,0,0,1,6.44-.729,3,3,0,0,1,4.307,0H2.544V-5.579Z" transform="translate(1421.436 1138.031)"/>
    <path id="Path_611" data-name="Path 611" class="cls-7" d="M1.336-.563h1.03a2.127,2.127,0,0,0,1.61-.58,2.243,2.243,0,0,0,.555-1.618,2.243,2.243,0,0,0-.555-1.618,2.127,2.127,0,0,0-1.61-.58H1.336Zm1.03-5.015A2.936,2.936,0,0,1,4.5-4.822a2.736,2.736,0,0,1,.781,2.061A2.643,2.643,0,0,1,4.5-.729,3,3,0,0,1,2.367,0H.6V-5.579ZM6.207,0V-5.579h.733V0Z" transform="translate(1398.941 1139.031)"/>
    <path id="Path_612" data-name="Path 612" class="cls-7" d="M.6,0V-5.579h.733V0ZM3.14-4.089a.761.761,0,0,0,.169.507,1,1,0,0,0,.435.3,4.753,4.753,0,0,0,.592.169q.326.072.652.165a2.867,2.867,0,0,1,.592.237,1.127,1.127,0,0,1,.435.435,1.4,1.4,0,0,1,.169.716,1.53,1.53,0,0,1-.5,1.135A1.857,1.857,0,0,1,4.335.056a2.274,2.274,0,0,1-1.381-.39,1.245,1.245,0,0,1-.531-1.059H3.2a.874.874,0,0,0,.3.612,1.194,1.194,0,0,0,.8.233,1.241,1.241,0,0,0,.845-.274.827.827,0,0,0,.314-.64A.841.841,0,0,0,5.3-2.025a1.018,1.018,0,0,0-.435-.294,4.349,4.349,0,0,0-.592-.165q-.326-.068-.652-.165a2.878,2.878,0,0,1-.592-.246,1.15,1.15,0,0,1-.435-.443,1.442,1.442,0,0,1-.169-.729,1.425,1.425,0,0,1,.5-1.139,1.947,1.947,0,0,1,1.312-.431,2.037,2.037,0,0,1,1.288.374,1.454,1.454,0,0,1,.551,1.034H5.265a.822.822,0,0,0-.31-.564,1.126,1.126,0,0,0-.749-.233,1.2,1.2,0,0,0-.769.237A.837.837,0,0,0,3.14-4.089Z" transform="translate(1454.906 1172.247)"/>
    <path id="Path_613" data-name="Path 613" class="cls-8" d="M1.2-4.089a.761.761,0,0,0,.169.507,1,1,0,0,0,.435.3,4.753,4.753,0,0,0,.592.169q.326.072.652.165a2.867,2.867,0,0,1,.592.237,1.127,1.127,0,0,1,.435.435,1.4,1.4,0,0,1,.169.716,1.53,1.53,0,0,1-.5,1.135A1.857,1.857,0,0,1,2.395.056a2.274,2.274,0,0,1-1.381-.39A1.245,1.245,0,0,1,.483-1.393h.781a.874.874,0,0,0,.3.612,1.194,1.194,0,0,0,.8.233,1.241,1.241,0,0,0,.845-.274.827.827,0,0,0,.314-.64.841.841,0,0,0-.169-.564,1.018,1.018,0,0,0-.435-.294,4.349,4.349,0,0,0-.592-.165Q2-2.552,1.678-2.648a2.878,2.878,0,0,1-.592-.246,1.15,1.15,0,0,1-.435-.443,1.442,1.442,0,0,1-.169-.729A1.425,1.425,0,0,1,.986-5.2,1.947,1.947,0,0,1,2.3-5.635a2.037,2.037,0,0,1,1.288.374,1.454,1.454,0,0,1,.551,1.034H3.325a.822.822,0,0,0-.31-.564,1.126,1.126,0,0,0-.749-.233,1.2,1.2,0,0,0-.769.237A.837.837,0,0,0,1.2-4.089ZM5.329,0V-5.579h.733V0Z" transform="translate(1454.906 1194.354)"/>
    <path id="Path_614" data-name="Path 614" class="cls-8" d="M1.192-4.064a.757.757,0,0,0,.168.5,1,1,0,0,0,.432.3A4.723,4.723,0,0,0,2.38-3.1q.324.072.648.164a2.849,2.849,0,0,1,.588.236,1.12,1.12,0,0,1,.432.432,1.393,1.393,0,0,1,.168.712,1.52,1.52,0,0,1-.5,1.128,1.845,1.845,0,0,1-1.34.48A2.26,2.26,0,0,1,1.008-.332,1.237,1.237,0,0,1,.48-1.384h.776a.869.869,0,0,0,.3.608,1.187,1.187,0,0,0,.8.232,1.234,1.234,0,0,0,.84-.272A.822.822,0,0,0,3.5-1.452a.836.836,0,0,0-.168-.56A1.012,1.012,0,0,0,2.9-2.3a4.322,4.322,0,0,0-.588-.164q-.324-.068-.648-.164a2.86,2.86,0,0,1-.588-.244,1.143,1.143,0,0,1-.432-.44A1.433,1.433,0,0,1,.48-4.04a1.417,1.417,0,0,1,.5-1.132,1.935,1.935,0,0,1,1.3-.428,2.024,2.024,0,0,1,1.28.372A1.445,1.445,0,0,1,4.112-4.2H3.3A.817.817,0,0,0,3-4.76a1.119,1.119,0,0,0-.744-.232,1.188,1.188,0,0,0-.764.236A.832.832,0,0,0,1.192-4.064ZM7.832.048a2.757,2.757,0,0,1-2.008-.8A2.72,2.72,0,0,1,5.008-2.78,2.707,2.707,0,0,1,5.824-4.8a2.765,2.765,0,0,1,2.008-.8,2.921,2.921,0,0,1,1.54.408,2.417,2.417,0,0,1,1,1.176h-.88a1.726,1.726,0,0,0-1.656-.936,2.007,2.007,0,0,0-1.492.6,2.152,2.152,0,0,0-.588,1.58A2.166,2.166,0,0,0,6.34-1.192a2,2,0,0,0,1.492.6,1.966,1.966,0,0,0,.984-.244,1.686,1.686,0,0,0,.672-.7h.88a2.417,2.417,0,0,1-1,1.176A2.921,2.921,0,0,1,7.832.048Z" transform="translate(1418.985 1227.888)"/>
    <path id="Path_615" data-name="Path 615" class="cls-7" d="M3.136.048a2.757,2.757,0,0,1-2.008-.8A2.72,2.72,0,0,1,.312-2.78,2.707,2.707,0,0,1,1.128-4.8a2.765,2.765,0,0,1,2.008-.8,2.921,2.921,0,0,1,1.54.408,2.417,2.417,0,0,1,1,1.176h-.88a1.726,1.726,0,0,0-1.656-.936,2.007,2.007,0,0,0-1.492.6,2.152,2.152,0,0,0-.588,1.58,2.166,2.166,0,0,0,.588,1.584,2,2,0,0,0,1.492.6A1.966,1.966,0,0,0,4.12-.836a1.686,1.686,0,0,0,.672-.7h.88a2.417,2.417,0,0,1-1,1.176A2.921,2.921,0,0,1,3.136.048ZM7.408-4.064a.757.757,0,0,0,.168.5,1,1,0,0,0,.432.3A4.723,4.723,0,0,0,8.6-3.1q.324.072.648.164a2.849,2.849,0,0,1,.588.236,1.12,1.12,0,0,1,.432.432,1.393,1.393,0,0,1,.168.712,1.52,1.52,0,0,1-.5,1.128A1.845,1.845,0,0,1,8.6.056,2.26,2.26,0,0,1,7.224-.332,1.237,1.237,0,0,1,6.7-1.384h.776a.869.869,0,0,0,.3.608,1.187,1.187,0,0,0,.8.232,1.234,1.234,0,0,0,.84-.272.822.822,0,0,0,.312-.636.836.836,0,0,0-.168-.56A1.012,1.012,0,0,0,9.12-2.3a4.322,4.322,0,0,0-.588-.164q-.324-.068-.648-.164A2.86,2.86,0,0,1,7.3-2.876a1.143,1.143,0,0,1-.432-.44A1.433,1.433,0,0,1,6.7-4.04a1.417,1.417,0,0,1,.5-1.132A1.935,1.935,0,0,1,8.5-5.6a2.024,2.024,0,0,1,1.28.372A1.445,1.445,0,0,1,10.328-4.2H9.52a.817.817,0,0,0-.308-.56,1.119,1.119,0,0,0-.744-.232,1.188,1.188,0,0,0-.764.236A.832.832,0,0,0,7.408-4.064Z" transform="translate(1398.152 1227.888)"/>
    <path id="Path_616" data-name="Path 616" class="cls-7" d="M3.136.048a2.757,2.757,0,0,1-2.008-.8A2.72,2.72,0,0,1,.312-2.78,2.707,2.707,0,0,1,1.128-4.8a2.765,2.765,0,0,1,2.008-.8,2.921,2.921,0,0,1,1.54.408,2.417,2.417,0,0,1,1,1.176h-.88a1.726,1.726,0,0,0-1.656-.936,2.007,2.007,0,0,0-1.492.6,2.152,2.152,0,0,0-.588,1.58,2.166,2.166,0,0,0,.588,1.584,2,2,0,0,0,1.492.6A1.966,1.966,0,0,0,4.12-.836a1.686,1.686,0,0,0,.672-.7h.88a2.417,2.417,0,0,1-1,1.176A2.921,2.921,0,0,1,3.136.048ZM7.544-.56H8.568a2.113,2.113,0,0,0,1.6-.576,2.229,2.229,0,0,0,.552-1.608,2.229,2.229,0,0,0-.552-1.608,2.113,2.113,0,0,0-1.6-.576H7.544ZM8.568-5.544a2.917,2.917,0,0,1,2.12.752,2.719,2.719,0,0,1,.776,2.048,2.627,2.627,0,0,1-.776,2.02A2.985,2.985,0,0,1,8.568,0H6.816V-5.544Z" transform="translate(1366.053 1195.354)"/>
    <path id="Path_617" data-name="Path 617" class="cls-7" d="M1.328-.56H2.352a2.113,2.113,0,0,0,1.6-.576A2.229,2.229,0,0,0,4.5-2.744a2.229,2.229,0,0,0-.552-1.608,2.113,2.113,0,0,0-1.6-.576H1.328ZM2.352-5.544a2.917,2.917,0,0,1,2.12.752,2.719,2.719,0,0,1,.776,2.048,2.627,2.627,0,0,1-.776,2.02A2.985,2.985,0,0,1,2.352,0H.6V-5.544ZM8.7.048A2.757,2.757,0,0,1,6.7-.752,2.72,2.72,0,0,1,5.88-2.78,2.707,2.707,0,0,1,6.7-4.8,2.765,2.765,0,0,1,8.7-5.6a2.921,2.921,0,0,1,1.54.408,2.417,2.417,0,0,1,1,1.176h-.88A1.726,1.726,0,0,0,8.7-4.952a2.007,2.007,0,0,0-1.492.6,2.152,2.152,0,0,0-.588,1.58,2.166,2.166,0,0,0,.588,1.584,2,2,0,0,0,1.492.6,1.966,1.966,0,0,0,.984-.244,1.686,1.686,0,0,0,.672-.7h.88a2.417,2.417,0,0,1-1,1.176A2.921,2.921,0,0,1,8.7.048Z" transform="translate(1365.052 1173.144)"/>
    <path id="Path_618" data-name="Path 618" class="cls-8" d="M4.807-9.5a1.681,1.681,0,0,0-1.094.343,1.156,1.156,0,0,0-.423.95,1.363,1.363,0,0,0,.311.95,2,2,0,0,0,.822.527A10.394,10.394,0,0,0,5.542-6.4q.607.144,1.214.351a5.963,5.963,0,0,1,1.118.511,2.213,2.213,0,0,1,.822.886,2.965,2.965,0,0,1,.311,1.413A3.083,3.083,0,0,1,7.913-.878a4.166,4.166,0,0,1-2.907.99,4.7,4.7,0,0,1-2.93-.854,2.85,2.85,0,0,1-1.118-2.4h2.4A1.472,1.472,0,0,0,5.031-1.677a1.756,1.756,0,0,0,1.214-.4,1.354,1.354,0,0,0,.447-1.062A1.188,1.188,0,0,0,6.1-4.184a4.415,4.415,0,0,0-1.429-.575q-.838-.192-1.685-.463a3.148,3.148,0,0,1-1.437-.95,2.639,2.639,0,0,1-.591-1.8A2.989,2.989,0,0,1,2.06-10.4a4.3,4.3,0,0,1,2.835-.91,4.531,4.531,0,0,1,2.787.791,3.053,3.053,0,0,1,1.15,2.4H6.372a1.514,1.514,0,0,0-.479-1.014A1.557,1.557,0,0,0,4.807-9.5Z" transform="translate(1439.694 1218.09)"/>
    <path id="Path_619" data-name="Path 619" class="cls-7" d="M2.22-1.517A5.483,5.483,0,0,1,.575-5.605,5.47,5.47,0,0,1,2.228-9.694a5.576,5.576,0,0,1,4.048-1.613,5.767,5.767,0,0,1,3.234.926,5.083,5.083,0,0,1,2.02,2.6h-2.7A2.637,2.637,0,0,0,6.276-9.247a3.253,3.253,0,0,0-2.467,1A3.685,3.685,0,0,0,2.859-5.6a3.685,3.685,0,0,0,.95,2.651,3.253,3.253,0,0,0,2.467,1A2.658,2.658,0,0,0,8.831-3.418h2.7a5.042,5.042,0,0,1-2.02,2.6A5.8,5.8,0,0,1,6.276.1,5.568,5.568,0,0,1,2.22-1.517Z" transform="translate(1377.583 1218.091)"/>
    <path id="Path_620" data-name="Path 620" class="cls-8" d="M26,0A26,26,0,1,1,0,26,26,26,0,0,1,26,0Z" transform="translate(1388 1155)"/>
  </g>
</svg>
