<svg xmlns="http://www.w3.org/2000/svg" width="18" height="22">
  <style>
    .st0{fill:#93a2bb}
  </style>
  <path class="st0" d="M15 22H3c-1.7 0-3-1.3-3-3V5c0-1.7 1.3-3 3-3h2c.6 0 1 .4 1 1s-.4 1-1 1H3c-.6 0-1 .4-1 1v14c0 .6.4 1 1 1h12c.6 0 1-.4 1-1V5c0-.6-.4-1-1-1h-2c-.6 0-1-.4-1-1s.4-1 1-1h2c1.7 0 3 1.3 3 3v14c0 1.7-1.3 3-3 3z"/>
  <path class="st0" d="M12 6H6c-1.1 0-2-.9-2-2V2c0-1.1.9-2 2-2h6c1.1 0 2 .9 2 2v2c0 1.1-.9 2-2 2zM6 2v2h6V2H6zM12.3 12.2h-7c-.6 0-1-.4-1-1s.4-1 1-1h7c.6 0 1 .4 1 1s-.4 1-1 1z"/>
  <g>
    <path class="st0" d="M9.8 16.2H5.3c-.6 0-1-.4-1-1s.4-1 1-1h4.5c.6 0 1 .4 1 1s-.4 1-1 1z"/>
  </g>
</svg>