<svg xmlns="http://www.w3.org/2000/svg" width="24" height="18.7">
  <g fill="#93a2bb">
    <path class="st0" d="M4.2 18.7c-.4 0-.7-.2-.8-.3-.2-.2-.7-.7-.5-1.6l.9-4.2L.6 9.7C-.1 9.1 0 8.4.1 8.1s.4-.9 1.4-1l4.2-.5 1.8-3.9c.4-.9 1.1-1 1.4-1 .3 0 1 .1 1.4 1L12 6.6l4.2.5c1 .1 1.3.7 1.4 1 .1.3.2 1-.5 1.6L14 12.6l.9 4.2c.2 1-.3 1.5-.5 1.6-.2.2-.8.5-1.7 0L9 16.3l-3.7 2.1c-.5.2-.8.3-1.1.3zm4.7-4.5c.2 0 .3 0 .5.1l3.3 1.9-.8-3.7c-.1-.3 0-.7.3-.9L15 9l-3.8-.4c-.4 0-.7-.3-.8-.6L8.9 4.5 7.3 8c-.1.3-.5.5-.8.5L2.7 9l2.8 2.6c.3.2.4.6.3.9L5 16.2l3.3-1.9c.2-.1.4-.1.6-.1z"/>
    <path class="st0" d="M19.9 16.2c-.3 0-.6-.1-.9-.3l-1.3-.7c-.5-.3-.6-.9-.4-1.4.3-.5.9-.6 1.4-.4l.3.2-.7-3.4c-.1-.3 0-.7.3-.9L21.2 7l-3.5-.4c-.4 0-.7-.3-.8-.6l-1.4-3.2-.4.8c-.2.5-.8.7-1.3.5-.5-.2-.7-.8-.5-1.3l.9-1.8c.4-.9 1.1-1 1.4-1 .3 0 1 .1 1.4 1l1.7 3.7 4 .4c1 .1 1.3.7 1.4 1-.1.3 0 .9-.7 1.6l-3 2.7.8 3.9c.2 1-.3 1.5-.5 1.6-.1.2-.4.3-.8.3z"/>
  </g>
</svg>