<svg xmlns="http://www.w3.org/2000/svg" width="15.702px" height="12.829px" viewBox="-1714 -3072 15.702 12.829">
  <defs>
    <style>
      .cls-1 {
        fill: #6a7e9c;
      }
    </style>
  </defs>
  <path id="twitter-icon" class="cls-1" d="M272.82,293.025a9.055,9.055,0,0,1-3.785,7.921c-4.346,3.154-8.692,1.051-10.235.28a7.252,7.252,0,0,0,4.7-1.4,3.25,3.25,0,0,1-2.944-2.173,3.314,3.314,0,0,0,1.4-.07,3.394,3.394,0,0,1-2.524-3.225,2.511,2.511,0,0,0,1.472.351,3.279,3.279,0,0,1-1.052-4.276,8.568,8.568,0,0,0,6.66,3.365,7.615,7.615,0,0,1-.07-.911,3.256,3.256,0,0,1,3.225-3.084,2.96,2.96,0,0,1,2.313,1.052,4.4,4.4,0,0,0,2.033-.841,3.835,3.835,0,0,1-1.332,1.823,5.531,5.531,0,0,0,1.823-.491A5.035,5.035,0,0,1,272.82,293.025Z" transform="translate(-1972.8 -3361.8)"/>
</svg>
