<svg xmlns="http://www.w3.org/2000/svg" viewBox="708.999 -2279 31.667 31.496">
  <defs>
    <style>
      .cls-1 {
        fill: #e6effe;
      }

      .cls-2 {
        fill: #448afa;
      }
    </style>
  </defs>
  <g id="Group_851" data-name="Group 851" transform="translate(708.999 -2279)">
    <path id="Path_520" data-name="Path 520" class="cls-1" d="M17.349.641l2.742,2.468a2.385,2.385,0,0,0,1.554.64l3.656.183a2.385,2.385,0,0,1,2.285,2.285l.183,3.656a2.592,2.592,0,0,0,.64,1.554l2.468,2.742a2.5,2.5,0,0,1,0,3.29l-2.559,2.65a2.385,2.385,0,0,0-.64,1.554l-.183,3.656A2.385,2.385,0,0,1,25.209,27.6l-3.656.183a2.592,2.592,0,0,0-1.554.64l-2.742,2.468a2.5,2.5,0,0,1-3.29,0l-2.742-2.468a2.385,2.385,0,0,0-1.554-.64L6.017,27.6a2.385,2.385,0,0,1-2.285-2.285L3.549,21.66a2.592,2.592,0,0,0-.64-1.554L.442,17.365a2.5,2.5,0,0,1,0-3.29l2.468-2.742a2.385,2.385,0,0,0,.64-1.554l.183-3.656A2.385,2.385,0,0,1,6.017,3.839l3.656-.183a2.592,2.592,0,0,0,1.554-.64L13.968.549A2.743,2.743,0,0,1,17.349.641Z" transform="translate(0.175 -0.012)"/>
    <g id="Group_850" data-name="Group 850" transform="translate(8.019 8.159)">
      <path id="Path_521" data-name="Path 521" class="cls-2" d="M14.3,21.285h2.1l-1.371-1.371c.091-.091.274-.183.366-.366L16.219,19h.091c.183.183.457.366.64.548a3.2,3.2,0,0,0,1.279.548,3.992,3.992,0,0,0,3.2-.823c.091-.091.274-.183.366-.274h0a5.55,5.55,0,0,1,2.559,3.016,7.79,7.79,0,0,1,.274,2.1v.274H16.219c-.274-.183-.64-.457-.914-.64A3.079,3.079,0,0,1,14.3,22.2,1.549,1.549,0,0,0,14.3,21.285Z" transform="translate(-9.091 -9.806)"/>
      <path id="Path_522" data-name="Path 522" class="cls-2" d="M22.463,14.981a3.286,3.286,0,0,1-3.473,3.381,3.355,3.355,0,0,1-3.29-3.381A3.434,3.434,0,0,1,19.081,11.6,3.372,3.372,0,0,1,22.463,14.981Z" transform="translate(-9.211 -9.169)"/>
      <path id="Path_523" data-name="Path 523" class="cls-2" d="M10.9,11.645a2.746,2.746,0,0,1,2.193-2.65,2.61,2.61,0,0,1,2.468.823,2.178,2.178,0,0,1,.548,1.005v.091c0,.091,0,.183-.091.183a3.3,3.3,0,0,0-1.828,2.559.685.685,0,0,1-.091.457.09.09,0,0,1-.091.091,2.485,2.485,0,0,1-.823,0A2.742,2.742,0,0,1,10.9,12.193Q10.9,11.919,10.9,11.645Z" transform="translate(-8.798 -8.94)"/>
      <path id="Path_524" data-name="Path 524" class="cls-2" d="M14.044,24.058a2.825,2.825,0,0,0-.731-.183,3.824,3.824,0,0,1-1.645-1.005,4.067,4.067,0,0,1-1.1-1.919c0-.091-.091-.274-.091-.366s0-.091-.091-.091H9.2c.731-.731,1.554-1.462,2.285-2.193.731.731,1.554,1.462,2.285,2.193H12.49v.366a3.585,3.585,0,0,0,.366,1.645,3.249,3.249,0,0,0,1.188,1.554Z" transform="translate(-8.652 -9.746)"/>
      <path id="Path_525" data-name="Path 525" class="cls-2" d="M10.885,14.7a3.128,3.128,0,0,0,2.924.914v.091a3.247,3.247,0,0,1,.183.914V16.8a5.07,5.07,0,0,0-.731.548,2.423,2.423,0,0,1-.548.457h0l-1.279-1.279a.09.09,0,0,0-.091.091L9.788,18.173l-.091.091H8.783c-.183,0-.183-.091-.183-.183a4.827,4.827,0,0,1,1.005-2.193A3.183,3.183,0,0,1,10.885,14.7Z" transform="translate(-8.6 -9.436)"/>
    </g>
  </g>
</svg>
