<?xml version="1.0" encoding="utf-8"?>
<!-- Generator: Adobe Illustrator 16.0.0, SVG Export Plug-In . SVG Version: 6.00 Build 0)  -->
<!DOCTYPE svg PUBLIC "-//W3C//DTD SVG 1.1//EN" "http://www.w3.org/Graphics/SVG/1.1/DTD/svg11.dtd" [
	<!ENTITY ns_extend "http://ns.adobe.com/Extensibility/1.0/">
	<!ENTITY ns_ai "http://ns.adobe.com/AdobeIllustrator/10.0/">
	<!ENTITY ns_graphs "http://ns.adobe.com/Graphs/1.0/">
	<!ENTITY ns_vars "http://ns.adobe.com/Variables/1.0/">
	<!ENTITY ns_imrep "http://ns.adobe.com/ImageReplacement/1.0/">
	<!ENTITY ns_sfw "http://ns.adobe.com/SaveForWeb/1.0/">
	<!ENTITY ns_custom "http://ns.adobe.com/GenericCustomNamespace/1.0/">
	<!ENTITY ns_adobe_xpath "http://ns.adobe.com/XPath/1.0/">
]>
<svg version="1.1" id="Layer_1" xmlns:x="&ns_extend;" xmlns:i="&ns_ai;" xmlns:graph="&ns_graphs;"
	 xmlns="http://www.w3.org/2000/svg" xmlns:xlink="http://www.w3.org/1999/xlink" x="0px" y="0px" width="340px" height="340px"
	 viewBox="0 0 340 340" enable-background="new 0 0 340 340" xml:space="preserve">
<metadata>
	<sfw  xmlns="&ns_sfw;">
		<slices></slices>
		<sliceSourceBounds  height="445.981" width="741.537" y="244.585" x="54.732" bottomLeftOrigin="true"></sliceSourceBounds>
		<optimizationSettings>
			<targetSettings  fileFormat="PNG24Format" targetSettingsID="0">
				<PNG24Format  transparency="true" matteColor="#FFFFFF" interlaced="false" noMatteColor="false" filtered="false">
					</PNG24Format>
			</targetSettings>
		</optimizationSettings>
	</sfw>
</metadata>
<path id="Path_520" fill="#C7D9CF" d="M-240.721,19.346l27.233,24.512c4.203,3.921,9.689,6.18,15.434,6.356l36.311,1.818
	c12.317,0.506,22.188,10.376,22.694,22.694l1.817,36.311c0.346,5.708,2.583,11.138,6.355,15.434l24.512,27.233
	c8.179,9.357,8.179,23.317,0,32.675l-25.415,26.319c-3.922,4.202-6.179,9.688-6.356,15.434l-1.817,36.312
	c-0.527,12.307-10.396,22.154-22.703,22.654l-36.312,1.817c-5.707,0.346-11.137,2.582-15.434,6.356l-27.233,24.512
	c-9.356,8.176-23.317,8.176-32.674,0l-27.233-24.512c-4.203-3.922-9.688-6.182-15.435-6.356l-36.29-1.817
	c-12.317-0.507-22.188-10.375-22.694-22.693l-1.818-36.301c-0.346-5.707-2.582-11.139-6.355-15.434l-24.502-27.225
	c-8.176-9.355-8.176-23.317,0-32.674l24.512-27.233c3.922-4.203,6.181-9.689,6.356-15.434l1.817-36.311
	c0.512-12.31,10.375-22.173,22.685-22.685l36.31-1.817c5.709-0.346,11.139-2.583,15.435-6.356l27.223-24.502
	C-264.229,10.978-250.372,11.355-240.721,19.346z"/>
<path fill="#0B1BA1" d="M-201.709,139.664c-0.266-0.521-0.617-1.005-1.063-1.41c-0.449-0.405-0.95-0.701-1.475-0.889l-27.521-9.891
	c-1.918-0.69-3.972-1.059-6.108-1.04c-2.136,0.023-4.181,0.433-6.087,1.16l-20.883,7.966c-1.47,0.562-2.931,1.208-4.368,1.943
	c-0.481,0.249-0.953,0.518-1.424,0.782c-1.576-0.854-3.223-1.606-4.939-2.246c-5.479-2.048-11.088-2.739-16.518-2.276l-14.049,1.206
	c-0.611,0.053-1.229,0.242-1.805,0.581c-0.577,0.339-1.053,0.798-1.428,1.327l-31.635,45.034c-0.65,0.925-0.998,2.102-0.893,3.348
	c0.104,1.246,0.641,2.336,1.432,3.122l13.76,13.637c-0.754,1.381-1.232,2.935-1.344,4.592c-0.197,2.983,0.781,5.865,2.75,8.113
	c1.971,2.244,4.697,3.59,7.683,3.785c0.159,0.012,0.32,0.012,0.482,0.016c-1.225,3.959-0.223,8.449,2.965,11.467
	c1.907,1.807,4.354,2.857,6.952,3.027c-1.674,4.147-0.769,9.1,2.653,12.336c2.087,1.979,4.817,3.065,7.693,3.065
	c2.994,0,5.789-1.17,7.899-3.281c0.784,5.069,4.996,9.11,10.322,9.458c0.244,0.018,0.496,0.028,0.74,0.028
	c1.361,0,2.665-0.258,3.879-0.709c1.979,1.319,4.342,2.048,6.854,1.946c3.089-0.129,5.858-1.492,7.932-3.625l-7.568-7.551
	c0.018-0.175,0.049-0.342,0.058-0.522c0.097-1.481-0.105-2.917-0.546-4.25l15.486,15.448c1.955,0.793,4.082,1.19,6.297,1.104
	c4.432-0.181,8.382-2.273,11.178-5.514l1.55-1.797c0.144-0.17,0.254-0.362,0.35-0.567l-23.848-23.78
	c-0.614-0.607-0.663-1.623-0.118-2.261c0.548-0.634,1.493-0.655,2.104-0.046l28.361,28.281c1.545,0.541,3.198,0.806,4.917,0.734
	c3.897-0.158,7.375-1.998,9.833-4.853l3.744-4.334c0.859-1,1.371-2.351,1.323-3.815l-24.887-24.813
	c-0.608-0.61-0.664-1.625-0.117-2.26c0.55-0.633,1.494-0.655,2.104-0.045l25.004,24.933c1.025,0.272,2.104,0.407,3.211,0.362
	c3.196-0.129,6.038-1.637,8.05-3.973l1.005-1.165c2.013-2.331,3.2-5.487,3.079-8.922c-0.122-3.435-1.521-6.483-3.691-8.649
	l-6.675-6.654l1.687,1.681l18.049-16.299c0.767-0.69,1.321-1.653,1.526-2.787c0.202-1.133,0.019-2.251-0.451-3.198L-201.709,139.664
	z"/>
<path fill="#FFFFFF" d="M-317.311,213.682c-1.691-0.108-3.24-0.871-4.361-2.149c-1.119-1.274-1.672-2.91-1.56-4.605
	c0.214-3.327,3.001-5.935,6.329-5.935c0.141,0,0.284,0.004,0.426,0.011c1.691,0.115,3.239,0.876,4.36,2.152
	c1.12,1.276,1.673,2.911,1.563,4.606C-310.785,211.23-313.801,213.916-317.311,213.682z"/>
<path fill="#FFFFFF" d="M-306.49,228.215c-1.629,0-3.18-0.615-4.364-1.736c-2.513-2.375-2.648-6.377-0.316-8.91
	c0.12-0.125,2.599-2.745,3.789-3.998l0.624-0.663c1.213-1.278,2.852-1.986,4.613-1.986c1.632,0,3.184,0.619,4.365,1.742
	c1.232,1.165,1.939,2.739,1.986,4.438c0.046,1.692-0.57,3.307-1.736,4.537l-1.769,1.869c-0.378,0.396-0.783,0.826-1.198,1.266
	c-0.066,0.072-0.139,0.146-0.202,0.217c-0.308,0.322-0.581,0.611-0.792,0.833c-0.121,0.13-0.242,0.26-0.367,0.386
	c-0.031,0.033-0.055,0.061-0.057,0.064C-303.117,227.523-304.745,228.215-306.49,228.215z"/>
<path fill="#FFFFFF" d="M-292.307,241.643c-1.207,1.254-2.831,1.94-4.574,1.94c-1.631,0-3.184-0.617-4.365-1.741
	c-2.512-2.374-2.649-6.376-0.324-8.896c0.055-0.059,1.511-1.6,3.16-3.34l0,0l1.225-1.293c2.145-2.271,2.847-3.008,3.084-3.268
	c0.029-0.025,0.061-0.056,0.083-0.081l0.005-0.003c0.207-0.225,0.328-0.35,0.33-0.352c1.211-1.281,2.853-1.987,4.617-1.987
	c1.631,0,3.18,0.616,4.363,1.737c1.233,1.168,1.937,2.746,1.982,4.438c0.048,1.701-0.568,3.313-1.739,4.55
	C-284.572,233.468-292.063,241.381-292.307,241.643z"/>
<path fill="#FFFFFF" d="M-271.586,243.85c-0.23,3.469-3.24,6.156-6.756,5.926c-3.496-0.233-6.153-3.262-5.922-6.756
	c0.219-3.332,2.994-5.938,6.326-5.938c0.142,0,0.285,0.005,0.426,0.014C-274.017,237.324-271.359,240.355-271.586,243.85z"/>
<path fill="#FFFFFF" d="M-200.686,205.695l-49.438-49.289l0.557-1.408c0.289-0.734,0.252-1.601-0.172-2.331
	c-0.422-0.727-1.131-1.151-1.872-1.19l-3.674-0.22l-4.014-0.238l-0.306,4.759c-0.004,0.099-0.8,10.918-6.317,20.695
	c-5.656,10.031-13.15,13.49-14.293,13.713c-1.276,0.248-2.613,0.482-3.727,0.482c-0.764,0-1.354-0.105-1.855-0.338l-1.878-0.869
	c-0.787-0.363-1.388-1.035-1.704-1.889c-0.31-0.824-0.305-1.725,0-2.547l18.803-41.268l3.198-2.107l1.288-0.49h-0.002l23.632-9.013
	c1.485-0.566,3.042-0.863,4.622-0.877l0.132-0.002c1.533,0,3.052,0.265,4.507,0.79l27.522,9.892l23.473,47.06L-200.686,205.695z"/>
<path fill="#0B1BA1" d="M-173.937,109.607l-18.58,9.264c-2.672,1.336-4.839,3.69-5.863,6.747c-1.022,3.059-0.705,6.242,0.623,8.92
	l24.327,48.771c1.334,2.67,3.688,4.842,6.751,5.859c3.055,1.023,6.237,0.713,8.914-0.622l18.575-9.269L-173.937,109.607z"/>
<path fill="#FFFFFF" d="M-157.813,179.307c-2.469,0-4.476-2.002-4.476-4.474c0-2.474,2.007-4.478,4.476-4.478
	c2.472,0,4.479,2.004,4.479,4.478C-153.334,177.305-155.341,179.307-157.813,179.307z"/>
<path fill="#0B1BA1" d="M-311.873,124.414c-0.559-3.179-2.343-5.829-4.79-7.549l-16.989-11.931l-44.755,63.709l16.987,11.933
	c2.445,1.721,5.546,2.503,8.723,1.947c3.18-0.555,5.828-2.346,7.544-4.789l31.329-44.597
	C-312.103,130.693-311.32,127.588-311.873,124.414z"/>
<path fill="#FFFFFF" d="M-354.902,167.688c-0.369,2.447-2.648,4.13-5.095,3.76c-2.445-0.366-4.128-2.646-3.758-5.095
	c0.369-2.443,2.649-4.127,5.091-3.76C-356.217,162.963-354.537,165.245-354.902,167.688z"/>
<path id="Path_520_1_" fill="#CAE0FF" d="M186.279,19.346l27.232,24.512c4.203,3.921,9.689,6.18,15.434,6.356l36.312,1.818
	c12.317,0.506,22.188,10.376,22.694,22.694l1.816,36.311c0.347,5.708,2.584,11.138,6.355,15.434l24.512,27.233
	c8.18,9.357,8.18,23.317,0,32.675l-25.415,26.319c-3.922,4.202-6.179,9.688-6.355,15.434l-1.817,36.312
	c-0.527,12.307-10.396,22.154-22.703,22.654l-36.312,1.817c-5.707,0.346-11.138,2.582-15.435,6.356l-27.232,24.512
	c-9.356,8.176-23.317,8.176-32.674,0l-27.233-24.512c-4.203-3.922-9.688-6.182-15.435-6.356l-36.29-1.817
	c-12.317-0.507-22.188-10.375-22.694-22.693l-1.818-36.301c-0.346-5.707-2.582-11.139-6.355-15.434l-24.502-27.225
	c-8.176-9.355-8.176-23.317,0-32.674l24.512-27.233c3.922-4.203,6.181-9.689,6.356-15.434l1.817-36.311
	c0.512-12.31,10.375-22.173,22.685-22.685l36.31-1.817c5.709-0.346,11.139-2.583,15.435-6.356L152.7,18.432
	C162.771,10.978,176.628,11.355,186.279,19.346z"/>
<path fill="#79839E" d="M79.858-100.586c-0.559-3.179-2.343-5.829-4.79-7.549l-16.989-11.931L13.324-56.357l16.987,11.933
	c2.445,1.721,5.546,2.503,8.723,1.947c3.18-0.555,5.828-2.346,7.544-4.789l31.329-44.597
	C79.628-94.307,80.411-97.412,79.858-100.586z"/>
<g>
	<path fill="#448AFA" d="M228.739,150.168v49.279c0,3.808-4.125,6.187-7.424,4.293l-20.528-11.84v3.372
		c0,10.143-8.224,18.368-18.366,18.368H128.63c-10.142,0-18.368-8.226-18.368-18.368V154.39c0-10.142,8.226-18.368,18.368-18.368
		h53.815c10.142,0,18.368,8.226,18.368,18.368v3.372l20.525-11.84C224.614,143.981,228.739,146.382,228.739,150.168z"/>
</g>
</svg>
