<?xml version="1.0"?>
<svg xmlns="http://www.w3.org/2000/svg" id="Layer_1" enable-background="new 0 0 512 512" height="512px" viewBox="0 0 512 512" width="512px"><g><g><path d="m159.688 241h41.497c.178-3.922 1.407-41.808 13.723-73.367-28.922 13.503-50.167 40.792-55.22 73.367z" data-original="#000000" class="active-path" data-old_color="#000000" fill="#9EABC0"/><path d="m159.688 271c5.053 32.573 26.295 59.861 55.215 73.365-8.147-20.937-12.528-47.183-13.718-73.365z" data-original="#000000" class="active-path" data-old_color="#000000" fill="#9EABC0"/><path d="m256 158.54c-1.486.335-8.426 5.618-14.979 25.033-5.349 15.844-8.739 35.84-9.815 57.427h49.59c-1.076-21.588-4.467-41.583-9.815-57.427-6.555-19.415-13.495-24.698-14.981-25.033z" data-original="#000000" class="active-path" data-old_color="#000000" fill="#9EABC0"/><path d="m241.021 328.427c6.606 19.568 13.602 24.78 15.012 25.039h.027c1.322-.262 8.316-5.476 14.92-25.039 5.349-15.844 8.739-35.84 9.815-57.427h-49.59c1.076 21.588 4.467 41.583 9.816 57.427z" data-original="#000000" class="active-path" data-old_color="#000000" fill="#9EABC0"/><path d="m297.099 344.364c28.919-13.505 50.16-40.792 55.213-73.364h-41.497c-.175 3.859-1.405 41.813-13.716 73.364z" data-original="#000000" class="active-path" data-old_color="#000000" fill="#9EABC0"/><path d="m433.948 13.816c-8.768-8.78-20.923-13.816-33.348-13.816h-321.333c-8.284 0-15 6.716-15 15v482c0 8.284 6.716 15 15 15h321.333c12.425 0 24.58-5.036 33.34-13.809 8.895-8.895 13.793-20.729 13.793-33.325v-417.733c0-12.595-4.898-24.43-13.785-33.317zm-177.948 369.651c-70.285 0-127.467-57.182-127.467-127.467s57.182-127.467 127.467-127.467 127.467 57.182 127.467 127.467-57.182 127.467-127.467 127.467z" data-original="#000000" class="active-path" data-old_color="#000000" fill="#9EABC0"/><path d="m297.103 167.637c12.31 31.637 13.535 69.46 13.712 73.363h41.497c-5.052-32.571-26.292-59.857-55.209-73.363z" data-original="#000000" class="active-path" data-old_color="#000000" fill="#9EABC0"/></g></g> </svg>
