<?xml version="1.0" encoding="UTF-8" standalone="no"?><!-- Generator: Gravit.io --><svg xmlns="http://www.w3.org/2000/svg" xmlns:xlink="http://www.w3.org/1999/xlink" style="isolation:isolate" viewBox="0 0 350 271" width="350pt" height="271pt"><defs><clipPath id="_clipPath_lh3qoJn4MhOI9yyU9zijPGUkqyYAWNme"><rect width="350" height="271"/></clipPath></defs><g clip-path="url(#_clipPath_lh3qoJn4MhOI9yyU9zijPGUkqyYAWNme)"><rect width="350" height="271" style="fill:rgb(0,0,0)" fill-opacity="0"/><g><path d=" M 297.18 225.368 C 297.345 231.627 294.739 237.674 289.97 242.101 C 285.2 246.528 278.684 248.946 271.941 248.793 L 46.596 248.793 C 39.853 248.946 33.337 246.528 28.567 242.101 C 23.798 237.674 21.192 231.627 21.357 225.368 L 21.357 88.165 C 21.192 81.907 23.798 75.859 28.567 71.433 C 33.337 67.006 39.853 64.587 46.596 64.74 L 271.941 64.74 C 278.684 64.587 285.2 67.006 289.97 71.433 C 294.739 75.859 297.345 81.907 297.18 88.165 L 297.18 225.368 Z " fill="none" vector-effect="non-scaling-stroke" stroke-width="2" stroke="rgb(106,126,156)" stroke-linejoin="round" stroke-linecap="round" stroke-miterlimit="4"/><path d=" M 79.046 113.263 L 154.762 175.172 L 239.492 113.263" fill="none" vector-effect="non-scaling-stroke" stroke-width="2" stroke="rgb(106,126,156)" stroke-linejoin="round" stroke-linecap="round" stroke-miterlimit="4"/></g></g></svg>