<svg width="128" height="128" xmlns="http://www.w3.org/2000/svg">

 <g>
  <title>background</title>
  <rect fill="none" id="canvas_background" height="402" width="582" y="-1" x="-1"/>
 </g>
 <g>
  <title>Layer 1</title>
  <path fill="#415383" id="svg_1" d="m42.73,101.19c-0.51,0 -1.02,-0.2 -1.41,-0.59l-14.46,-14.45c-0.38,-0.38 -0.59,-0.88 -0.59,-1.41s0.21,-1.04 0.59,-1.41l68.66,-68.66c0.78,-0.78 2.05,-0.78 2.83,0l14.45,14.45c0.38,0.38 0.59,0.88 0.59,1.41s-0.21,1.04 -0.59,1.41l-25.39,25.39c-0.78,0.78 -2.05,0.78 -2.83,0c-0.78,-0.78 -0.78,-2.05 0,-2.83l23.97,-23.97l-11.62,-11.63l-65.82,65.83l11.63,11.63l15.76,-15.77c0.78,-0.78 2.05,-0.78 2.83,0c0.78,0.78 0.78,2.05 0,2.83l-17.18,17.18c-0.39,0.39 -0.91,0.59 -1.42,0.59z"/>
  <path fill="#415383" id="svg_2" d="m104.16,25.3c-0.51,0 -1.02,-0.2 -1.41,-0.59c-0.78,-0.78 -0.78,-2.05 0,-2.83l13.55,-13.54c0.78,-0.78 2.05,-0.78 2.83,0c0.78,0.78 0.78,2.05 0,2.83l-13.55,13.55c-0.4,0.39 -0.91,0.58 -1.42,0.58z"/>
  <path fill="#415383" id="svg_3" d="m122.23,16.27c-0.51,0 -1.02,-0.2 -1.41,-0.59l-9.94,-9.94c-0.78,-0.78 -0.78,-2.05 0,-2.83c0.78,-0.78 2.05,-0.78 2.83,0l9.94,9.94c0.78,0.78 0.78,2.05 0,2.83c-0.4,0.39 -0.91,0.59 -1.42,0.59z"/>
  <path fill="#415383" id="svg_4" d="m34.6,103.9c-0.51,0 -1.02,-0.2 -1.41,-0.59l-9.03,-9.03c-0.78,-0.78 -0.78,-2.05 0,-2.83l5.42,-5.42c0.78,-0.78 2.05,-0.78 2.83,0l9.03,9.03c0.78,0.78 0.78,2.05 0,2.83l-5.42,5.42c-0.39,0.39 -0.91,0.59 -1.42,0.59zm-6.2,-11.04l6.21,6.21l2.59,-2.59l-6.21,-6.21l-2.59,2.59z"/>
  <path fill="#415383" id="svg_5" d="m9.31,120.16c-0.51,0 -1.02,-0.2 -1.41,-0.59c-0.78,-0.78 -0.78,-2.05 0,-2.83l19.87,-19.87c0.78,-0.78 2.05,-0.78 2.83,0c0.78,0.78 0.78,2.05 0,2.83l-19.87,19.87c-0.4,0.39 -0.91,0.59 -1.42,0.59z"/>
  <path fill="#415383" id="svg_6" d="m40.273561,84.273561c-0.51,0 -1.02,-0.2 -1.41,-0.59l-4.52,-4.52c-0.78,-0.78 -0.78,-2.05 0,-2.83c0.78,-0.78 2.05,-0.78 2.83,0l4.52,4.52c0.78,0.78 0.78,2.05 0,2.83c-0.39,0.4 -0.91,0.59 -1.42,0.59z"/>
  <path fill="#415383" id="svg_7" d="m47.25,76.79c-0.51,0 -1.02,-0.2 -1.41,-0.59l-4.52,-4.52c-0.78,-0.78 -0.78,-2.05 0,-2.83c0.78,-0.78 2.05,-0.78 2.83,0l4.52,4.52c0.78,0.78 0.78,2.05 0,2.83c-0.4,0.4 -0.91,0.59 -1.42,0.59z"/>
  <path fill="#415383" id="svg_8" d="m54.48,69.57c-0.51,0 -1.02,-0.2 -1.41,-0.59l-4.52,-4.52c-0.78,-0.78 -0.78,-2.05 0,-2.83c0.78,-0.78 2.05,-0.78 2.83,0l4.52,4.52c0.78,0.78 0.78,2.05 0,2.83c-0.4,0.39 -0.91,0.59 -1.42,0.59z"/>
  <path fill="#415383" id="svg_9" d="m68.93,55.11c-0.51,0 -1.02,-0.2 -1.41,-0.59l-4.52,-4.51c-0.78,-0.78 -0.78,-2.05 0,-2.83c0.78,-0.78 2.05,-0.78 2.83,0l4.52,4.52c0.78,0.78 0.78,2.05 0,2.83c-0.4,0.39 -0.91,0.58 -1.42,0.58z"/>
  <path fill="#415383" id="svg_10" d="m76.16,47.89c-0.51,0 -1.02,-0.2 -1.41,-0.59l-4.52,-4.52c-0.78,-0.78 -0.78,-2.05 0,-2.83c0.78,-0.78 2.05,-0.78 2.83,0l4.52,4.52c0.78,0.78 0.78,2.05 0,2.83c-0.4,0.39 -0.91,0.59 -1.42,0.59z"/>
  <path fill="#415383" id="svg_11" d="m83.38,40.66c-0.51,0 -1.02,-0.2 -1.41,-0.59l-4.52,-4.52c-0.78,-0.78 -0.78,-2.05 0,-2.83c0.78,-0.78 2.05,-0.78 2.83,0l4.52,4.52c0.78,0.78 0.78,2.05 0,2.83c-0.39,0.39 -0.9,0.59 -1.42,0.59z"/>
  <path fill="#415383" id="svg_12" d="m90.61,33.43c-0.51,0 -1.02,-0.2 -1.41,-0.59l-4.52,-4.52c-0.78,-0.78 -0.78,-2.05 0,-2.83c0.78,-0.78 2.05,-0.78 2.83,0l4.52,4.52c0.78,0.78 0.78,2.05 0,2.83c-0.4,0.4 -0.91,0.59 -1.42,0.59z"/>
  <path fill="#415383" id="svg_13" d="m59.68,95.25c-1.1,0 -2,-0.9 -2,-2l0,-30.67c0,-4.27 3.47,-7.74 7.74,-7.74l46.01,0c1.1,0 2,0.9 2,2s-0.9,2 -2,2l-46.01,0c-2.06,0 -3.74,1.68 -3.74,3.74l0,30.67c0,1.11 -0.9,2 -2,2z"/>
  <path fill="#415383" id="svg_14" d="m88.42,124c-1.47,0 -23.16,-10.1 -29.17,-23.69c-0.45,-1.01 0.01,-2.19 1.02,-2.64c1.01,-0.45 2.19,0.01 2.64,1.02c4.77,10.78 21.92,19.64 25.52,21.18c4.42,-1.85 26.74,-13.63 26.74,-26.62l0,-30.67c0,-0.72 -0.2,-1.41 -0.58,-2.01c-0.59,-0.93 -0.32,-2.17 0.61,-2.76c0.93,-0.59 2.17,-0.32 2.76,0.61c0.79,1.24 1.21,2.68 1.21,4.16l0,30.67c0,17.28 -29.45,30.75 -30.75,30.75z"/>
  <path fill="#415383" id="svg_15" d="m83.68,101l0,0c-0.53,0 -1.04,-0.21 -1.41,-0.59l-9.22,-9.22c-0.38,-0.38 -0.59,-0.88 -0.59,-1.41l0,-7.51c0,-0.81 0.49,-1.54 1.23,-1.85c0.75,-0.31 1.61,-0.14 2.18,0.43l7.8,7.8l18.39,-18.39c0.57,-0.57 1.43,-0.74 2.18,-0.43c0.75,0.31 1.23,1.04 1.23,1.85l0,7.51c0,0.53 -0.21,1.04 -0.59,1.41l-19.8,19.8c-0.36,0.39 -0.87,0.6 -1.4,0.6zm-7.21,-12.05l7.22,7.22l17.8,-17.8l0,-1.85l-16.39,16.38c-0.78,0.78 -2.05,0.78 -2.83,0l-5.8,-5.8l0,1.85zm27.02,-9.75l0,0l0,0z"/>
 </g>
</svg>