<?xml version="1.0" standalone="no"?>
<!DOCTYPE svg PUBLIC "-//W3C//DTD SVG 1.1//EN" "http://www.w3.org/Graphics/SVG/1.1/DTD/svg11.dtd" >
<svg xmlns="http://www.w3.org/2000/svg">
<metadata>Generated by IcoMoon</metadata>
<defs>
<font id="icomoon" horiz-adv-x="1024">
<font-face units-per-em="1024" ascent="960" descent="-64" />
<missing-glyph horiz-adv-x="1024" />
<glyph unicode="&#x20;" horiz-adv-x="512" d="" />
<glyph unicode="&#xe900;" glyph-name="my-jobs" horiz-adv-x="1302" d="M1171.977-64h-1041.757c-71.029 0-130.22 59.191-130.22 130.22v763.561c0 71.029 59.191 130.22 130.22 130.22h1041.757c71.029 0 130.22-59.191 130.22-130.22v-763.561c0-71.029-59.191-130.22-130.22-130.22zM130.22 841.618c-5.919 0-11.838-5.919-11.838-11.838v-763.561c0-5.919 5.919-11.838 11.838-11.838h1041.757c5.919 0 11.838 5.919 11.838 11.838v763.561c0 5.919-5.919 11.838-11.838 11.838h-1041.757zM1053.595 439.121h-804.994c-136.139 0-248.601 112.462-248.601 248.601 0 35.514 23.676 59.191 59.191 59.191s59.191-23.676 59.191-59.191c0-71.029 59.191-130.22 130.22-130.22h804.994c71.029 0 130.22 59.191 130.22 130.22 0 35.514 23.676 59.191 59.191 59.191s59.191-23.676 59.191-59.191c0-136.139-112.462-248.601-248.601-248.601zM739.884 261.549h-177.572c-35.514 0-59.191 23.676-59.191 59.191s23.676 59.191 59.191 59.191h177.572c35.514 0 59.191-23.676 59.191-59.191s-23.676-59.191-59.191-59.191z" />
<glyph unicode="&#xe901;" glyph-name="dashboard" d="M509.573-64c-281.479 0-509.573 232.948-509.573 514.427s228.095 509.573 509.573 509.573 509.573-228.095 509.573-509.573-228.095-514.427-509.573-514.427zM509.573 862.938c-228.095 0-412.512-184.417-412.512-412.512s184.417-412.512 412.512-412.512 412.512 184.417 412.512 412.512c4.853 228.095-184.417 412.512-412.512 412.512zM334.863 222.332c-14.559 0-24.265 4.853-33.972 14.559-14.559 14.559-19.412 33.972-9.706 53.384l97.062 257.213c4.853 9.706 14.559 19.412 24.265 24.265l257.213 97.062c19.412 4.853 38.825 0 53.384-9.706 14.559-14.559 19.412-33.972 9.706-53.384l-97.062-257.213c-4.853-14.559-14.559-24.265-29.118-29.118l-257.213-97.062c-4.853 4.853-9.706 0-14.559 0zM470.749 489.251l-48.531-135.886 135.886 48.531 48.531 135.886-135.886-48.531z" />
<glyph unicode="&#xe902;" glyph-name="search" d="M448.346 63.308c-249.081 0-448.346 204.8-448.346 448.346s199.265 448.346 448.346 448.346c249.081 0 448.346-199.265 448.346-448.346s-204.8-448.346-448.346-448.346zM448.346 849.297c-188.195 0-337.643-149.449-337.643-337.643s149.449-337.643 337.643-337.643 337.643 149.449 337.643 337.643-154.984 337.643-337.643 337.643zM968.649-64c-16.605 0-27.676 5.535-38.746 16.605l-249.081 249.081c-22.141 22.141-22.141 55.351 0 77.492s55.351 22.141 77.492 0l249.081-249.081c22.141-22.141 22.141-55.351 0-77.492-5.535-11.070-22.141-16.605-38.746-16.605z" />
<glyph unicode="&#xe903;" glyph-name="manage-profile" horiz-adv-x="1069" d="M519.567 309.281c-181.596 0-327.882 146.286-327.882 327.882 0 176.552 146.286 322.837 327.882 322.837s327.882-146.286 327.882-327.882c-5.044-176.552-151.33-322.837-327.882-322.837zM519.567 859.113c-126.108 0-226.995-100.887-226.995-226.995s100.887-226.995 226.995-226.995 226.995 100.887 226.995 226.995c-5.044 126.108-105.931 226.995-226.995 226.995zM1018.956-64c-15.133 0-25.222 5.044-35.31 15.133-110.975 105.931-282.483 166.463-464.079 166.463-166.463 0-322.837-50.443-433.813-141.241-20.177-20.177-55.488-15.133-70.621 5.044-20.177 20.177-15.133 55.488 5.044 70.621 126.108 105.931 307.704 166.463 499.389 166.463 211.862 0 403.547-70.621 534.7-196.729 20.177-20.177 20.177-50.443 0-70.621-10.089-10.089-25.222-15.133-35.31-15.133z" />
<glyph unicode="&#xe904;" glyph-name="all-icons-for-svg-copy-05" horiz-adv-x="1302" d="M1171.977-64h-1041.757c-71.029 0-130.22 59.191-130.22 130.22v763.561c0 71.029 59.191 130.22 130.22 130.22h1041.757c71.029 0 130.22-59.191 130.22-130.22v-763.561c0-71.029-59.191-130.22-130.22-130.22zM130.22 841.618c-5.919 0-11.838-5.919-11.838-11.838v-763.561c0-5.919 5.919-11.838 11.838-11.838h1041.757c5.919 0 11.838 5.919 11.838 11.838v763.561c0 5.919-5.919 11.838-11.838 11.838h-1041.757zM1053.595 439.121h-804.994c-136.139 0-248.601 112.462-248.601 248.601 0 35.514 23.676 59.191 59.191 59.191s59.191-23.676 59.191-59.191c0-71.029 59.191-130.22 130.22-130.22h804.994c71.029 0 130.22 59.191 130.22 130.22 0 35.514 23.676 59.191 59.191 59.191s59.191-23.676 59.191-59.191c0-136.139-112.462-248.601-248.601-248.601zM739.884 261.549h-177.572c-35.514 0-59.191 23.676-59.191 59.191s23.676 59.191 59.191 59.191h183.491c35.514 0 59.191-23.676 59.191-59.191s-29.595-59.191-65.11-59.191z" />
<glyph unicode="&#xe905;" glyph-name="all-icons-for-svg-copy-06" horiz-adv-x="990" d="M290.133-64c-4.267 0-12.8 0-17.067 4.267-17.067 8.533-25.6 21.333-25.6 38.4v192h-98.133c-85.333 0-149.333 68.267-149.333 149.333v490.667c0 81.067 64 149.333 149.333 149.333h695.467c81.067 0 149.333-68.267 149.333-149.333v-490.667c0-81.067-64-149.333-149.333-149.333h-307.2l-213.333-221.867c-8.533-8.533-21.333-12.8-34.133-12.8zM149.333 874.667c-34.133 0-64-29.867-64-64v-490.667c0-34.133 29.867-64 64-64h145.067c25.6 0 42.667-17.067 42.667-42.667v-128l153.6 157.867c8.533 8.533 17.067 12.8 29.867 12.8h324.267c34.133 0 64 29.867 64 64v490.667c0 34.133-29.867 64-64 64h-695.467zM708.267 622.933h-426.667c-25.6 0-42.667 17.067-42.667 42.667s17.067 42.667 42.667 42.667h422.4c25.6 0 42.667-17.067 42.667-42.667s-17.067-42.667-38.4-42.667zM507.733 430.933h-226.133c-25.6 0-42.667 17.067-42.667 42.667s17.067 42.667 42.667 42.667h226.133c25.6 0 42.667-17.067 42.667-42.667s-17.067-42.667-42.667-42.667z" />
<glyph unicode="&#xe906;" glyph-name="notification" horiz-adv-x="900" d="M810.667 106.667h-721.067c-34.133 0-64 17.067-81.067 46.933s-12.8 64 8.533 93.867l89.6 115.2c0 0 0 4.267 0 8.533v247.467c0 4.267 0 8.533 0 12.8 12.8 183.467 162.133 328.533 345.6 328.533 196.267 0 341.333-153.6 341.333-358.4v-238.933c0-4.267 0-4.267 0-4.267l81.067-110.933c21.333-25.6 21.333-64 8.533-93.867s-38.4-46.933-72.533-46.933zM192 605.867v-234.667c0-21.333-8.533-42.667-17.067-55.467l-89.6-119.467 4.267-4.267h721.067l38.4 29.867-38.4-25.6-81.067 110.933c-12.8 17.067-17.067 38.4-17.067 55.467v238.933c0 157.867-110.933 273.067-256 273.067s-260.267-115.2-260.267-256c0-4.267-4.267-8.533-4.267-12.8zM153.6 618.667v0 0zM520.533-64c0 0-4.267 0-4.267 0h-136.533c-25.6 0-42.667 17.067-42.667 42.667s17.067 42.667 42.667 42.667h136.533c25.6 0 42.667-17.067 42.667-42.667s-17.067-42.667-38.4-42.667z" />
<glyph unicode="&#xe907;" glyph-name="save-jobs" horiz-adv-x="1108" d="M986.764-64h-721.455c-55.855 0-79.127 0-93.091 0v0 0c-9.309 0-13.964 0-13.964 0-23.273 4.655-37.236 27.927-32.582 51.2 0 23.273 18.618 41.891 41.891 41.891h4.655c65.164 4.655 107.055 23.273 107.055 102.4v432.873c0 69.818 55.855 121.018 121.018 121.018h581.818c69.818 0 121.018-55.855 121.018-121.018v-502.691c4.655-69.818-51.2-125.673-116.364-125.673zM167.564-17.455v0 0zM349.091 29.091h633.018c18.618 0 27.927 13.964 27.927 27.927v507.345c0 18.618-13.964 27.927-27.927 27.927h-581.818c-13.964 0-27.927-13.964-27.927-27.927v-432.873c0-32.582-4.655-69.818-23.273-102.4zM167.564-64c0 0 0 0 0 0-69.818 0-167.564 69.818-167.564 190.836v0c0 13.964 0 32.582 0 79.127v633.018c0 65.164 55.855 121.018 121.018 121.018h158.255c27.927 0 46.545-18.618 46.545-46.545s-18.618-46.545-46.545-46.545h-158.255c-13.964 0-27.927-13.964-27.927-27.927v-623.709c0 0 0-69.818 0-79.127 0 0 0 0 0-4.655 0-74.473 60.509-102.4 74.473-102.4 27.927 0 46.545-23.273 46.545-46.545s-23.273-46.545-46.545-46.545zM963.491 592.291c-27.927 0-46.545 18.618-46.545 46.545v125.673c0 18.618-13.964 27.927-27.927 27.927-27.927 0-46.545 18.618-46.545 46.545s18.618 46.545 46.545 46.545c69.818 0 121.018-55.855 121.018-121.018v-125.673c0-27.927-23.273-46.545-46.545-46.545zM884.364 792.436h-404.945c-97.745 0-130.327 27.927-158.255 55.855-13.964 13.964-23.273 18.618-60.509 18.618-27.927 0-46.545 18.618-46.545 46.545s18.618 46.545 46.545 46.545c69.818 0 97.745-23.273 125.673-46.545 13.964-13.964 27.927-27.927 93.091-27.927h404.945c27.927 0 46.545-18.618 46.545-46.545s-18.618-46.545-46.545-46.545z" />
<glyph unicode="&#xe908;" glyph-name="logout" horiz-adv-x="1131" d="M586.667-64h-410.667c-96 0-176 80-176 176v672c0 96 80 176 176 176h410.667c96 0 176-80 176-176v-85.333c0-32-21.333-53.333-53.333-53.333s-53.333 21.333-53.333 53.333v85.333c0 37.333-32 69.333-69.333 69.333h-410.667c-37.333 0-69.333-32-69.333-69.333v-672c0-37.333 32-69.333 69.333-69.333h410.667c37.333 0 69.333 32 69.333 69.333v85.333c0 32 21.333 53.333 53.333 53.333s53.333-21.333 53.333-53.333v-85.333c0-101.333-80-176-176-176zM896 208c-16 0-26.667 5.333-37.333 16-21.333 21.333-21.333 53.333 0 74.667l149.333 149.333-144 154.667c-21.333 21.333-21.333 53.333 0 74.667s53.333 21.333 74.667 0l181.333-192c21.333-21.333 21.333-53.333 0-74.667l-181.333-181.333c-16-16-26.667-21.333-42.667-21.333zM1072 394.667h-698.667c-32 0-53.333 21.333-53.333 53.333s21.333 53.333 53.333 53.333h698.667c32 0 53.333-21.333 53.333-53.333s-21.333-53.333-53.333-53.333z" />
<glyph unicode="&#xe909;" glyph-name="similar-opening" horiz-adv-x="1419" d="M512-64c-283.826 0-512 228.174-512 512s228.174 512 512 512c150.261 0 294.957-66.783 395.13-183.652 77.913-89.043 116.87-205.913 116.87-328.348 0-283.826-228.174-512-512-512zM512 848.696c-222.609 0-400.696-178.087-400.696-400.696s178.087-400.696 400.696-400.696 400.696 178.087 400.696 400.696c0 94.609-33.391 183.652-94.609 256-77.913 94.609-189.217 144.696-306.087 144.696zM1024-47.304c-22.261 0-44.522 16.696-55.652 38.957-5.565 27.826 11.13 61.217 38.957 66.783 172.522 44.522 294.957 205.913 294.957 384 0 94.609-33.391 183.652-94.609 256-44.522 55.652-105.739 100.174-172.522 122.435-27.826 11.13-44.522 44.522-33.391 72.348s44.522 44.522 72.348 33.391c89.043-27.826 166.957-83.478 222.609-155.826 77.913-89.043 116.87-205.913 116.87-328.348 0-228.174-155.826-434.087-378.435-495.304 0 5.565-5.565 5.565-11.13 5.565z" />
<glyph unicode="&#xe90a;" glyph-name="create-alert" horiz-adv-x="1033" d="M854.899 264.807c-28.183 0-46.972 18.789-46.972 46.972v263.046c0 159.706-131.523 291.229-291.229 291.229s-291.229-131.523-291.229-291.229v-263.046c0-28.183-18.789-46.972-46.972-46.972s-46.972 18.789-46.972 46.972v263.046c0 211.376 173.798 385.174 385.174 385.174s385.174-173.798 385.174-385.174v-263.046c0-23.486-23.486-46.972-46.972-46.972zM986.422 222.532h-939.45c-28.183 0-46.972 18.789-46.972 46.972s18.789 46.972 46.972 46.972h939.45c28.183 0 46.972-18.789 46.972-46.972s-23.486-46.972-46.972-46.972zM516.697-64c-79.853 0-140.917 61.064-140.917 140.917 0 28.183 18.789 46.972 46.972 46.972s46.972-18.789 46.972-46.972c0-28.183 23.486-46.972 46.972-46.972s46.972 23.486 46.972 46.972c0 28.183 18.789 46.972 46.972 46.972s46.972-18.789 46.972-46.972c0-75.156-65.761-140.917-140.917-140.917z" />
<glyph unicode="&#xe90b;" glyph-name="save-search" horiz-adv-x="1108" d="M950.857-64h-793.319c-84.396 0-157.538 67.516-157.538 157.538v641.407c0 84.396 67.516 157.538 157.538 157.538h247.56c16.879 0 33.758-11.253 45.011-22.505l84.396-123.78h416.352c84.396 0 157.538-67.516 157.538-157.538v-489.495c0-90.022-67.516-163.165-157.538-163.165zM157.538 779.956c-28.132 0-45.011-22.505-45.011-45.011v-641.407c0-22.505 16.879-45.011 45.011-45.011h798.945c22.505 0 45.011 16.879 45.011 45.011v489.495c0 22.505-16.879 45.011-45.011 45.011h-450.11c-16.879 0-33.758 11.253-45.011 22.505l-84.396 129.407h-219.429zM1001.495 847.473h-354.462c-33.758 0-56.264 22.505-56.264 56.264s22.505 56.264 56.264 56.264h354.462c33.758 0 56.264-22.505 56.264-56.264s-22.505-56.264-56.264-56.264z" />
<glyph unicode="&#xe90c;" glyph-name="adv-filter" horiz-adv-x="1253" d="M208-64c-32 0-53.333 21.333-53.333 53.333v357.333c0 32 21.333 53.333 53.333 53.333s53.333-21.333 53.333-53.333v-357.333c0-32-26.667-53.333-53.333-53.333zM208 496c-32 0-53.333 21.333-53.333 53.333v357.333c0 32 21.333 53.333 53.333 53.333s53.333-21.333 53.333-53.333v-357.333c0-26.667-26.667-53.333-53.333-53.333zM618.667-64c-32 0-53.333 21.333-53.333 53.333v458.667c0 32 21.333 53.333 53.333 53.333s53.333-21.333 53.333-53.333v-458.667c0-32-26.667-53.333-53.333-53.333zM618.667 634.667c-32 0-53.333 21.333-53.333 53.333v218.667c0 32 21.333 53.333 53.333 53.333s53.333-21.333 53.333-53.333v-218.667c0-32-26.667-53.333-53.333-53.333zM1029.333-64c-32 0-53.333 21.333-53.333 53.333v229.333c0 32 21.333 53.333 53.333 53.333s53.333-21.333 53.333-53.333v-229.333c0-32-26.667-53.333-53.333-53.333zM1029.333 394.667c-32 0-53.333 21.333-53.333 53.333v458.667c0 32 21.333 53.333 53.333 53.333s53.333-21.333 53.333-53.333v-458.667c0-32-26.667-53.333-53.333-53.333zM362.667 293.333h-309.333c-32 0-53.333 21.333-53.333 53.333s21.333 53.333 53.333 53.333h309.333c32 0 53.333-21.333 53.333-53.333s-26.667-53.333-53.333-53.333zM773.333 602.667h-320c-32 0-53.333 21.333-53.333 53.333s21.333 53.333 53.333 53.333h320c32 0 53.333-21.333 53.333-53.333s-21.333-53.333-53.333-53.333zM1200 176h-320c-32 0-53.333 21.333-53.333 53.333s21.333 53.333 53.333 53.333h320c32 0 53.333-21.333 53.333-53.333s-21.333-53.333-53.333-53.333z" />
<glyph unicode="&#xe90d;" glyph-name="qucik-search" horiz-adv-x="1029" d="M628.594 22.178c-172.356 0-309.228 141.941-309.228 309.228 0 172.356 141.941 309.228 309.228 309.228s309.228-141.941 309.228-309.228c5.069-167.287-136.871-309.228-309.228-309.228zM628.594 544.317c-116.594 0-207.842-96.317-207.842-207.842 0-116.594 96.317-207.842 207.842-207.842s207.842 96.317 207.842 207.842c5.069 111.525-91.248 207.842-207.842 207.842zM978.376-64c-15.208 0-25.347 5.069-35.485 15.208l-162.218 162.218c-20.277 20.277-20.277 50.693 0 70.97s50.693 20.277 70.97 0l162.218-162.218c20.277-20.277 20.277-50.693 0-70.97-10.139-10.139-20.277-15.208-35.485-15.208zM202.772 148.911h-152.079c-30.416 0-50.693 20.277-50.693 50.693v709.703c0 30.416 20.277 50.693 50.693 50.693h760.396c30.416 0 50.693-20.277 50.693-50.693v-152.079c0-30.416-20.277-50.693-50.693-50.693s-50.693 20.277-50.693 50.693v101.386h-659.010v-608.317h101.386c30.416 0 50.693-20.277 50.693-50.693s-20.277-50.693-50.693-50.693z" />
<glyph unicode="&#xe90e;" glyph-name="sort-by" horiz-adv-x="1095" d="M288.368-64c-17.655 0-29.425 5.885-41.195 17.655l-229.517 229.517c-23.54 23.54-23.54 58.851 0 82.391s58.851 23.54 82.391 0l188.322-188.322 188.322 188.322c23.54 23.54 58.851 23.54 82.391 0s23.54-58.851 0-82.391l-229.517-229.517c-11.77-11.77-23.54-17.655-41.195-17.655zM288.368-64c-35.31 0-58.851 23.54-58.851 58.851v906.299c0 35.31 23.54 58.851 58.851 58.851s58.851-23.54 58.851-58.851v-906.299c0-29.425-23.54-58.851-58.851-58.851zM1035.77 612.782c-17.655 0-29.425 5.885-41.195 17.655l-188.322 188.322-188.322-188.322c-23.54-23.54-58.851-23.54-82.391 0s-23.54 58.851 0 82.391l229.517 229.517c23.54 23.54 58.851 23.54 82.391 0l229.517-229.517c23.54-23.54 23.54-58.851 0-82.391-5.885-11.77-23.54-17.655-41.195-17.655zM806.253-64c-35.31 0-58.851 23.54-58.851 58.851v906.299c0 35.31 23.54 58.851 58.851 58.851s58.851-23.54 58.851-58.851v-906.299c0-29.425-23.54-58.851-58.851-58.851z" />
<glyph unicode="&#xe90f;" glyph-name="dislike" horiz-adv-x="1268" d="M438.857-64h-39.010c-39.010 0-78.019 19.505-102.4 48.762s-29.257 68.267-19.505 107.276c19.505 63.39 48.762 126.781 68.267 175.543h-204.8c-78.019 0-141.41 63.39-141.41 141.41v131.657c0 29.257 4.876 63.39 19.505 87.771l146.286 238.933c29.257 53.638 87.771 92.648 156.038 92.648h346.21c92.648 0 170.667-73.143 170.667-165.79v-399.848c0-68.267-39.010-126.781-97.524-156.038-87.771-43.886-156.038-170.667-180.419-219.429 0 0 0 0 0 0-24.381-53.638-73.143-82.895-121.905-82.895zM512 33.524v0 0zM321.829 862.476c-29.257 0-58.514-14.629-68.267-43.886l-146.286-238.933c-4.876-9.752-9.752-24.381-9.752-39.010v-131.657c0-24.381 19.505-43.886 43.886-43.886h287.695c19.505 0 34.133-9.752 43.886-24.381s9.752-34.133 0-48.762c0 0-68.267-126.781-97.524-229.181-4.876-9.752 0-19.505 4.876-24.381 0 4.876 9.752-4.876 19.505-4.876h39.010c14.629 0 24.381 9.752 29.257 19.505v0c34.133 78.019 112.152 214.552 229.181 268.19 24.381 9.752 43.886 39.010 43.886 68.267v404.724c0 39.010-34.133 68.267-73.143 68.267h-346.21zM1141.029 252.952h-121.905c-68.267 0-126.781 58.514-126.781 126.781v453.486c0 68.267 58.514 126.781 126.781 126.781h121.905c68.267 0 126.781-58.514 126.781-126.781v-458.362c0-68.267-58.514-121.905-126.781-121.905zM1019.124 862.476c-14.629 0-29.257-14.629-29.257-29.257v-458.362c0-14.629 14.629-29.257 29.257-29.257h121.905c14.629 0 29.257 14.629 29.257 29.257v458.362c0 14.629-14.629 29.257-29.257 29.257h-121.905z" />
<glyph unicode="&#xe910;" glyph-name="comments" d="M46.126-64c-4.613 0-13.838 0-18.45 4.613-18.45 9.225-27.676 23.063-27.676 41.514v830.27c0 78.414 69.189 147.604 147.604 147.604h724.18c83.027 0 147.604-69.189 147.604-147.604v-516.613c0-83.027-69.189-147.604-147.604-147.604h-599.64l-193.73-193.73c-9.225-13.838-18.45-18.45-32.288-18.45zM147.604 867.748c-27.676 0-55.351-27.676-55.351-55.351v-714.955l129.153 124.541c9.225 9.225 18.45 13.838 32.288 13.838h622.703c32.288 0 55.351 27.676 55.351 55.351v521.225c0 32.288-27.676 55.351-55.351 55.351h-728.793zM747.243 604.829h-470.486c-27.676 0-46.126 18.45-46.126 46.126s18.45 46.126 46.126 46.126h470.486c27.676 0 46.126-18.45 46.126-46.126s-23.063-46.126-46.126-46.126zM747.243 401.874h-470.486c-27.676 0-46.126 18.45-46.126 46.126s18.45 46.126 46.126 46.126h470.486c27.676 0 46.126-18.45 46.126-46.126s-23.063-46.126-46.126-46.126z" />
<glyph unicode="&#xe911;" glyph-name="search-by" horiz-adv-x="1045" d="M409.6 144.98c-225.698 0-409.6 183.902-409.6 405.42s183.902 409.6 409.6 409.6 409.6-183.902 409.6-409.6-188.082-405.42-409.6-405.42zM409.6 876.408c-179.722 0-326.008-146.286-326.008-326.008s146.286-326.008 326.008-326.008 326.008 146.286 326.008 326.008-150.465 326.008-326.008 326.008zM1003.102-64c-12.539 0-20.898 4.18-29.257 12.539l-229.878 229.878c-16.718 16.718-16.718 41.796 0 58.514s41.796 16.718 58.514 0l229.878-229.878c16.718-16.718 16.718-41.796 0-58.514-8.359-8.359-16.718-12.539-29.257-12.539z" />
<glyph unicode="&#xe912;" glyph-name="application-history" d="M512-64c-281.6 0-512 230.4-512 512s230.4 512 512 512 512-230.4 512-512-230.4-512-512-512zM512 874.667c-234.667 0-426.667-192-426.667-426.667s192-426.667 426.667-426.667 426.667 192 426.667 426.667-192 426.667-426.667 426.667zM652.8 264.533c-12.8 0-21.333 4.267-29.867 12.8l-140.8 140.8c-8.533 8.533-12.8 17.067-12.8 29.867v281.6c0 25.6 17.067 42.667 42.667 42.667s42.667-17.067 42.667-42.667v-264.533l128-128c17.067-17.067 17.067-42.667 0-59.733-8.533-8.533-17.067-12.8-29.867-12.8z" />
<glyph unicode="&#xe913;" glyph-name="job-referrals" horiz-adv-x="1278" d="M1162.378-64h-1047.063c-64.577 0-115.315 55.351-115.315 119.928v641.153c0 64.577 50.739 115.315 115.315 115.315h1042.45c64.577 0 115.315-50.739 115.315-115.315v-641.153c4.613-64.577-50.739-119.928-110.703-119.928zM115.315 720.144c-13.838 0-23.063-9.225-23.063-23.063v-641.153c0-13.838 9.225-23.063 23.063-23.063h1042.45c13.838 0 23.063 9.225 23.063 23.063v641.153c0 13.838-9.225 23.063-23.063 23.063h-1042.45zM1042.45 318.847h-807.207c-129.153 0-235.243 106.090-235.243 235.243 0 27.676 18.45 46.126 46.126 46.126s46.126-18.45 46.126-46.126c0-78.414 64.577-142.991 142.991-142.991h807.207c78.414 0 142.991 64.577 142.991 142.991 0 27.676 18.45 46.126 46.126 46.126s46.126-18.45 46.126-46.126c0-129.153-106.090-235.243-235.243-235.243zM899.459 720.144c-27.676 0-46.126 18.45-46.126 46.126v101.477h-428.973v-101.477c0-27.676-18.45-46.126-46.126-46.126s-46.126 18.45-46.126 46.126v147.604c0 27.676 18.45 46.126 46.126 46.126h521.225c27.676 0 46.126-18.45 46.126-46.126v-147.604c0-27.676-23.063-46.126-46.126-46.126z" />
<glyph unicode="&#xe914;" glyph-name="hotels" horiz-adv-x="1116" d="M1061.726-64h-1007.832c-32.337 0-53.895 21.558-53.895 53.895v916.211c0 32.337 21.558 53.895 53.895 53.895h1007.832c32.337 0 53.895-21.558 53.895-53.895v-916.211c0-32.337-21.558-53.895-53.895-53.895zM107.789 43.789h900.042v808.421h-900.042v-808.421zM856.926 674.358h-582.063c-32.337 0-53.895 21.558-53.895 53.895s21.558 53.895 53.895 53.895h582.063c32.337 0 53.895-21.558 53.895-53.895s-26.947-53.895-53.895-53.895zM706.021 518.063h-280.253c-32.337 0-53.895 21.558-53.895 53.895s21.558 53.895 53.895 53.895h280.253c32.337 0 53.895-21.558 53.895-53.895s-26.947-53.895-53.895-53.895zM738.358-58.611h-344.926c-32.337 0-53.895 21.558-53.895 53.895v388.042c0 32.337 21.558 53.895 53.895 53.895h344.926c32.337 0 53.895-21.558 53.895-53.895v-388.042c0-26.947-21.558-53.895-53.895-53.895zM447.326 49.179h237.137v280.253h-237.137v-280.253z" />
<glyph unicode="&#xe915;" glyph-name="appartments" horiz-adv-x="880" d="M600.436-64h-553.891c-27.927 0-46.545 18.618-46.545 46.545v930.909c0 27.927 18.618 46.545 46.545 46.545h553.891c27.927 0 46.545-18.618 46.545-46.545v-930.909c0-27.927-18.618-46.545-46.545-46.545zM93.091 29.091h460.8v837.818h-460.8v-837.818zM833.164-8.145h-121.018c-27.927 0-46.545 18.618-46.545 46.545s18.618 46.545 46.545 46.545h74.473v726.109h-74.473c-27.927 0-46.545 18.618-46.545 46.545s18.618 46.545 46.545 46.545h121.018c27.927 0 46.545-18.618 46.545-46.545v-819.2c0-27.927-23.273-46.545-46.545-46.545zM465.455 610.909h-283.927c-27.927 0-46.545 18.618-46.545 46.545s18.618 46.545 46.545 46.545h283.927c27.927 0 46.545-18.618 46.545-46.545s-23.273-46.545-46.545-46.545zM465.455 401.455h-283.927c-27.927 0-46.545 18.618-46.545 46.545s18.618 46.545 46.545 46.545h283.927c27.927 0 46.545-18.618 46.545-46.545s-23.273-46.545-46.545-46.545zM465.455 192h-283.927c-27.927 0-46.545 18.618-46.545 46.545s18.618 46.545 46.545 46.545h283.927c27.927 0 46.545-18.618 46.545-46.545s-23.273-46.545-46.545-46.545z" />
<glyph unicode="&#xe916;" glyph-name="gym" horiz-adv-x="1168" d="M926.697 269.611c-9.267 0-13.9 0-23.167 4.633-27.801 4.633-55.602 23.167-69.502 50.968l-259.475 407.747c-13.9 23.167-23.167 55.602-13.9 83.403 4.633 27.801 23.167 55.602 50.968 69.502l115.837 74.136c9.267 0 18.534 0 32.434 0 13.9-4.633 23.167-9.267 27.801-18.534l328.977-514.317c13.9-23.167 9.267-50.968-13.9-64.869l-115.837-74.136c-18.534-13.9-41.701-18.534-60.235-18.534zM736.724 848.796l-78.769-50.968c-9.267-4.633-13.9-13.9-4.633-23.167l259.475-407.747c4.633-9.267 18.534-9.267 23.167-4.633l78.769 50.968-278.009 435.548zM1033.267 431.783c-4.633 0-4.633 0-9.267 0-13.9 4.633-23.167 9.267-27.801 18.534l-231.674 361.412c-13.9 23.167-9.267 50.968 13.9 64.869l74.136 46.335c37.068 23.167 92.67 13.9 115.837-23.167l189.973-296.543c13.9-18.534 13.9-41.701 9.267-64.869s-18.534-41.701-37.068-50.968l-74.136-46.335c-4.633-4.633-13.9-9.267-23.167-9.267zM866.462 825.629l180.706-282.643 27.801 18.534-180.706 282.643-27.801-18.534zM1079.602 566.154c0 0 0 0 0 0v0zM421.647-64c-13.9 0-32.434 9.267-37.068 23.167l-328.977 514.317c-9.267 9.267-9.267 18.534-9.267 32.434 4.633 13.9 9.267 23.167 18.534 27.801l120.471 74.136c50.968 32.434 120.471 18.534 152.905-32.434l259.475-407.747c32.434-50.968 18.534-120.471-32.434-152.905l-120.471-74.136c-9.267-4.633-13.9-4.633-23.167-4.633zM157.538 482.751l278.009-435.548 78.769 50.968c9.267 4.633 9.267 18.534 4.633 23.167l-259.475 403.113c-4.633 9.267-13.9 13.9-23.167 9.267l-78.769-50.968zM273.376-45.466c-4.633 0-13.9 0-18.534 0-23.167 4.633-41.701 18.534-50.968 37.068l-189.973 296.543c-23.167 37.068-13.9 92.67 27.801 115.837l74.136 46.335c9.267 4.633 23.167 9.267 37.068 4.633s23.167-9.267 27.801-18.534l231.674-361.412c13.9-23.167 9.267-50.968-13.9-64.869l-74.136-46.335c-18.534-4.633-37.068-9.267-50.968-9.267zM97.303 334.48l180.706-282.643 27.801 18.534-180.706 282.643-27.801-18.534zM88.036 329.846v0c0 0 0 0 0 0zM426.281 302.045c-4.633 0-4.633 0-9.267 0l9.267 46.335-18.534 41.701c18.534 9.267 199.24 125.104 305.81 194.606 23.167 13.9 50.968 9.267 64.869-13.9s9.267-50.968-13.9-64.869c-278.009-180.706-315.077-203.873-338.244-203.873z" />
<glyph unicode="&#xe917;" horiz-adv-x="1030" d="M672.997 745.337l-556.963 2.901c0 0 0 0 0 0-60.918 0-113.133-49.314-113.133-113.133l-2.901-397.416c0-29.008 11.603-58.017 31.909-81.224s49.314-34.81 81.224-34.81h87.025v-159.547c0-11.603 5.802-23.207 17.405-26.108 2.901-2.901 8.703-2.901 11.603-2.901 8.703 0 14.504 2.901 20.306 8.703l174.051 179.853h246.572c29.008 0 58.017 11.603 81.224 31.909 20.306 20.306 34.81 49.314 34.81 81.224l2.901 397.416c0 29.008-11.603 58.017-31.909 81.224s-52.215 31.909-84.125 31.909zM728.113 234.788c0-14.504-5.802-29.008-17.405-37.711-11.603-11.603-23.207-17.405-37.711-17.405 0 0 0 0 0 0h-261.076c0 0 0 0 0 0-8.703 0-14.504-2.901-20.306-8.703l-133.439-136.34v116.034c0 8.703-2.901 14.504-8.703 20.306s-11.603 8.703-20.306 8.703h-116.034c-29.008 0-55.116 26.108-55.116 55.116l2.901 397.416c0 29.008 26.108 55.116 55.116 55.116 0 0 0 0 0 0l559.864-2.901c14.504 0 29.008-5.802 37.711-17.405 11.603-11.603 17.405-23.207 17.405-37.711l-2.901-394.516zM757.122 234.788v0 0z" />
<glyph unicode="&#xe918;" horiz-adv-x="1030" d="M928.272 423.343c0-29.008-26.108-55.116-55.116-55.116 0 0 0 0 0 0-17.405 0-29.008-11.603-29.008-29.008s11.603-29.008 29.008-29.008c0 0 0 0 0 0 60.918 0 113.133 49.314 113.133 113.133v287.184c-17.405-8.703-37.711-11.603-58.017-11.603v-275.581z" />
<glyph unicode="&#xe919;" horiz-adv-x="1030" d="M333.598 936.793c0 0 0 0 0 0-63.819 0-113.133-49.314-113.133-113.133 0-17.405 11.603-29.008 29.008-29.008 0 0 0 0 0 0 14.504 0 29.008 11.603 29.008 29.008 0 29.008 26.108 55.116 55.116 55.116 0 0 0 0 0 0l435.127-2.901c2.901 20.306 8.703 40.612 17.405 58.017l-452.533 2.901z" />
<glyph unicode="&#xe91a;" horiz-adv-x="1030" d="M562.765 545.178h-339.399c0 0 0 0 0 0-14.504 0-29.008-11.603-29.008-29.008s11.603-29.008 29.008-29.008l339.399-2.901c0 0 0 0 0 0 14.504 0 29.008 11.603 29.008 29.008s-11.603 31.909-29.008 31.909z" />
<glyph unicode="&#xe91b;" horiz-adv-x="1030" d="M438.028 391.433h-217.564c0 0 0 0 0 0-14.504 0-29.008-11.603-29.008-29.008s11.603-29.008 29.008-29.008h217.564c0 0 0 0 0 0 14.504 0 29.008 11.603 29.008 29.008s-11.603 29.008-29.008 29.008z" />
<glyph unicode="&#xe91c;" horiz-adv-x="1030" d="M928.272 960c-26.108 0-49.314-11.603-66.72-26.108s-29.008-34.81-31.909-58.017c0-5.802-2.901-11.603-2.901-17.405 0-55.116 46.414-101.53 101.53-101.53 0 0 2.901 0 2.901 0 23.207 0 40.612 8.703 58.017 20.306 26.108 17.405 40.612 46.414 40.612 81.224 0 55.116-46.414 101.53-101.53 101.53z" />
<glyph unicode="&#xe91d;" horiz-adv-x="1042" d="M842.419 748.651c32.744 0 59.535-26.791 59.535-59.535v-431.628c5.953 0 8.93 0 14.884 0 14.884 0 29.767-2.977 44.651-5.953v437.581c0 65.488-53.581 119.070-119.070 119.070h-59.535v-59.535h59.535z" />
<glyph unicode="&#xe91e;" horiz-adv-x="1042" d="M747.163-4.465h-446.512c-32.744 0-59.535 26.791-59.535 59.535v634.047c0 32.744 26.791 59.535 59.535 59.535h59.535v59.535h-59.535c-65.488 0-119.070-53.581-119.070-119.070v-631.070c0-65.488 53.581-119.070 119.070-119.070h491.163c-20.837 14.884-32.744 32.744-44.651 56.558z" />
<glyph unicode="&#xe91f;" horiz-adv-x="1042" d="M419.721 778.419v44.651c0 8.93 5.953 14.884 14.884 14.884h270.884c8.93 0 14.884-5.953 14.884-14.884v-44.651c0 17.86 11.907 29.767 29.767 29.767h29.767v14.884c0 41.674-32.744 74.419-74.419 74.419h-270.884c-41.674 0-74.419-32.744-74.419-74.419v-14.884h29.767c17.86 0 29.767-14.884 29.767-29.767z" />
<glyph unicode="&#xe920;" horiz-adv-x="1042" d="M434.605 659.349h270.884c41.674 0 74.419 32.744 74.419 74.419v14.884h-29.767c-17.86 0-29.767 11.907-29.767 29.767v-44.651c0-8.93-5.953-14.884-14.884-14.884h-270.884c-8.93 0-14.884 5.953-14.884 14.884v44.651c0-17.86-11.907-29.767-29.767-29.767h-29.767v-14.884c0-41.674 32.744-74.419 74.419-74.419z" />
<glyph unicode="&#xe921;" horiz-adv-x="1042" d="M389.953 748.651c17.86 0 29.767 11.907 29.767 29.767s-11.907 29.767-29.767 29.767h-29.767v-59.535h29.767z" />
<glyph unicode="&#xe922;" horiz-adv-x="1042" d="M720.372 778.419c0-17.86 11.907-29.767 29.767-29.767h29.767v59.535h-29.767c-14.884 0-29.767-14.884-29.767-29.767z" />
<glyph unicode="&#xe923;" horiz-adv-x="1042" d="M401.86 424.186h384c17.86 0 29.767 11.907 29.767 29.767s-11.907 29.767-29.767 29.767h-384c-17.86 0-29.767-11.907-29.767-29.767s14.884-29.767 29.767-29.767z" />
<glyph unicode="&#xe924;" horiz-adv-x="1042" d="M669.767 305.116h-264.93c-17.86 0-29.767-11.907-29.767-29.767s11.907-29.767 29.767-29.767h264.93c17.86 0 29.767 11.907 29.767 29.767s-14.884 29.767-29.767 29.767z" />
<glyph unicode="&#xe925;" horiz-adv-x="1042" d="M119.070 147.349c-32.744 0-59.535 26.791-59.535 59.535v634.047c0 32.744 26.791 59.535 59.535 59.535h250.047c17.86 0 29.767 11.907 29.767 29.767s-11.907 29.767-29.767 29.767h-250.047c-65.488 0-119.070-53.581-119.070-119.070v-631.070c0-65.488 53.581-119.070 119.070-119.070 17.86 0 29.767 11.907 29.767 29.767s-11.907 26.791-29.767 26.791z" />
<glyph unicode="&#xe926;" horiz-adv-x="1042" d="M961.488 189.023c-14.884 5.953-29.767 8.93-44.651 8.93-5.953 0-8.93 0-14.884 0-62.512-5.953-113.116-59.535-113.116-125.023 0-29.767 8.93-56.558 26.791-77.395 17.86-23.814 44.651-41.674 77.395-47.628 5.953 0 14.884-2.977 23.814-2.977 68.465 0 125.023 56.558 125.023 125.023 0 56.558-32.744 101.209-80.372 119.070z" />
<glyph unicode="&#xe927;" horiz-adv-x="935" d="M802.595 661.718c-6.15-70.727-24.601-129.153-43.051-187.58-24.601-76.877-52.276-159.904-52.276-273.682 0-76.877 18.45-147.604 49.201-202.955h-584.264c-6.15 0-12.3 0-18.45 3.075-27.676 15.375-95.327 61.502-95.327 196.805 0 95.327 21.526 162.979 46.126 233.706 24.601 76.877 49.201 156.829 49.201 270.607 0 73.802-9.225 138.378-30.751 193.73h547.363c12.3 24.601 27.676 46.126 46.126 61.502h-636.541c-12.3 3.075-21.526-3.075-27.676-12.3s-6.15-21.526 0-30.751c18.45-36.901 43.051-107.628 43.051-209.105 0-104.553-21.526-175.279-46.126-249.081-24.601-76.877-49.201-150.679-49.201-255.231 0-172.204 89.177-233.706 129.153-252.156 15.375-6.15 30.751-9.225 46.126-9.225h645.766c12.3 0 24.601 6.15 27.676 18.45 6.15 12.3 3.075 24.601-6.15 33.826-49.201 49.201-73.802 123.003-73.802 212.18 0 104.553 24.601 181.429 49.201 255.231 21.526 64.577 39.976 126.078 46.126 209.105-12.3-3.075-24.601-3.075-36.901-3.075-6.15-6.15-15.375-3.075-24.601-3.075z" />
<glyph unicode="&#xe928;" horiz-adv-x="935" d="M581.189 646.342h-285.982c-18.45 0-30.751-12.3-30.751-30.751s12.3-30.751 30.751-30.751h285.982c18.45 0 30.751 12.3 30.751 30.751s-15.375 30.751-30.751 30.751z" />
<glyph unicode="&#xe929;" horiz-adv-x="935" d="M415.135 428.012c0 18.45-12.3 30.751-30.751 30.751h-175.279c-18.45 0-30.751-12.3-30.751-30.751s12.3-30.751 30.751-30.751h175.279c18.45 0 30.751 12.3 30.751 30.751z" />
<glyph unicode="&#xe92a;" horiz-adv-x="935" d="M562.739 221.982h-264.456c-18.45 0-30.751-12.3-30.751-30.751s12.3-30.751 30.751-30.751h264.456c18.45 0 30.751 12.3 30.751 30.751s-12.3 30.751-30.751 30.751z" />
<glyph unicode="&#xe92b;" horiz-adv-x="935" d="M827.195 935.399c-6.15 0-12.3 0-18.45-3.075-24.601-3.075-46.126-15.375-61.502-33.826s-24.601-43.051-24.601-70.727c0-52.276 36.901-95.327 83.027-104.553 6.15-3.075 15.375-3.075 24.601-3.075 12.3 0 24.601 3.075 36.901 6.15 39.976 15.375 70.727 55.351 70.727 101.477-3.075 61.502-49.201 107.628-110.703 107.628z" />
<glyph unicode="&#xe92c;" horiz-adv-x="1138" d="M1107.027 409.562h-30.751v-415.135h-651.916v55.351c-21.526 0-39.976 3.075-61.502 9.225v-95.327c0-18.45 12.3-30.751 30.751-30.751h713.417c18.45 0 30.751 12.3 30.751 30.751v476.637c0-15.375-12.3-30.751-30.751-30.751z" />
<glyph unicode="&#xe92d;" horiz-adv-x="1138" d="M387.459 117.429c6.15 0 12.3-3.075 18.45-3.075-3.075 3.075-9.225 3.075-12.3 3.075-3.075 3.075-3.075 3.075-6.15 0z" />
<glyph unicode="&#xe92e;" horiz-adv-x="1138" d="M897.922 409.562h178.354v61.502h-169.129c-3.075-21.526-3.075-39.976-9.225-61.502z" />
<glyph unicode="&#xe92f;" horiz-adv-x="1138" d="M1107.027 615.592h-212.18c6.15-21.526 9.225-39.976 9.225-61.502h172.204v-141.453h30.751c18.45 0 30.751 12.3 30.751 30.751v141.453c0 15.375-12.3 30.751-30.751 30.751z" />
<glyph unicode="&#xe930;" horiz-adv-x="1138" d="M805.67 680.168c27.676-52.276 39.976-113.778 39.976-175.279 0-215.255-175.279-393.61-393.61-393.61-15.375 0-30.751 0-49.201 3.075 9.225-6.15 18.45-15.375 18.45-27.676v-36.901c9.225 0 21.526 0 30.751 0 218.33 0 399.76 153.754 442.811 359.784h-21.526c-18.45 0-30.751 12.3-30.751 30.751s12.3 30.751 30.751 30.751h30.751c0 12.3 3.075 21.526 3.075 33.826 0 15.375 0 30.751-3.075 46.126h-36.901c-18.45 0-30.751 12.3-30.751 30.751s12.3 30.751 30.751 30.751h24.601c-9.225 39.976-24.601 76.877-43.051 110.703-9.225-15.375-24.601-30.751-43.051-43.051z" />
<glyph unicode="&#xe931;" horiz-adv-x="1138" d="M387.459 117.429c-153.754 27.676-276.757 138.378-313.658 295.207-6.15 30.751-12.3 61.502-12.3 92.252 0 55.351 12.3 110.703 33.826 162.979 46.126 98.402 129.153 175.279 233.706 209.105 39.976 15.375 83.027 21.526 126.078 21.526 33.826 0 67.652-6.15 101.477-12.3 9.225 21.526 21.526 39.976 36.901 55.351-89.177 27.676-190.655 27.676-282.907-3.075-119.928-43.051-218.33-129.153-270.607-246.006-27.676-58.426-39.976-123.003-39.976-187.58 0-36.901 3.075-70.727 12.3-107.628 43.051-172.204 178.354-301.357 350.559-338.258v27.676c0 18.45 9.225 30.751 24.601 30.751z" />
<glyph unicode="&#xe932;" horiz-adv-x="1138" d="M424.36 89.754c0 12.3-6.15 21.526-18.45 27.676-6.15 0-12.3 0-18.45 3.075-15.375-3.075-24.601-15.375-24.601-30.751v-27.676c21.526-3.075 39.976-6.15 61.502-9.225v36.901z" />
<glyph unicode="&#xe933;" horiz-adv-x="1138" d="M851.796 584.841c0 18.45 12.3 30.751 30.751 30.751h-12.3c-18.45 0-30.751-12.3-30.751-30.751s12.3-30.751 30.751-30.751h12.3c-18.45 0-30.751 12.3-30.751 30.751z" />
<glyph unicode="&#xe934;" horiz-adv-x="1138" d="M876.396 471.063c-18.45 0-30.751-12.3-30.751-30.751s12.3-30.751 30.751-30.751h21.526c3.075 21.526 6.15 39.976 9.225 61.502h-30.751z" />
<glyph unicode="&#xe935;" horiz-adv-x="1138" d="M851.796 584.841c0-18.45 12.3-30.751 30.751-30.751h24.601c-3.075 21.526-6.15 39.976-9.225 61.502h-12.3c-21.526 0-33.826-15.375-33.826-30.751z" />
<glyph unicode="&#xe936;" horiz-adv-x="1138" d="M516.613 452.613v255.231c0 18.45-12.3 30.751-30.751 30.751s-30.751-12.3-30.751-30.751v-236.781l-153.754-67.652c-15.375-6.15-21.526-24.601-15.375-39.976 6.15-12.3 15.375-18.45 27.676-18.45 3.075 0 9.225 0 12.3 3.075l172.204 73.802c12.3 6.15 18.45 18.45 18.45 30.751z" />
<glyph unicode="&#xe937;" horiz-adv-x="1138" d="M713.417 929.249c-21.526 0-39.976-6.15-55.351-15.375-18.45-12.3-33.826-27.676-43.051-49.201-6.15-12.3-9.225-27.676-9.225-43.051 0-58.426 49.201-107.628 107.628-107.628 24.601 0 43.051 6.15 61.502 18.45s30.751 30.751 39.976 52.276c3.075 12.3 6.15 24.601 6.15 36.901 0 58.426-49.201 107.628-107.628 107.628z" />
<glyph unicode="&#xe938;" horiz-adv-x="1138" d="M971.724 126.655h-144.529c-18.45 0-30.751-12.3-30.751-30.751s12.3-30.751 30.751-30.751h144.529c18.45 0 30.751 12.3 30.751 30.751s-15.375 30.751-30.751 30.751z" />
<glyph unicode="&#xe939;" horiz-adv-x="1138" d="M876.396 203.532c0-18.45 12.3-30.751 30.751-30.751h86.102c18.45 0 30.751 12.3 30.751 30.751s-12.3 30.751-30.751 30.751h-86.102c-15.375 0-30.751-15.375-30.751-30.751z" />
<glyph unicode="&#xe93a;" d="M1024 448c0-282.77-229.23-512-512-512s-512 229.23-512 512c0 282.77 229.23 512 512 512s512-229.23 512-512z" />
<glyph unicode="&#xe93b;" d="M638.293 299.52h-252.587c-10.24 0-17.067 6.827-17.067 17.067 0 46.080 20.48 88.747 56.32 116.053 6.827 5.12 18.773 3.413 23.893-3.413s3.413-18.773-3.413-23.893c-22.187-17.067-37.547-42.667-40.96-71.68h218.453c-3.413 29.013-18.773 52.907-40.96 71.68-6.827 5.12-8.533 17.067-3.413 23.893s17.067 8.533 23.893 3.413c35.84-27.307 56.32-68.267 56.32-114.347-3.413-10.24-10.24-18.773-20.48-18.773z" />
<glyph unicode="&#xe93c;" d="M512 410.453c-17.067 0-34.133 5.12-47.787 15.36-23.893 15.36-39.253 44.373-39.253 73.387 0 47.787 39.253 88.747 88.747 88.747 47.787 0 88.747-39.253 88.747-88.747 0-29.013-15.36-56.32-39.253-73.387-17.067-10.24-34.133-15.36-51.2-15.36zM512 552.107c-29.013 0-54.613-23.893-54.613-54.613 0-18.773 8.533-34.133 23.893-44.373 17.067-11.947 42.667-11.947 59.733 0 15.36 10.24 23.893 27.307 23.893 44.373 0 29.013-23.893 54.613-52.907 54.613z" />
<glyph unicode="&#xe93d;" d="M648.533 564.053c-5.12 0-8.533 1.707-11.947 5.12l-35.84 35.84c-6.827 6.827-6.827 17.067 0 23.893s17.067 6.827 23.893 0l23.893-23.893 81.92 81.92c6.827 6.827 17.067 6.827 23.893 0s6.827-17.067 0-23.893l-93.867-93.867c-3.413-3.413-6.827-5.12-11.947-5.12z" />
<glyph unicode="&#xe93e;" d="M691.2 205.653h-358.4c-32.427 0-58.027 25.6-58.027 58.027v358.4c0 32.427 25.6 58.027 58.027 58.027h209.92c10.24 0 17.067-6.827 17.067-17.067s-6.827-17.067-17.067-17.067h-209.92c-13.653 0-23.893-10.24-23.893-23.893v-358.4c0-13.653 10.24-23.893 23.893-23.893h358.4c13.653 0 23.893 10.24 23.893 23.893v281.6c0 10.24 6.827 17.067 17.067 17.067s17.067-6.827 17.067-17.067v-283.307c0-30.72-25.6-56.32-58.027-56.32z" />
<glyph unicode="&#xe93f;" d="M512 429.227c-30.72 0-56.32 25.6-56.32 56.32s25.6 56.32 56.32 56.32 56.32-25.6 56.32-56.32-25.6-56.32-56.32-56.32zM512 509.44c-11.947 0-22.187-10.24-22.187-22.187s10.24-22.187 22.187-22.187 22.187 10.24 22.187 22.187-10.24 22.187-22.187 22.187z" />
<glyph unicode="&#xe940;" d="M616.107 381.44l-23.893 23.893c44.373 44.373 44.373 116.053 0 160.427-6.827 6.827-6.827 17.067 0 23.893s17.067 6.827 23.893 0c58.027-56.32 58.027-150.187 0-208.213z" />
<glyph unicode="&#xe941;" d="M419.84 376.32c-5.12 0-8.533 1.707-11.947 5.12-27.307 27.307-42.667 64.853-42.667 104.107s15.36 76.8 42.667 104.107c0 0 0 0 0 0 6.827 6.827 17.067 6.827 23.893 0s6.827-17.067 0-23.893c0 0 0 0-1.707-1.707-22.187-22.187-34.133-49.493-34.133-80.213s11.947-59.733 34.133-80.213c6.827-6.827 6.827-17.067 0-23.893-1.707-1.707-6.827-3.413-10.24-3.413z" />
<glyph unicode="&#xe942;" d="M670.72 309.76c-5.12 0-8.533 1.707-11.947 5.12-6.827 6.827-6.827 17.067 0 23.893 81.92 81.92 81.92 213.333 0 295.253-6.827 6.827-6.827 17.067 0 23.893s17.067 6.827 23.893 0c93.867-93.867 93.867-247.467 0-343.040-3.413-3.413-6.827-5.12-11.947-5.12z" />
<glyph unicode="&#xe943;" d="M353.28 309.76c-5.12 0-8.533 1.707-11.947 5.12-93.867 93.867-93.867 247.467 0 343.040 6.827 6.827 17.067 6.827 23.893 0s6.827-17.067 0-23.893c-81.92-81.92-81.92-213.333 0-295.253 6.827-6.827 6.827-17.067 0-23.893-3.413-3.413-8.533-5.12-11.947-5.12z" />
<glyph unicode="&#xe944;" d="M512 164.693c-10.24 0-17.067 6.827-17.067 17.067v264.533c0 10.24 6.827 17.067 17.067 17.067s17.067-6.827 17.067-17.067v-264.533c0-8.533-6.827-17.067-17.067-17.067z" />
<glyph unicode="&#xe945;" d="M1024 448c0-282.77-229.23-512-512-512s-512 229.23-512 512c0 282.77 229.23 512 512 512s512-229.23 512-512z" />
<glyph unicode="&#xe946;" d="M1024 448c0-282.77-229.23-512-512-512s-512 229.23-512 512c0 282.77 229.23 512 512 512s512-229.23 512-512z" />
<glyph unicode="&#xe947;" d="M672.427 205.653c-1.707 0-3.413 0-5.12 0-68.267 6.827-134.827 30.72-192.853 68.267-52.907 34.133-100.693 80.213-134.827 134.827-37.547 58.027-61.44 124.587-68.267 194.56-3.413 32.427 22.187 63.147 54.613 64.853 1.707 0 3.413 0 5.12 0h64.853c30.72 0 56.32-22.187 59.733-51.2 3.413-18.773 6.827-39.253 13.653-56.32 8.533-22.187 3.413-46.080-13.653-63.147l-18.773-18.773c27.307-42.667 63.147-78.507 105.813-105.813l18.773 18.773c17.067 17.067 40.96 22.187 63.147 13.653 18.773-6.827 37.547-11.947 56.32-13.653 30.72-5.12 52.907-30.72 51.2-61.44v-64.853c0-32.427-27.307-59.733-59.733-59.733zM395.947 634.027c0 0-1.707 0 0 0h-64.853c0 0-1.707 0-1.707 0-13.653-1.707-23.893-13.653-23.893-29.013 6.827-63.147 29.013-124.587 63.147-179.2 32.427-49.493 75.093-92.16 124.587-124.587 52.907-34.133 114.347-56.32 179.2-63.147 0 0 1.707 0 1.707 0 13.653 0 25.6 11.947 25.6 25.6v64.853c0 0 0 0 0 0 0 13.653-8.533 23.893-22.187 25.6-22.187 3.413-42.667 8.533-64.853 15.36-10.24 3.413-20.48 1.707-27.307-5.12l-27.307-27.307c-5.12-5.12-13.653-6.827-20.48-3.413-56.32 32.427-104.107 78.507-134.827 134.827-3.413 6.827-3.413 15.36 3.413 20.48l27.307 27.307c6.827 6.827 8.533 17.067 5.12 27.307-8.533 20.48-13.653 42.667-15.36 64.853-3.413 17.067-15.36 25.6-27.307 25.6zM650.24 485.547c-8.533 0-15.36 5.12-17.067 13.653-6.827 35.84-35.84 64.853-71.68 71.68-8.533 1.707-15.36 10.24-13.653 20.48 1.707 8.533 10.24 15.36 20.48 13.653 49.493-10.24 88.747-47.787 98.987-98.987 1.707-8.533-3.413-18.773-13.653-20.48 0 0-1.707 0-3.413 0zM737.28 485.547c-8.533 0-15.36 6.827-17.067 15.36-8.533 81.92-73.387 146.773-155.307 155.307-8.533 1.707-15.36 10.24-15.36 18.773 1.707 8.533 10.24 15.36 18.773 15.36 98.987-10.24 175.787-87.040 186.027-186.027 1.707-8.533-5.12-17.067-15.36-18.773-1.707 0-1.707 0-1.707 0z" />
<glyph unicode="&#xe948;" glyph-name="Applied" horiz-adv-x="968" d="M265.309-8.145h-148.945c-65.164 0-116.364 51.2-116.364 116.364v735.418c0 65.164 51.2 116.364 116.364 116.364h553.891c65.164 0 116.364-51.2 116.364-116.364v-111.709c0-27.927-18.618-46.545-46.545-46.545s-46.545 18.618-46.545 46.545v111.709c0 13.964-9.309 23.273-23.273 23.273h-553.891c-13.964 0-23.273-9.309-23.273-23.273v-740.073c0-13.964 9.309-23.273 23.273-23.273h148.945c27.927 0 46.545-18.618 46.545-46.545s-23.273-41.891-46.545-41.891zM637.673-64c-181.527 0-330.473 148.945-330.473 330.473s148.945 330.473 330.473 330.473 330.473-148.945 330.473-330.473-148.945-330.473-330.473-330.473zM637.673 499.2c-130.327 0-237.382-107.055-237.382-237.382s107.055-237.382 237.382-237.382 237.382 107.055 237.382 237.382-107.055 237.382-237.382 237.382zM595.782 131.491c-23.273 0-46.545 9.309-65.164 23.273l-51.2 46.545c-18.618 18.618-18.618 46.545-4.655 65.164 18.618 18.618 46.545 18.618 65.164 4.655l51.2-46.545c4.655 0 4.655 0 9.309 0l130.327 153.6c18.618 18.618 46.545 23.273 65.164 4.655s23.273-46.545 4.655-65.164l-134.982-158.255c-13.964-13.964-41.891-27.927-69.818-27.927z" />
<glyph unicode="&#xe949;" glyph-name="save" horiz-adv-x="1107" d="M979.719-64h-714.032c-99.632 0-99.632 0-110.703 0-27.676 5.535-44.281 33.211-38.746 60.886s27.676 49.816 49.816 49.816c0 0 5.535 0 5.535 0 60.886 0 94.097 16.605 94.097 88.562v426.205c0 71.957 60.886 132.843 132.843 132.843h575.654c77.492-5.535 132.843-60.886 132.843-132.843v-492.627c0-77.492-55.351-132.843-127.308-132.843zM177.124-8.649v0 0zM370.854 46.703h608.865c11.070 0 22.141 11.070 22.141 22.141v492.627c0 11.070-11.070 22.141-22.141 22.141h-575.654c-11.070-5.535-22.141-11.070-22.141-22.141v-426.205c0-27.676 0-60.886-11.070-88.562zM177.124-64c-5.535 0-5.535 0 0 0-71.957 0-171.589 71.957-171.589 199.265v0c0 11.070 0 33.211 0 77.492v614.4c-5.535 71.957 55.351 132.843 127.308 132.843h154.984c33.211 0 55.351-22.141 55.351-55.351s-22.141-55.351-55.351-55.351h-154.984c-11.070 0-22.141-11.070-22.141-22.141v-614.4c0 0 0-66.422 0-77.492 0 0 0 0 0-5.535 0-71.957 55.351-88.562 66.422-88.562 33.211 0 55.351-27.676 55.351-55.351-5.535-27.676-27.676-49.816-55.351-49.816zM957.578 578.076c-33.211 0-55.351 22.141-55.351 55.351v121.773c0 11.070-11.070 22.141-22.141 22.141-33.211 0-55.351 22.141-55.351 55.351s22.141 55.351 55.351 55.351c71.957 0 132.843-60.886 132.843-132.843v-121.773c0-27.676-27.676-55.351-55.351-55.351zM880.086 777.341h-398.53c-99.632 0-132.843 27.676-166.054 55.351-11.070 11.070-16.605 16.605-49.816 16.605s-55.351 22.141-55.351 55.351 22.141 55.351 55.351 55.351c71.957 0 99.632-22.141 127.308-49.816 16.605-11.070 27.676-22.141 88.562-22.141h398.53c33.211 0 55.351-22.141 55.351-55.351s-22.141-55.351-55.351-55.351z" />
<glyph unicode="&#xe94a;" glyph-name="refer" horiz-adv-x="1219" d="M916.945-64c-27.927 0-46.545 18.618-46.545 46.545v107.055c0 93.091-74.473 172.218-172.218 172.218h-432.873c-93.091 0-172.218-74.473-172.218-172.218v-107.055c0-27.927-18.618-46.545-46.545-46.545s-46.545 18.618-46.545 46.545v107.055c0 148.945 116.364 265.309 265.309 265.309h432.873c144.291 0 265.309-116.364 265.309-265.309v-107.055c0-27.927-23.273-46.545-46.545-46.545zM479.418 434.036c-144.291 0-265.309 116.364-265.309 265.309 4.655 144.291 121.018 260.655 265.309 260.655s265.309-116.364 265.309-265.309c0-144.291-116.364-260.655-265.309-260.655zM479.418 866.909c-93.091 0-172.218-74.473-172.218-172.218 0-93.091 74.473-172.218 172.218-172.218s172.218 79.127 172.218 172.218c0 97.745-74.473 172.218-172.218 172.218zM1172.945-36.073c-27.927 0-46.545 18.618-46.545 46.545v111.709c0 79.127-51.2 144.291-130.327 162.909-23.273 4.655-41.891 32.582-32.582 55.855 4.655 23.273 32.582 41.891 55.855 32.582 116.364-27.927 195.491-134.982 200.145-256v-107.055c0-23.273-18.618-46.545-46.545-46.545zM833.164 438.691c-18.618 0-41.891 13.964-46.545 37.236s9.309 51.2 32.582 55.855c65.164 13.964 111.709 60.509 125.673 121.018 23.273 93.091-32.582 186.182-121.018 209.455-23.273 4.655-41.891 32.582-32.582 55.855 4.655 23.273 32.582 41.891 55.855 32.582 139.636-37.236 228.073-181.527 190.836-321.164-23.273-93.091-97.745-167.564-190.836-190.836-4.655 0-9.309 0-13.964 0z" />
<glyph unicode="&#xe94b;" glyph-name="location" horiz-adv-x="807" d="M401.297-64c-27.676 0-55.351 13.838-73.802 36.901l-59.964 83.027c-64.577 92.252-133.766 179.892-198.342 272.144-50.739 73.802-73.802 161.441-69.189 258.306 13.838 175.279 138.378 318.27 304.432 359.784 110.703 27.676 226.018 9.225 318.27-55.351 92.252-59.964 156.829-156.829 175.279-267.532 4.613-13.838 4.613-32.288 4.613-46.126v-9.225c0 0 0-4.613 0-4.613 0-92.252-23.063-170.667-73.802-239.856-69.189-96.865-138.378-193.73-207.568-285.982l-46.126-64.577c-13.838-23.063-41.514-36.901-73.802-36.901 4.613 0 4.613 0 0 0zM405.91 867.748c-27.676 0-50.739-4.613-78.414-9.225-129.153-32.288-226.018-142.991-235.243-276.757-4.613-73.802 13.838-142.991 55.351-198.342 64.577-92.252 129.153-179.892 198.342-272.144l59.964-83.027 46.126 64.577c69.189 96.865 138.378 189.117 207.568 285.982 36.901 50.739 55.351 110.703 55.351 184.505v9.225c0 9.225 0 23.063-4.613 36.901-13.838 83.027-64.577 156.829-133.766 207.568-55.351 32.288-110.703 50.739-170.667 50.739zM401.297 374.198c-106.090 0-193.73 87.64-193.73 193.73s87.64 193.73 193.73 193.73 193.73-87.64 193.73-193.73c0-106.090-87.64-193.73-193.73-193.73zM401.297 664.793c-55.351 0-101.477-46.126-101.477-101.477s46.126-101.477 101.477-101.477 101.477 46.126 101.477 101.477-46.126 101.477-101.477 101.477z" />
<glyph unicode="&#xe94c;" glyph-name="new-letter" horiz-adv-x="758" d="M705.73-64h-653.146c-27.676 0-52.584 22.141-52.584 52.584v918.832c0 30.443 22.141 52.584 52.584 52.584h390.227c16.605 0 27.676-11.070 27.676-27.676v-232.476h260.151c16.605 0 27.676-11.070 27.676-27.676v-683.589c0-30.443-24.908-52.584-52.584-52.584zM55.351-8.649h647.611v653.146h-260.151c-16.605 0-27.676 11.070-27.676 27.676v232.476h-359.784v-913.297zM730.638 644.497h-290.595c-16.605 0-27.676 11.070-27.676 27.676v260.151c0 11.070 5.535 22.141 16.605 24.908 11.070 5.535 22.141 2.768 30.443-5.535l287.827-260.151c8.303-8.303 11.070-19.373 8.303-30.443-5.535-11.070-13.838-16.605-24.908-16.605zM467.719 699.849h188.195l-188.195 171.589v-171.589zM279.524 904.649h-152.216c-16.605 0-27.676 11.070-27.676 27.676s11.070 27.676 27.676 27.676h152.216c16.605 0 27.676-11.070 27.676-27.676s-13.838-27.676-27.676-27.676zM603.33 102.054h-448.346c-16.605 0-27.676 11.070-27.676 27.676s11.070 27.676 27.676 27.676h448.346c16.605 0 27.676-11.070 27.676-27.676s-13.838-27.676-27.676-27.676zM603.33 212.757h-448.346c-16.605 0-27.676 11.070-27.676 27.676s11.070 27.676 27.676 27.676h448.346c16.605 0 27.676-11.070 27.676-27.676s-13.838-27.676-27.676-27.676zM603.33 320.692h-193.73c-16.605 0-27.676 11.070-27.676 27.676s11.070 27.676 27.676 27.676h193.73c16.605 0 27.676-11.070 27.676-27.676s-13.838-27.676-27.676-27.676zM603.33 431.395h-193.73c-16.605 0-27.676 11.070-27.676 27.676s11.070 27.676 27.676 27.676h193.73c16.605 0 27.676-11.070 27.676-27.676s-13.838-27.676-27.676-27.676zM379.157 478.443v-2.768c-2.768 0-5.535 0-8.303-2.768-2.768 0-2.768-2.768-5.535-5.535 0 0-2.768-5.535-8.303-16.605l-47.049-124.541h-5.535l-35.978 96.865-41.514-96.865-49.816 121.773c-5.535 11.070-8.303 19.373-11.070 22.141s-5.535 2.768-11.070 5.535v2.768h66.422v-2.768c-5.535 0-8.303 0-11.070-2.768s-2.768-2.768-2.768-5.535 2.768-8.303 5.535-16.605l30.443-71.957 22.141 55.351-5.535 16.605c-2.768 8.303-5.535 13.838-8.303 16.605s-2.768 5.535-5.535 5.535c-2.768 0-5.535 2.768-11.070 2.768v2.768h71.957v-2.768c-5.535 0-8.303 0-11.070 0s-2.768 0-2.768-2.768 0-2.768 0-2.768c0-2.768 2.768-5.535 5.535-16.605l27.676-71.957 24.908 63.654c2.768 5.535 5.535 11.070 5.535 13.838s0 5.535 0 5.535 0 5.535-2.768 8.303c-2.768 2.768-5.535 2.768-11.070 2.768v2.768h35.978z" />
<glyph unicode="&#xe94d;" glyph-name="annual-report" horiz-adv-x="758" d="M177.124 57.773c0 0-2.768 0-2.768 0-13.838 0-27.676 8.303-35.978 19.373-5.535 8.303-11.070 24.908-8.303 41.514 2.768 22.141 19.373 41.514 44.281 58.119 8.303 5.535 35.978 27.676 91.33 49.816 11.070 19.373 16.605 33.211 16.605 33.211 19.373 47.049 33.211 85.795 44.281 119.005-2.768 2.768-2.768 5.535-5.535 8.303-5.535 13.838-35.978 74.724-30.443 119.005 0 22.141 16.605 55.351 55.351 58.119 5.535 0 24.908 0 41.514-16.605 13.838-13.838 16.605-35.978 13.838-60.886 0-8.303-2.768-44.281-16.605-99.632 16.605-24.908 35.978-52.584 35.978-52.584 13.838-19.373 27.676-35.978 41.514-47.049 30.443 5.535 63.654 11.070 96.865 11.070 8.303 0 41.514-2.768 60.886-22.141 8.303-11.070 13.838-22.141 11.070-35.978 0-5.535-2.768-16.605-11.070-27.676-16.605-19.373-38.746-27.676-69.189-27.676 0 0-2.768 0-2.768 0-2.768 0-49.816 5.535-99.632 41.514-35.978-8.303-63.654-16.605-63.654-16.605-30.443-8.303-58.119-16.605-80.259-27.676-16.605-30.443-41.514-66.422-71.957-96.865-5.535-5.535-30.443-27.676-55.351-27.676zM575.654 234.897c0 0 0 0 0 0s0 0 0 0zM575.654 234.897v0 0zM550.746 240.432c0 0 2.768 0 5.535 0-2.768 0-2.768 0-5.535 0zM362.551 317.924c-8.303-19.373-16.605-41.514-24.908-66.422 8.303 2.768 19.373 5.535 27.676 8.303 0 0 13.838 5.535 30.443 8.303-8.303 8.303-16.605 19.373-22.141 30.443 2.768 2.768-2.768 11.070-11.070 19.373zM345.946 506.119c0 0 0-2.768 0-2.768 0-2.768 0-2.768 0-5.535 0-5.535 0-11.070 0-16.605 0 5.535 0 8.303 0 8.303s0 2.768 0 2.768c2.768 8.303 0 11.070 0 13.838zM705.73-64h-653.146c-27.676 0-52.584 22.141-52.584 52.584v918.832c0 30.443 22.141 52.584 52.584 52.584h390.227c16.605 0 27.676-11.070 27.676-27.676v-232.476h260.151c16.605 0 27.676-11.070 27.676-27.676v-683.589c0-30.443-24.908-52.584-52.584-52.584zM55.351-8.649h647.611v653.146h-260.151c-16.605 0-27.676 11.070-27.676 27.676v232.476h-359.784v-913.297zM730.638 644.497h-290.595c-16.605 0-27.676 11.070-27.676 27.676v260.151c0 11.070 5.535 22.141 16.605 24.908 11.070 5.535 22.141 2.768 30.443-5.535l287.827-260.151c8.303-8.303 11.070-19.373 8.303-30.443-5.535-11.070-13.838-16.605-24.908-16.605zM467.719 699.849h188.195l-188.195 171.589v-171.589zM279.524 904.649h-152.216c-16.605 0-27.676 11.070-27.676 27.676s11.070 27.676 27.676 27.676h152.216c16.605 0 27.676-11.070 27.676-27.676s-13.838-27.676-27.676-27.676z" />
<glyph unicode="&#xe94e;" glyph-name="calendar" horiz-adv-x="931" d="M795.504-64h-660.099c-76.165 0-135.405 59.24-135.405 135.405v655.868c0 76.165 59.24 135.405 135.405 135.405h660.099c76.165 0 135.405-59.24 135.405-135.405v-655.868c0-76.165-59.24-135.405-135.405-135.405zM135.405 782.281c-29.62 0-50.777-25.388-50.777-55.008v-655.868c0-29.62 21.157-50.777 50.777-50.777h660.099c29.62 0 50.777 21.157 50.777 50.777v655.868c0 29.62-21.157 50.777-50.777 50.777h-660.099zM655.868 684.959c-25.388 0-42.314 16.926-42.314 42.314v190.413c0 25.388 16.926 42.314 42.314 42.314s42.314-16.926 42.314-42.314v-190.413c0-21.157-21.157-42.314-42.314-42.314zM279.273 684.959c-25.388 0-42.314 16.926-42.314 42.314v190.413c0 25.388 16.926 42.314 42.314 42.314s42.314-16.926 42.314-42.314v-190.413c0-21.157-21.157-42.314-42.314-42.314zM888.595 524.165h-846.281c-25.388 0-42.314 16.926-42.314 42.314s16.926 42.314 42.314 42.314h846.281c25.388 0 42.314-16.926 42.314-42.314s-16.926-42.314-42.314-42.314zM681.256 304.132h-452.76c-25.388 0-42.314 16.926-42.314 42.314s16.926 42.314 42.314 42.314h448.529c25.388 0 42.314-16.926 42.314-42.314s-16.926-42.314-38.083-42.314zM482.38 151.802h-253.884c-25.388 0-42.314 16.926-42.314 42.314s16.926 42.314 42.314 42.314h253.884c25.388 0 42.314-16.926 42.314-42.314s-16.926-42.314-42.314-42.314z" />
<glyph unicode="&#xe94f;" glyph-name="reject" d="M386.327 271.127c-13.964 0-23.273 4.655-32.582 13.964-18.618 18.618-18.618 46.545 0 65.164l256 256c18.618 18.618 46.545 18.618 65.164 0s18.618-46.545 0-65.164l-256-256c-9.309-9.309-18.618-13.964-32.582-13.964zM637.673 275.782c-13.964 0-23.273 4.655-32.582 13.964l-256 256c-18.618 18.618-18.618 46.545 0 65.164s46.545 18.618 65.164 0l251.345-251.345c18.618-18.618 18.618-46.545 0-65.164-4.655-13.964-18.618-18.618-27.927-18.618zM512-64c-283.927 0-512 228.073-512 512s228.073 512 512 512 512-228.073 512-512-228.073-512-512-512zM512 866.909c-232.727 0-418.909-186.182-418.909-418.909s186.182-418.909 418.909-418.909 418.909 186.182 418.909 418.909-186.182 418.909-418.909 418.909z" />
<glyph unicode="&#xe950;" glyph-name="accept" d="M512-64c-283.927 0-512 228.073-512 512s228.073 512 512 512 512-228.073 512-512-228.073-512-512-512zM512 866.909c-232.727 0-418.909-186.182-418.909-418.909s186.182-418.909 418.909-418.909 418.909 186.182 418.909 418.909-186.182 418.909-418.909 418.909zM456.145 382.836l204.8 251.345c0 0 13.964 23.273 37.236 4.655 18.618-13.964 0-32.582 0-32.582l-214.109-335.127c0 0-9.309-23.273-27.927-23.273-23.273 0-37.236 18.618-37.236 18.618l-93.091 148.945c0 0-23.273 23.273 4.655 51.2 27.927 23.273 51.2-4.655 51.2-4.655l74.473-79.127z" />
<glyph unicode="&#xe951;" glyph-name="cross" d="M102.4-64c-30.72 0-51.2 10.24-71.68 30.72-40.96 40.96-40.96 102.4 0 143.36l819.2 819.2c40.96 40.96 102.4 40.96 143.36 0s40.96-102.4 0-143.36l-819.2-819.2c-20.48-20.48-40.96-30.72-71.68-30.72zM921.6-64c-30.72 0-51.2 10.24-71.68 30.72l-819.2 819.2c-40.96 40.96-40.96 102.4 0 143.36s102.4 40.96 143.36 0l819.2-819.2c40.96-40.96 40.96-102.4 0-143.36-20.48-20.48-40.96-30.72-71.68-30.72z" />
<glyph unicode="&#xe952;" glyph-name="down-arrow" horiz-adv-x="1575" d="M803.446-64c-47.262 0-94.523 15.754-110.277 47.262l-645.908 708.923c-63.015 63.015-47.262 157.538 15.754 220.554s157.538 47.262 220.554-15.754l519.877-567.138 504.123 567.138c63.015 63.015 157.538 78.769 220.554 15.754s78.769-157.538 15.754-220.554l-630.154-708.923c-31.508-31.508-63.015-47.262-110.277-47.262 0 0 0 0 0 0z" />
<glyph unicode="&#xe953;" glyph-name="white-paper" horiz-adv-x="833" d="M703.147-64h-573.44c-68.267 0-129.707 61.44-129.707 129.707v764.587c0 68.267 61.44 129.707 129.707 129.707h334.507c6.827 0 20.48-6.827 27.307-6.827l334.507-334.507c6.827-6.827 6.827-13.653 6.827-27.307v-525.653c0-68.267-61.44-129.707-129.707-129.707zM129.707 891.733c-34.133 0-61.44-27.307-61.44-61.44v-764.587c0-34.133 27.307-61.44 61.44-61.44h573.44c34.133 0 61.44 27.307 61.44 61.44v512l-314.027 314.027h-320.853zM730.453 557.227h-341.333c-20.48 0-34.133 13.653-34.133 34.133v334.507c0 20.48 13.653 34.133 34.133 34.133s34.133-13.653 34.133-34.133v-300.373h307.2c20.48 0 34.133-13.653 34.133-34.133s-13.653-34.133-34.133-34.133z" />
<glyph unicode="&#xe954;" glyph-name="video-profile" d="M512-64c-279.893 0-512 232.107-512 512s232.107 512 512 512 512-232.107 512-512-232.107-512-512-512zM512 891.733c-245.76 0-443.733-197.973-443.733-443.733s197.973-443.733 443.733-443.733 443.733 197.973 443.733 443.733-197.973 443.733-443.733 443.733zM395.947 202.24c-6.827 0-13.653 0-13.653 6.827-13.653 6.827-20.48 20.48-20.48 27.307v423.253c0 13.653 6.827 27.307 20.48 27.307 13.653 6.827 27.307 6.827 34.133 0l327.68-211.627c6.827-6.827 13.653-20.48 13.653-27.307s-6.827-20.48-13.653-27.307l-327.68-211.627c-6.827-6.827-13.653-6.827-20.48-6.827zM430.080 598.187v-293.547l232.107 150.187-232.107 143.36z" />
<glyph unicode="&#xe955;" glyph-name="manage-payment" horiz-adv-x="1019" d="M764.461 204.977c-56.627 0-108.535 47.189-108.535 103.816s47.189 108.535 108.535 108.535 108.535-47.189 108.535-108.535-51.908-103.816-108.535-103.816zM764.461 322.949c-4.719 0-14.157-4.719-14.157-14.157 0-14.157 23.594-14.157 23.594 0 0 9.438-4.719 14.157-9.438 14.157zM47.189 568.332c-28.313 0-47.189 18.876-47.189 47.189v37.751c0 66.065 51.908 127.41 113.253 146.286l278.415 75.502 339.76 84.94c37.751 9.438 75.502 0 103.816-23.594s47.189-56.627 47.189-94.378v-33.032c0-28.313-18.876-47.189-47.189-47.189s-47.189 18.876-47.189 47.189v28.313c0 9.438-4.719 18.876-9.438 23.594-4.719 0-14.157 4.719-23.594 4.719l-339.76-84.94-151.005-42.47h589.862c28.313 0 47.189-18.876 47.189-47.189s-18.876-47.189-47.189-47.189h-717.272c-23.594 0-42.47-14.157-42.47-28.313 0-28.313-18.876-47.189-47.189-47.189zM882.433-64h-745.585c-75.502 0-136.848 56.627-136.848 127.41v552.111c0 70.783 61.346 127.41 136.848 127.41h745.585c75.502 0 136.848-56.627 136.848-127.41v-552.111c0-70.783-61.346-127.41-136.848-127.41zM136.848 643.834c-23.594 0-42.47-14.157-42.47-28.313v-552.111c0-18.876 18.876-33.032 42.47-33.032h745.585c23.594 0 42.47 14.157 42.47 33.032v552.111c0 18.876-18.876 33.032-42.47 33.032h-745.585z" />
<glyph unicode="&#xe956;" glyph-name="manage-account" horiz-adv-x="1029" d="M753.706-64h-504.203c-36.386 0-72.772 31.188-72.772 72.772v712.122c0 36.386 31.188 72.772 72.772 72.772h706.924c36.386 0 72.772-31.188 72.772-72.772v-530.193c0-31.188-20.792-51.98-51.98-51.98s-51.98 20.792-51.98 51.98v499.005h-639.35v-649.746h467.817c31.188 0 51.98-20.792 51.98-51.98s-25.99-51.98-51.98-51.98zM51.98 112.731c-31.188 0-51.98 20.792-51.98 51.98v722.518c0 41.584 31.188 72.772 72.772 72.772h706.924c31.188 0 51.98-20.792 51.98-51.98s-20.792-51.98-51.98-51.98h-675.736v-691.33c0-25.99-20.792-51.98-51.98-51.98zM842.071 336.244h-280.69c-31.188 0-51.98 20.792-51.98 51.98s20.792 51.98 51.98 51.98h280.69c31.188 0 51.98-20.792 51.98-51.98s-25.99-51.98-51.98-51.98zM592.569 159.513h-155.939c-31.188 0-51.98 20.792-51.98 51.98s20.792 51.98 51.98 51.98h155.939c31.188 0 51.98-20.792 51.98-51.98s-20.792-51.98-51.98-51.98zM717.32 507.777h-291.086c-31.188 0-51.98 20.792-51.98 51.98s20.792 51.98 51.98 51.98h285.888c31.188 0 51.98-20.792 51.98-51.98s-20.792-51.98-46.782-51.98zM753.706-64c-15.594 0-25.99 5.198-36.386 15.594-20.792 20.792-15.594 51.98 5.198 72.772l223.513 202.721c20.792 20.792 51.98 15.594 72.772-5.198s15.594-51.98-5.198-72.772l-223.513-202.721c-15.594-5.198-25.99-10.396-36.386-10.396z" />
</font>
</defs>
</svg>
