<svg xmlns="http://www.w3.org/2000/svg" width="411.7" height="341"><style>.st0{stroke-dasharray:4,4}.st0,.st1{fill:none;stroke:#77819c;stroke-linecap:round;stroke-linejoin:round;stroke-miterlimit:10}.st5{fill:#66dab5}.st6{fill:none;stroke:#77819c;stroke-miterlimit:10}.st7{fill:#448afa}.st10,.st12,.st13,.st7{stroke:#77819c;stroke-miterlimit:10}.st10{stroke-linecap:round;stroke-linejoin:round;fill:#fff}.st12,.st13{fill:#ffb838}.st13{fill:#66dab5}.st14{fill:#ffb415}.st15{fill:#ffb838}</style><path class="st0" d="M310.3 67.4c4.8 6.4 9.1 13.2 13 20.4M127.7 29.7c11.5-7.4 24-13.1 37.2-16.7 0 0 31.7-10.5 67.5-.2 8.1 2.3 15.9 5.2 23.4 8.8M74.1 88.8c3.8-7.2 8.1-14 12.9-20.4"/><path class="st1" d="M247.4 307.9H351c4.5 0 8.2-3.7 8.2-8.2v-19.5H38.8v19.5c0 4.5 3.7 8.2 8.2 8.2h184.4"/><path d="M38.8 96.5c0-4.5 3.7-8.2 8.2-8.2h304c4.5 0 8.2 3.7 8.2 8.2v183.8H38.8V110.2" fill="#fff" stroke="#77819c" stroke-miterlimit="10"/><path d="M169.9 308v3.7s0 11.1-11.1 19.7c0 0-9.6 9.1 4.3 9.1h74.1s9.6-1.1 2.5-8.2c-6.6-6.6-12.1-10.2-12.1-24.4l-57.7.1z" fill="none" stroke="#818181" stroke-miterlimit="10"/><path class="st5" d="M67.7 112.8h21v21.7h-21z"/><path class="st1" d="M96.3 114.5h17.4M96.3 119.9h21.5M67.7 140.7H117M67.7 148.5h38.1M67.7 156.3h17.9M90.4 156.3h21.1M67.7 164.1H108"/><path class="st5" d="M174.5 112.8h21v21.7h-21z"/><path class="st1" d="M203.2 114.5h17.3M203.2 119.9h21.5M174.5 140.7h49.4M174.5 148.1h38.1M174.5 155.6h49.4M174.5 163.1h26.9M174.5 170.6h49.4M174.5 178.1h11.2"/><path class="st5" d="M67.7 194.3h21V216h-21z"/><path class="st1" d="M96.3 196h17.4M96.3 201.4h21.5M67.7 222.2H117"/><g><path class="st1" d="M67.7 230h15.6M88.5 230h11.1"/></g><path class="st1" d="M67.7 237.8H117M67.7 245.6H108"/><g><path class="st1" d="M141.3 189.6h19.6M141.3 193.9h21.5"/></g><g><path class="st6" d="M258.7 239l54.8 31.2c3.8 2.5 4.9 7.6 2.4 11.5-2.5 3.8 1.4 15-2.5 12.5L249 252.6"/><path class="st7" d="M280.3 253.4l-9.6 13.6c-1.8 2.5-1.2 5.9 1.3 7.7l59.9 36.1c2.5 1.7 5.9 1.2 7.6-1.3l9.6-13.5c1.8-2.5 1.2-5.9-1.3-7.7l-59.9-36.2c-2.5-1.8-5.9-1.2-7.6 1.3z"/><circle cx="201.6" cy="208.5" r="64.8" fill="#77819c"/><g><circle cx="200.9" cy="208.4" r="53.3" fill="#fff"/><path class="st6" d="M217.5 222l15.9 3.7c2.3.5 4.9 3.3 5.3 5.6v14.8s-15.3 15.5-36.9 15.5c-24.7 0-38.5-15.4-38.5-15.4v-14.7c.3-2.3 3-5.3 5.2-5.8l15.9-3.7"/><path class="st10" d="M219 206.8c-.3 1.9-1.6 5.6-7.3 9.6-.3.2-.6.4-.8.6-7.1 4.9-12.6 6-19.9-.2-.5-.4-.9-.8-1.4-1.3-6.3-6-6.2-9.3-6.2-11.7v-13.6-2.6s-.6-6.1 5-10.7c0 0 8 5.1 19.2 0 0 0 4.5 5.3 10.3 5.8 0 0 1 1 1.2 7.9v15s.1.5-.1 1.2z"/><path d="M219.2 194.6s.5-5.7 1.4-10.1c.9-4.7-1.2-9-5.1-8.4-.5-10.9-21.6-1.8-24.2-1.3-6.7 1.2-9.4-3.1-9.4-3.1-4.3 12.3 3 22.5 23.9 13.5 3.9-1.7 11.2-7.1 13.4 9.4z" fill-rule="evenodd" clip-rule="evenodd" fill="#77819c"/><path class="st5" d="M202.5 230.1s-.7.4-1.9 1c-1.4.9-3.1 1.8-5.4 3.8-.9.7-2.2.4-2.7-.6l-4.7-10.6-.4-.9 1.4-2.3c.4-.7 1.4-.8 2-.3l.2.2 11.5 9.7zM217.3 223.5l-.4.9-4.8 10.3c-.5 1-1.8 1.3-2.7.6-2.4-2-2.3-2.3-3.7-3.2-1.2-.7-1.9-1-1.9-1l11.3-10 .2-.2c.6-.6 1.6-.4 2 .3v2.3z"/><path class="st1" d="M185 222.8l5.5 12c.5 1 1.8 1.3 2.7.6 2.4-2 4.5-3.4 5.9-4.2 1.2-.7 1.9-1 1.9-1s.7.4 1.9 1c1.4.9 3.5 2.3 5.9 4.2.9.7 2.2.4 2.7-.6l5.4-12"/><g><path class="st1" d="M200.9 230.1s-.7.4-1.9 1c-1.4.9-3.5 2.3-5.9 4.2-.9.7-2.2.4-2.7-.6l-5.5-12-.4-.9 1.9-2.8c.4-.7 1.4-.8 2-.3l.2.2 12.3 11.2zM217.2 221.9l-.4.9-5.4 12c-.5 1-1.8 1.3-2.7.6-2.4-2-4.5-3.4-5.9-4.2-1.2-.7-1.9-1-1.9-1l12.2-11 .2-.2c.6-.6 1.6-.4 2 .3l1.9 2.6z"/></g><path class="st10" d="M212.2 216.3v3.3M189.6 215.9v3.7"/></g></g><g><circle class="st1" cx="290.4" cy="35.4" r="34.9"/><path class="st1" d="M271.5 50.9l8.6-6.8 10.3 2.1 10.5-22.4 6.7-1.2"/><path class="st1" d="M271.6 26.3L280 35l10.3-14.5 10.6 24.4 3.8-4.1"/><path class="st1" d="M271.5 17.4v35.1c0 .4.4.8.8.8h7.2c-.1-.1 22.4 0 22.4 0h7.4"/><circle class="st12" cx="280" cy="34.8" r="2.7"/><circle class="st12" cx="280" cy="44.2" r="2.7"/><circle class="st7" cx="290.3" cy="20.6" r="2.7"/><circle class="st7" cx="290.3" cy="45.9" r="2.7"/><circle class="st13" cx="300.8" cy="24" r="2.7"/><circle class="st13" cx="300.8" cy="44.7" r="2.7"/><path class="st1" d="M306.8 38.6l3.3-3.5"/></g><g><circle class="st1" cx="100.6" cy="41.8" r="29.9"/><path class="st1" d="M91.9 28.6h-4.2c-1.4 0-2.6 1.2-2.6 2.6v23c0 1.4 1.2 2.6 2.6 2.6h25.9c1.4 0 2.6-1.2 2.6-2.6v-23c0-1.4-1.2-2.6-2.6-2.6h-4.2c-.1-.1-17.5 0-17.5 0zm22.3 25.6"/><path class="st1" d="M91.1 36.2h4.5v5.1h-4.5z"/><path class="st13" d="M91.1 45.1h4.5v5.1h-4.5z"/><path class="st1" d="M98.4 45.1h4.5v5.1h-4.5z"/><path class="st13" d="M98.4 36.2h4.5v5.1h-4.5zM105.7 45.1h4.5v5.1h-4.5z"/><path class="st1" d="M105.7 36.2h4.5v5.1h-4.5zM93.4 26.8v3.5M100.6 26.8v3.5M108 26.8v3.5"/></g><g><path class="st1" d="M304.7 112.8h10.1M318.6 112.8h12.8M304.7 118.2h22.9"/><path class="st14" d="M296.1 112.8h-11.6v11.6h11.6v-11"/><g><path class="st1" d="M288.1 118.3l1.7 2.9 8.5-6.7"/></g><g><path class="st1" d="M304.7 139.9h12.2M314.5 139.9h16.9M304.7 145.3h22.9"/><path class="st15" d="M296.1 139.9h-11.6v11.6h11.6v-11"/><g><path class="st1" d="M288.1 145.4l1.7 2.9 8.5-6.6"/></g></g></g><g><path class="st1" d="M304.7 167.5h6M314.5 167.5h16.9M304.7 172.9h22.9"/><path class="st14" d="M296.1 167.5h-11.6v11.6h11.6v-11"/><g><path class="st1" d="M304.7 194.6h11.1M314.5 194.6h16.9M304.7 200.1h22.9"/><path class="st15" d="M296.1 194.6h-11.6v11.6h11.6v-10.9"/><g><path class="st1" d="M288.1 200.1l1.7 2.9 8.5-6.6"/></g></g></g><path fill="none" stroke="#ffb415" stroke-width="2" stroke-miterlimit="10" d="M392.4 325.3l17.4-15.7-21.1-8z"/><circle cx="11" cy="48" r="10" fill="none" stroke="#448afa" stroke-width="2" stroke-miterlimit="10"/></svg>