<svg xmlns="http://www.w3.org/2000/svg" width="529.5" height="372.4"><style>.st0{fill:#f5f8ff}.st1{fill:none;stroke:#77819c;stroke-linecap:round;stroke-linejoin:round;stroke-miterlimit:10}.st2{fill:#6a7e9c}.st4{fill:none;stroke:#6a7e9c;stroke-linecap:round;stroke-linejoin:round;stroke-miterlimit:10}.st5{fill:#ffb415}.st6{fill:#fff}.st8{fill:#66dab5}.st10{fill:none;stroke:#77819c;stroke-linecap:round;stroke-linejoin:bevel;stroke-miterlimit:10;stroke-dasharray:4,4}.st11{fill:#448afa}.st12{fill:none;stroke:#77819c;stroke-miterlimit:10}</style><path class="st0" d="M111.2 299V112.5c0-7.1 5.9-13 13-13h301.7c7.1 0 13 5.9 13 13v188.4H111.2"/><path class="st1" d="M111.2 299V112.5c0-7.1 5.9-13 13-13h301.7c7.1 0 13 5.9 13 13v188.4H111.2"/><path class="st0" d="M125.7 142.3v-16c0-6.4 5.2-11.5 11.5-11.5h275.7c6.4 0 11.5 5.2 11.5 11.5v173H125.7V159.2"/><path class="st1" d="M125.7 142.3v-16c0-6.4 5.2-11.5 11.5-11.5h275.7c6.4 0 11.5 5.2 11.5 11.5v173H125.7V159.2"/><path class="st2" d="M72.2 298.8c1.2 12.6 5.4 19.1 20.3 19.1h365.1c14.9 0 19.4-6.3 20.3-19.1H72.2z"/><path class="st1" d="M72.2 298.8c1.2 12.6 5.4 19.1 20.3 19.1h365.1c14.9 0 19.4-6.3 20.3-19.1H72.2z"/><path d="M323.4 299.8h-96.5l9 6.6c1 .8 2.3 1.2 3.6 1.2h71.1c1.3 0 2.5-.4 3.5-1.1l9.3-6.7z" fill="#eef2fa"/><path class="st1" d="M323.4 299.8h-96.5l9 6.6c1 .8 2.3 1.2 3.6 1.2h71.1c1.3 0 2.5-.4 3.5-1.1l9.3-6.7zM269.1 107.7h12"/><path class="st0" d="M87.3 148c0 20-16.2 36.2-36.2 36.2S14.8 168 14.8 148 31 111.8 51 111.8 87.3 128 87.3 148"/><circle class="st4" cx="51.1" cy="148" r="36.2"/><path class="st5" d="M51.7 169.3s-.1.6-1 1.1c-1 .6-3.6 1.8-5.3 3.2-.6.5-1.6.3-1.9-.4l-2.7-6.7-1.7-2.7 1-1.7c.3-.5 3.3.4 3.7.8l.1.1 7.8 6.3zM62.6 165l-.3.6-3.5 7.4c-.3.7-1.1 1.1-1.7.6-1.7-1.4-1.7-1.4-2.8-2-.8-.5-2.7-1.7-2.7-1.7l8.8-7.9.1-.1c.4-.4 2 1.1 2.3 1.6l-.2 1.5z"/><path class="st0" d="M59.9 158.5v3.6l-8.8 7.9-8.8-7.9v-3.6l3.3 2.5c1 .8 2.2 1.2 3.5 1.2H53c1.3 0 2.5-.4 3.5-1.2l3.4-2.5z"/><path class="st4" d="M59.9 158.5v3.6l-8.8 7.9-8.8-7.9v-3.6l3.3 2.5c1 .8 2.2 1.2 3.5 1.2H53c1.3 0 2.5-.4 3.5-1.2l3.4-2.5z"/><path class="st4" d="M24 172c.4-1.6 2.3-4.1 4.6-4.7l10.9-2.6 3.9 8.6c.3.7 1.3 1 1.9.4 1.7-1.4 3.2-2.4 4.2-3.1.8-.5 1.3-.8 1.3-.8s.5.3 1.3.8c1 .6 2.5 1.6 4.2 3.1.6.5 1.6.3 1.9-.4l3.9-8.6 10.9 2.6c2.3.5 4.3 3.1 4.7 4.7M63.8 134.8l-.5 9.8-.4 7.7-.1 1.3c-.1 1.7-.9 3.4-2.3 4.4l-.7.5-3.3 2.5c-1 .8-2.2 1.2-3.5 1.2h-3.9c-1.3 0-2.5-.4-3.5-1.2l-3.3-2.5-.7-.5c-1.4-1.1-2.3-2.7-2.3-4.4l-.9-18.7h25.4z"/><path class="st4" d="M51.1 170s-.5.3-1.3.8c-1 .6-2.5 1.6-4.2 3.1-.6.5-1.6.3-1.9-.4l-3.9-8.6-.3-.6 1.3-2c.3-.5 1-.6 1.5-.2l.1.1 8.7 7.8zM62.8 164.1l-.3.6-3.9 8.6c-.3.7-1.3 1-1.9.4-1.7-1.4-3.2-2.4-4.2-3.1-.8-.5-1.3-.8-1.3-.8l8.8-7.9.1-.1c.4-.4 1.1-.3 1.5.2l1.2 2.1zM65.7 147.1l-1.1 4.4c-.1.5-.6.9-1.1.9-.2 0-.3 0-.5-.1l.4-7.7h.4c1.2 0 2.2 1.2 1.9 2.5zM39 144.6h-.4c-1.3 0-2.3 1.2-2 2.5l1.1 4.4c.1.5.6.9 1.1.9"/><path class="st2" d="M57 128.3l.9 6.5c4.2.8 4.8 7.4 4.9 9.3 0 .3.1.7.3 1l.1 3.1s.8-3.7 2.7-6.5c.5-.8.8-1.7.8-2.6-.1-4.1-1.3-13.9-9.7-10.8"/><path class="st2" d="M39 145c.2-.8.4-1.6.5-2.5.1-1.5.7-3.5 2.8-4.8 3.4-2 6.4-1 9.5-1 8.2 0 10.5-3.1 10.1-6.8-.2-1.9-3.2-6-10.8-5.9-3.1.1-8.8 1-11.8 2.5l1.4 1c-2.3 1.7-3.6 3.8-4.4 5.8-1.2 3.1-.8 6.5.5 9.5.3.7.5 1.3.7 2l1-.4.5.6z"/><path class="st6" d="M256.4 38.4c0 20.9-17 37.9-37.9 37.9s-37.9-17-37.9-37.9S197.6.5 218.5.5s37.9 17 37.9 37.9"/><circle class="st4" cx="218.4" cy="38.4" r="37.9"/><path class="st2" d="M235.8 57.4c.6-.3.9-.9.9-1.5.1-17 2.4-40.4-18.1-40.4s-18.2 25.3-18.1 42.3l9.6-2.2h16.6l9.1 1.8z"/><path class="st2" d="M236.8 58.2c.1-18.1 2.4-42.7-18.1-42.7-11.7 0-12.5 14.1-12.5 14.1 6.7-1.1 10.8 1.7 17.6-1.1l-2.6 27"/><path class="st0" d="M226.7 50.5v5.1l-8.4 5.5-8.4-5.5v-5.4l6.8 3.8c1.2.6 2.6.6 3.8 0l6.2-3.5z"/><path d="M226.7 50.5v5.1l-8.4 5.5-8.4-5.5v-5.4l6.8 3.8c1.2.6 2.6.6 3.8 0l6.2-3.5z" fill="none" stroke="#6a7e9c" stroke-linecap="round" stroke-miterlimit="10"/><path class="st4" d="M226.4 55.9c.1.1 1.6.2 1.8.2l1.1.3 10.5 2.5c3.7.8 4.8 5.2 5 6.7M192.1 65.7c.2-1.5 1-5.9 4.9-6.9l10.5-2.5 2.1-.5 1.5.8 7.3 4.6"/><path class="st8" d="M218.3 61.9s-2.4 1.7-5.3 4.1c-.6.5-1.5.3-1.9-.4l-4-8 1.3-1.9"/><path class="st4" d="M218.3 61.9s-2.4 1.7-5.3 4.1c-.6.5-1.5.3-1.9-.4l-4-8 1.3-1.9"/><path class="st8" d="M218.3 61.8s2.4 1.7 5.3 4.1c.6.5 1.5.3 1.9-.4l4-8.5-1.3-1.9"/><path class="st4" d="M218.3 61.8s2.4 1.7 5.3 4.1c.6.5 1.5.3 1.9-.4l4-8.5-1.3-1.9"/><path class="st0" d="M231.6 34.8c0 .6 0 1.3-.1 1.9l-.9 9.1c-.1 1.7-1.1 3.2-2.6 4.1l-1.2.6-6.2 3.5c-1.2.6-2.6.6-3.8 0l-6.8-3.8-.5-.3c-1.5-.8-2.5-2.4-2.6-4.1l-.8-7.6c0-10.4 12.7-5.2 19.2-11.6 1.1 2.5 5.8 4.9 6.3 8.2"/><path class="st4" d="M231.6 34.8c0 .6 0 1.3-.1 1.9l-.9 9.1c-.1 1.7-1.1 3.2-2.6 4.1l-1.2.6-6.2 3.5c-1.2.6-2.6.6-3.8 0l-6.8-3.8-.5-.3c-1.5-.8-2.5-2.4-2.6-4.1l-.8-7.6c0-10.4 12.7-5.2 19.2-11.6 1.1 2.5 5.8 4.9 6.3 8.2zM129.3 71.4H95.7c-1.1 0-2-.9-2-2v-22c0-1.1.9-2 2-2h33.6c1.1 0 2 .9 2 2v22.1c0 1-.9 1.9-2 1.9z"/><path class="st5" d="M94.6 45.9l18 17 17.8-17"/><path class="st4" d="M94.6 45.9l18 17 17.8-17M80.2 53.1h13.5"/><path class="st1" d="M76.6 58.9h6.5"/><path class="st4" d="M86.8 58.9h6.5M85.5 64.4h8.2"/><circle class="st4" cx="145.6" cy="351.3" r="3.6"/><circle class="st4" cx="40.6" cy="49.5" r="3.6"/><path class="st4" d="M349 5.3v8.8M344.6 9.7h8.8M274 354.5v8.8M269.6 358.9h8.8M520.8 275.6v8.8M516.4 280h8.8"/><path fill="none" stroke="#77819c" stroke-width="2" stroke-linecap="round" stroke-linejoin="round" stroke-miterlimit="10" d="M482.8 153h14.4"/><path class="st10" d="M424.5 139.3V55.9M309.9 56.1h121.2s76.4-4.7 76.4 96l21.1 43.6c1.4 2.9-.7 6.3-4 6.3h-17.5v34.8c0 11.1-9 20-20 20h-22.5v41.9h-30.4"/><path class="st6" d="M361.1 87.5h85v40.4h-85z"/><path class="st1" d="M361.1 87.5h85v40.4h-85z"/><path class="st6" d="M346.1 87.5h16.2"/><path class="st1" d="M346.1 87.5h16.2"/><path class="st6" d="M347.9 127.8h16.2"/><path class="st1" d="M347.9 127.8h16.2"/><path class="st6" d="M352.4 87.3c0 3-2.5 5.5-5.5 5.5s-5.5-2.5-5.5-5.5 2.5-5.5 5.5-5.5 5.5 2.5 5.5 5.5"/><circle class="st1" cx="346.9" cy="87.3" r="5.5"/><path class="st6" d="M352.4 128.5c0 3-2.5 5.5-5.5 5.5s-5.5-2.5-5.5-5.5 2.5-5.5 5.5-5.5 5.5 2.5 5.5 5.5"/><circle class="st1" cx="346.9" cy="128.5" r="5.5"/><path class="st6" d="M409 87.3c0 3-2.5 5.5-5.5 5.5s-5.5-2.5-5.5-5.5 2.5-5.5 5.5-5.5c3.1 0 5.5 2.5 5.5 5.5"/><circle class="st1" cx="403.5" cy="87.3" r="5.5"/><path class="st6" d="M388.3 87.3c0 3-2.5 5.5-5.5 5.5s-5.5-2.5-5.5-5.5 2.5-5.5 5.5-5.5c3.1 0 5.5 2.5 5.5 5.5"/><circle class="st1" cx="382.8" cy="87.3" r="5.5"/><path class="st6" d="M429.9 87.3c0 3-2.5 5.5-5.5 5.5s-5.5-2.5-5.5-5.5 2.5-5.5 5.5-5.5 5.5 2.5 5.5 5.5"/><circle class="st1" cx="424.4" cy="87.3" r="5.5"/><path class="st6" d="M409 107.6c0 3-2.5 5.5-5.5 5.5s-5.5-2.5-5.5-5.5 2.5-5.5 5.5-5.5c3.1 0 5.5 2.5 5.5 5.5"/><circle class="st1" cx="403.5" cy="107.6" r="5.5"/><path class="st6" d="M388.3 107.6c0 3-2.5 5.5-5.5 5.5s-5.5-2.5-5.5-5.5 2.5-5.5 5.5-5.5c3.1 0 5.5 2.5 5.5 5.5"/><circle class="st1" cx="382.8" cy="107.6" r="5.5"/><path class="st6" d="M429.9 107.6c0 3-2.5 5.5-5.5 5.5s-5.5-2.5-5.5-5.5 2.5-5.5 5.5-5.5 5.5 2.5 5.5 5.5"/><circle class="st1" cx="424.4" cy="107.6" r="5.5"/><path class="st6" d="M409 128c0 3-2.5 5.5-5.5 5.5S398 131 398 128s2.5-5.5 5.5-5.5c3.1 0 5.5 2.4 5.5 5.5"/><circle class="st1" cx="403.5" cy="128" r="5.5"/><path class="st6" d="M388.3 128c0 3-2.5 5.5-5.5 5.5s-5.5-2.5-5.5-5.5 2.5-5.5 5.5-5.5c3.1 0 5.5 2.4 5.5 5.5"/><circle class="st1" cx="382.8" cy="128" r="5.5"/><path class="st6" d="M429.9 128c0 3-2.5 5.5-5.5 5.5s-5.5-2.5-5.5-5.5 2.5-5.5 5.5-5.5 5.5 2.4 5.5 5.5"/><circle class="st1" cx="424.4" cy="128" r="5.5"/><path class="st6" d="M314.4 56.4c0 3-2.5 5.5-5.5 5.5s-5.5-2.5-5.5-5.5 2.5-5.5 5.5-5.5 5.5 2.5 5.5 5.5"/><circle class="st1" cx="308.9" cy="56.4" r="5.5"/><path class="st11" d="M54.7 321c.2-2 .2-3.9-.1-5.9L50 314c-.2-1.2-.6-2.4-1-3.6l3.4-3.3c-.4-.9-.9-1.8-1.4-2.6-.5-.9-1.1-1.7-1.6-2.5l-4.5 1.3c-.8-.9-1.7-1.8-2.6-2.6l1.2-4.5c-1.6-1.2-3.3-2.1-5.1-2.9l-3.2 3.4c-1.2-.4-2.4-.7-3.6-.9l-1.2-4.6c-2-.2-3.9-.2-5.9.1l-1.1 4.6c-1.2.2-2.4.6-3.6 1l-3.3-3.3c-.9.4-1.8.8-2.6 1.4-.9.5-1.7 1.1-2.5 1.6l1.3 4.5c-.9.8-1.8 1.7-2.6 2.6l-4.5-1.2c-1.2 1.6-2.1 3.3-2.9 5.1l3.4 3.2c-.4 1.2-.7 2.4-.9 3.6l-4.6 1.2c-.2 2-.2 3.9.1 5.9l4.6 1.1c.2 1.2.6 2.4 1 3.6L3 329.5c.4.9.9 1.8 1.4 2.6.5.9 1.1 1.7 1.6 2.5l4.5-1.3c.8.9 1.7 1.8 2.6 2.6l-1.2 4.5c1.6 1.2 3.3 2.1 5.1 2.9l3.2-3.4c1.2.4 2.4.7 3.6.9l1.2 4.6c1.9.2 3.9.2 5.9-.1l1.1-4.6c1.2-.2 2.4-.6 3.6-1l3.3 3.4c.9-.4 1.8-.9 2.6-1.4.9-.5 1.7-1.1 2.5-1.6l-1.3-4.5c.9-.8 1.8-1.7 2.6-2.6l4.5 1.2c1.2-1.6 2.1-3.3 2.9-5.1l-3.4-3.2c.4-1.2.7-2.4.9-3.6l4.5-1.3zm-27.4 13.2c-8.7-.2-15.7-7.4-15.5-16.1.2-8.7 7.4-15.6 16.1-15.5 8.7.2 15.6 7.4 15.5 16.1-.1 8.7-7.4 15.7-16.1 15.5"/><path class="st12" d="M54.7 321c.2-2 .2-3.9-.1-5.9L50 314c-.2-1.2-.6-2.4-1-3.6l3.4-3.3c-.4-.9-.9-1.8-1.4-2.6-.5-.9-1.1-1.7-1.6-2.5l-4.5 1.3c-.8-.9-1.7-1.8-2.6-2.6l1.2-4.5c-1.6-1.2-3.3-2.1-5.1-2.9l-3.2 3.4c-1.2-.4-2.4-.7-3.6-.9l-1.2-4.6c-2-.2-3.9-.2-5.9.1l-1.1 4.6c-1.2.2-2.4.6-3.6 1l-3.3-3.3c-.9.4-1.8.8-2.6 1.4-.9.5-1.7 1.1-2.5 1.6l1.3 4.5c-.9.8-1.8 1.7-2.6 2.6l-4.5-1.2c-1.2 1.6-2.1 3.3-2.9 5.1l3.4 3.2c-.4 1.2-.7 2.4-.9 3.6l-4.6 1.2c-.2 2-.2 3.9.1 5.9l4.6 1.1c.2 1.2.6 2.4 1 3.6L3 329.5c.4.9.9 1.8 1.4 2.6.5.9 1.1 1.7 1.6 2.5l4.5-1.3c.8.9 1.7 1.8 2.6 2.6l-1.2 4.5c1.6 1.2 3.3 2.1 5.1 2.9l3.2-3.4c1.2.4 2.4.7 3.6.9l1.2 4.6c1.9.2 3.9.2 5.9-.1l1.1-4.6c1.2-.2 2.4-.6 3.6-1l3.3 3.4c.9-.4 1.8-.9 2.6-1.4.9-.5 1.7-1.1 2.5-1.6l-1.3-4.5c.9-.8 1.8-1.7 2.6-2.6l4.5 1.2c1.2-1.6 2.1-3.3 2.9-5.1l-3.4-3.2c.4-1.2.7-2.4.9-3.6l4.5-1.3zm-27.4 13.2c-8.7-.2-15.7-7.4-15.5-16.1.2-8.7 7.4-15.6 16.1-15.5 8.7.2 15.6 7.4 15.5 16.1-.1 8.7-7.4 15.7-16.1 15.5z"/><path class="st1" d="M49 310.5l3.4-3.3c-.4-.9-.9-1.8-1.4-2.6-.5-.9-1.1-1.7-1.6-2.5l-4.5 1.3c-.8-.9-1.7-1.8-2.6-2.6l1.2-4.5c-1.6-1.2-3.3-2.1-5.1-2.9l-3.2 3.4c-1.2-.4-2.4-.7-3.6-.9l-1.2-4.6c-2-.2-3.9-.2-5.9.1l-1.1 4.6c-1.2.2-2.4.6-3.6 1l-3.3-3.3c-.9.4-1.8.8-2.6 1.4-.9.5-1.7 1.1-2.5 1.6l1.3 4.5c-.9.8-1.8 1.7-2.6 2.6l-4.5-1.2c-1.2 1.6-2.1 3.3-2.9 5.1l3.4 3.2c-.4 1.2-.7 2.4-.9 3.6l-4.6 1.2c-.2 2-.2 3.9.1 5.9l4.6 1.1c.2 1.2.6 2.4 1 3.6L3 329.6c.4.9.9 1.8 1.4 2.6.5.9 1.1 1.7 1.6 2.5l4.5-1.3c.8.9 1.7 1.8 2.6 2.6l-1.2 4.5c1.6 1.2 3.3 2.1 5.1 2.9l3.2-3.4c1.2.4 2.4.7 3.6.9l1.2 4.6c1.9.2 3.9.2 5.9-.1l1.1-4.6c1.2-.2 2.4-.6 3.6-1l3.3 3.4c.9-.4 1.8-.9 2.6-1.4.9-.5 1.7-1.1 2.5-1.6l-1.3-4.5c.9-.8 1.8-1.7 2.6-2.6l4.5 1.2c1.2-1.6 2.1-3.3 2.9-5.1l-3.4-3.2c.4-1.2.7-2.4.9-3.6l4.6-1.2c.2-2 .2-3.9-.1-5.9l-4.6-1.1M11.8 318c.1-9.6 7.4-15.7 16.1-15.5 8.7.2 15.6 7.4 15.5 16.1-.2 8.7-7.4 15.7-16.1 15.5-6.4-.1-11.9-4.1-14.3-9.7.1.1-1.2-3.3-1.2-6.4z"/><path d="M90.9 353.6c.1-1.5.1-2.9 0-4.4l-3.4-.8c-.2-.9-.4-1.8-.8-2.7l2.5-2.5c-.3-.7-.6-1.3-1-2l-1.2-1.8-3.4 1c-.6-.7-1.3-1.4-2-1.9l.9-3.4c-1.2-.9-2.5-1.6-3.8-2.2l-2.4 2.6c-.9-.3-1.8-.5-2.7-.7l-.9-3.4c-1.5-.1-2.9-.1-4.4.1l-.8 3.4c-.9.2-1.8.4-2.7.8l-2.5-2.5c-.7.3-1.3.6-2 1l-1.8 1.2 1 3.4c-.7.6-1.3 1.3-1.9 2l-3.4-.9c-.9 1.2-1.6 2.5-2.2 3.8l2.6 2.4c-.3.9-.5 1.8-.7 2.7l-3.4.9c-.1 1.5-.1 2.9 0 4.4l3.4.8c.2.9.4 1.8.7 2.7l-2.5 2.5c.3.7.6 1.3 1 1.9.4.6.8 1.3 1.2 1.8l3.4-1c.6.7 1.3 1.4 2 1.9l-.9 3.4c1.2.9 2.5 1.6 3.8 2.2l2.4-2.6c.9.3 1.8.5 2.7.7l.9 3.4c1.5.1 2.9.1 4.4 0l.8-3.4c.9-.2 1.8-.4 2.7-.7l2.5 2.5c.7-.3 1.3-.6 1.9-1l1.8-1.2-1-3.4c.7-.6 1.4-1.3 1.9-2l3.4.9c.9-1.2 1.6-2.5 2.2-3.8l-2.6-2.4c.3-.9.5-1.8.7-2.7l3.6-1zm-20.3 9.8c-6.5-.1-11.7-5.5-11.5-12 .1-6.5 5.5-11.7 12-11.5 6.5.1 11.7 5.5 11.5 12-.2 6.5-5.5 11.7-12 11.5" fill="#b6c2d6"/><path class="st12" d="M90.9 353.6c.1-1.5.1-2.9 0-4.4l-3.4-.8c-.2-.9-.4-1.8-.8-2.7l2.5-2.5c-.3-.7-.6-1.3-1-2l-1.2-1.8-3.4 1c-.6-.7-1.3-1.4-2-1.9l.9-3.4c-1.2-.9-2.5-1.6-3.8-2.2l-2.4 2.6c-.9-.3-1.8-.5-2.7-.7l-.9-3.4c-1.5-.1-2.9-.1-4.4.1l-.8 3.4c-.9.2-1.8.4-2.7.8l-2.5-2.5c-.7.3-1.3.6-2 1l-1.8 1.2 1 3.4c-.7.6-1.3 1.3-1.9 2l-3.4-.9c-.9 1.2-1.6 2.5-2.2 3.8l2.6 2.4c-.3.9-.5 1.8-.7 2.7l-3.4.9c-.1 1.5-.1 2.9 0 4.4l3.4.8c.2.9.4 1.8.7 2.7l-2.5 2.5c.3.7.6 1.3 1 1.9.4.6.8 1.3 1.2 1.8l3.4-1c.6.7 1.3 1.4 2 1.9l-.9 3.4c1.2.9 2.5 1.6 3.8 2.2l2.4-2.6c.9.3 1.8.5 2.7.7l.9 3.4c1.5.1 2.9.1 4.4 0l.8-3.4c.9-.2 1.8-.4 2.7-.7l2.5 2.5c.7-.3 1.3-.6 1.9-1l1.8-1.2-1-3.4c.7-.6 1.4-1.3 1.9-2l3.4.9c.9-1.2 1.6-2.5 2.2-3.8l-2.6-2.4c.3-.9.5-1.8.7-2.7l3.6-1zm-20.3 9.8c-6.5-.1-11.7-5.5-11.5-12 .1-6.5 5.5-11.7 12-11.5 6.5.1 11.7 5.5 11.5 12-.2 6.5-5.5 11.7-12 11.5z"/><path class="st1" d="M86.7 345.8l2.5-2.5c-.3-.7-.6-1.3-1-2l-1.2-1.8-3.4 1c-.6-.7-1.3-1.4-2-1.9l.9-3.4c-1.2-.9-2.5-1.6-3.8-2.2l-2.4 2.6c-.9-.3-1.8-.5-2.7-.7l-.9-3.4c-1.5-.1-2.9-.1-4.4.1l-.8 3.4c-.9.2-1.8.4-2.7.8l-2.5-2.5c-.7.3-1.3.6-2 1l-1.8 1.2 1 3.4c-.7.6-1.4 1.3-1.9 2l-3.4-.9c-.9 1.2-1.6 2.5-2.2 3.8l2.6 2.4c-.3.9-.5 1.8-.7 2.7l-3.4.9c-.1 1.5-.1 2.9 0 4.4l3.4.8c.2.9.4 1.8.7 2.7l-2.5 2.5c.3.7.6 1.3 1 1.9.4.6.8 1.3 1.2 1.8l3.4-1c.6.7 1.3 1.3 2 1.9l-.9 3.4c1.2.9 2.5 1.6 3.8 2.2l2.4-2.5c.9.3 1.8.5 2.7.7l.9 3.4c1.5.1 2.9.1 4.4 0l.8-3.4c.9-.2 1.8-.4 2.7-.7l2.5 2.5c.7-.3 1.3-.6 1.9-1l1.8-1.2-1-3.4c.7-.6 1.4-1.3 1.9-2l3.4.9c.9-1.2 1.6-2.5 2.2-3.8l-2.6-2.4c.3-.9.5-1.8.7-2.7l3.4-.9c.1-1.5.1-2.9 0-4.4l-3.4-.8M59 351.4c.1-7.2 5.5-11.7 12-11.5 6.5.1 11.7 5.5 11.5 12-.1 6.5-5.5 11.7-12 11.5-4.8-.1-8.9-3.1-10.6-7.2 0 0-.9-2.5-.9-4.8z"/><path class="st6" d="M99.9 224.1s46.1-68.4 98.7 0c0 0-44.9 65.1-98.7 0"/><path class="st1" d="M99.9 224.1s46.1-68.4 98.7 0c0 0-44.9 65.1-98.7 0zM80 224.1h19.3"/><path class="st5" d="M171.3 223.4c0 12.2-9.9 22-22 22-12.2 0-22-9.9-22-22 0-12.2 9.9-22 22-22s22 9.8 22 22"/><circle class="st1" cx="149.3" cy="223.4" r="22"/><path class="st6" d="M162.3 223.4c0 7.2-5.9 13.1-13.1 13.1-7.2 0-13.1-5.9-13.1-13.1 0-7.2 5.9-13.1 13.1-13.1 7.3 0 13.1 5.9 13.1 13.1"/><circle class="st1" cx="149.3" cy="223.4" r="13.1"/><path class="st1" d="M150 217.4c2.9 0 5.3 2.4 5.3 5.3M51 224.1h19.4"/><path class="st6" d="M52.3 224.1c0 3-2.5 5.5-5.5 5.5s-5.5-2.5-5.5-5.5 2.5-5.5 5.5-5.5 5.5 2.4 5.5 5.5"/><circle class="st1" cx="46.8" cy="224.1" r="5.5"/><path class="st0" d="M505.9 56.4c0 13.3-10.8 24.2-24.2 24.2-13.3 0-24.2-10.8-24.2-24.2 0-13.3 10.8-24.2 24.2-24.2 13.4 0 24.2 10.8 24.2 24.2"/><circle class="st4" cx="481.7" cy="56.4" r="24.2"/><path class="st11" d="M489.7 68.1c-.2 1-3.3 8.4-8.1 8.4-4.7 0-7.9-7.1-8.2-8.3l3.6-.9c.4 2.2 1.7 6.4 4.7 6.4 2.7 0 4.1-4 4.5-6.4l3.5.8z"/><path class="st4" d="M489.7 68.1c-.2 1-3.3 8.4-8.1 8.4-4.7 0-7.9-7.1-8.2-8.3l3.6-.9c.4 2.2 1.7 6.4 4.7 6.4 2.7 0 4.1-4 4.5-6.4l3.5.8z"/><path class="st4" d="M466.2 74.9l1.2-2.9c.2-.7 1.1-2.7 2.8-3.1l4.8-1.1.9-.2.6-.1c.2 0 .3-.1.5-.3l.1.1c.4 2.2 1.8 6.3 4.7 6.3 2.7 0 4-4 4.4-6.3l7.2 1.6c1.4.3 2.4 2.1 2.9 3l1 2.9"/><path class="st2" d="M489.4 57.9c-.1-3.8-.6-4.3-.6-4.3-2.7-.3-4.8-3.2-4.8-3.2-5.2 2.8-8.9 0-8.9 0-2.6 2.5-2.3 5.9-2.3 5.9v1.4c-.1-.2-.1-.5-.2-.9-.4-1.9-1-6 1.4-8.3 0 0 .1-3.2.3-4.2 0 0 1.9.6 3.3-.1 0 0-.3-1.4.5-3.1 0 0 1.9 2.1 4.1 2.3 2.2.2 7 3.4 7.9 9.1.6 4.1-.4 5.2-.7 5.4"/><path class="st0" d="M489.4 62.5c-.1.8-.8 2.6-3.3 4.4-.1.1-.3.2-.4.3-3.3 2.2-5.8 2.7-9.1-.1-.2-.2-.4-.4-.7-.6-2.9-2.7-2.8-4.3-2.8-5.3v-7.4s-.3-2.8 2.3-4.9c0 0 3.7 2.3 8.8 0 0 0 2.1 2.4 4.7 2.6 0 0 .5.5.5 3.6v7.4"/><path class="st4" d="M489.4 62.5c-.1.8-.8 2.6-3.3 4.4-.1.1-.3.2-.4.3-3.3 2.2-5.8 2.7-9.1-.1-.2-.2-.4-.4-.7-.6-2.9-2.7-2.8-4.3-2.8-5.3v-7.4s-.3-2.8 2.3-4.9c0 0 3.7 2.3 8.8 0 0 0 2.1 2.4 4.7 2.6 0 0 .5.5.5 3.6v7.4zM472.7 61.1c-.5.1-.9-.1-1.2-.3-.7-.6-.7-2.1-1-4.1-.4-2.8 1.9-2.6 1.9-2.6M490.1 53.8s2.3-.2 1.9 2.6c-.3 2-.4 3.4-1 4.1-.3.3-.6.4-1.2.3"/><path class="st2" d="M490.3 54.7s2.3-8.3-1.1-10.9c-3.4-2.7-5.3 1.1-11.2-2.7M474.2 44.9s-.4.6-1.4 1.3c-1 .6-2.1 4.4-.4 9.6 0 0 1.1-3.5 1.1-4 0-.4 1.9-3.1 1.9-3.1l-1.2-3.8z"/><path class="st2" d="M477.5 42.4s-1.5.3-1.6-.6c0-.9-.6 1.7 0 2.5s-1.4.6-1.4.6l1.2 3.3s4.3.9 4.7.6c.3-.3 2.8-2.2 1.6-3.5-1.2-1.4-2.1-2-2.3-2.1s-2.2-.8-2.2-.8"/><path fill="#ff6aa9" d="M213.4 272.6h114.9"/><path class="st1" d="M213.4 272.6h114.9"/><path class="st0" d="M219.9 168.1h13.6v104.5h-13.6z"/><path class="st1" d="M219.9 168.1h13.6v104.5h-13.6z"/><path class="st8" d="M249.4 205.2H263v67.4h-13.6z"/><path class="st1" d="M249.4 205.2H263v67.4h-13.6z"/><path class="st0" d="M279 179.7h13.6v93H279z"/><path class="st1" d="M279 179.7h13.6v93H279z"/><path class="st8" d="M308.5 196.2h13.6v76.4h-13.6z"/><path class="st1" d="M308.5 196.2h13.6v76.4h-13.6z"/><path class="st1" d="M213.4 168.1h27.2l8.8 37.1H263l16-25.5h13.6l15.9 16.5h19.8M213.4 155h47.1M213.4 146.5h16M300.4 146.5h16.1"/><path class="st11" d="M369.9 184.1v-20.2c-11.2 0-20.2 9.1-20.2 20.2 0 11.2 9.1 20.2 20.2 20.2 11.2 0 20.2-9.1 20.2-20.2h-20.2z"/><path class="st1" d="M369.9 184.1v-20.2c-11.2 0-20.2 9.1-20.2 20.2 0 11.2 9.1 20.2 20.2 20.2 11.2 0 20.2-9.1 20.2-20.2h-20.2z"/><path class="st0" d="M374.6 162.1v17.3h17.3c0-9.6-7.7-17.3-17.3-17.3"/><path class="st1" d="M374.6 162.1v17.3h17.3c0-9.6-7.7-17.3-17.3-17.3z"/><path class="st0" d="M413.366 295.541l10.112-10.111 6.435 6.434-10.112 10.112z"/><path class="st1" d="M413.366 295.541l10.112-10.111 6.435 6.434-10.112 10.112z"/><path class="st0" d="M458.7 329.3l-1.5 1.5c-1.6 1.6-4.1 1.6-5.7 0l-30.3-30.3 7.2-7.2 30.3 30.3c1.6 1.6 1.6 4.1 0 5.7"/><path class="st1" d="M458.7 329.3l-1.5 1.5c-1.6 1.6-4.1 1.6-5.7 0l-30.3-30.3 7.2-7.2 30.3 30.3c1.6 1.6 1.6 4.1 0 5.7z"/><path class="st8" d="M369.1 241.3c-14.1 14.1-14.1 37.1 0 51.2 14.1 14.1 37.1 14.1 51.2 0 14.1-14.1 14.1-37.1 0-51.2-14.1-14.2-37-14.2-51.2 0"/><circle class="st1" cx="394.7" cy="266.9" r="36.2"/><path class="st6" d="M403.5 349v-32.7"/><path class="st1" d="M403.5 349v-32.7"/><path class="st6" d="M409 349c0 3-2.5 5.5-5.5 5.5S398 352 398 349s2.5-5.5 5.5-5.5c3.1 0 5.5 2.4 5.5 5.5"/><circle class="st1" cx="403.5" cy="349" r="5.5"/><path class="st6" d="M415.4 287.5c-11.4 11.4-29.9 11.4-41.3 0-11.4-11.4-11.4-29.9 0-41.3 11.4-11.4 29.9-11.4 41.3 0 11.4 11.4 11.4 29.9 0 41.3"/><circle class="st1" cx="394.7" cy="266.9" r="29.2"/><path class="st1" d="M374 274.9c-1.5-3.8-1.9-7.9-1.2-11.8M379 251.1c1.8-1.8 3.8-3.2 5.9-4.2"/></svg>