<svg xmlns="http://www.w3.org/2000/svg" width="404.7" height="120.2"><style>.st0{fill:#fff}.st1{fill:#66dab5}</style><path class="st0" d="M306 42.5c0 3.9-3.1 7.1-7.1 7.1h-10.1V100c0 3.9-3.1 6.6-7.1 6.6-3.9 0-7-2.8-7-6.6V49.7h-10.3c-3.9 0-7-3.3-7-7.1 0-3.9 3.1-7 7-7h10.3V7c0-3.9 3.1-7 7-7 4 0 7.1 3.1 7.1 7v28.6h10.1c3.9 0 7.1 3.1 7.1 6.9M316.8 19.3c-1.3-1.3-2.1-3.1-2.1-5s.9-3.7 2.1-5c1.3-1.3 3.1-2.1 5-2.1s3.7.9 5 2.1c1.3 1.3 2 3.1 2 5s-.7 3.7-2 5c-1.3 1.3-3.1 2-5 2-1.8 0-3.7-.7-5-2m-2.1 80.8V42.5c0-3.9 3.1-7 7.1-7 3.9 0 7 3.1 7 7V100c0 4-3.1 7.1-7 7.1-4 .1-7.1-3-7.1-7M337 71.4c0-19.8 16-35.8 35.7-35.8 12.9 0 24.7 6.9 31.1 17.8 2 3.4.7 7.7-2.6 9.7-3.4 1.9-7.7.7-9.7-2.6-3.9-6.7-11-10.9-18.8-10.9-11.9 0-21.7 9.7-21.7 21.7 0 11.9 9.9 21.7 21.7 21.7 7.4 0 14.3-3.7 18.3-10 2.1-3.3 6.6-4.1 9.9-2.1 3.3 2.1 4.1 6.6 2 9.9-6.6 10.3-17.8 16.4-30.1 16.4-19.8 0-35.8-16.1-35.8-35.8M126.7 42.5c0 3.9-3.1 7.1-7.1 7.1-12 0-21.7 9.7-21.7 21.7V100c0 3.9-3.1 7.1-7 7.1-4 0-7.1-3.3-7.1-7.1V71.4c0-19.8 16.1-35.8 35.8-35.8 3.9 0 7.1 3.1 7.1 6.9M68.8 107.2c-3.3.7-7.7-.9-9.4-5.1l-5.1-14.5H19.7l-6 14.5c-.7 3.3-3.4 5.1-6.8 5.1H5.3c-4.3-1.8-6-6-5.1-9.4l30.4-84.7c.9-2.7 3.4-5.1 7-5.1 3.4 0 5.8 2.4 6.7 5.1l28.8 84.7c1.6 3.4 0 7.5-4.3 9.4m-18.7-34L37.6 36.9 24.8 73.2h25.3zM204.1 87.2c-1.7 0-3.3-1.1-3.9-2.7l-1.9-5.4c-.6-1.6-2.1-2.7-3.9-2.7h-3.7c-1.7 0-3.2 1-3.8 2.6l-2.3 5.7c-.6 1.5-2.1 2.6-3.8 2.6h-21.1V72.8v25.8l25.1 8.4v-8.6c0-3.2 2.6-5.8 5.8-5.8h4c3.2 0 5.8 2.6 5.8 5.8v8.4l24.7-8.1V75.9v11.3h-21zM223 48.6c0-1.1.9-2 2-2v-3.7h-21.9V45c0 1.1-.9 2-2 2h-3l2.4 5.7c.6 1.5 2.1 2.5 3.8 2.5h20.6v-4.6c-1 0-1.9-.9-1.9-2M196.5 42.8v.1h2.7v-.1H186v.1h2.7zM184.5 52.6l2.4-5.7h-3c-1.1 0-2-.9-2-2v-2.1h-22.3v3.7c1.1 0 2 .9 2 2s-.9 2-2 2v4.6h21c1.8 0 3.3-.9 3.9-2.5M186 31.9h13.2v.1H186zM184 27.9h2v-3.5h13.2v3.5h2c1.1 0 2 .9 2 2v-6H182v6c0-1.1.9-2 2-2"/><path class="st0" d="M184 35.4h17.2c1.1 0 2 .9 2 2V30c0 1.1-.9 2-2 2h-2v3.5H186V32h-2c-1.1 0-2-.9-2-2v7.5c0-1.2.9-2.1 2-2.1M186 27.9h13.2v.1H186z"/><path class="st0" d="M184 32h2v-.1h13.2v.1h2c1.1 0 2-.9 2-2v-.1c0-1.1-.9-2-2-2h-2v.1H186v-.1h-2c-1.1 0-2 .9-2 2v.1c0 1.1.9 2 2 2M186 39.4h13.2v3.4h4v-5.4c0 1.1-.9 2-2 2H184c-1.1 0-2-.9-2-2v5.4h4v-3.4zM184 46.9h3l1.7-4H186v-.1h-4v2.1c0 1.1.9 2 2 2M199.2 42.9h-2.7l1.7 4h3c1.1 0 2-.9 2-2v-2.1l-4 .1z"/><path class="st0" d="M184 39.4h17.2c1.1 0 2-.9 2-2s-.9-2-2-2H184c-1.1 0-2 .9-2 2s.9 2 2 2M148.2 48.6c0-1.1.9-2 2-2h.5v-3.7h-11.4v11.4h3.5c0-1.1.9-2 2-2s2 .9 2 2h3.9v-3.7h-.5c-1.1 0-2-.9-2-2M159.7 46.6h-9v4h9v-4M161.7 48.6c0-1.1-.9-2-2-2v4c1.1-.1 2-.9 2-2"/><path class="st0" d="M150.2 46.6c-1.1 0-2 .9-2 2s.9 2 2 2h.5v-4h-.5zM142.8 75c.6-.2 1.3-.3 2-.3s1.4.1 2 .3V54.3h-4V75zM144.8 52.3c-1.1 0-2 .9-2 2h4c0-1.1-.9-2-2-2M144.8 78.4c-1.1 0-2-.9-2-2V75c-1.4.4-2.7 1.1-3.7 2.1-3.1 3.1-3.1 8.2 0 11.4.4.4.9.6 1.4.6.5 0 1-.2 1.4-.6.8-.8.8-2 0-2.8-1.6-1.6-1.6-4.1 0-5.7.8-.8 1.8-1.2 2.9-1.2 1.1 0 2.1.4 2.9 1.2.8.8 1.2 1.8 1.2 2.9s-.4 2.1-1.2 2.9c-.8.8-.8 2 0 2.8.8.8 2 .8 2.8 0 1.5-1.5 2.4-3.5 2.4-5.7s-.8-4.2-2.4-5.7c-1-1-2.3-1.7-3.7-2.1v1.4c0 1-.9 1.9-2 1.9"/><path class="st0" d="M142.8 75v1.4c0 1.1.9 2 2 2s2-.9 2-2V75c-.6-.2-1.3-.3-2-.3s-1.3.1-2 .3M239.9 52.3c1.1 0 2 .9 2 2h3.5V42.9H234v3.7h.5c1.1 0 2 .9 2 2s-.9 2-2 2h-.5v3.7h3.9c0-1.1.9-2 2-2M225.1 46.6h8.9v4h-8.9zM225 46.6c-1.1 0-2 .9-2 2s.9 2 2 2v-4z"/><path class="st0" d="M236.5 48.6c0-1.1-.9-2-2-2h-.5v4h.5c1.1 0 2-.9 2-2M241.9 75V54.3h-4V75c.6-.2 1.3-.3 2-.3s1.3.1 2 .3M241.9 54.3c0-1.1-.9-2-2-2s-2 .9-2 2h4zM245.6 77.1c-1-1-2.3-1.7-3.7-2.1v1.4c0 1.1-.9 2-2 2s-2-.9-2-2V75c-1.4.4-2.7 1.1-3.7 2.1-1.5 1.5-2.4 3.5-2.4 5.7s.8 4.2 2.4 5.7c.8.8 2 .8 2.8 0 .8-.8.8-2 0-2.8-.8-.8-1.2-1.8-1.2-2.9s.4-2.1 1.2-2.9c.8-.8 1.8-1.2 2.9-1.2s2.1.4 2.9 1.2c1.6 1.6 1.6 4.1 0 5.7-.8.8-.8 2 0 2.8.4.4.9.6 1.4.6.5 0 1-.2 1.4-.6 3.1-3.1 3.1-8.2 0-11.3"/><path class="st0" d="M239.9 78.4c1.1 0 2-.9 2-2V75c-.6-.2-1.3-.3-2-.3s-1.4.1-2 .3v1.4c0 1.1.9 2 2 2M184 20.4h17.2c1.1 0 2 .9 2 2V24h20c.5 0 1-.4 1-1V1.6c0-.6-.5-1-1-1h-63.1c-.6 0-1 .4-1 1v21.3c0 .6.4 1 1 1H182v-1.6c0-1 .9-1.9 2-1.9m23.8-13.8c3.1 0 5.7 2.5 5.7 5.7 0 3.1-2.5 5.7-5.7 5.7-3.1 0-5.7-2.5-5.7-5.7s2.6-5.7 5.7-5.7M175.5 18c-3.1 0-5.7-2.5-5.7-5.7 0-3.1 2.5-5.7 5.7-5.7 3.1 0 5.7 2.5 5.7 5.7-.1 3.1-2.6 5.7-5.7 5.7"/><path class="st0" d="M203.2 22.4c0-1.1-.9-2-2-2H184c-1.1 0-2 .9-2 2V24h21.2v-1.6zM192.4 120.2h.3c2.8 0 5-2.3 5-5v-7.7l-5.6 1.8-4.7-1.6v7.5c0 2.8 2.3 5 5 5"/><path class="st0" d="M197.7 107.5v-7.8c0-2.8-2.3-5-5-5h-.3c-2.8 0-5 2.3-5 5v8.1l4.7 1.6 5.6-1.9z"/><path class="st1" d="M159.7 55.1v17.6-17.6zM225.1 55.1v20.8zM200.6 52.6l-2.4-5.7H187l-2.4 5.7c-.6 1.5-2.1 2.5-3.8 2.5h-21v32.1h21.1c1.7 0 3.2-1 3.8-2.6l2.3-5.7c.6-1.5 2.1-2.6 3.8-2.6h3.7c1.7 0 3.3 1.1 3.9 2.7l1.9 5.4c.6 1.6 2.1 2.7 3.9 2.7h20.9v-32h-20.6c-1.7 0-3.2-.9-3.9-2.5M196.5 42.8l-7.8.1h7.8zM188.7 42.9l-1.7 4h11.2l-1.7-4z"/></svg>