<svg xmlns="http://www.w3.org/2000/svg" width="444.2" height="331"><style>.st0,.st1,.st12,.st2,.st3,.st9{fill:#66dab5;stroke:#77819c;stroke-miterlimit:10}.st1,.st12,.st2,.st3,.st9{fill:none;stroke-linecap:round;stroke-linejoin:round}.st12,.st2,.st3,.st9{stroke:#6a7e9c}.st12,.st3,.st9{fill:#fff;stroke:#77819c}.st12,.st9{fill:#448afa}.st12{fill-rule:evenodd;clip-rule:evenodd;fill:#fff}</style><path class="st0" d="M54.5 270.2H66v23.6H54.5z"/><path class="st1" d="M79.1 272.9h11.5v20.9H79.1zM128.2 283h11.5v10.8h-11.5z"/><path class="st0" d="M152.7 272.5h11.5v21.4h-11.5zM103.6 257.7h11.5v36.1h-11.5z"/><path class="st1" d="M177.2 262.6h11.5v31.2h-11.5z"/><path class="st0" d="M201.8 267.3h11.5v26.5h-11.5zM250.9 283h11.5v10.8h-11.5z"/><path class="st1" d="M275.4 265.1h11.5v28.7h-11.5zM226.3 247.7h11.5v46.1h-11.5z"/><circle class="st2" cx="154.3" cy="19" r="3.4"/><circle class="st2" cx="22.1" cy="313.9" r="3.4"/><g><path class="st2" d="M9.7 141v8.2M5.6 145.1h8.1"/></g><g><path class="st2" d="M416.1 120.6v8.2M412 124.7h8.2"/></g><g><path class="st2" d="M154.9 322.4v8.1M150.8 326.4h8.2"/></g><g><path class="st3" d="M34.7 68.2h349.5"/><path class="st1" d="M33.6 238V54.9c0-5.8 4.7-10.5 10.5-10.5h314.3M309.1 293.8H44.2c-5.8 0-10.5-4.7-10.5-10.5v-28.7M373.7 44.4c5.8 0 10.5 4.7 10.5 10.5v228.4c0 5.8-4.7 10.5-10.5 10.5h-56.3"/><circle cx="47.2" cy="56" r="3.4" fill="#66dab5"/><circle cx="61.5" cy="56" r="3.4" fill="#ffb415"/><circle cx="75.7" cy="56" r="3.4" fill="#448afa"/></g><g><path d="M265.5 56.3l4.1 7-12.3 12.1-7.2-3.8c-1.5.7-3 1.4-4.6 1.9l-2 7.8-17.2-.1-2.5-7.9c-1.6-.5-3.1-1.2-4.6-2l-6.6 4-12.3-12 3.8-7.5c-.7-1.4-1.2-2.7-1.7-4.2l-7.9-2.1.1-17.2 7.9-2.5c.5-1.5 1.1-3 1.8-4.4l-4.2-6.8 12.1-12.3 7.5 3.8c1.4-.7 2.9-1.3 4.4-1.8l2-7.9h17.2l2.6 8c1.4.5 2.8 1.1 4.2 1.7l7.4-4.2 11.9 12.4-3.9 7.2c.8 1.5 1.4 3.1 2 4.8l7.8 1.9.1 17.2-8.1 2.6c-.6 1.7-1.2 3-1.8 4.3z" fill="#b6c2d6" stroke="#77819c" stroke-linecap="round" stroke-linejoin="round" stroke-miterlimit="10"/><circle class="st3" cx="234.7" cy="40.8" r="20.4"/><path d="M331.3 177.5l6.3 10.7-18.8 18.6-11.1-5.8c-2.3 1.1-4.6 2.1-7 2.9l-3.1 12-26.4-.2-3.8-12.1c-2.4-.8-4.8-1.8-7.1-3l-10.1 6.2-18.9-18.5 5.8-11.5c-1-2.1-1.9-4.2-2.6-6.4l-12.1-3.1.2-26.4 12.1-3.8c.8-2.3 1.7-4.6 2.8-6.7l-6.4-10.5 18.5-18.9 11.6 5.8c2.2-1.1 4.4-2 6.8-2.8l3.1-12.2h26.4l4 12.3c2.2.7 4.3 1.6 6.4 2.7l11.3-6.5 18.3 19-6 11.1c1.2 2.4 2.2 4.8 3 7.4l12 3 .1 26.4-12.5 4c-.9 2.2-1.8 4.3-2.8 6.3z" fill="#ffba4d" stroke="#77819c" stroke-linecap="round" stroke-linejoin="round" stroke-miterlimit="10"/><circle class="st3" cx="284.1" cy="153.7" r="31.4"/><path class="st1" d="M290.6 23.6h61.1M358.3 10.2h-24.4M349.1 179.5h25.6M394.3 179.5h34.9M349.1 198.5H371"/></g><g><path class="st3" d="M94.9 216.6H135s-.4-7.1-.5-15.6c-.2-8.5 7.6-7.3 7.6-7.3h16.5c9.7 0 1.8-11.1.4-14.4s.2-4.9.2-4.9c9.3-1.5 2.5-12.9 2.5-12.9h8.5l-10.6-16.4c10.3-21.5-8.2-46.3-34.2-46.3s-39 15.2-43.5 29.4 3.8 28.2 7.3 36.8c0 0 8.8 18.3 6.2 44.9"/><path class="st9" d="M140.1 225.9H89.6c-1.2 0-2.2-1-2.2-2.2v-5.2c0-1.2 1-2.2 2.2-2.2h50.5c1.2 0 2.2 1 2.2 2.2v5.2c0 1.2-1 2.2-2.2 2.2z"/><path class="st1" d="M127.3 152.8c2.3 0 4.2-1.9 4.2-4.2v-22.2c0-2.3-1.9-4.2-4.2-4.2h-22.2c-2.3 0-4.2 1.9-4.2 4.2v22.4s-.4 4 4.2 4h22.2z"/><path d="M121.7 143.1h-11.1V132h11.1v11.1zm0 0" fill="#77819c"/><path class="st1" d="M139.8 131.9h-8.1M139.8 143.1h-8.1M100.9 131.9h-8.2M100.9 143.1h-8.2M121.8 121.2v-8.1M110.6 121.2v-8.1M121.8 161.1v-8.2M110.6 161.1v-8.2M121.8 170.2v-1.6M110.6 170.2v-1.6"/><g><path class="st1" d="M121.8 177.6V176M110.6 177.6V176"/></g><g><path class="st1" d="M121.8 184.1v-1.6M110.6 184.1v-1.6"/></g><g><path class="st1" d="M121.8 191.5v-1.6M110.6 191.5v-1.6"/></g><g><path class="st1" d="M121.8 198.5v-1.6M110.6 198.5v-1.6"/></g><g><path class="st1" d="M121.8 205.1v-1.6M110.6 205.1v-1.6"/></g><path class="st1" d="M176.8 181.1c-2.2 0-3.9-1.8-3.9-3.9 0-2.2 1.8-3.9 3.9-3.9 2.2 0 3.9 1.8 3.9 3.9 0 2.2-1.7 3.9-3.9 3.9zM184.4 188.4c4-2.8 6.3-6.9 6.3-11.2 0-4.3-2.3-8.4-6.2-11.2M200.5 177.2c0-6.8-3.5-13.4-9.5-18M191 195.2c3.8-2.9 6.6-6.5 8.1-10.5"/></g><g><path class="st3" d="M400.9 319.3c-8.6 6.7-19.5 10.5-31.2 10-25.9-1.2-46-23.2-44.8-49.1s23.2-46 49.1-44.8c22.6 1.1 40.6 17.8 44.2 39.2"/><path d="M418.7 284.5c-.5 9.9-3.9 18.9-9.5 26.2" fill="#fff" stroke="#77819c" stroke-linecap="round" stroke-linejoin="round" stroke-miterlimit="10" stroke-dasharray="4,4"/><path class="st3" d="M377.9 290.5l1.3 12.6-7.9 11.9-7.5-12.5 1-12.1z"/><path class="st12" d="M371.5 254.9c-1.1 0-2.2-.1-2.2-.1v.2h-.2c-4.3.2-8.3 2.4-10.9 5.8-2.6 3.4-2.9 7.7-2.7 11.9.5 10.6 6.6 22.6 16 22.6 9.4-.1 15.4-12 16-22.6.2-4.1-.1-8.5-2.7-11.9-2.6-3.4-6.6-5.7-10.9-5.8h-.2v-.2c-.1.1-1.1.1-2.2.1z"/><path class="st12" d="M383 263.3c-5.3 3.6-15 6-13 5.3.9-.3 1.7-1 2.3-1.8.4-.6.9-1.4 1.4-2.2 0 0-1.4 1.7-8.4 4.1-3.8 1.3-6 1.7-7.3 1.8 0 0-.2 6.6.1 9.3.6 5.8 6.2 16.8 2.8 19.1-4.6 3.1-11-2.6-10.1-2.8 7.2-1.8 3.1-26 4.1-31.4.8-4.2 3-7.4 5.7-9.5 4.2-3.4 13.4-4.2 18.2-2.1.7.2 1.3.5 1.8.7.5.3 1 .6 1.5 1 17 .3-1.5 32.2 9.8 40.8 1.7 1.3-7.8 7-11.3 1.1-2.2-3.7 5-10.4 5.5-19.9.1.1 1.1-6.3-3.1-13.5z"/><path d="M398.1 301.3c1.6.3 2.8 1.8 2.8 3.4V319s-10.2 10.3-29 10.3-29.2-10.5-29.2-10.5v-13.3c0-2.3 2.3-4 4-4.3l17.6-2.7 7.3 6.2 7.2-6 19.3 2.6z" fill="#77819c" stroke="#77819c" stroke-linecap="round" stroke-linejoin="round" stroke-miterlimit="10"/><path d="M403 298.7h8.1c-2.2 24.4-13.4 28.8-13.4 28.8 28-6.1 27.9-27.2 27.9-28.8h8.8l-16.3-16.1-15.1 16.1z" fill="#fff" stroke="#777f99" stroke-linecap="round" stroke-linejoin="round" stroke-miterlimit="10"/><g><path class="st3" d="M414.8 220.2c-10.9 2.4-18.9 12.2-18.7 23.7.3 13.1 11.1 23.5 24.3 23.3 13.1-.3 23.5-11.1 23.3-24.3s-11.1-23.5-24.3-23.3"/><path class="st9" d="M413 251.3l-6.6 1.6c-.9.2-2 1.4-2.2 2.3v6.1s6.4 6 15.3 6c10.3 0 16-5.9 16-5.9v-6.1c-.1-.9-1.2-2.2-2.2-2.4l-6.6-1.6c.1 0-5.7-1.6-13.7 0z"/><path class="st3" d="M415.7 249c0 7.2 4.3 6.6 4.3 6.6 3.5 0 4-4.4 4.4-6.6l-.8-1.6h-7.3l-.6 1.6z"/><path class="st3" d="M412.4 245c.1.8.7 2.3 3 4 .1.1.2.2.3.2 3 2 5.2 2.5 8.3-.1.2-.2.4-.3.6-.5 2.6-2.5 2.6-3.9 2.6-4.9V238v-1.1s.3-2.5-2.1-4.5c0 0-3.3 2.1-8 0 0 0-1.9 2.2-4.3 2.4 0 0-.4.4-.5 3.3v6.2s0 .3.1.7z"/><path class="st12" d="M412.3 239.9s-.2-2.3-.6-4.2c-.4-2 .5-3.7 2.1-3.5.2-4.5 9-.7 10.1-.5 2.8.5 3.9-1.3 3.9-1.3 1.8 5.1-1.2 9.3-9.9 5.6-1.7-.7-4.7-3-5.6 3.9z"/></g><g><circle cx="318.3" cy="310.6" r="19.9" fill="#ffba4d" stroke="#77819c" stroke-miterlimit="10"/><path d="M317.5 320.2c-2.8-.2-5.1-1.3-6.4-2.8l1.4-2c1.1 1.2 2.9 2.3 5 2.5v-6.6c-2.9-.7-5.8-1.7-5.8-5.1 0-2.8 2.5-4.9 5.8-5.2v-2.2h2v2.3c2.4.2 4.3 1.2 5.7 2.6l-1.4 1.8c-1.1-1.2-2.7-1.9-4.3-2.1v5.8c3 .8 6.1 1.8 6.1 5.5 0 2.9-2 5.1-6.1 5.5v2.1h-2v-2.1zm0-11.5v-5.3c-1.9.2-3.1 1.3-3.1 2.8-.1 1.4 1.3 2 3.1 2.5zm1.9 3.1v6.1c2.5-.3 3.5-1.6 3.5-3.1 0-1.7-1.5-2.4-3.5-3z" fill="#fff"/></g></g><g><path class="st1" d="M13.2 98.3h19.9"/><circle class="st3" cx="7.7" cy="98.3" r="7.2"/></g><g><path class="st1" d="M53 125H33.1"/><circle class="st3" cx="58.5" cy="125" r="7.2"/></g></svg>