<svg xmlns="http://www.w3.org/2000/svg" width="452.7" height="373.6"><style>.st0,.st1{fill:none;stroke:#77819c;stroke-linecap:round;stroke-linejoin:round;stroke-miterlimit:10}.st1{fill:#fff}.st3{fill:#ffb415}.st4,.st5{stroke:#77819c;stroke-miterlimit:10}.st4{stroke-linecap:round;stroke-linejoin:round;stroke-dasharray:4,4;fill:none}.st5{fill:#fff}.st6{fill:#77819c}.st13,.st16,.st7{fill:#448afa;stroke:#77819c;stroke-miterlimit:10}.st13,.st16{fill:none;stroke:#777f99}.st16{fill:#fff;stroke-linecap:round}</style><path class="st1" d="M249.6 15.3V4.1c0-2 1.6-3.6 3.6-3.6H288c2 0 3.6 1.6 3.6 3.6v44c0 2-1.6 3.6-3.6 3.6h-34.8c-2 0-3.6-1.6-3.6-3.6V29"/><path class="st0" d="M249.5 22.9c-.3 0-.6-.1-.8-.3-.2-.2-.3-.5-.3-.8 0-.3.1-.6.3-.8.2-.2.5-.3.8-.3.3 0 .6.1.8.3.2.2.3.5.3.8 0 .3-.1.6-.3.8-.1.2-.4.3-.8.3zM256.6 58.8c-.3 0-.6-.1-.8-.3-.2-.2-.3-.5-.3-.8 0-.3.1-.6.3-.8.2-.2.5-.3.8-.3.3 0 .6.1.8.3.2.2.3.5.3.8 0 .3-.1.6-.3.8-.2.2-.5.3-.8.3zM263.6 57.8h30.3c1.8 0 3.3-1.5 3.3-3.3V10.2"/><path d="M263.2 23.1c-3.8 0-6.9-3.1-6.9-6.9 0-3.8 3.1-6.9 6.9-6.9 3.8 0 6.9 3.1 6.9 6.9 0 3.9-3.1 6.9-6.9 6.9z" fill="#448afa"/><path class="st3" d="M260.3 33.9c-.3 0-.6-.1-.8-.3l-2.3-2.3c-.5-.5-.5-1.2 0-1.7s1.2-.5 1.7 0l1.5 1.5 3.1-3.1c.5-.5 1.2-.5 1.7 0s.5 1.2 0 1.7l-4 4c-.3.1-.6.2-.9.2z"/><path class="st0" d="M270.7 30.7h13.8M275.5 9.4h8.3M275.5 15.1h8.3M275.5 20.8h8.3"/><path class="st3" d="M260.3 44.3c-.3 0-.6-.1-.8-.3l-2.3-2.3c-.5-.5-.5-1.2 0-1.7s1.2-.5 1.7 0l1.5 1.5 3.1-3.1c.5-.5 1.2-.5 1.7 0s.5 1.2 0 1.7l-4 4c-.3.1-.6.2-.9.2z"/><path class="st0" d="M270.7 41.1h13.8"/><path class="st4" d="M23.9 166.2V83.9c0-19.1 15.6-34.8 34.8-34.8h166.4M452.2 246v92.3c0 19.1-15.6 34.8-34.8 34.8H269"/><g><path class="st5" d="M48.9 311.4c0 19.1 15.6 34.8 34.8 34.8h309.2c19.1 0 34.8-15.6 34.8-34.8V135.3M427.6 110.2c0-19.1-15.6-34.8-34.8-34.8H83.6c-19.1 0-34.8 15.6-34.8 34.8v173.9"/></g><g><circle class="st6" cx="2.4" cy="193.8" r="2.4"/><circle class="st6" cx="14.1" cy="193.8" r="2.4"/><circle class="st6" cx="25.9" cy="193.8" r="2.4"/><circle class="st6" cx="2.4" cy="205.6" r="2.4"/><circle class="st6" cx="14.1" cy="205.6" r="2.4"/><circle class="st6" cx="25.9" cy="205.6" r="2.4"/><circle class="st6" cx="2.4" cy="217.5" r="2.4"/><circle class="st6" cx="14.1" cy="217.5" r="2.4"/><circle class="st6" cx="25.9" cy="217.5" r="2.4"/></g><g><path class="st5" d="M372.4 345.5s5.6-21.5 6.7-37.5c1.6-23.1 7-46.2 5.5-52.9-1.6-6.7-4.3-9-7.2-10.5l-36.2-16.5-24 .5-32.9 10.5c-8.2 2.5-11.4 9.8-11.4 9.8-16.8 34.2-15.6 66.9-14.4 82.1 1.2 15.3 7.6 14.5 7.6 14.5"/><path class="st0" d="M264.1 271.2c1.6-4.3 6.7-17.8 8.8-22.2 0 0 3.2-7.3 11.4-9.8l32.9-10.5 24-.5 19.9 9.6M266.2 345.7s-6.4.7-7.6-14.5c-.8-9.8-1.6-26.3 2.4-46.3M372.4 345.5s5.6-21.5 6.7-37.5c1.6-23.1 7-46.2 5.5-52.9-1.6-6.7-4.3-9-7.2-10.5"/><path class="st1" d="M317.2 219.8v6.4s-.6 11.9 8.7 11.9c9.3 0 15.5-5.8 15.5-10.3v-12.5s-5.1 4.6-24.2 4.5z"/><path class="st7" d="M351.2 182.9s-4.1-7.9-4.1-14c0-5.2-.3-14.7-.3-14.7s-15.6 7.2-35.1 5.3c-19.7-1.9-20.9-9.3-20.9-10.8s.8-1.9 4.7-1.9c0 0-5.6-11.1-2.5-14.2s5.1-3.7 16.3-.9c0 0-2-4.3-.4-5.9 1.7-1.7 9.5 2 10.8 3.8 0 0 29.9-.2 35 19 0 0 4.6 1.3 5.9 8.8 1.4 7.6-2.1 22.2-2.1 22.2s-2.5 7.4-6.2 13.6"/><path class="st7" d="M298.7 174.7s-6.4-10.1-3.5-19.9l7.8 1.4-4.3 18.5z"/><path class="st1" d="M351.5 182.7l1.1 15.1c0 11.5-10.4 16.8-10.4 16.8s-5.8 5.2-23 5.2c-19.1 0-20.1-25-20.1-25l-.4-12.7-.3-17.9c-.1-4.6 3.1-8.6 7.6-9.5 8.3-1.7 22.3-3.9 36.7-3.6 4 .1 7.2 3.3 7.4 7.3l1.4 24.3"/><path fill="#77819c" stroke="#77819c" stroke-linecap="round" stroke-linejoin="round" stroke-miterlimit="10" d="M311.8 345.7H201v-6.4l110.8-.1z"/><g><path class="st5" d="M359.3 326.2c-.4 1.6-1.3 3.1-2.9 3.1H322.2v16.3h50.3c3.7 0 6.6-3.3 6.9-7 4.9-60.2 7.4-67.9 5.2-84.1-1.2-8.6-9.1-10.7-9.1-10.7s-5.8-.4-7.4 14.5c-1.6 15.1-8.8 67.9-8.8 67.9z"/><path class="st0" d="M322.3 345.7v-16.3H356.5c1.6 0 2.5-1.6 2.9-3.1 0 0 7.2-52.8 8.8-67.7 1.6-14.9 7.4-14.5 7.4-14.5s8 2.1 9.1 10.7c2.2 16.2-.4 23.9-5.2 84.1-.3 3.7-3.2 7-6.9 7h-38.3"/><path class="st1" d="M310.1 345.7h12.2V332h-10.4c-6 0-9.9 4-13 7.6 0 0 11.2-.1 11.2 6.1z"/></g><g><path fill="#66dab5" stroke="#77819c" stroke-miterlimit="10" d="M291.2 339.1l-86.1.2-17.7-58.4h86.1z"/><path class="st0" d="M187.4 280.9h86.1l17.7 58.2-86.1.2-13.2-44.3"/><path class="st1" d="M240.4 299.5c.9 3-.8 5.5-3.9 5.5s-6.3-2.5-7.2-5.5c-.9-3 .8-5.5 3.9-5.5s6.3 2.4 7.2 5.5z"/></g><path class="st0" d="M279.9 304s1.3-24.7 11-44.8"/></g><g><circle cx="227.4" cy="213.7" r="25.5" fill="#ffb838"/><path d="M221.7 206.8v13.8c0 .6.7 1 1.2.7l11.8-6.9c.5-.3.5-1.1 0-1.4l-11.8-6.9c-.6-.2-1.2.1-1.2.7z" fill="#fff"/></g><g><path d="M149 336.9c-.8.3-1.6-.2-1.9-1l-12.7-37.8c-.3-.8.2-1.6 1-1.9.8-.3 1.6.2 1.9 1L150 335c.2.8-.2 1.7-1 1.9z" fill="#49d9b5" stroke="#777f99" stroke-miterlimit="10"/><path class="st13" d="M137.7 298.5s1.5-.2 1.7.1c.2.3 2.9 8.6 2.9 8.6M134.4 298.1l2.9-1.1"/><g><path d="M149.4 344c.8.3 1.6-.2 1.9-1l12.7-37.8c.3-.8-.2-1.6-1-1.9-.8-.3-1.6.2-1.9 1l-12.7 37.8c-.3.8.2 1.7 1 1.9z" fill="#ffba4d" stroke="#777f99" stroke-miterlimit="10"/><path class="st13" d="M160.6 305.6s-1.5-.2-1.7.1c-.2.3-2.9 8.6-2.9 8.6M161.1 304.3l2.8.9"/></g><path class="st5" d="M162.7 335.1c0 3.2-2.1 6.2-2.7 8.3-.2.7 0 2.8 0 2.8h-20.9s.2-2.1 0-2.8c-.5-2.1-2.7-5-2.7-8.3v-16.3h26.2v16.3z"/></g><g><path d="M91 187.1v-44.5c0-2.5 2.1-4.6 4.6-4.6h37.5c2.5 0 4.6 2.1 4.6 4.6v44.5c0 2.5-2.1 4.6-4.6 4.6H95.6c-2.5 0-4.6-2.1-4.6-4.6z" fill="none" stroke="#777f99" stroke-linecap="round" stroke-miterlimit="10"/><path class="st16" d="M91.1 179.7l14.4-16.1 24.6 28.1H95.7c-2.6 0-4.6-2.1-4.6-4.6v-7.4z"/><path class="st16" d="M137.8 184.1l-6.4-7.3-13.2 14.8h15c2.5 0 4.6-2 4.6-4.6v-2.9z"/><circle cx="126.3" cy="163.7" r="3.5" fill="#ffb838" stroke="#77819c" stroke-miterlimit="10"/></g><g><path d="M270.3 171.8l-12.2-9.4c-.6.3-1.3.6-1.9.8-2 .6-4.2.6-6.4 0-20-5.2-35.1-2-42.7 0-11 2.9-20.6-10.8-20.6-24s9.4-25.9 20.6-24c19.1 3.2 35.8 1.6 42.7 0 11.1-2.6 20.6 10.8 20.6 24 0 6.9-2.7 14.1-6.8 18.9l6.7 13.7z" fill="#f5f8ff" stroke="#77819c" stroke-linecap="round" stroke-linejoin="round" stroke-miterlimit="10"/><path class="st5" d="M204.4 142.9h52.1M204.4 149.5h16.5M226.4 149.5h11.7"/><g><path class="st6" d="M204.5 135.4l.8-1.2c.4.4.9.8 1.6.8 1 0 1.6-.7 1.6-1.7V127h1.6v6.2c0 2.1-1.3 3.1-3.1 3.1-1 0-1.8-.2-2.5-.9zM211.6 132.9c0-1.9 1.3-3.5 3.4-3.5s3.4 1.6 3.4 3.5-1.3 3.5-3.4 3.5-3.4-1.6-3.4-3.5zm5.3 0c0-1.2-.7-2.2-1.9-2.2s-1.9 1-1.9 2.2c0 1.2.7 2.2 1.9 2.2s1.9-1.1 1.9-2.2zM219.8 136.2V127h1.4v3.4c.5-.7 1.3-1.1 2.1-1.1 1.7 0 2.9 1.3 2.9 3.5s-1.2 3.5-2.9 3.5c-.8 0-1.6-.4-2.1-1.1v.9h-1.4zm3.2-1.1c1.1 0 1.9-.9 1.9-2.2 0-1.3-.7-2.2-1.9-2.2-.7 0-1.4.4-1.7.9v2.6c.3.5 1 .9 1.7.9z"/></g></g><path fill="none" stroke="#448afa" stroke-width="1.99996" stroke-miterlimit="10" d="M381.991 7.23l14.462 8.35-8.35 14.462-14.462-8.35z"/><path fill="none" stroke="#66dab5" stroke-width="2" stroke-miterlimit="10" d="M14.1 335.8l7 8-7 7 7 7-7 7 7 8"/></svg>