<svg xmlns="http://www.w3.org/2000/svg" width="436.2" height="311"><style>.st0,.st1,.st3{stroke:#77819c;stroke-linecap:round;stroke-linejoin:round}.st0{stroke-miterlimit:10;fill:#b6c2d6}.st1,.st3{fill:none}.st3{fill:#fff;stroke-miterlimit:10}.st4{fill:#66dab5}.st7{fill:none;stroke:#77819c;stroke-linecap:round;stroke-linejoin:round;stroke-miterlimit:10}.st9{fill:#f5f8ff}.st10{fill:#fff}.st13{fill:none;stroke:#6a7e9c;stroke-linecap:round;stroke-linejoin:round;stroke-miterlimit:10}</style><path class="st0" d="M315 310.5v-6.3c0-7-5.7-12.7-12.7-12.7H31.5c-7 0-12.7 5.7-12.7 12.7v6.3H315z"/><path class="st1" d="M294.2 161.3c.5-.4 1.1-.8 1.6-1.2"/><path d="M299 157.6a83.27 83.27 0 0 0 30.2-64.3c0-46.2-37.4-83.6-83.6-83.6S162 47.1 162 93.3c0 7.7 1.1 15.2 3 22.4" fill="none" stroke="#77819c" stroke-linecap="round" stroke-linejoin="round" stroke-dasharray="4.0073,4.0073"/><path class="st1" d="M165.5 117.6c.2.6.4 1.3.6 1.9"/><path class="st3" d="M82.5 162.9c.7-4.8 3.1-18.9 15.6-22l33.5-7.9 11.2-2.6 23.8 18.4L182 136l10.8-4.7 42.3 9.5c11.9 2.5 15.4 16.7 16.2 21.5"/><path class="st4" d="M148.6 124.4l27.1 18.2s-8.7 4.4-19.5 13.3c-2.2 1.8-5.6 1.1-6.8-1.5L138.9 132l4.6-7c1.2-1.6 3.6-2 5.1-.6zM202.2 126l-27.3 24.6s.3-.9 9.7 6.9c1.9 1.6 4.9 1 5.9-1.3l12.8-28.2 3.3-1.3c-1-1.7-3.1-2-4.4-.7z"/><path d="M109.6 137.8c-.3-54.3-7.6-135.6 58-135.6s58.3 82.1 58 136.4l-33.6-6.1-24.4-3.8-58 9.1z" fill="#77819c"/><path d="M193.5 114.2v18.1l-26.8 15.9-26.9-15.9v-19.2l21.8 12.2c3.8 2.1 8.3 2.1 12.1 0l19.8-11.1z" fill="#fff" stroke="#77819c" stroke-linecap="round" stroke-miterlimit="10"/><path class="st7" d="M166.6 148.5s-7.6 3.9-17.1 11.6c-1.9 1.6-4.9 1-5.9-1.3l-12.8-28.2 4.1-6.1M166.6 148.5s7.6 3.9 17.1 11.6c1.9 1.6 4.9 1 5.9-1.3l12.8-28.2-4.1-6.1"/><path class="st3" d="M208.9 64c.1 2.1 0 4.1-.2 6.2l-3 29c-.5 5.5-3.7 10.3-8.5 13l-3.8 2.1-19.9 11.1c-3.8 2.1-8.3 2.1-12.1 0l-21.8-12.2-1.7-1c-4.8-2.6-8-7.5-8.5-13l-2.6-24.5c0-33.1 40.7-16.6 61.4-37.3 4.3 8.3 19.1 16 20.7 26.6zM297.7 265.8v44.7c.4-.6-261.6 0-261.6 0V213s-.3-11.8 0-11.5v-37.3c0-8.7 7.1-15.9 15.9-15.9h229.9c8.7 0 15.9 7.1 15.9 15.9v20.3"/><circle class="st3" cx="166.5" cy="229.8" r="13.2"/><g><path class="st7" d="M187 245.4c-4.7 6.2-12.1 10.2-20.5 10.2-14.2 0-25.7-11.5-25.7-25.7s11.5-25.7 25.7-25.7c9.2 0 17.3 4.8 21.8 12.1M192.2 229.8c0 2.1-.2 4.1-.7 6.1"/></g><g><circle cx="46.9" cy="256.5" r="28.7" fill="#66dab5" stroke="#6a7e9c" stroke-linecap="round" stroke-linejoin="round" stroke-miterlimit="10"/><g id="XMLID_1_"><path class="st10" d="M46.9 270c-1.5 0-2.7-1.2-2.7-2.7v-21.8c0-1.5 1.2-2.7 2.7-2.7 1.5 0 2.7 1.2 2.7 2.7v21.8c0 1.6-1.2 2.7-2.7 2.7z" id="XMLID_3_"/><path class="st10" d="M46.9 270c-.7 0-1.4-.3-1.9-.8l-8.2-8.2c-1-1-1-2.7 0-3.8 1-1 2.7-1 3.8 0l6.3 6.3 6.3-6.3c1-1 2.7-1 3.8 0 1 1 1 2.7 0 3.8l-8.2 8.2c-.5.6-1.2.8-1.9.8z" id="XMLID_2_"/></g></g><path class="st3" d="M.5 310.5h325.2M336.2 310.5h40.3"/><g><path class="st3" d="M256.1 181.5c0-2.6 2.1-4.7 4.7-4.7H353c2.6 0 4.7 2.1 4.7 4.7v65.6c0 2.6-2.1 4.7-4.7 4.7h-92.2c-2.6 0-4.7-2.1-4.7-4.7v-45.7"/><path class="st7" d="M357.8 192v-10.6c0-2.5-2-4.5-4.5-4.5h-92.6c-2.5 0-4.5 2-4.5 4.5V192c-.1 0 101.2-.4 101.6 0z"/><path d="M357.3 191.5v-10.2c0-2.2-1.8-4-4-4h-81.5c-2.2 0-4 1.8-4 4v10.2s89.1-.4 89.5 0z" fill="#ffb415"/><g><circle cx="355.2" cy="182.9" r="22.4" fill="#448afa" stroke="#6a7e9c" stroke-linecap="round" stroke-linejoin="round" stroke-miterlimit="10"/><path class="st9" d="M363.9 177.4l-1.7-1.7c-.2-.2-.5-.3-.8-.3-.3 0-.6.1-.8.3l-8.2 8.2-3-3c-.2-.2-.5-.3-.8-.3-.3 0-.6.1-.8.3l-1.7 1.7c-.2.2-.3.5-.3.8 0 .3.1.6.3.8l3.8 3.8 1.7 1.7c.2.2.5.3.8.3s.6-.1.8-.3l1.7-1.7 9-9c.2-.2.3-.5.3-.8.1-.3-.1-.6-.3-.8zm0 0"/></g><g><path class="st13" d="M295.5 208h50.2M345.7 217.9h-12.1M327.4 217.9h-31.1M296.1 227.7h49.6M345.7 237.5h-40.5M299.6 237.5h-31.4"/><path d="M271.4 217.8c0 1.8.5 3.4 1.4 4.9 1.3.8 2.8 1.3 4.5 1.3 4.7 0 8.4-3.8 8.4-8.4 0-3-1.5-5.6-3.9-7.1-.3 0-.7-.1-1-.1-5.2-.1-9.4 4.2-9.4 9.4z" fill="#b6c2d6"/><circle class="st13" cx="277" cy="215.3" r="8.8"/></g></g><g><path class="st7" d="M347.1 60.8v5.3c0 1-.8 1.9-1.9 1.9h-49.8c-1 0-1.9-.8-1.9-1.9V32.9c0-1 .8-1.9 1.9-1.9h49.8c1 0 1.9.8 1.9 1.9V55"/><path class="st0" d="M346.3 31.3l-26 24.7-25.9-24.7"/><g><path class="st7" d="M309.2 6.8v23.1M321.1.5v11.2M321.1 18v11.3M332.1 15.8v14.1"/></g></g><path fill="none" stroke="#448afa" stroke-width="1.99996" stroke-miterlimit="10" d="M18.408 3.414l14.462 8.35-8.35 14.462-14.462-8.35z"/><path fill="none" stroke="#66dab5" stroke-width="2" stroke-miterlimit="10" d="M398.5 281l8-7 7 7 7-7 7 7 8-7"/></svg>