<svg xmlns="http://www.w3.org/2000/svg" width="72.6" height="46.5"><style>.st0{fill:none;stroke:#ffb415;stroke-width:4;stroke-linecap:round;stroke-linejoin:round;stroke-miterlimit:10}</style><path class="st0" d="M16.2 30.9h-.1c-3.8-.1-7.3-1.6-10-4.3C3.5 23.8 2 20.2 2 16.4 2 8.5 8.5 2 16.4 2c8 0 14.4 6.5 14.4 14.4 0 9.4-3 16.5-5.4 20.8-2.7 4.7-5.5 7.2-5.6 7.3M59.5 44.5c.1-.1 2.9-2.6 5.6-7.3 2.5-4.3 5.4-11.3 5.4-20.8C70.5 8.4 64 2 56.1 2c-8 0-14.4 6.5-14.4 14.4 0 3.8 1.5 7.4 4.1 10.1 2.7 2.7 6.2 4.2 10 4.3h.1"/></svg>