<svg xmlns="http://www.w3.org/2000/svg" width="519" height="502.4"><style>.st1{stroke-dasharray:4,4}.st1,.st2,.st3,.st4{fill:none;stroke:#77819c;stroke-linecap:round;stroke-linejoin:round;stroke-miterlimit:10}.st3,.st4{fill:#fff}.st4{fill:#66dab5}.st9{fill:#fff}</style><path d="M39.2 287.5c3.3 3.7 6.7 7.2 10.2 10.5 20.8 19.2 33.2 46 36.1 74.6 3.6 34.6 19.2 67.7 46.9 92.6 56.5 50.8 145.2 48.5 202.5-5.3l1.2-1.2c28.5-27.3 60.1-51.3 95-69.4 17.1-8.8 32.9-21 46.4-36.6 50.8-58.4 50.6-145.5-.5-200.3-33.3-35.6-80-50.3-125.2-44.5-33.9 4.3-67.7-5.9-91.4-29.6l-2.1-2.1c-60.2-57.6-158.2-52.4-216 12.6C-8.4 146-9.8 232 39.2 287.5z" fill="#f5f7ff"/><path class="st1" d="M211.2 448.5C119 426.6 50.5 343.9 50.5 245.1c0-115.4 93.6-209 209.2-209 43.5 0 83.8 13.3 117.3 35.9M466.1 211.4c1.8 11 2.7 22.2 2.7 33.7 0 115.4-93.6 209-209.2 209"/><path class="st2" d="M211.5 432.9s2.6 39 23.3 40.4c19.7 1.4 25.6-20.2 27.6-30.2 5-25.1 14.3-101.2 14.3-101.2"/><path class="st3" d="M180.2 337.7c-1.9-.5-3.7-1-5.6-1.5-1.8-.5-3.7-1.1-5.3-2.2-6.5-4.4-6.7-9.5-7.6-16.5-1-7.2-1.5-14.6-1.5-21.9 0-2.6 0-5.2.2-7.8-6.6 2.5-10.7 7.6-17.9 7.8h-11.6-11.6c-7.2-.2-11.2-5.3-17.9-7.8.1 2.6.2 5.2.2 7.8 0 7.3-.6 14.6-1.5 21.9-.9 6.9-1.1 12-7.6 16.5-1.6 1.1-3.4 1.7-5.3 2.2-1.9.5-3.7 1-5.6 1.5"/><path class="st4" d="M50.1 404.6v96.7h161.5v-71.6h10.7l16.6-71.9c-19.5-22.9-61.2-27.7-61.2-27.7-1.9-.5-3.7-1-5.6-1.5-.8-.2-1.6-5.5-2.4-5.8-10.4 9.1-38.9 29.7-38.9 29.7s-28.5-20.7-38.9-29.7c-.8.3-1.6 5.6-2.4 5.8-1.9.5-3.7 1.2-5.6 1.5-43.6 6.5-57.7 24.5-57.7 24.5S.8 380.1.8 448.5h49"/><path class="st3" d="M187.5 246.8c-.2-.5-.4-.9-.7-1.2-.5-.5-1.3-.6-2.1-.7-1.6-.1-3.3 0-4.9.4l1.1-10.9c4.4-30.4-22.3-50.6-50.1-50.7-27.8 0-54.5 20.3-50.1 50.7l1.1 10.9c-1.5-.3-3.1-.4-4.7-.3-.8.1-1.6.2-2.1.7-.3.3-.5.8-.7 1.2-1 2.6-1.2 5.5-.7 8.3 2.7 4 5.8 7.9 7.7 12.3.5 1.3 1.6 3.8 3.3 3.9l1 10.1c.6 3.8 2.1 7.4 4.4 10.5l22.4 22.4c.4.4.7.8 1.1 1.2 3 3.5 7.4 5.5 12.1 5.5h10.2c4.7 0 9.1-2 12.1-5.5.4-.4.7-.8 1.1-1.2l22.4-22.4c2.4-3 3.9-6.6 4.4-10.5l1-10.1h.2c1.6-.2 2.7-2.7 3.3-3.9 1.8-4.4 5-8.3 7.7-12.3.7-2.9.5-5.8-.5-8.4z"/><path class="st3" d="M181.1 196.4c-3.3-10.1-8.9-21.1-18.7-24.3-1.9-.6-4-.4-5.9-.3-5.3.5-10.9.6-15.9-1.3-4-1.5-7.5-4.3-11.4-6.1-6.8-3.2-15-3.4-22-.4-9.5 4-14.8 12.2-15.7 22.2-7.1.1-11.1 7.7-13.2 13.5-6.3 18 2.1 45.3 2.1 45.3l6.3 3c-.3-4.5 1.4-20.5 3-25.3 5.9-18.3 26.6-28.1 44.1-18.9 7.5 3.9 27.7 24.5 34.7 9.3.3-.2 5.5 10.8 5.8 11.7 2.5 7.4 3.6 15.4 3.1 23.1l5.3-3c1.1-.6 1.8-7.1 2-8.6.6-3.5.9-7.1 1-10.7.2-6.9-.6-13.9-2.2-20.6-.7-2.6-1.4-5.5-2.4-8.6z"/><path class="st2" d="M236.3 365.2l10.3-29.3s2.2-10.6-.8-20.4c-3.1-9.8-3.6-21.5 2.5-28.2l2.8-35.7s.3-9.2 6.7-9.2 5.9 9.2 5.9 9.2l-2.5 28.2M276.9 333.8l18.4-31s7.3-11.8 2.4-16.4c-4.2-3.9-10.4 15.5-20.4 17.1M261.1 301.7s9 10.4 4.6 25.6"/><path class="st2" d="M293.5 287.8s6.5-8.3 2-11.2c-3.4-2.3-8.5 3-12.6 8.9-4.1 5.8-7.9 11.6-13 12.9"/><path class="st2" d="M288.3 278.9s3.7-8.5-2.3-8.9c-6-.4-6.2 15-30.9 29.6M271.7 274.1s1.1-7.6-3.3-8.3c-4.4-.6-6.3 3.3-6.3 3.3"/><path class="st2" d="M276.9 279.7s2.8-8.8-4.9-5.4c-6.7 3-23.1 12.2-23.1 12.2"/><path class="st3" d="M148.6 282.5c0 9-7.3 16.3-16.4 16.3-9 0-16.4-7.3-16.4-16.3h32.8z"/><path class="st2" d="M5.5 449.6v52.3"/><path class="st4" d="M211.6 404.8v25.4"/><path class="st3" d="M214.8 185.4c0 5.5 4.5 10 10 10h283.7c5.5 0 10-4.5 10-10V93.1c0-5.5-4.5-10-10-10H224.8c-5.5 0-10 4.5-10 10v78.4"/><path fill="#448afa" d="M240.7 106.5h54v53.6h-54z"/><path class="st3" d="M312.6 106.5h180M312.6 136.8h110.3M312.6 121.6h115.3M439.9 121.6h40.9"/><g><path class="st3" d="M312.6 151.9h80.5M405.1 151.9h75.7"/></g><path d="M416.7 213.7H316.5c-2.8 0-5-2.3-5-5v-22.6c0-2.8 2.3-5 5-5h100.2c2.8 0 5 2.3 5 5v22.6c0 2.8-2.2 5-5 5z" fill="#ffb415" stroke="#77819c" stroke-linecap="round" stroke-linejoin="round" stroke-miterlimit="10"/><g><path d="M413 422.3c-11.2 11.2-29.5 11.2-40.7 0-11.2-11.2-11.2-29.5 0-40.7s29.5-11.2 40.7 0 11.2 29.5 0 40.7z" fill="#b6c2d6" stroke="#6a7e9c" stroke-linecap="round" stroke-linejoin="round" stroke-miterlimit="10"/><g id="XMLID_1_"><path class="st9" d="M402.2 392.4c1 1 1 2.7 0 3.8l-15.4 15.4c-1 1-2.7 1-3.8 0s-1-2.7 0-3.8l15.4-15.4c1.1-1.1 2.8-1.1 3.8 0z" id="XMLID_3_"/><path class="st9" d="M402.2 392.4c.5.5.8 1.2.8 1.9v11.6c0 1.5-1.2 2.7-2.7 2.7-1.5 0-2.7-1.2-2.7-2.7V397h-8.9c-1.5 0-2.7-1.2-2.7-2.7 0-1.5 1.2-2.7 2.7-2.7h11.6c.8 0 1.4.3 1.9.8z" id="XMLID_2_"/></g></g><g><path class="st2" d="M59.4 117.8v5.4c0 1-.9 1.9-1.9 1.9H7.7c-1 0-1.9-.9-1.9-1.9V89.8c0-1 .9-1.9 1.9-1.9h49.8c1 0 1.9.9 1.9 1.9v22.1"/><path class="st4" d="M58.6 88.2l-26.1 24.7L6.6 88.2"/><g><path class="st2" d="M21.5 63.7v23.1M33.4 57.4v11.2M33.4 74.9v11.2M44.3 72.7v14.1"/></g></g><g><path class="st2" d="M3.5 219.6h12.2M.5 199l15.2 8M15.7 232.1l-15.2 8"/></g><path fill="none" stroke="#ffb415" stroke-width="3" stroke-miterlimit="10" d="M35 12.5l10.8-9.6 2.4 14.4z"/><path fill="none" stroke="#448afa" stroke-width="3" stroke-miterlimit="10" d="M452.1 458.2l-10.9-2.8 2.8-10.8 10.9 2.7z"/><circle cx="379.2" cy="290.5" r="6.3" fill="none" stroke="#66dab5" stroke-width="3" stroke-miterlimit="10"/></svg>