<svg xmlns="http://www.w3.org/2000/svg" width="573.6" height="397.4"><style>.st0{fill:none}.st0,.st1,.st2{stroke:#777f99;stroke-miterlimit:10}.st1{stroke-linecap:round;fill:none}.st2{fill:#49d9b5}.st3{fill:#777f99}.st4{fill:#fff;stroke:#777f99;stroke-width:1.0781;stroke-miterlimit:10}.st6{fill:#fff;stroke-width:1.0407;stroke-linecap:round}.st12,.st6,.st9{stroke:#777f99;stroke-miterlimit:10}.st9{stroke-linecap:round;fill:#fff}.st12{fill:#4d82f4}.st13,.st14,.st15{fill:#49d9b5}.st14,.st15{stroke:#777f99;stroke-linecap:round;stroke-linejoin:round;stroke-miterlimit:10}.st15{fill:none}.st16{fill:#ffba4d}.st20{fill:#fff;stroke:#77819c;stroke-linecap:round;stroke-linejoin:round;stroke-miterlimit:10}.st22{fill:#448afa}.st23{fill:#ffb415;stroke:#77819c;stroke-miterlimit:10}</style><path class="st0" d="M414.4 350.4l33.9-7.2"/><path class="st1" d="M548.6 348.9l9.1 2.3s15.4 2.3 15.4 15.5v30.2M523.1 343.5l19.3 4.6"/><path class="st2" d="M448.6 340.8l3.5-6.7c.4-.8 1.3-1.2 2.2-1 1.7.4 4.1 1 4.5 1.4.5.7 26 24.8 26 24.8L466.4 373s-3.7-.4-4.6-1.1c-.8-.6-11-24.1-13.3-29.2-.2-.6-.2-1.3.1-1.9zM522.8 341.9l-3.2-6.8c-.4-.8-1.2-1.3-2.1-1.1-1.7.3-4.2.8-4.6 1.2-.6.7-27.1 23.5-27.1 23.5l17.8 14.6s3.7-.2 4.6-.8c.8-.6 12.2-23.5 14.6-28.5.3-.8.3-1.5 0-2.1z"/><path class="st0" d="M450.6 277.6l-6.3-.4s-6 .7.4 14.7c0 0 1.1 8.8 6.3 9.1M522.7 277.6l6.3-.4s6 .7-.4 14.7c0 0-.7 9.1-7.2 9.1M458.3 318.1v16.2M513.9 319.8v14.6"/><path class="st3" d="M529.3 234.9c8.2 20 7.5 42.3-5.6 58.1 0 0 1.6-12.5-4.5-16.4 0 0 14-36.3-20.7-25.4 0 0-11.3 2.1-11.5 2.1-2.7 0-10.9-1.7-10.9-1.7-34.7-10.9-20.7 25.4-20.7 25.4-6.1 4-5.1 16.4-5.1 16.4-13.1-15.9-13.2-38.1-5-58.1 0 0 7.1-20.9 42.4-20.9s41.6 20.5 41.6 20.5z"/><path class="st4" d="M545.2 373v23.7"/><path d="M524.4 264.6c.2 3 .4 6.1.4 9.2 0 36.3-17.2 65.7-38.3 65.7-21.2 0-38.3-29.4-38.3-65.7 0-4.1.2-8.1.6-11.9" fill="none" stroke="#777f99" stroke-width="1.103" stroke-linecap="round" stroke-miterlimit="10"/><g><path class="st0" d="M84.7 281.4c.2 1.6.3 3.3.3 5.1 0 6.9-1.6 12.5-3.6 12.5s-3.6-5.6-3.6-12.5 1.6-12.5 3.6-12.5"/><ellipse transform="matrix(.9997 -.02597 .02597 .9997 -7.407 4.166)" class="st0" cx="156.7" cy="287.3" rx="3.6" ry="12.5"/><path class="st6" d="M42.8 348.2c-9.9 3.3-17.7 11.2-20.8 21.4-.5 1.8-.8 3.6-.8 5.4v20.9"/><path d="M181.8 345.6c-16.4-3.1-34.5-5.9-34.5-5.9l-58 1.4s-18.1 1-40.4 5.9" fill="none" stroke="#777f99" stroke-width="1.041" stroke-linecap="round" stroke-miterlimit="10"/><path d="M91.2 338.8l11.3 24.8 15.4-13.6s-27.3-15.1-26.7-11.2z" fill="#ffba4d" stroke="#777f99" stroke-width=".976" stroke-miterlimit="10"/><path class="st9" d="M144.6 340.1l-.3-26.2s-52.2 1.9-52.2-.6v15.1M92.1 333.2v5.4"/><path d="M146.8 337.3L135.1 363l-16-13.2s28.4-16.5 27.7-12.5z" fill="#ffba4d" stroke="#777f99" stroke-width="1.014" stroke-miterlimit="10"/><path d="M155.5 257.8c.8 4.8 1.2 9.8 1.2 15 0 32.3-16.9 58.5-37.6 58.5s-37.6-26.2-37.6-58.5c0-3 .1-6 .4-8.9" fill="#fff" stroke="#777f99" stroke-width="1.194" stroke-miterlimit="10"/><path class="st4" d="M61.9 373.4v23.5"/><path class="st3" d="M157.6 281.3s3.7-1.2.4-28.2c-1-8.3-5-20-20.7-26.5 0 0 13.4-24.2-13.8-28.2-8.1-1.2-26.4-.3-29.1 14.7 0 0-1.1 9.2 4.9 13.8 0 0-20.9 14.2-19.4 45.5 0 6.7 2.3 11.9 3.5 11.4 2-.8 4.4-13.2 4.5-13.6 0 0 .7-8 24.3-7.6 15.4.2 21-9.5 21.6-18.1.6-8.5 1 8.3 6.3 14.4 4.7 5.3 17.5 22.4 17.5 22.4z"/></g><g><path class="st9" d="M244 327.6s-39.1 8.3-51.8 12M174.7 388.1v-12.7s-2.8-29.7 17.5-35.8"/><path class="st0" d="M347.7 328l48 10.8s21.3 3.9 21.3 21.4v27.9"/><path class="st12" d="M244.5 324.2l4.9-9.3c.6-1.1 1.8-1.7 3-1.4 2.3.5 5.7 1.4 6.2 2 .7 1 36 34.3 36 34.3l-25.6 19s-5.1-.5-6.3-1.5c-1.1-.9-15.3-33.4-18.4-40.5-.3-.7-.2-1.7.2-2.6zM347.3 326.6l-4.5-9.5c-.5-1.1-1.7-1.8-2.9-1.5-2.3.4-5.8 1.1-6.3 1.7-.8.9-37.6 32.6-37.6 32.6l24.6 20.2s5.1-.2 6.4-1.2c1.1-.8 16.9-32.6 20.3-39.6.4-.9.4-1.8 0-2.7z"/><path class="st0" d="M349.2 251.1l-.2 12.5 5.4-1s2.7-15.1 5.4-19.5c0 0 6.3-14.4-6.8-12.9-.2 0-3.3-3.9-3.8 20.9zM242.1 251.1l.2 12.5-5.4-1s-2.7-15.1-5.4-19.5c0 0-6.3-14.4 6.8-12.9.2 0 3.4-3.9 3.8 20.9zM255.9 287.3v27.9M334.9 288.1v27.3"/><path class="st1" d="M312.7 306.4c-5.4 2.3-11.2 3.5-17.2 3.5-29.5 0-53.4-29.9-53.4-66.8M348.9 243.1c0 25.8-11.7 48.3-28.9 59.4"/><path class="st3" d="M359.4 207.4c0 30.5-11.1 37.7-11.1 37.7-4.6-5.5-5.8-23.8-5.8-23.8-5.8-21.7-22-19.3-22-19.3l-33.1-.5c-32.8 0-37.5-13.3-37.5-13.3l-2.3 31.3c-1.4 9.3-3.5 18.8-5.1 25.4-.7 3-2.6 1.2-3.6-1.7-11.9-32.5-8.7-51-8.7-51 12.2-62.7 72.1-54.8 72.1-54.8s57.1-2.3 57.1 70z"/></g><path class="st13" d="M198.6 75.4h-94.1V57.9c0-1.5 1.2-2.7 2.7-2.7h88.6c1.5 0 2.7 1.2 2.7 2.7v17.5z"/><g><path class="st15" d="M104.5 74.8v-16c0-1.9 1.6-3.5 3.5-3.5h87c1.9 0 3.5 1.6 3.5 3.5v16.7h-6.3M180 27.9c-2.9-3.8-7.4-6.2-12.5-6.2-8.7 0-15.8 7.1-15.8 15.8 0 1.2.1 2.4.4 3.6M174.7 51.7c5.1-2.6 8.6-7.9 8.6-14.1 0-1.6-.2-3.2-.7-4.7"/><path class="st15" d="M128.9 51.5c-5.1-2.6-8.6-7.9-8.6-14.1 0-8.7 7.1-15.8 15.8-15.8 8.7 0 15.8 7.1 15.8 15.8 0 1.2.2 2.6 0 3.8M188.2 115.3h3.6V75.6h-31.6l-48.9-.2v23.3"/><path class="st15" d="M111.3 105.3v10h78.6"/><circle class="st13" cx="151.8" cy="15.4" r="3.2"/><circle class="st16" cx="164.8" cy="8.5" r="1.9"/><path class="st16" d="M144.9 55.7h13.6v59.4h-13.6z"/></g><circle class="st16" cx="244.3" cy="37.2" r="19.1"/><g><path d="M243.5 46.4c-2.7-.2-4.9-1.3-6.1-2.7l1.3-1.9c1 1.1 2.7 2.2 4.8 2.4v-6.3c-2.8-.7-5.6-1.6-5.6-4.8 0-2.7 2.4-4.6 5.6-4.9V26h1.9v2.2c2.3.2 4.1 1.1 5.4 2.5l-1.3 1.8c-1.1-1.1-2.6-1.8-4.1-2V36c2.8.7 5.9 1.7 5.9 5.2 0 2.7-1.9 4.9-5.9 5.2v2h-1.9v-2zm0-10.9v-5.1c-1.8.2-3 1.3-3 2.7 0 1.3 1.4 1.9 3 2.4zm1.9 2.9v5.8c2.4-.3 3.3-1.6 3.3-3 0-1.6-1.4-2.2-3.3-2.8z" fill="#fff"/></g><path d="M218.5 76.7v7.4s20.3 4.1 25.7-19.3c0 0 5.6 31.6-25.7 38.9v7.9L200.9 94l17.6-17.3z" fill="#fff" stroke="#777f99" stroke-linecap="round" stroke-linejoin="round" stroke-miterlimit="10"/><path d="M158.2 51.1c0-3.5-3-6.3-6.7-6.3s-6.7 2.8-6.7 6.3h13.4z" fill="#4d82f4" stroke="#777f99" stroke-linecap="round" stroke-linejoin="round" stroke-miterlimit="10"/><g><path class="st20" d="M500 36.5v69.1c0 6-4.8 10.8-10.8 10.8h-95.1c-6 0-10.8-4.8-10.8-10.8v-8.5h-19.2l19.2-19.3V13.7c0-6 4.8-10.8 10.8-10.8h79.1"/><path d="M407.8 49.4c4.4-13.5 17-23.2 31.9-23.2 0 0 2.9 0 5.2.4l1.4-6.8c-3.7-.7-6.6-.6-6.6-.6-17.9 0-33 11-38.6 28 0 0-.9 2.5-1.4 5.4l6.8 1.4c.2.1.6-2.9 1.3-4.6z" fill="#ebf1fc"/><path class="st22" d="M436 23.2c.1 1.7-1.2 3.2-2.9 3.6-11.9 2.4-21.6 11.1-25.3 22.5-.7 1.7-1.2 4.7-1.2 4.7l-6.8-1.4c.5-2.9 1.4-5.4 1.4-5.4 4.7-14.5 16.3-24.6 30.7-27.3 2.1-.4 4 1.2 4.1 3.3z"/><path class="st22" d="M439.8 22.8c0 1.8 1.4 3.3 3.2 3.5 17.7 1.7 31.4 17.2 30.3 35.6-1 16.7-14.6 30.3-31.4 31.4-19.5 1.2-35.7-14.3-35.7-33.5 0-2.5.3-5 .8-7.4.4-1.7-.6-3.5-2.3-4-1.9-.6-4 .5-4.5 2.5-.2.7-.3 1.3-.4 2-4 23 12.6 44.9 35.8 47.3 24.3 2.4 44.7-16.6 44.7-40.3 0-21.1-16.1-38.4-36.7-40.4-2-.3-3.8 1.3-3.8 3.3z"/><g><path class="st20" d="M422.8 56.1h33.9M449.8 63.4h-8.4M437.2 63.4h-14.4"/></g></g><g><path class="st23" d="M518.4 146.9l1.5 3.1c.1.3.4.4.7.5l3.4.5c.7.1 1 1 .5 1.5l-2.4 2.4c-.2.2-.3.5-.3.8l.6 3.4c.1.7-.6 1.3-1.3.9l-3-1.6c-.3-.1-.6-.1-.8 0l-3 1.6c-.6.3-1.4-.2-1.3-.9l.6-3.4c0-.3 0-.6-.3-.8l-2.4-2.4c-.5-.5-.2-1.4.5-1.5l3.4-.5c.3 0 .5-.2.7-.5l1.5-3.1c.1-.7 1-.7 1.4 0zM536.1 146.9l1.5 3.1c.1.3.4.4.7.5l3.4.5c.7.1 1 1 .5 1.5l-2.4 2.4c-.2.2-.3.5-.3.8l.6 3.4c.1.7-.6 1.3-1.3.9l-3-1.6c-.3-.1-.6-.1-.8 0l-3 1.6c-.6.3-1.4-.2-1.3-.9l.6-3.4c0-.3 0-.6-.3-.8l-2.4-2.4c-.5-.5-.2-1.4.5-1.5l3.4-.5c.3 0 .5-.2.7-.5l1.5-3.1c.1-.7 1.1-.7 1.4 0zM553.8 146.9l1.5 3.1c.1.3.4.4.7.5l3.4.5c.7.1 1 1 .5 1.5l-2.4 2.4c-.2.2-.3.5-.3.8l.6 3.4c.1.7-.6 1.3-1.3.9l-3-1.6c-.3-.1-.6-.1-.8 0l-3 1.6c-.6.3-1.4-.2-1.3-.9l.6-3.4c0-.3 0-.6-.3-.8l-2.4-2.4c-.5-.5-.2-1.4.5-1.5l3.4-.5c.3 0 .5-.2.7-.5l1.5-3.1c.1-.7 1.1-.7 1.4 0zM500.7 146.9l1.5 3.1c.1.3.4.4.7.5l3.4.5c.7.1 1 1 .5 1.5l-2.4 2.4c-.2.2-.3.5-.3.8l.6 3.4c.1.7-.6 1.3-1.3.9l-3-1.6c-.3-.1-.6-.1-.8 0l-3 1.6c-.6.3-1.4-.2-1.3-.9l.6-3.4c0-.3 0-.6-.3-.8l-2.4-2.4c-.5-.5-.2-1.4.5-1.5l3.4-.5c.3 0 .5-.2.7-.5l1.5-3.1c.1-.7 1-.7 1.4 0zM482.9 146.9l1.5 3.1c.1.3.4.4.7.5l3.4.5c.7.1 1 1 .5 1.5l-2.4 2.4c-.2.2-.3.5-.3.8l.6 3.4c.1.7-.6 1.3-1.3.9l-3-1.6c-.3-.1-.6-.1-.8 0l-3 1.6c-.6.3-1.4-.2-1.3-.9l.6-3.4c0-.3 0-.6-.3-.8l-2.4-2.4c-.5-.5-.2-1.4.5-1.5l3.4-.5c.3 0 .5-.2.7-.5l1.5-3.1c.2-.7 1.1-.7 1.4 0z"/></g><g><path class="st12" d="M50.7 181.7h-7.1c-.4 0-.7-.3-.7-.7v-13.5c0-.4.3-.7.7-.7h7.1c.4 0 .7.3.7.7V181c0 .3-.3.7-.7.7z"/><path d="M56.5 160.4c0-1.3-.2-4.7-.2-4.7s3-2 4.4 1.7c0 0 1.3 2.4-.1 6.8h8.3c1.1 0 2.1.9 2.1 2.1v.5c0 1.1-.8 2-1.8 2.1.6 0 1.1.2 1.5.6.4.4.6.9.6 1.5 0 1.2-.9 2.1-2.1 2.1H68c1.1 0 1.9.9 1.9 1.9s-.9 1.9-1.9 1.9h-1.7c.5 0 1 .2 1.4.6.4.4.6.8.6 1.4 0 1.1-.9 2-1.9 2H56.2c-3.6-.1-4.7-2.1-4.7-2.1v-10.1c-.1 0 5-3.2 5-8.3z" fill="#fff" stroke="#777f99" stroke-linecap="square" stroke-linejoin="bevel" stroke-miterlimit="10"/></g><path fill="none" stroke="#49d9b5" stroke-width="3" stroke-miterlimit="10" d="M3.1 258.5l6 7-7 7 7 8-7 7 7 7"/></svg>