<svg xmlns="http://www.w3.org/2000/svg" width="1175" height="1185.2"><path d="M252.2 93.4C306.2 41.6 506.3 80 569.1 80S769 6.1 839.1.5c60.9-4.9 105.4 22.2 177.5 168.3 72.1 146.1 129.4 403.1 151.6 502.9 22.2 99.8-14.3 130.4-46.2 155.3-183.9 143.4-268.4 260.2-368 334.7-19.8 14.8-55.5 27.7-96.1 22.2S548.8 1121 497 1080.3c-51.8-40.7-103.9-42.2-140.5-40.5-51.8 2.3-146.7 21.7-207.1-14.9-83.6-50.7-190.7-184.4-133.1-368 26.9-85.7 132.4-205.1 149.8-268.1 21.9-79.5 5.5-218.2 86.1-295.4" fill="#f5f8ff"/></svg>