<svg xmlns="http://www.w3.org/2000/svg" width="506.8" height="301"><style>.st1{fill:#fff;stroke:#77819c;stroke-miterlimit:10}.st2,.st3{stroke-linecap:round;stroke-linejoin:round}.st2{stroke:#77819c;stroke-miterlimit:10;fill:none}.st3{fill:#fff}.st3,.st4,.st5{stroke:#77819c;stroke-miterlimit:10}.st4{fill-rule:evenodd;clip-rule:evenodd;stroke-linecap:round;stroke-linejoin:round;fill:#fff}.st5{fill:#448afa}.st8{fill:#ffb838}.st10,.st12,.st8,.st9{stroke:#77819c;stroke-miterlimit:10}.st9{fill:#66dab5}.st10,.st12{stroke-linecap:round;stroke-linejoin:bevel}.st10{stroke-dasharray:4;fill:#fff}.st12{fill:none}</style><path fill="none" stroke="#66dab5" stroke-width="2" stroke-miterlimit="10" d="M469.1 275l8-7 7 7 7-7 7 7 8-7"/><circle class="st1" cx="86.1" cy="43.4" r="24.9"/><path class="st2" d="M111 43.9c-.3 13.8-11.7 24.7-25.4 24.4S60.9 56.6 61.2 42.8s11.7-24.7 25.4-24.4c12 .3 21.8 8.9 23.9 20.2"/><path class="st3" d="M89.3 47.7l.7 6.6-4.2 6.4-4-6.7.6-6.4z"/><path class="st4" d="M85.9 28.8h-1.1v.1h-.1c-2.3.1-4.4 1.3-5.8 3.1-1.4 1.8-1.6 4.1-1.4 6.3.3 5.6 3.5 12 8.5 12s8.2-6.4 8.5-12c.1-2.2-.1-4.5-1.4-6.3-1.4-1.8-3.5-3-5.8-3.1h-.1v-.1h-1.3z"/><path class="st4" d="M92 33.2c-2.8 1.9-8 3.2-6.9 2.8.5-.1.9-.5 1.2-1 .2-.3.5-.8.8-1.2 0 0-.8.9-4.4 2.2-2 .7-3.2.9-3.9 1 0 0-.1 3.5.1 4.9.3 3.1 3.3 8.9 1.5 10.1-2.5 1.6-5.8-1.4-5.3-1.5 3.8-1 1.6-13.8 2.2-16.6.4-2.2 1.6-3.9 3-5 2.2-1.8 7.1-2.2 9.7-1.1.4.1.7.2 1 .4.2.1.5.3.8.5 9 .1-.8 17.1 5.2 21.6.9.7-4.1 3.7-6 .6-1.2-2 2.7-5.5 2.9-10.5-.2.1.3-3.3-1.9-7.2z"/><path class="st5" d="M100 53.4c.9.2 1.5.9 1.5 1.8v7.6s-5.4 5.5-15.4 5.5-15.5-5.6-15.5-5.6v-7.1c0-1.2 1.2-2.1 2.1-2.3l9.3-1.4 3.9 3.3 3.8-3.2 10.3 1.4z"/><circle class="st3" cx="434.6" cy="30.4" r="29.9"/><path class="st1" d="M422.4 40.8c-.1-12-1.6-28.4 12.4-28.4 2 0 3.6.3 5 .9 7.9 3.4 7.5 15.4 7.4 25.4V41l-5.7-.9-13.6-.1-5.5.8z"/><path d="M434.8 12.4c-11.7 0-12.5 11.7-12.5 22.5 0 0 .4 4.5-3.6 6.9l3.7-.7 5.5-1.2 13.6.2 5.7.9 3.5.5c-3.1-2-3.1-4.9-3-6.4.9-9.9.1-18.4-7.8-21.8" fill="#77819c"/><path class="st3" d="M440.3 35.8l1.2 4.5-6.9 4.4L428 40l.9-4.5 4.7 2.6c.8.4 1.8.4 2.6 0l4.1-2.3z"/><path class="st3" d="M451.3 41.8c1 .2 1.8 1.1 1.8 2.2v9.8s-6.5 6.6-18.4 6.6c-11.9 0-18.6-6.7-18.6-6.7v-9.1c0-1.4 1.5-2.5 2.6-2.8l9.2-1.8 6.7 4.7 7-4.5 9.7 1.6zM442.8 23.6c.4-.1.4.9.4 1.3-.2 2.7-.3 7.9-.3 7.6-.1 1.2-.8 2.2-1.8 2.8l-.8.4-4.2 2.4c-.8.4-1.8.4-2.6 0l-4.7-2.6-.4-.2c-1-.6-1.7-1.6-1.8-2.8 0 0-.4-3.9-.3-5.2 0-1.9.4-4.4 2.6-6.9 0 0 3.5 2 7.7.9.1-.1 2.5 3.4 6.2 2.3z"/><g><path d="M459 124.5c.1-1.4.1-2.9 0-4.3l-3.4-.8c-.2-.9-.4-1.8-.7-2.6l2.5-2.4c-.3-.7-.6-1.3-1-1.9l-1.2-1.8-3.3 1c-.6-.7-1.3-1.3-1.9-1.9l.9-3.3c-1.2-.8-2.4-1.6-3.8-2.1l-2.4 2.5c-.9-.3-1.7-.5-2.6-.7l-.9-3.4c-1.4-.1-2.9-.1-4.3.1l-.8 3.4c-.9.2-1.8.4-2.6.7l-2.4-2.5c-.6.3-1.3.6-1.9 1l-1.8 1.2 1 3.3c-.7.6-1.3 1.3-1.9 1.9l-3.3-.9c-.8 1.2-1.6 2.4-2.1 3.8l2.5 2.4c-.3.9-.5 1.7-.7 2.6l-3.3.9c-.1 1.4-.1 2.9 0 4.3l3.4.8c.2.9.4 1.8.7 2.6l-2.5 2.4c.3.7.6 1.3 1 1.9l1.2 1.8 3.3-1c.6.7 1.3 1.3 1.9 1.9l-.9 3.3c1.2.8 2.4 1.6 3.8 2.1l2.4-2.5c.9.3 1.7.5 2.6.7l.9 3.4c1.4.1 2.9.1 4.3 0l.8-3.4c.9-.2 1.8-.4 2.6-.7l2.4 2.5c.6-.3 1.3-.6 1.9-1l1.8-1.2-1-3.3c.7-.6 1.3-1.3 1.9-1.9l3.3.9c.8-1.2 1.6-2.4 2.1-3.8l-2.5-2.4c.3-.9.5-1.7.7-2.6l3.3-1zm-20.1 9.6c-6.4-.1-11.5-5.4-11.4-11.8.1-6.4 5.4-11.5 11.8-11.4 6.4.1 11.5 5.4 11.4 11.8-.1 6.5-5.4 11.6-11.8 11.4z" fill="#b6c2d6" stroke="#77819c" stroke-miterlimit="10"/><path class="st2" d="M454.8 116.8l2.5-2.4c-.3-.7-.6-1.3-1-1.9l-1.2-1.8-3.3 1c-.6-.7-1.3-1.3-1.9-1.9l.9-3.3c-1.2-.8-2.4-1.6-3.8-2.1l-2.4 2.5c-.9-.3-1.7-.5-2.6-.7l-.9-3.4c-1.4-.1-2.9-.1-4.3.1l-.8 3.4c-.9.2-1.8.4-2.6.7l-2.4-2.5c-.6.3-1.3.6-1.9 1l-1.8 1.2 1 3.3c-.7.6-1.3 1.3-1.9 1.9l-3.3-.9c-.8 1.2-1.6 2.4-2.1 3.8l2.5 2.4c-.3.9-.5 1.7-.7 2.6l-3.3.9c-.1 1.4-.1 2.9 0 4.3l3.4.8c.2.9.4 1.8.7 2.6l-2.5 2.4c.3.7.6 1.3 1 1.9l1.2 1.8 3.3-1c.6.7 1.3 1.3 1.9 1.9l-.9 3.3c1.2.8 2.4 1.6 3.8 2.1l2.4-2.5c.9.3 1.7.5 2.6.7l.9 3.4c1.4.1 2.9.1 4.3 0l.8-3.4c.9-.2 1.8-.4 2.6-.7l2.4 2.5c.6-.3 1.3-.6 1.9-1l1.8-1.2-1-3.3c.7-.6 1.3-1.3 1.9-1.9l3.3.9c.8-1.2 1.6-2.4 2.1-3.8l-2.5-2.4c.3-.9.5-1.7.7-2.6l3.3-.9c.1-1.4.1-2.9 0-4.3l-3.4-.8m-28 2.8c.1-7.1 5.4-11.5 11.8-11.4 6.4.1 11.5 5.4 11.4 11.8-.1 6.4-5.4 11.5-11.8 11.4-4.7-.1-8.8-3-10.5-7.1 0 0-.9-2.4-.9-4.7z"/><path class="st8" d="M404 182.3c.2 1.4.6 2.7 1 4l-3.8 3.6c.9 2 1.9 4 3.2 5.8l5.1-1.4c.9 1.1 1.9 2 2.9 3l-1.5 5.1c.9.7 1.8 1.3 2.8 1.8 1 .6 1.9 1.1 2.9 1.5l3.7-3.8c1.3.5 2.7.9 4 1.1l1.2 5.1c2.2.3 4.4.3 6.6.1l1.3-5.1c1.4-.2 2.7-.6 4-1l3.6 3.8c2-.9 3.9-1.9 5.8-3.2l-1.4-5.1c1.1-.9 2-1.9 3-2.9l5.1 1.5c.7-.9 1.3-1.8 1.8-2.8.6-1 1.1-1.9 1.5-2.9l-3.8-3.7c.5-1.3.9-2.7 1.1-4l5.1-1.2c.3-2.2.3-4.4.1-6.6l-5.1-1.3c-.2-1.4-.6-2.7-1-4l3.8-3.6c-.9-2-2-4-3.2-5.8l-5.1 1.4c-.9-1.1-1.9-2-2.9-3l1.5-5.1c-.9-.7-1.8-1.3-2.8-1.8-1-.6-2-1.1-2.9-1.5l-3.7 3.8c-1.3-.5-2.6-.9-4-1.1l-1.2-5.1c-2.2-.3-4.4-.3-6.6-.1l-1.3 5.1c-1.4.2-2.7.6-4 1l-3.6-3.8c-2 .9-4 2-5.8 3.3l1.4 5.1c-1.1.9-2 1.9-3 2.9l-5.1-1.5c-.7.9-1.3 1.8-1.8 2.8-.6 1-1.1 1.9-1.5 2.9l3.8 3.7c-.5 1.3-.9 2.7-1.1 4l-5.1 1.2c-.3 2.2-.3 4.4-.1 6.6l5.1 1.2zm8.9-3.9c-.2-9 7-16.5 16-16.7 9-.2 16.5 7 16.7 16 .2 9-7 16.5-16 16.7-9 .2-16.5-7-16.7-16z"/><path class="st2" d="M453.4 169.7l3.8-3.6c-.9-2-2-4-3.2-5.8l-5.1 1.4c-.9-1.1-1.9-2-2.9-3l1.5-5.1c-.9-.7-1.8-1.3-2.8-1.8-1-.6-2-1.1-2.9-1.5l-3.7 3.8c-1.3-.5-2.6-.9-4-1.1l-1.2-5.1c-2.2-.3-4.4-.3-6.6-.1l-1.3 5.1c-1.4.2-2.7.6-4 1l-3.6-3.8c-2 .9-4 2-5.8 3.3l1.4 5.1c-1.1.9-2 1.9-3 2.9l-5.1-1.5c-.7.9-1.3 1.8-1.8 2.8-.6 1-1.1 1.9-1.5 2.9l3.8 3.7c-.5 1.3-.9 2.7-1.1 4l-5.1 1.2c-.3 2.2-.3 4.4-.1 6.6l5.1 1.3c.2 1.4.6 2.7 1 4l-3.8 3.6c.9 2 1.9 4 3.2 5.8l5.1-1.4c.9 1.1 1.9 2 2.9 3l-1.5 5.1c.9.7 1.8 1.3 2.8 1.8 1 .6 1.9 1.1 2.9 1.5l3.7-3.8c1.3.5 2.7.9 4 1.1l1.2 5.1c2.2.3 4.4.3 6.6.1l1.3-5.1c1.4-.2 2.7-.6 4-1l3.6 3.8c2-.9 3.9-1.9 5.8-3.2l-1.4-5.1c1.1-.9 2-1.9 3-2.9l5.1 1.5c.7-.9 1.3-1.8 1.8-2.8.6-1 1.1-1.9 1.5-2.9l-3.8-3.7c.5-1.3.9-2.7 1.1-4l5.1-1.2c.3-2.2.3-4.4.1-6.6l-5.1-1.3m-41.5 4.6c-.2-9 7-16.5 16-16.7 9-.2 16.5 7 16.7 16 .2 9-7 16.5-16 16.7-7.3.2-13.6-4.6-15.9-11.2"/></g><g><path class="st9" d="M141.6 164.1c.4-3.7.3-7.4-.1-11.1l-8.6-2.1c-.5-2.3-1.1-4.5-1.9-6.7l6.3-6.2c-.8-1.7-1.6-3.3-2.6-4.9-.9-1.6-2-3.1-3.1-4.6l-8.5 2.5c-1.5-1.8-3.2-3.4-5-4.9l2.3-8.5c-3-2.2-6.3-4-9.7-5.4l-6.1 6.4c-2.2-.8-4.4-1.3-6.7-1.7l-2.3-8.6c-3.7-.4-7.4-.3-11.1.1l-2.1 8.6c-2.3.4-4.5 1.1-6.7 1.9l-6.2-6.3c-1.7.7-3.3 1.6-4.9 2.6-1.6.9-3.1 2-4.6 3.1l2.5 8.5c-1.8 1.5-3.4 3.2-4.9 5l-8.5-2.3c-2.2 3-4 6.3-5.4 9.6l6.4 6.1c-.8 2.2-1.3 4.4-1.7 6.7l-8.6 2.2c-.4 3.7-.3 7.4.1 11.1l8.6 2c.4 2.3 1.1 4.5 1.9 6.7l-6.3 6.2c.8 1.7 1.6 3.3 2.6 4.9 1 1.6 2 3.2 3.1 4.6l8.5-2.5c1.5 1.8 3.2 3.4 5 4.9l-2.3 8.5c3 2.2 6.3 4 9.6 5.4l6.1-6.4c2.2.8 4.4 1.3 6.7 1.7l2.2 8.6c3.7.3 7.4.3 11.1-.1l2-8.6c2.3-.4 4.5-1.1 6.7-1.9l6.2 6.3c1.7-.7 3.3-1.6 4.9-2.6 1.6-1 3.1-2 4.6-3.1l-2.5-8.5c1.8-1.5 3.4-3.2 4.9-5l8.5 2.3c2.2-3 4-6.3 5.4-9.6l-6.4-6.1c.8-2.2 1.3-4.4 1.7-6.7l8.9-2.1zm-51.4 22.4c-15.1-.3-27.1-12.9-26.8-28 .3-15.1 12.9-27.1 28-26.8 15.1.3 27.1 12.9 26.8 28-.3 15.1-12.9 27.1-28 26.8z"/><path class="st2" d="M48.6 151.9l-8.6 2.2c-.4 3.7-.3 7.4.1 11.1l8.6 2c.4 2.3 1.1 4.5 1.9 6.7l-6.3 6.2c.8 1.7 1.6 3.3 2.6 4.9 1 1.6 2 3.2 3.1 4.6l8.5-2.5c1.5 1.8 3.2 3.4 5 4.9l-2.3 8.5c3 2.2 6.3 4 9.6 5.4l6.1-6.4c2.2.8 4.4 1.3 6.7 1.7l2.2 8.6c3.7.3 7.4.3 11.1-.1l2-8.6c2.3-.4 4.5-1.1 6.7-1.9l6.2 6.3c1.7-.7 3.3-1.6 4.9-2.6 1.6-1 3.1-2 4.6-3.1l-2.5-8.5c1.8-1.5 3.4-3.2 4.9-5l8.5 2.3c2.2-3 4-6.3 5.4-9.6l-6.4-6.1c.8-2.2 1.3-4.4 1.7-6.7l8.6-2.2c.4-3.7.3-7.4-.1-11.1l-8.6-2.1c-.5-2.3-1.1-4.5-1.9-6.7l6.3-6.2c-.8-1.7-1.6-3.3-2.6-4.9-.9-1.6-2-3.1-3.1-4.6l-8.5 2.5c-1.5-1.8-3.2-3.4-5-4.9l2.3-8.5c-3-2.2-6.3-4-9.7-5.4l-6.1 6.4c-2.2-.8-4.4-1.3-6.7-1.7l-2.3-8.6c-3.7-.4-7.4-.3-11.1.1l-2.1 8.6c-2.3.4-4.5 1.1-6.7 1.9l-6.2-6.3c-1.7.7-3.3 1.6-4.9 2.6-1.6.9-3.1 2-4.6 3.1l2.5 8.5c-1.8 1.5-3.4 3.2-4.9 5l-8.5-2.3c-2.2 3-4 6.3-5.4 9.6l6.4 6.1m66.8 22.8c-3.7 11-14.3 18.9-26.6 18.7-15.1-.3-27.1-12.9-26.8-28 .3-15.1 12.9-27.1 28-26.8 15.1.3 27.1 12.9 26.8 28M65.9 101.8V93M58.8 103.8l-6.5-7M54.7 110.8l-7.5-1"/></g><path class="st3" d="M391.6 251.6h11.9c3.2 0 5.9-2.6 5.9-5.9V59.4c0-3.2-2.6-5.9-5.9-5.9H246.6M374.4 251.6H122.2c-3.2 0-5.9-2.6-5.9-5.9V59.4c0-3.2 2.6-5.9 5.9-5.9h38.1M300.3 282.8h-74.9l9.5-31.1h56z"/><g><path class="st9" d="M189 166.9h26.7v57.7H189z"/><path class="st10" d="M229.4 186h26.7v38.5h-26.7zM148.7 176h26.7v48.6h-26.7z"/><path class="st8" d="M269.7 131.1h26.7v93.4h-26.7z"/><path class="st5" d="M350.4 162.4h26.7v62.1h-26.7z"/><path class="st10" d="M310 147.5h26.7v77H310z"/><path class="st2" d="M232.3 140.6l65.1-51.8 43 32.7L377 92M149.1 139.9l39.1-35.2 32.7 29.6"/></g><g><path class="st3" d="M221.8 76.4c-5.3 4.2-12 6.7-19.3 6.6-16.5-.4-29.6-14-29.3-30.6s14-29.6 30.6-29.3 29.6 14 29.3 30.6c-.2 7.3-2.9 13.9-7.3 19"/><path class="st3" d="M187.1 66.3c-1.1.2-2.6 1.3-2.6 2.9v7.4s7.3 6.7 19.3 6.4c10.9-.2 17.9-6.6 17.9-6.6V69c0-1.3-1.3-2.5-2.6-2.8-4-.8-12-2-16.1-2-3.9.1-11.9 1.3-15.9 2.1z"/><path class="st3" d="M208.1 61.7c0 8.5-5.1 7.9-5.1 7.9-4.1 0-4.7-5.2-5.2-7.9l.9-1.9h8.7l.7 1.9z"/><path class="st3" d="M212.1 56.9c-.1.9-.8 2.8-3.6 4.7-.1.1-.3.2-.4.3-3.5 2.4-6.2 2.9-9.8-.1-.2-.2-.5-.4-.7-.6-3.1-3-3.1-4.6-3.1-5.8v-6.7-3.9s-.3-2.4 2.5-4.6c0 0 4 1.8 9.5-.7 0 0 2.2 2.6 5.1 2.8 0 0 .5 3.1.6 6.5v7.4s-.1.4-.1.7z"/><path d="M212.1 53.1c0-.2 1.3-6.8 1-9.6-.3-2.8-2.1-3-2.5-3-.4-.1-.6-.2-.6-.2s-1.5-1.6-4.8-2.1c-3.4-.5-7.7 1.7-10.1.3-1.2 1.3-.5 3.7-.5 3.7s-.9.3-1.1 1.6c-.2 1.2.9 9.3.9 9.3s.5-6.2 1.2-7.1c0 0 5.2 1 14.7-2.7 2-.7 1.4 7.4 1.8 9.8z" fill-rule="evenodd" clip-rule="evenodd" fill="#77819c"/></g><g><circle class="st1" cx="335.5" cy="60.4" r="24.9"/><path class="st2" d="M311.4 54c2.9-10.9 12.9-18.8 24.7-18.6 13.8.3 24.7 11.7 24.4 25.5-.3 13.8-11.7 24.7-25.5 24.4-13.8-.3-24.7-11.7-24.4-25.5"/><path class="st9" d="M342.4 69.9l6.5 1.5c.9.2 2 1.4 2.2 2.3v6.1s-6.1 5.5-14.9 5.5c-10.2 0-16.1-5.4-16.1-5.4v-6c.1-.9 1.2-2.2 2.1-2.4l6.5-1.5c0-.1 5.8-1.7 13.7-.1z"/><path class="st1" d="M341.3 48.1c-.8-1.1-2.7-2.3-5.8-2.2-1.8 0-5.2.6-7 1.5l.9.6c-1.4 1-2.2 2.3-2.6 3.5-.7 1.8-.5 3.9.3 5.7.6 1.3.8 2.9.8 2.9l.1-.2c.4-.9.6-2 .7-3 .1-.9.4-2.1 1.7-2.8 2-1.2 3.8-.6 5.6-.6 2.1 0 3.5-.3 4.4-.9 1.8 1.1 2.1 4.2 2.2 5.2 0 .2.1.4.2.6v1.8s.5-2.2 1.6-3.9c.3-.5.5-1 .5-1.5-.2-2-.6-6.3-3.6-6.7z"/><path class="st3" d="M339.7 67.6c0 7.1-4.3 6.6-4.3 6.6-3.5 0-3.9-4.4-4.4-6.6l.7-1.5h7.2l.8 1.5z"/><path class="st3" d="M343 63.6c-.1.8-.7 2.3-3 4-.1.1-.2.2-.3.2-2.9 2-5.2 2.5-8.2-.1-.2-.2-.4-.3-.6-.5-2.6-2.5-2.5-3.8-2.5-4.8v-5.6-1.1s-.2-2.5 2.1-4.4c0 0 3.3 2.1 7.9 0 0 0 1.9 2.2 4.2 2.4 0 0 .4.4.5 3.2v6.2s-.1.2-.1.5z"/></g><g><path class="st12" d="M137.2 282.8h-14.6M391.6 282.8H142.2"/></g><g><path class="st12" d="M180.4 300.5h249.4"/></g><path fill="none" stroke="#448afa" stroke-width="1.99996" stroke-miterlimit="10" d="M9.328 60.319l13.683 7.9-7.9 13.683-13.683-7.9z"/></svg>