<svg xmlns="http://www.w3.org/2000/svg" width="351.1" height="322.3"><style>.st1{fill:#777f99}.st3{fill:#fff;stroke:#77819c;stroke-width:.8982;stroke-linecap:round;stroke-linejoin:round;stroke-miterlimit:10}.st4{fill:#ffba4d}.st5,.st6{fill:#fff;stroke:#77819c;stroke-width:.7286;stroke-linecap:round;stroke-linejoin:round;stroke-miterlimit:10}.st6{fill:none;stroke-width:.7248}.st7{fill:#4d82f4}.st8,.st9{fill:#777f99;stroke:#77819c;stroke-miterlimit:10}.st9{fill:#66dab5;stroke-linejoin:round}.st10,.st9{stroke-linecap:round}.st10,.st11,.st16,.st18{fill:none;stroke:#77819c;stroke-miterlimit:10}.st16,.st18{stroke-width:.7248}.st18{stroke:#4d82f4;stroke-width:3}</style><path d="M101.5 209.6c-5.4-1.5-10.6-3.4-15.6-5.8-34.1-16-57.8-51-57.8-91.6 0-32.1 14.8-60.7 38-79.2 17-13.6 38.5-21.7 61.8-21.7 49.5 0 90.5 36.4 98.4 84.1" fill="none" stroke="#77819c" stroke-linecap="round" stroke-linejoin="round" stroke-miterlimit="10" stroke-dasharray="4,4"/><path class="st1" d="M77.5 157.1s14.6.3 9.5-16.9c-7.3-24.6-14-98.2 52.2-91 0 0 45.6-.2 39.3 78.5 0 0-.6 8.3-1.9 17.9 0 0-3.4 9.8 11.7 10.9 0 0 .6 11.5-14.2 17.6H88.3s-17.1-10.9-10.8-17z"/><path d="M201.9 177.6c-3.8-15.1-10.8-18.2-10.8-18.2-1.9-3.2-40.1-8.6-40.1-8.6s-35.2-.4-46.7.5c-7.3.6-28.8 5.8-28.8 5.8s-12.2 1.3-15.9 28.5" fill="#fff" stroke="#77819c" stroke-width=".992" stroke-linecap="round" stroke-linejoin="round" stroke-miterlimit="10"/><path class="st3" d="M129.7 160.9l-12.3 10.8-7.7-20.3z"/><path class="st4" d="M128.9 161l-9.5 8.3-4.8-15.1z"/><path class="st3" d="M129.6 160.8l12.2 10.8 7.8-20.3z"/><path class="st4" d="M133.9 164l7.7 6.8 6.3-16.1z"/><path class="st3" d="M109.6 134.1l.1 17.4 19.6 9.4 20.5-9.8.6-17.2s-40.8.4-40.8.2z"/><path class="st3" d="M128.6 144.3l-21.3-12.1c-2.5-1.4-4.2-3.7-5-6.5-1.4-5.4-3-17.2-1.9-29.4.1-.9.4-1.8.9-2.6 4.5-6.5 27.4-35.8 58.5-4.1 1.6 1.6 2.4 3.8 2.3 6l-1.3 28.2c-.1 1.2-.4 2.4-1.1 3.4-2.3 3.5-9 11.4-25.5 17.4-1.8.8-3.9.6-5.6-.3z"/><g><path class="st5" d="M185.9 301.7c-26-18.9-42.9-49.5-42.9-84.1M350.8 217.6c0 57.4-46.5 103.9-103.9 103.9-19.7 0-38.2-5.5-53.9-15.1M145.9 193c11-45.5 52.1-79.4 101-79.4 49.4 0 90.8 34.5 101.3 80.7"/><path class="st6" d="M169.6 287.1s3.5-10.7 11.2-13.5l33.2-7.7M280.3 266.1l33.2 7.4s9.6 2.3 11.4 12.7"/><path class="st7" d="M222.9 258.2l-4.6 5.2 11.8 26.3 3.9-.9 11.9-8.9zM266.8 291.7l13.4-25.9-2.8-5.8-25.8 22.8 11.4 9.4z"/><path class="st6" d="M214.2 263.7l3.1-5.9c.4-.7 1.4-1.3 2.1-1.1 1.5.3 3.5 1.1 3.8 1.5.5.6 23 21.9 23 21.9L230 292.2s-3.3-.3-4-.9c-.7-.6-9.8-21.4-11.8-25.9-.3-.6-.2-1.2 0-1.7zM262.9 292.5l-15.7-12.9s23.6-20.2 24.1-20.8c.3-.4 2.6-.8 4-1.1.8-.1 1.6.3 1.9 1l2.8 6.1c.3.5.3 1.2 0 1.7-2.2 4.4-12.3 24.8-13 25.3l-4.1.7zM213.2 230.3l-.3-20.9M246.6 257.7c-6.7 0-13.3-2-18.8-5.8 0 0-14.7-8.1-14.7-21.6M247.1 257.8c7.1 0 14.1-2.2 20-6.3 0 0 14-9.8 14-22v-19.8M221.5 247.5v9.7M272.1 247.7V258"/><path class="st1" d="M282 213.7s2.3-22.7 3.1-27.1c1.1-5.6-.1-22.8-20.6-33.8-10.9-5.9-24-6.6-35.3-1.6-4.6 2-8.4 4.8-8.4 8.3 0 0-2.8.4-3.6.8-6.1 3.2-13.8 12.9-10.5 25.5 3.2 12.5 6.2 29.5 6.2 29.5s2 .8 2-1c0-17.3-.6-19.3.6-20.4 1.9-1.7 8.7-11.4 5.3-21.8 0 0-3.2 7.7 46.1 8.1 0 0 11 6.1 12.7 35.2 0-.1 2.4.7 2.4-1.7z"/></g><path class="st9" d="M159.3 239.1H177l-17.7-17.6-17.7-17.6-17.7 17.6-17.7 17.6h19.1c0 3.4.8 49.5 61.8 62.8-.1 0-23.1-9.5-27.8-62.8z"/><g><path class="st10" d="M253.3 77.7c0 5.8.1 9.4.1 9.4l5.8-5.8 5.8 5.8 6.7-6.7 8.5 8.5 7.7-7.7 6.3 6.3 6.1-6.1 6.4 6.4 7.6-7.6-.2-11.4"/><path class="st11" d="M253.2 71.4C253 46.3 252.7.2 253 .5h48s13 .2 13 18"/><path class="st10" d="M263.9 21h25.3M263.9 34.7h13.4M263.7 61.9h13.4"/><path fill="none" stroke="#77819c" stroke-width="1.254" stroke-linecap="round" stroke-miterlimit="10" d="M263.8 48.2h16.8"/><path class="st10" d="M282.6 62h5.8"/><circle class="st9" cx="314.2" cy="47.3" r="21.6"/><path d="M313.3 57.5c-3-.2-5.4-1.4-6.8-3l1.5-2.1c1.1 1.2 3 2.4 5.3 2.7v-7c-3.1-.8-6.2-1.8-6.2-5.4 0-3 2.6-5.2 6.2-5.5v-2.4h2.1v2.4c2.6.2 4.6 1.2 6 2.7l-1.4 1.9c-1.2-1.3-2.9-2-4.6-2.2v6.1c3.1.8 6.5 1.9 6.5 5.8 0 3-2.1 5.4-6.5 5.8v2.2h-2.1v-2zm0-12.1v-5.7c-2 .2-3.3 1.4-3.3 3-.1 1.5 1.4 2.2 3.3 2.7zm2.1 3.3v6.4c2.6-.3 3.7-1.7 3.7-3.3-.1-1.8-1.7-2.5-3.7-3.1z" fill="#fff"/></g><g><path fill="#ffb415" stroke="#77819c" stroke-width=".983" stroke-miterlimit="10" d="M15 250.4h66.8v15.2H15z"/><path fill="#fff" stroke="#77819c" stroke-miterlimit="10" d="M19.2 265.7h58.7v43.1H19.2z"/><path class="st10" d="M68.4 245.9c1.3-1.8 2-3.9 2-6.2 0-5.9-4.8-10.7-10.7-10.7-5.9 0-10.7 4.7-10.7 10.6M59.7 250.4c2 0 3.9-.6 5.5-1.5M35 229.5c1-.3 2.1-.5 3.2-.5 5.9 0 10.7 4.7 10.7 10.6v63.3M38.2 250.4c-5.9 0-10.7-4.8-10.7-10.7 0-3.2 1.4-6.1 3.6-8.1"/></g><path class="st16" d="M213.3 210.7l-5.4-.3s-5.1.6.3 12.5c0 0 .8 7.4 5.2 7.7M280.9 210.7l5.4-.3s5.1.6-.3 12.5c0 0-.8 7.4-5.2 7.7"/><path fill="none" stroke="#ffb415" stroke-width="3" stroke-miterlimit="10" d="M2.9 24.6L13.6 15 16 29.3z"/><path class="st18" d="M111.4 312.5h7M123.9 312.5h7M121.1 302.8v7M121.1 315.3v7"/></svg>