<svg xmlns="http://www.w3.org/2000/svg" width="404.7" height="121.4"><style>.st0{fill:#77819c}.st1{fill:#fff}</style><path class="st0" d="M306 42.5c0 3.9-3.1 7.1-7.1 7.1h-10.1V100c0 3.9-3.1 6.6-7.1 6.6-3.9 0-7-2.8-7-6.6V49.7h-10.3c-3.9 0-7-3.3-7-7.1 0-3.9 3.1-7 7-7h10.3V7c0-3.9 3.1-7 7-7 4 0 7.1 3.1 7.1 7v28.6h10.1c3.9 0 7.1 3.1 7.1 6.9M316.8 19.3c-1.3-1.3-2.1-3.1-2.1-5s.9-3.7 2.1-5c1.3-1.3 3.1-2.1 5-2.1s3.7.9 5 2.1c1.3 1.3 2 3.1 2 5s-.7 3.7-2 5c-1.3 1.3-3.1 2-5 2-1.8 0-3.7-.7-5-2m-2.1 80.8V42.5c0-3.9 3.1-7 7.1-7 3.9 0 7 3.1 7 7V100c0 4-3.1 7.1-7 7.1-4 .1-7.1-3-7.1-7M337 71.4c0-19.8 16-35.8 35.7-35.8 12.9 0 24.7 6.9 31.1 17.8 2 3.4.7 7.7-2.6 9.7-3.4 1.9-7.7.7-9.7-2.6-3.9-6.7-11-10.9-18.8-10.9-11.9 0-21.7 9.7-21.7 21.7 0 11.9 9.9 21.7 21.7 21.7 7.4 0 14.3-3.7 18.3-10 2.1-3.3 6.6-4.1 9.9-2.1 3.3 2.1 4.1 6.6 2 9.9-6.6 10.3-17.8 16.4-30.1 16.4-19.8 0-35.8-16.1-35.8-35.8M126.7 42.5c0 3.9-3.1 7.1-7.1 7.1-12 0-21.7 9.7-21.7 21.7V100c0 3.9-3.1 7.1-7 7.1-4 0-7.1-3.3-7.1-7.1V71.4c0-19.8 16.1-35.8 35.8-35.8 3.9 0 7.1 3.1 7.1 6.9M68.8 107.2c-3.3.7-7.7-.9-9.4-5.1l-5.1-14.5H19.7l-6 14.5c-.7 3.3-3.4 5.1-6.8 5.1H5.3c-4.3-1.8-6-6-5.1-9.4l30.4-84.7c.9-2.7 3.4-5.1 7-5.1 3.4 0 5.8 2.4 6.7 5.1l28.8 84.7c1.6 3.4 0 7.5-4.3 9.4m-18.7-34L37.6 36.9 24.8 73.2h25.3zM225.1 98.5V42.8h-65.4v55.7l32.4 10.8zM201.2 32H184c-1.1 0-2-.9-2-2v-7.6c0-1.1.9-2 2-2h17.2c1.1 0 2 .9 2 2V30c0 1.1-.9 2-2 2M186 28h13.2v-3.6H186V28z"/><path class="st0" d="M201.2 39.4H184c-1.1 0-2-.9-2-2v-7.5c0-1.1.9-2 2-2h17.2c1.1 0 2 .9 2 2v7.5c0 1.1-.9 2-2 2m-15.2-4h13.2v-3.5H186v3.5z"/><path class="st0" d="M201.2 46.9H184c-1.1 0-2-.9-2-2v-7.5c0-1.1.9-2 2-2h17.2c1.1 0 2 .9 2 2v7.5c0 1.1-.9 2-2 2m-15.2-4h13.2v-3.5H186v3.5zM139.3 42.9h11.4v11.4h-11.4z"/><path class="st0" d="M159.7 50.6h-9.5c-1.1 0-2-.9-2-2s.9-2 2-2h9.5c1.1 0 2 .9 2 2s-.9 2-2 2M144.8 78.4c-1.1 0-2-.9-2-2V54.3c0-1.1.9-2 2-2s2 .9 2 2v22.1c0 1.1-.9 2-2 2"/><path class="st0" d="M140.5 89.1c-.5 0-1-.2-1.4-.6-3.1-3.1-3.1-8.2 0-11.4 1.5-1.5 3.5-2.4 5.7-2.4s4.2.8 5.7 2.4c1.5 1.5 2.4 3.5 2.4 5.7s-.8 4.2-2.4 5.7c-.8.8-2 .8-2.8 0-.8-.8-.8-2 0-2.8.8-.8 1.2-1.8 1.2-2.9 0-1.1-.4-2.1-1.2-2.9-.8-.8-1.8-1.2-2.9-1.2-1.1 0-2.1.4-2.9 1.2-1.6 1.6-1.6 4.1 0 5.7.8.8.8 2 0 2.8-.4.5-.9.7-1.4.7M234 42.9h11.4v11.4H234z"/><path class="st0" d="M234.5 50.6H225c-1.1 0-2-.9-2-2s.9-2 2-2h9.5c1.1 0 2 .9 2 2s-.9 2-2 2M239.9 78.4c-1.1 0-2-.9-2-2V54.3c0-1.1.9-2 2-2s2 .9 2 2v22.1c0 1.1-.9 2-2 2"/><path class="st0" d="M244.2 89.1c-.5 0-1-.2-1.4-.6-.8-.8-.8-2 0-2.8 1.6-1.6 1.6-4.1 0-5.7-.8-.8-1.8-1.2-2.9-1.2-1.1 0-2.1.4-2.9 1.2-.8.8-1.2 1.8-1.2 2.9 0 1.1.4 2.1 1.2 2.9.8.8.8 2 0 2.8-.8.8-2 .8-2.8 0-1.5-1.5-2.4-3.5-2.4-5.7s.8-4.2 2.4-5.7c1.5-1.5 3.5-2.4 5.7-2.4 2.1 0 4.2.8 5.7 2.4 3.1 3.1 3.1 8.2 0 11.4-.4.3-.9.5-1.4.5M223.2 23.9h-63.1c-.5 0-1-.4-1-1V1.6c0-.5.5-1 1-1h63.1c.5 0 1 .5 1 1v21.3c0 .6-.5 1-1 1"/><path class="st1" d="M181.1 12.3c0 3.1-2.5 5.7-5.7 5.7-3.1 0-5.7-2.5-5.7-5.7 0-3.1 2.5-5.7 5.7-5.7s5.7 2.5 5.7 5.7M213.5 12.3c0 3.1-2.5 5.7-5.7 5.7-3.1 0-5.7-2.5-5.7-5.7 0-3.1 2.5-5.7 5.7-5.7s5.7 2.5 5.7 5.7M194.5 121.4h-4c-3.2 0-5.8-2.6-5.8-5.8V98.3c0-3.2 2.6-5.8 5.8-5.8h4c3.2 0 5.8 2.6 5.8 5.8v17.3c0 3.2-2.6 5.8-5.8 5.8"/><path class="st0" d="M192.7 120.2h-.3c-2.8 0-5-2.3-5-5V99.7c0-2.8 2.3-5 5-5h.3c2.8 0 5 2.3 5 5v15.6c0 2.7-2.2 4.9-5 4.9"/><path d="M196.5 42.8l4.2 9.8c.6 1.5 2.1 2.5 3.8 2.5h20.7v32h-20.9c-1.7 0-3.3-1.1-3.9-2.7l-1.9-5.4c-.6-1.6-2.1-2.7-3.9-2.7h-3.7c-1.7 0-3.2 1-3.8 2.6l-2.4 5.7c-.6 1.5-2.1 2.6-3.8 2.6h-21.1v-32h21c1.7 0 3.1-1 3.8-2.5l4.2-9.8 7.7-.1z" fill="#66dab5"/></svg>