<svg xmlns="http://www.w3.org/2000/svg" width="394.5" height="401"><style>.st0,.st1{stroke-linecap:round;stroke-linejoin:round;stroke-miterlimit:10}.st0{stroke-dasharray:4,4;fill:none;stroke:#77819c}.st1{fill:#fff;stroke:#818181}.st2{fill:#ffb415}.st3{fill:none;stroke:#818181;stroke-linecap:round;stroke-linejoin:round;stroke-miterlimit:10}.st4{fill:#66dab5}.st10,.st11{fill:#77819c}.st11{stroke:#818181;stroke-miterlimit:10}</style><path class="st0" d="M338.9 262.8v59.1c0 12.5-10.2 22.8-22.8 22.8h-90.3M181 205.2h-59.1c-12.5 0-22.8-10.2-22.8-22.8V92.2"/><path class="st1" d="M296.7 14.5v101.1c0 4.8-3.9 8.7-8.7 8.7H61.5c-4.8 0-8.7-3.9-8.7-8.7V34.3"/><path class="st2" d="M221.6 43.9l1.9 3.9c.2.3.5.6.8.6l4.3.6c.9.1 1.3 1.3.6 1.9l-3.1 3c-.3.3-.4.6-.3 1l.7 4.2c.2.9-.8 1.6-1.6 1.2l-3.8-2c-.3-.2-.7-.2-1 0l-3.8 2c-.8.4-1.8-.3-1.6-1.2l.7-4.2c.1-.4-.1-.7-.3-1l-3.1-3c-.7-.6-.3-1.8.6-1.9l4.3-.6c.4-.1.7-.3.8-.6l1.9-3.9c.4-.8 1.6-.8 2 0zM245.5 43.9l1.9 3.9c.2.3.5.6.8.6l4.3.6c.9.1 1.3 1.3.6 1.9l-3.1 3c-.3.3-.4.6-.3 1l.7 4.2c.2.9-.8 1.6-1.6 1.2l-3.8-2c-.3-.2-.7-.2-1 0l-3.8 2c-.8.4-1.8-.3-1.6-1.2l.7-4.2c.1-.4-.1-.7-.3-1l-3.1-3c-.7-.6-.3-1.8.6-1.9l4.3-.6c.4-.1.7-.3.8-.6l1.9-3.9c.4-.8 1.6-.8 2 0zM269.5 43.9l1.9 3.9c.2.3.5.6.8.6l4.3.6c.9.1 1.3 1.3.6 1.9l-3.1 3c-.3.3-.4.6-.3 1l.7 4.2c.2.9-.8 1.6-1.6 1.2l-3.8-2c-.3-.2-.7-.2-1 0l-3.8 2c-.8.4-1.8-.3-1.6-1.2l.7-4.2c.1-.4-.1-.7-.3-1l-3.1-3c-.7-.6-.3-1.8.6-1.9l4.3-.6c.4-.1.7-.3.8-.6l1.9-3.9c.4-.8 1.5-.8 2 0zM197.7 43.9l1.9 3.9c.2.3.5.6.8.6l4.3.6c.9.1 1.3 1.3.6 1.9l-3.1 3c-.3.3-.4.6-.3 1l.7 4.2c.2.9-.8 1.6-1.6 1.2l-3.8-2c-.3-.2-.7-.2-1 0l-3.8 2c-.8.4-1.8-.3-1.6-1.2l.7-4.2c.1-.4-.1-.7-.3-1l-3.1-3c-.7-.6-.3-1.8.6-1.9l4.3-.6c.4-.1.7-.3.8-.6l1.9-3.9c.4-.8 1.6-.8 2 0zM173.8 43.9l1.9 3.9c.2.3.5.6.8.6l4.3.6c.9.1 1.3 1.3.6 1.9l-3.1 3c-.3.3-.4.6-.3 1l.7 4.2c.2.9-.8 1.6-1.6 1.2l-3.8-2c-.3-.2-.7-.2-1 0l-3.8 2c-.8.4-1.8-.3-1.6-1.2l.7-4.2c.1-.4-.1-.7-.3-1l-3.1-3c-.7-.6-.3-1.8.6-1.9l4.3-.6c.4-.1.7-.3.8-.6l1.9-3.9c.4-.8 1.6-.8 2 0z"/><path class="st3" d="M163.8 95.6h66.8M163.8 86.3h29.3M202 86.3h75.8"/><g><path class="st3" d="M277.8 77h-31M237.8 77h-74"/></g><g><circle class="st1" cx="110.6" cy="69.4" r="36.5"/><path class="st4" d="M104.7 84.6l7.5 5.1s-2.4 1.2-5.4 3.7c-.6.5-1.6.3-1.9-.4l-2.9-6.3 1.3-1.9c.3-.5 1-.6 1.4-.2zM122.1 84.6l-8.7 7.8s-.3-.4 2.7 2.1c.6.5 1.6.3 1.9-.4l4.1-9 1.5-.3c-.4-.5-1.1-.6-1.5-.2z"/><path d="M128.3 87.1c.6-.3 1-.9 1-1.6.1-17.3 2.4-41.2-18.5-41.2S92.2 70.2 92.3 87.5l9.8-2.2h17l9.2 1.8z" fill="#6a7e9c" stroke="#818181" stroke-miterlimit="10"/><path d="M129.3 87.8c.1-18.4 2.4-43.5-18.5-43.5-11.9 0-12.7 14.4-12.7 14.4 6.9-1.2 11.1 1.7 18-1.2L113.5 85" fill="#6a7e9c"/><path class="st1" d="M119 80v5.2l-8.6 5.7-8.6-5.7v-5.6l7 3.9c1.2.7 2.6.7 3.8 0L119 80z"/><path class="st3" d="M118.7 85.5c.2.1 1.6.2 1.8.2l1.1.3 10.7 2.5c3.1.7 4.4 3.8 4.9 5.8M83.9 94.4c.4-2 1.5-5.1 4.8-5.9L99.3 86l2.1-.5 1.5.8 7.5 4.7"/><path class="st3" d="M110.5 90.9s-2.4 1.2-5.4 3.7c-.6.5-1.6.3-1.9-.4l-4.1-9 1.3-1.9M110.5 90.9s2.4 1.2 5.4 3.7c.6.5 1.6.3 1.9-.4l4.1-9-1.3-1.9"/><path class="st1" d="M123.9 64c0 .7 0 1.3-.1 2l-.9 9.2c-.2 1.7-1.2 3.3-2.7 4.1l-1.2.7-6.3 3.5c-1.2.7-2.6.7-3.8 0l-7-3.9-.6-.3c-1.5-.8-2.5-2.4-2.7-4.1l-.8-7.8c0-10.6 13-5.3 19.6-11.9 1.3 2.7 6 5.1 6.5 8.5z"/></g><path d="M67.3 14.5V9.2c0-4.8 3.9-8.7 8.7-8.7h212c4.8 0 8.7 3.9 8.7 8.7v5.3H67.3z" fill="#66dab5" stroke="#818181" stroke-miterlimit="10"/><path class="st3" d="M52.8 14.5V9.2c0-4.8 3.9-8.7 8.7-8.7H288c4.8 0 8.7 3.9 8.7 8.7v5.3H52.8z"/><g><path class="st1" d="M392.6 253.8c0 4.8-3.9 8.7-8.7 8.7H157.4c-4.8 0-8.7-3.9-8.7-8.7V152.6M392.6 152.6v85.5"/><path class="st2" d="M317.6 182.1l1.9 3.9c.2.3.5.6.8.6l4.3.6c.9.1 1.3 1.3.6 1.9l-3.1 3c-.3.3-.4.6-.3 1l.7 4.2c.2.9-.8 1.6-1.6 1.2l-3.8-2c-.3-.2-.7-.2-1 0l-3.8 2c-.8.4-1.8-.3-1.6-1.2l.7-4.2c.1-.4-.1-.7-.3-1l-3.1-3c-.7-.6-.3-1.8.6-1.9l4.3-.6c.4-.1.7-.3.8-.6l1.9-3.9c.4-.9 1.6-.9 2 0zM341.5 182.1l1.9 3.9c.2.3.5.6.8.6l4.3.6c.9.1 1.3 1.3.6 1.9l-3.1 3c-.3.3-.4.6-.3 1l.7 4.2c.2.9-.8 1.6-1.6 1.2l-3.8-2c-.3-.2-.7-.2-1 0l-3.8 2c-.8.4-1.8-.3-1.6-1.2l.7-4.2c.1-.4-.1-.7-.3-1l-3.1-3c-.7-.6-.3-1.8.6-1.9l4.3-.6c.4-.1.7-.3.8-.6l1.9-3.9c.4-.9 1.6-.9 2 0z"/><path d="M365.4 182.1l1.9 3.9c.2.3.5.6.8.6l4.3.6c.9.1 1.3 1.3.6 1.9l-3.1 3c-.3.3-.4.6-.3 1l.7 4.2c.2.9-.8 1.6-1.6 1.2l-3.8-2c-.3-.2-.7-.2-1 0l-3.8 2c-.8.4-1.8-.3-1.6-1.2l.7-4.2c.1-.4-.1-.7-.3-1l-3.1-3c-.7-.6-.3-1.8.6-1.9l4.3-.6c.4-.1.7-.3.8-.6l1.9-3.9c.4-.9 1.6-.9 2 0z" fill="#e4e8ef"/><path class="st2" d="M293.6 182.1l1.9 3.9c.2.3.5.6.8.6l4.3.6c.9.1 1.3 1.3.6 1.9l-3.1 3c-.3.3-.4.6-.3 1l.7 4.2c.2.9-.8 1.6-1.6 1.2l-3.8-2c-.3-.2-.7-.2-1 0l-3.8 2c-.8.4-1.8-.3-1.6-1.2l.7-4.2c.1-.4-.1-.7-.3-1l-3.1-3c-.7-.6-.3-1.8.6-1.9l4.3-.6c.4-.1.7-.3.8-.6l1.9-3.9c.5-.9 1.6-.9 2 0zM269.7 182.1l1.9 3.9c.2.3.5.6.8.6l4.3.6c.9.1 1.3 1.3.6 1.9l-3.1 3c-.3.3-.4.6-.3 1l.7 4.2c.2.9-.8 1.6-1.6 1.2l-3.8-2c-.3-.2-.7-.2-1 0l-3.8 2c-.8.4-1.8-.3-1.6-1.2l.7-4.2c.1-.4-.1-.7-.3-1l-3.1-3c-.7-.6-.3-1.8.6-1.9l4.3-.6c.4-.1.7-.3.8-.6l1.9-3.9c.4-.9 1.6-.9 2 0z"/><path class="st3" d="M259.8 233.7h66.7M259.8 224.4H289M298 224.4h75.7M373.7 215.1h-31M333.8 215.1h-74"/><g><circle class="st1" cx="206.6" cy="207.3" r="36.5"/><path d="M208.5 237.4c-7.1-.1-12-10.4-12.4-12.2l3.2-1.3c.6 3.3 2.8 9.6 7.2 9.6 4.1 0 8.5-5.8 9.2-9.4l2.8.4s-4.9 13-10 12.9z" fill="#9fe4f5"/><path class="st3" d="M218.6 225.1c-.3 1.5-4.9 12.6-12.2 12.6-7.1 0-12-10.8-12.4-12.5l5.4-1.3c.6 3.3 2.6 9.6 7.1 9.6 4.1 0 6.1-6.1 6.8-9.7l5.3 1.3z"/><path class="st3" d="M183.3 235.3l1.7-4.4c.2-1.2 1.7-3.8 4.2-4.7l7.2-1.7 1.3-.3.9-.2c.3-.1.5-.2.7-.4l.2.1v.1c.6 3.3 2.6 9.6 7 9.6 4.1 0 6.1-6 6.7-9.6l10.9 2.4c2.2.5 4.1 3.3 4.3 4.5l1.5 4.4"/><path class="st10" d="M218.3 209.8c-.1-5.7-.8-6.6-.8-6.6-4.1-.4-7.3-4.8-7.3-4.8-7.9 4.2-13.5 0-13.5 0-4 3.9-3.6 9-3.6 9v2.1c-.1-.3-.2-.8-.3-1.4-.7-3-1.5-9.1 2.1-12.6 0 0 .2-4.8.4-6.4 0 0 2.9 1 5-.2 0 0-.5-2.2.8-4.8 0 0 2.9 3.2 6.2 3.6 3.3.3 10.6 5.2 12 13.8.9 6.4-.6 8-1 8.3z"/><path class="st1" d="M218.2 216.6c-.2 1.3-1.1 3.9-5.1 6.6-.2.1-.4.3-.6.4-4.9 3.3-8.7 4.1-13.7-.1-.3-.3-.7-.6-1-.9-4.4-4.1-4.3-6.4-4.3-8.1v-9.4-1.8s-.4-4.2 3.5-7.4c0 0 5.5 3.5 13.2 0 0 0 3.1 3.7 7.1 4 0 0 .7.7.8 5.4V215.7s.2.3.1.9z"/><path class="st3" d="M193.1 214.5c-.8.1-1.4-.1-1.8-.5-1-1-1.1-3.2-1.6-6.1-.6-4.2 2.9-3.9 2.9-3.9M219.2 203.5s3.5-.3 2.9 3.9c-.5 3-.5 5.2-1.6 6.1-.4.4-1 .6-1.8.5"/><path class="st11" d="M219.6 204.8s3.5-12.5-1.7-16.5-8.1 1.7-16.9-4M195.2 190.1s-.6 1-2.1 1.9c-1.5 1-3.2 6.6-.6 14.7 0 0 1.7-5.4 1.7-6.1s2.9-4.7 2.9-4.7l-1.9-5.8z"/><path class="st11" d="M200.3 186.3s-2.3.5-2.4-.9c-.1-1.4-.9 2.6 0 3.8.9 1.2-2.1.9-2.1.9l1.8 5s6.6 1.3 7.1.8 4.3-3.3 2.5-5.3-3.2-3.1-3.4-3.1c-.2-.1-3.5-1.2-3.5-1.2z"/></g><path d="M163.3 152.6v-5.3c0-4.8 3.9-8.7 8.7-8.7h212c4.8 0 8.7 3.9 8.7 8.7v5.3H163.3z" fill="#448afa" stroke="#818181" stroke-miterlimit="10"/><path class="st3" d="M148.7 152.6v-5.3c0-4.8 3.9-8.7 8.7-8.7h226.5c4.8 0 8.7 3.9 8.7 8.7v5.3H148.7z"/></g><g><path class="st1" d="M44.1 400.5c-4.8 0-8.7-3.9-8.7-8.7V290.7M279.3 290.7v101.1c0 4.8-3.9 8.7-8.7 8.7H62"/><path class="st2" d="M204.2 320.1l1.9 3.9c.2.3.5.6.8.6l4.3.6c.9.1 1.3 1.3.6 1.9l-3.1 3c-.3.3-.4.6-.3 1l.7 4.2c.2.9-.8 1.6-1.6 1.2l-3.8-2c-.3-.2-.7-.2-1 0l-3.8 2c-.8.4-1.8-.3-1.6-1.2l.7-4.2c.1-.4-.1-.7-.3-1l-3.1-3c-.7-.6-.3-1.8.6-1.9l4.3-.6c.4-.1.7-.3.8-.6l1.9-3.9c.4-.8 1.6-.8 2 0zM228.1 320.1l1.9 3.9c.2.3.5.6.8.6l4.3.6c.9.1 1.3 1.3.6 1.9l-3.1 3c-.3.3-.4.6-.3 1l.7 4.2c.2.9-.8 1.6-1.6 1.2l-3.8-2c-.3-.2-.7-.2-1 0l-3.8 2c-.8.4-1.8-.3-1.6-1.2l.7-4.2c.1-.4-.1-.7-.3-1l-3.1-3c-.7-.6-.3-1.8.6-1.9l4.3-.6c.4-.1.7-.3.8-.6l1.9-3.9c.4-.8 1.6-.8 2 0zM252 320.1l1.9 3.9c.2.3.5.6.8.6l4.3.6c.9.1 1.3 1.3.6 1.9l-3.1 3c-.3.3-.4.6-.3 1l.7 4.2c.2.9-.8 1.6-1.6 1.2l-3.8-2c-.3-.2-.7-.2-1 0l-3.8 2c-.8.4-1.8-.3-1.6-1.2l.7-4.2c.1-.4-.1-.7-.3-1l-3.1-3c-.7-.6-.3-1.8.6-1.9l4.3-.6c.4-.1.7-.3.8-.6l1.9-3.9c.4-.8 1.6-.8 2 0zM180.3 320.1l1.9 3.9c.2.3.5.6.8.6l4.3.6c.9.1 1.3 1.3.6 1.9l-3.1 3c-.3.3-.4.6-.3 1l.7 4.2c.2.9-.8 1.6-1.6 1.2l-3.8-2c-.3-.2-.7-.2-1 0l-3.8 2c-.8.4-1.8-.3-1.6-1.2l.7-4.2c.1-.4-.1-.7-.3-1l-3.1-3c-.7-.6-.3-1.8.6-1.9l4.3-.6c.4-.1.7-.3.8-.6l1.9-3.9c.4-.8 1.6-.8 2 0zM156.3 320.1l1.9 3.9c.2.3.5.6.8.6l4.3.6c.9.1 1.3 1.3.6 1.9l-3.1 3c-.3.3-.4.6-.3 1l.7 4.2c.2.9-.8 1.6-1.6 1.2l-3.8-2c-.3-.2-.7-.2-1 0l-3.8 2c-.8.4-1.8-.3-1.6-1.2l.7-4.2c.1-.4-.1-.7-.3-1l-3.1-3c-.7-.6-.3-1.8.6-1.9l4.3-.6c.4-.1.7-.3.8-.6l1.9-3.9c.5-.8 1.6-.8 2 0z"/><path class="st3" d="M146.4 371.8h66.7M146.4 362.5h29.3M184.6 362.5h75.8M260.4 353.1h-31.1M220.4 353.1h-74"/><g><circle class="st1" cx="93.1" cy="345.4" r="36.5"/><path class="st2" d="M94.2 367.6s-.5.3-1.3.8c-1 .6-2.2 1.3-3.9 2.7-.6.5-1.6.3-2-.4l-3.4-7.6-.3-.6 1-1.7c.3-.5 1-.6 1.5-.2l.1.1 8.3 6.9zM104.9 362.8l-.3.6-3.5 7.5c-.3.7-1.3 1-2 .4-1.7-1.4-1.6-1.7-2.7-2.3-.8-.5-1.3-.8-1.3-.8l8.1-7.3.1-.1c.4-.4 1.1-.3 1.5.2l.1 1.8z"/><path class="st1" d="M101.9 356v3.6l-8.9 8-8.9-8V356l3.4 2.5c1 .8 2.3 1.2 3.5 1.2h3.9c1.3 0 2.5-.4 3.5-1.2l3.5-2.5z"/><path class="st3" d="M65.8 369.9c.2-1.6 2.3-4.3 4.7-5l11-2.6 3.9 8.7c.3.7 1.3 1 2 .4 1.7-1.4 3.2-2.4 4.3-3.1.8-.5 1.3-.8 1.3-.8s.5.3 1.3.8c1 .6 2.6 1.7 4.3 3.1.6.5 1.6.3 2-.4l3.9-8.7 11 2.6c2.4.6 4.5 3.4 4.7 5"/><path class="st1" d="M105.9 332.2l-.5 9.9-.4 7.7v1.2c-.1 1.8-.9 3.4-2.4 4.5l-.7.5-3.4 2.5c-1 .8-2.3 1.2-3.5 1.2h-3.9c-1.3 0-2.5-.4-3.5-1.2l-3.4-2.5-.7-.5c-1.4-1.1-2.3-2.7-2.4-4.5l-.9-18.9h25.7z"/><path class="st3" d="M93.1 367.6s-.5.3-1.3.8c-1 .6-2.6 1.7-4.3 3.1-.6.5-1.6.3-2-.4l-3.9-8.7-.3-.6 1.3-2c.3-.5 1-.6 1.5-.2l.1.1 8.9 7.9zM104.9 361.7l-.3.6-3.9 8.7c-.3.7-1.3 1-2 .4-1.7-1.4-3.2-2.4-4.3-3.1-.8-.5-1.3-.8-1.3-.8l8.9-8 .1-.1c.4-.4 1.1-.3 1.5.2l1.3 2.1zM107.8 344.5l-1.1 4.4c-.1.5-.6.9-1.1.9-.2 0-.3 0-.5-.1l.4-7.7h.4c1.2 0 2.2 1.3 1.9 2.5zM78.6 344.5l1.1 4.4c.1.5.6.9 1.1.9.2 0 .3 0 .5-.1l-.4-7.7h-.4c-1.3 0-2.3 1.3-1.9 2.5z"/><path class="st10" d="M99 325.7l.9 6.5c4.2.8 4.8 7.4 4.9 9.3 0 .3.1.7.3 1l.1 3.1s.8-3.7 2.7-6.5c.5-.8.8-1.7.8-2.6-.1-4.1-1.2-14-9.7-10.8z"/><path class="st10" d="M81.2 323.9l1.5 1c-2.3 1.7-3.6 3.8-4.4 5.9-1.2 3.1-.8 6.5.5 9.6.9 2.2 1.3 4.9 1.3 4.9l.1-.3c.7-1.6 1.1-3.3 1.2-5 .1-1.5.7-3.6 2.8-4.8 3.4-2 6.5-1 9.5-1 8.2 0 10.5-3.1 10.1-6.9-.2-2-3.2-6-10.8-5.9-3 0-8.8.9-11.8 2.5z"/></g><path d="M49.9 290.7v-5.3c0-4.8 3.9-8.7 8.7-8.7h212c4.8 0 8.7 3.9 8.7 8.7v5.3H49.9z" fill="#9fe4f5" stroke="#818181" stroke-miterlimit="10"/><path class="st3" d="M35.4 290.7v-5.3c0-4.8 3.9-8.7 8.7-8.7h226.5c4.8 0 8.7 3.9 8.7 8.7v5.3H35.4z"/></g><circle cx="14.5" cy="163.5" r="13.5" fill="none" stroke="#ffb415" stroke-width="2" stroke-miterlimit="10"/><path fill="none" stroke="#448afa" stroke-width="2" stroke-miterlimit="10" d="M386 351l-15 18 22 5z"/></svg>