<svg xmlns="http://www.w3.org/2000/svg" width="551" height="498.1"><style>.st4,.st5,.st6,.st7{fill:none;stroke:#77819c;stroke-linecap:round;stroke-linejoin:round;stroke-miterlimit:10}.st5,.st6,.st7{fill:#fff}.st6,.st7{fill:#66dab5}.st7{fill:none;stroke:#fff}.st8{fill:#448afa}.st9{fill:#777f99;stroke:#77819c;stroke-linecap:round;stroke-linejoin:round;stroke-miterlimit:10}.st10{fill:#e1e7f9}.st11,.st12{fill:none;stroke:#fff;stroke-width:3;stroke-linecap:round;stroke-linejoin:round;stroke-miterlimit:10}.st12{stroke:#e1e7f9}.st13,.st14,.st16{stroke:#77819c;stroke-miterlimit:10}.st13{fill:#fff}.st14,.st16{stroke-linecap:round;stroke-linejoin:round}.st14{fill-rule:evenodd;clip-rule:evenodd;fill:#fff}.st16{fill:#77819c}.st23{fill:#3980e5}</style><path d="M49.6 279.8c3.9 3.6 7.9 6.9 12 9.9 24.2 18 40.3 44.9 46.6 74.8 7.7 36.2 27.9 69.4 60 92.7 65.5 47.4 159.2 35 213.8-28.3.4-.5.8-.9 1.2-1.4 27.1-32.1 57.9-61 92.9-84.1 17.1-11.2 32.5-25.9 45-43.9 47.3-67.5 37.3-159.6-23-211.7-39.1-33.8-90.2-44.1-137.4-33-35.4 8.4-72.3 1.3-100.1-21-.8-.7-1.6-1.3-2.5-2C187.9-22.3 84.7-5.8 30.8 69.4c-47.4 66.2-39.3 157.2 18.8 210.4z" fill="#f5f7ff"/><path fill="none" stroke="#ffb415" stroke-width="3" stroke-miterlimit="10" d="M323.4 14.2l10.7-9.6 2.4 14.4z"/><path fill="none" stroke="#448afa" stroke-width="3" stroke-miterlimit="10" d="M480.6 496.3l-10.9-2.8 2.8-10.9 10.9 2.8z"/><circle cx="61.8" cy="473.9" r="6.3" fill="none" stroke="#66dab5" stroke-width="3" stroke-miterlimit="10"/><path class="st4" d="M37.7 101.5H5.3c-.1 0-.3-.1-.3-.3V60.7c0-.1.1-.3.3-.3h62c.1 0 .3.1.3.3v15.2"/><path class="st4" d="M5.2 60.5l-.1-.1 28.7-24.7c1.5-1.3 3.7-1.3 5.2 0l28.5 24.6"/><path class="st5" d="M15.1 68.7V41.3h42v27.4"/><path class="st4" d="M41.5 80.7l4.2 3.4"/><path class="st6" d="M15.1 68.3v-27h42v27.2L36.2 84.8z"/><path class="st7" d="M22.7 50.4h6.4M32.5 50.4h17M22.7 57.8h17.2M43.2 57.8h6.3M22.7 64.8h11.8M37.3 64.8h12.2"/><path class="st4" d="M5.1 60.4L30.9 81 5.1 101.5M67.6 60.6l-26 20.1-3.4-3c-1-.9-2.5-.9-3.5 0L30.9 81"/><path class="st5" d="M499.9 309v100.7"/><path class="st4" d="M44.3 259.7V97.4c0-7.8 6.4-14.3 14.3-14.3h427.1c7.8 0 14.3 6.4 14.3 14.3v90.9M499.9 407.7c0 .7 0 1.4-.1 2.1H44.4c-.1-.7-.1-1.4-.1-2.1V277.6"/><path class="st8" d="M74.8 109.9H166v299.7H74.8z"/><g><path class="st4" d="M192.3 163.1v5.6c0 1.8 1.5 3.3 3.3 3.3h270.3c1.8 0 3.3-1.5 3.3-3.3v-55.5c0-1.8-1.5-3.3-3.3-3.3H242.7c-.1-.1-47.1 0-47.1 0-1.8 0-3.3 1.5-3.3 3.3v49.9z"/><path class="st10" d="M422.7 157.9h-21.5c-.3 0-.5-.2-.5-.5v-4.7c0-.3.2-.5.5-.5h21.5c.3 0 .5.2.5.5v4.7c0 .3-.2.5-.5.5zM454.8 157.9h-21.5c-.3 0-.5-.2-.5-.5v-4.7c0-.3.2-.5.5-.5h21.5c.3 0 .5.2.5.5v4.7c0 .3-.2.5-.5.5z"/><path class="st4" d="M260 153.4h53.2M260 146.6h23.4M290.5 146.6h60.4M350.9 139.9h-24.7M319 139.9h-59"/><path class="st10" d="M259.4 126.8h79v6h-79z"/><g><path class="st10" d="M390.6 157.9h-21.5c-.3 0-.5-.2-.5-.5v-4.7c0-.3.2-.5.5-.5h21.5c.3 0 .5.2.5.5v4.7c0 .3-.2.5-.5.5z"/></g><g><path class="st11" d="M379.8 144.9c-5 0-9-4-9-9s4-9 9-9"/><path class="st12" d="M379.8 126.9c5 0 9 4 9 9s-4 9-9 9c0 0-8.2.3-9-8.9"/></g><g><path class="st11" d="M418.3 142.1c-3.5 3.5-9.2 3.5-12.6 0-3.5-3.5-3.5-9.2 0-12.7s9.2-3.5 12.6 0c2.7 2.7 3.3 6.7 1.8 10"/><path class="st12" d="M412 126.8c4.9 0 8.9 4 8.9 9s-4 9-8.9 9c-1.7 0-3.3-.5-4.6-1.3"/></g><g><path class="st11" d="M450.4 142c-3.5 3.5-9.1 3.5-12.6 0s-3.5-9.2 0-12.7 9.1-3.5 12.6 0c2.7 2.7 3.3 6.7 1.8 10"/><path class="st12" d="M444 126.7c4.9 0 8.9 4 8.9 9s-4 9-8.9 9"/></g><g><circle class="st13" cx="225.4" cy="141.6" r="20.5"/><path class="st4" d="M245.9 142c-.2 11.3-9.6 20.3-21 20.1-11.3-.2-20.3-9.6-20.1-21 .2-11.3 9.6-20.3 21-20.1 9.9.2 18 7.3 19.7 16.7"/><path class="st5" d="M228 145.2l.6 5.5-3.4 5.2-3.3-5.5.4-5.3z"/><path class="st14" d="M225.2 129.6h-.9v.1h-.1c-1.9.1-3.6 1.1-4.8 2.6-1.1 1.5-1.3 3.4-1.2 5.2.2 4.6 2.9 9.9 7 9.9s6.7-5.3 7-9.9c.1-1.8-.1-3.7-1.2-5.2-1.1-1.5-2.9-2.5-4.8-2.6h-.1v-.1h-.9z"/><path class="st14" d="M230.2 133.3c-2.3 1.6-6.6 2.6-5.7 2.3.4-.1.7-.5 1-.8.2-.3.4-.6.6-1 0 0-.6.7-3.7 1.8-1.6.6-2.6.7-3.2.8 0 0-.1 2.9.1 4.1.3 2.5 2.7 7.3 1.2 8.3-2 1.3-4.8-1.1-4.4-1.2 3.2-.8 1.3-11.3 1.8-13.7.3-1.9 1.3-3.2 2.5-4.2 1.9-1.5 5.9-1.8 8-.9.3.1.6.2.8.3.2.1.4.3.6.4 7.4.1-.7 14.1 4.3 17.8.7.6-3.4 3.1-5 .5-1-1.6 2.2-4.5 2.4-8.7.1.1.6-2.7-1.3-5.8z"/><path class="st13" d="M236.8 149.9c.7.1 1.2.8 1.2 1.5v6.3s-4.5 4.5-12.7 4.5-12.8-4.6-12.8-4.6v-5.8c0-1 1-1.7 1.8-1.9l7.7-1.2 3.2 2.7 3.1-2.6 8.5 1.1z"/></g></g><g><path d="M192.3 279.5v4.7c0 2.3 1.9 4.2 4.2 4.2h347.7c2.3 0 4.2-1.9 4.2-4.2v-71.4c0-2.3-1.9-4.2-4.2-4.2H257.1c-.2-.2-60.6 0-60.6 0-2.3 0-4.2 1.9-4.2 4.2v66.7z" fill="#fff" stroke="#77819c" stroke-linecap="round" stroke-linejoin="round" stroke-miterlimit="10" stroke-dasharray="4,4"/><circle class="st5" cx="235.3" cy="249.4" r="26.5"/><path class="st6" d="M218.4 269.7l1.3-3.2c.1-.9 1.2-2.8 3-3.4l5.2-1.2 1-.2.7-.1c.2 0 .4-.1.5-.3l.1.1c.4 2.4 1.9 6.9 5.1 6.9 3 0 4.4-4.3 4.9-6.9l7.9 1.8c1.6.4 3 2.4 3.1 3.3l1.1 3.2s-6.5 6.2-16.5 6.2c-10-.1-17.4-6.2-17.4-6.2z"/><path class="st16" d="M243.8 251.2c-.1-4.2-.6-4.8-.6-4.8-3-.3-5.3-3.5-5.3-3.5-5.7 3.1-9.8 0-9.8 0-2.9 2.8-2.6 6.5-2.6 6.5v1.5c-.1-.2-.2-.6-.2-1-.5-2.1-1.1-6.6 1.5-9.1 0 0 .1-3.5.3-4.6 0 0 2.1.7 3.6-.1 0 0-.4-1.6.5-3.5 0 0 2.1 2.4 4.5 2.6 2.4.2 7.7 3.7 8.7 10 .8 4.5-.3 5.7-.6 6z"/><path class="st5" d="M243.7 256c-.2.9-.8 2.8-3.7 4.8-.1.1-.3.2-.4.3-3.6 2.4-6.3 3-9.9-.1-.2-.2-.5-.4-.7-.6-3.2-3-3.1-4.7-3.1-5.8v-6.8-1.3s-.3-3.1 2.5-5.4c0 0 4 2.5 9.6 0 0 0 2.3 2.7 5.2 2.9 0 0 .5.5.6 3.9v7.5s0 .3-.1.6z"/><path class="st4" d="M225.5 254.6c-.6.1-1-.1-1.3-.4-.7-.7-.8-2.3-1.1-4.5-.5-3 2.1-2.8 2.1-2.8M244.5 246.6s2.6-.2 2.1 2.8c-.3 2.1-.4 3.8-1.1 4.5-.3.3-.7.4-1.3.4"/><path class="st16" d="M244.7 247.5s2.5-9.1-1.2-12-5.9 1.2-12.2-2.9M227 236.8s-.4.7-1.5 1.4-2.3 4.8-.5 10.6c0 0 1.2-3.9 1.2-4.4 0-.5 2.1-3.4 2.1-3.4l-1.3-4.2z"/><path class="st16" d="M230.8 234.1s-1.7.4-1.7-.7-.7 1.9 0 2.8-1.5.6-1.5.6l1.3 3.6s4.8 1 5.1.6 3.1-2.4 1.8-3.9-2.3-2.2-2.5-2.3c-.2.1-2.5-.7-2.5-.7z"/><g><path class="st11" d="M483 250c-4.5 4.5-11.8 4.5-16.3 0s-4.5-11.8 0-16.3 11.8-4.5 16.3 0c3.5 3.5 4.3 8.6 2.4 12.8"/><path d="M474.9 230.4c6.4 0 11.5 5.2 11.5 11.5s-5.2 11.5-11.5 11.5c-6.4 0-11.5-5.2-11.5-11.5 0-4.9 3.1-9.1 7.4-10.8" fill="none" stroke="#ffb415" stroke-width="3" stroke-linecap="round" stroke-linejoin="round" stroke-miterlimit="10"/><path d="M488.9 270.3h-28c-.3 0-.5-.2-.5-.5v-6.3c0-.3.2-.5.5-.5h28c.3 0 .5.2.5.5v6.3c0 .3-.2.5-.5.5z" fill="#ffb415"/></g><g><path class="st11" d="M516.2 253.5c-6.4 0-11.5-5.2-11.5-11.5 0-6.4 5.2-11.5 11.5-11.5"/><path d="M516.2 230.4c6.4 0 11.5 5.2 11.5 11.5 0 6.4-5.2 11.5-11.5 11.5 0 0-10.5.3-11.6-11.4 0 0-.5-4 3.2-7.9" fill="none" stroke="#448afa" stroke-width="3" stroke-linecap="round" stroke-linejoin="round" stroke-miterlimit="10"/><path class="st8" d="M530.2 270.3h-28c-.3 0-.5-.2-.5-.5v-6.3c0-.3.2-.5.5-.5h28c.3 0 .5.2.5.5v6.3c0 .3-.2.5-.5.5z"/></g><g><path class="st4" d="M279.4 264.5h68.5M279.4 255.8h30M318.6 255.8h77.8"/><g><path class="st4" d="M396.4 247.1h-31.9M355.4 247.1h-76"/></g><path class="st10" d="M278.6 230.4h76.3v7.8h-76.3z"/></g><g><path class="st11" d="M441.8 250.1c-4.5 4.5-11.8 4.5-16.3 0s-4.5-11.8 0-16.4c4.5-4.5 11.8-4.5 16.3 0 3.5 3.5 4.3 8.6 2.4 12.9"/><path d="M433.6 230.4c6.4 0 11.5 5.2 11.5 11.6 0 6.4-5.2 11.6-11.5 11.6-6.4 0-11.5-5.2-11.5-11.6 0-3.5 1.6-6.7 4.1-8.8" fill="none" stroke="#66dab5" stroke-width="3" stroke-linecap="round" stroke-linejoin="round" stroke-miterlimit="10"/><path d="M447.6 270.3h-28c-.3 0-.5-.2-.5-.5v-6.3c0-.3.2-.5.5-.5h28c.3 0 .5.2.5.5v6.3c0 .3-.2.5-.5.5z" fill="#66dab5"/></g></g><g><path class="st4" d="M192.3 373.6v5.6c0 1.8 1.5 3.3 3.3 3.3h270.3c1.8 0 3.3-1.5 3.3-3.3v-55.5c0-1.8-1.5-3.3-3.3-3.3H242.7c-.1-.1-47.1 0-47.1 0-1.8 0-3.3 1.5-3.3 3.3v49.9z"/><path class="st10" d="M422.7 368.3h-21.5c-.3 0-.5-.2-.5-.5v-4.7c0-.3.2-.5.5-.5h21.5c.3 0 .5.2.5.5v4.7c0 .3-.2.5-.5.5zM454.8 368.3h-21.5c-.3 0-.5-.2-.5-.5v-4.7c0-.3.2-.5.5-.5h21.5c.3 0 .5.2.5.5v4.7c0 .3-.2.5-.5.5z"/><path class="st4" d="M260 363.8h53.2M260 357.1h23.4M290.5 357.1h60.4M350.9 350.3h-24.7M319 350.3h-59"/><path class="st10" d="M259.4 337.3h79v6h-79zM390.6 368.3h-21.5c-.3 0-.5-.2-.5-.5v-4.7c0-.3.2-.5.5-.5h21.5c.3 0 .5.2.5.5v4.7c0 .3-.2.5-.5.5z"/><g><path class="st11" d="M379.9 355.4c-5 0-9-4-9-9s4-9 9-9"/><path class="st12" d="M379.9 337.4c5 0 9 4 9 9s-4 9-9 9c0 0-8.2.3-9-8.9 0 0-.3-4.1 3.5-7.2"/></g><g><path class="st11" d="M418.3 352.5c-3.5 3.5-9.2 3.5-12.6 0-3.5-3.5-3.5-9.2 0-12.7s9.2-3.5 12.6 0c2.7 2.7 3.3 6.7 1.8 10"/><path class="st12" d="M411.9 337.3c4.9 0 8.9 4 8.9 9s-4 9-8.9 9c-1.7 0-3.3-.5-4.6-1.3"/></g><g><path class="st11" d="M450.3 352.5c-3.5 3.5-9.1 3.5-12.6 0s-3.5-9.2 0-12.7 9.1-3.5 12.6 0c2.7 2.7 3.3 6.7 1.8 10"/><path class="st12" d="M444 337.2c4.9 0 8.9 4 8.9 9 0 4.9-4 9-8.9 9 0 0-5.5.8-8.4-6.1"/></g><g><circle class="st13" cx="225.5" cy="352.1" r="20.6"/><path class="st4" d="M205.6 346.9c2.4-9 10.6-15.5 20.3-15.3 11.4.2 20.4 9.6 20.1 21-.2 11.4-9.6 20.4-21 20.1-11.4-.2-20.4-9.6-20.1-21"/><path class="st13" d="M231.2 360l5.4 1.3c.8.2 1.7 1.1 1.8 1.9v5s-5 4.5-12.3 4.5c-8.4 0-13.3-4.5-13.3-4.5v-5c.1-.8 1-1.8 1.8-2l5.4-1.3c-.1.1 4.7-1.2 11.2.1z"/><path class="st5" d="M229 358.1c0 5.9-3.5 5.4-3.5 5.4-2.9 0-3.3-3.6-3.6-5.4l.6-1.3h5.9l.6 1.3z"/><path class="st5" d="M231.7 354.8c-.1.6-.6 1.9-2.5 3.3-.1.1-.2.1-.3.2-2.4 1.6-4.3 2-6.7-.1-.2-.1-.3-.3-.5-.4-2.2-2-2.1-3.2-2.1-4v-4.6-.9s-.2-2.1 1.7-3.6c0 0 2.7 1.7 6.5 0 0 0 1.5 1.8 3.5 2 0 0 .3.3.4 2.7v5.1s.1.1 0 .3z"/><path class="st5" d="M231.3 342c-2.3-1.8-3.3-.2-6.6-1.7-.7-.5-1.2-1-1.2-1-.6 1.3-.7 2-.7 2-1 .6-2 .4-2 .4 0 .1 0 .3-.1.4 0 0-.3.5-1 1s-1.5 3-.3 6.9c0 .3.1.5.1.7.1.3.1.5.2.7v-1s-.2-2.5 1.7-4.4c0 0 2.7 2.1 6.5 0 0 0 1.5 2.2 3.5 2.4 0 0 .3.4.4 3.2-.1-.1 1.9-7.8-.5-9.6z"/></g></g><g><path d="M150.2 148.9H90.6c-1.7 0-3-1.4-3-3v-7.4c0-1.6 1.3-3 3-3h59.6c1.7 0 3 1.4 3 3v7.4c0 1.7-1.3 3-3 3z" fill="#fff"/><path class="st23" d="M150.2 331.4H90.6c-1.7 0-3-1.3-3-3V275c0-1.6 1.3-3 3-3h59.6c1.7 0 3 1.4 3 3v53.3c0 1.7-1.3 3.1-3 3.1zM96.2 216.2h-5.6c-1.7 0-3-1.4-3-3v-5.5c0-1.6 1.3-3 3-3h5.6c1.6 0 3 1.4 3 3v5.5c0 1.6-1.3 3-3 3zM114.2 216.2h-5.6c-1.7 0-3-1.4-3-3v-5.5c0-1.6 1.3-3 3-3h5.6c1.6 0 3 1.4 3 3v5.5c0 1.6-1.3 3-3 3zM132.2 216.2h-5.6c-1.7 0-3-1.4-3-3v-5.5c0-1.6 1.3-3 3-3h5.6c1.6 0 3 1.4 3 3v5.5c0 1.6-1.3 3-3 3zM150.2 216.2h-5.6c-1.7 0-3-1.4-3-3v-5.5c0-1.6 1.3-3 3-3h5.6c1.7 0 3 1.4 3 3v5.5c0 1.6-1.3 3-3 3z"/><path class="st5" d="M146.7 142.6c-.1.7-.4 1.3-.8 1.8-.5.5-1.1.9-1.8 1-1.7.3-3.4-.9-3.7-2.6-.3-1.7.9-3.4 2.6-3.7 1.5-.3 2.9.5 3.5 1.8M146.1 144.1l1.4 1.2"/><path class="st23" d="M87.6 168.9h65.6v4.6H87.6zM87.6 180h52.5v4.6H87.6zM87.6 236.4h52.5v4.6H87.6zM87.6 247.5H127v4.6H87.6z"/></g><path class="st5" d="M532.7 409.2l.7 2.9c0 11.8-9.6 21.4-21.4 21.4H38c-11.8 0-20.8-9.6-20.8-21.4l-.7-2.9h516.2z"/><g><path class="st4" d="M2.6 433.5h544"/></g><g><path class="st4" d="M231.5 451.2h250.2"/></g><g><path class="st4" d="M115.4 451.2h100.3"/></g></svg>