<svg xmlns="http://www.w3.org/2000/svg" width="150.8" height="143"><style>.st2{stroke-linecap:round;stroke-linejoin:round}.st2,.st5,.st7{fill:none;stroke:#66dab5;stroke-width:1.5;stroke-miterlimit:10}.st7{stroke:#fff;stroke-linecap:round;stroke-linejoin:round}</style><path d="M47.4 135.5s127.4 40.9 95.4-67.9C110.7-41.1 44.4 3.3 19.8 48.9c-24.9 46.4-27.3 67 27.6 86.6z" fill="#eafbf6"/><path d="M40.5 111.2H17.2c-4.4 0-8.1-3.6-8.1-8.1V29.6c0-4.4 3.6-8.1 8.1-8.1h23.4v89.7z" fill="#fff" stroke="#66dab5" stroke-width="1.5" stroke-linecap="round" stroke-linejoin="round" stroke-miterlimit="10"/><path class="st2" d="M100.3 111.2H16.4c-4 0-7.4-3.3-7.4-7.4v-3.1M138.5 71.3v2.6M9.1 37.6v-8.8c0-4 3.3-7.4 7.4-7.4h114.7c4 0 7.4 3.3 7.4 7.4v37"/><path d="M39.3 92.7H8.9c-4.4 0-8-3.6-8-8V45.9c0-4.4 3.6-8 8-8h30.3c4.4 0 8 3.6 8 8v38.8c.1 4.4-3.5 8-7.9 8z" fill="#fff"/><path class="st2" d="M39.7 92.7H8.1c-4 0-7.4-3.3-7.4-7.4v-40c0-4 3.3-7.4 7.4-7.4h31.6c4 0 7.4 3.3 7.4 7.4v40.1c0 4-3.3 7.3-7.4 7.3z"/><circle class="st2" cx="23.9" cy="60.1" r="7.2"/><path fill="#8ddcfc" stroke="#66dab5" stroke-width="1.5" stroke-linecap="round" stroke-linejoin="round" stroke-miterlimit="10" d="M17.3 76.7h13.1"/><circle class="st5" cx="17.6" cy="29.9" r="2.2"/><circle class="st5" cx="24.9" cy="29.9" r="2.2"/><circle class="st5" cx="32.3" cy="29.9" r="2.2"/><circle cx="127" cy="98.5" r="23" fill="#66dab5" stroke="#66dab5" stroke-width="1.5" stroke-miterlimit="10"/><path fill="#ffe1cc" stroke="#fff" stroke-width="1.5" stroke-linecap="round" stroke-linejoin="round" stroke-miterlimit="10" d="M120.6 104.8L133 92.5"/><path class="st7" d="M123.2 92.1h10.2v10.1"/><path class="st2" d="M54.1 70.3c12.9 0 13.6-20.2 25.4-19.9s19.4 10.4 28.3 1.5c11.1-11.1 16.8-12.8 23.7-10.3M53.2 86.4h13.2"/><path fill="#ffe1cc" stroke="#66dab5" stroke-width="1.5" stroke-linecap="round" stroke-linejoin="round" stroke-miterlimit="10" d="M53.2 93.8h35.3"/></svg>