<svg xmlns="http://www.w3.org/2000/svg" width="551" height="513.4"><style>.st4,.st6{stroke:#77819c}.st4{stroke-linecap:round;stroke-linejoin:round;stroke-miterlimit:10;fill:none}.st6{fill:#fff}.st12,.st16,.st17,.st18,.st6{stroke-linecap:round;stroke-linejoin:round;stroke-miterlimit:10}.st12{stroke-dasharray:4,4;fill:none;stroke:#77819c}.st16,.st17,.st18{fill:#49d9b5;stroke:#777f99}.st17,.st18{fill:none}.st18{fill:#fff}</style><path d="M501.4 299.6c-3.9 3.6-7.9 6.9-12 9.9-24.2 18-40.3 44.9-46.6 74.8-7.7 36.2-27.9 69.4-60 92.7-65.5 47.4-159.2 35-213.8-28.3-.4-.5-.8-.9-1.2-1.4-27.1-32.1-57.9-61-92.9-84.1-17.1-11.2-32.5-25.9-45-43.9-47.3-67.5-37.3-159.6 23-211.7 39.1-33.8 90.2-44.1 137.4-33 35.4 8.4 72.3 1.3 100.1-21 .8-.7 1.6-1.3 2.5-2C363.1-2.5 466.3 14 520.2 89.2c47.4 66.2 39.3 157.2-18.8 210.4z" fill="#f5f7ff"/><path fill="none" stroke="#ffb415" stroke-width="3" stroke-miterlimit="10" d="M179 12.5l10.8-9.6 2.4 14.4z"/><path fill="none" stroke="#448afa" stroke-width="3" stroke-miterlimit="10" d="M141.2 511.5l-10.9-2.8 2.8-10.8 10.9 2.8z"/><circle cx="541.8" cy="330.5" r="6.3" fill="none" stroke="#66dab5" stroke-width="3" stroke-miterlimit="10"/><circle class="st4" cx="80.5" cy="172.8" r="54.9"/><path d="M58 192.4c-.1-22.1-3-52.7 22.8-52.7 3.6 0 6.7.6 9.2 1.7 14.6 6.2 13.8 28.3 13.6 46.7v4.3l-10.4-1.6-25-.3-10.2 1.9z" fill="#fff" stroke="#77819c" stroke-miterlimit="10"/><path class="st4" d="M90 141.4c14.6 6.2 13.9 28.3 13.6 46.7v4.3l-10.4-1.6-25-.3-10.1 2c-.1-22.1-3-52.7 22.8-52.7"/><path class="st6" d="M91 182.6l2.1 8.2-12.7 8.2-12.2-8.6 1.6-8.3 8.6 4.8c1.5.8 3.3.8 4.7 0l7.9-4.3z"/><path d="M111.2 193.7c1.9.4 3.3 2.1 3.3 4v18s-11.9 12.1-33.9 12.1-34.2-12.3-34.2-12.3v-16.8c0-2.7 2.7-4.6 4.7-5.1l16.9-3.3 12.3 8.5 12.8-8.2 18.1 3.1z" fill="#b6c2d6" stroke="#77819c" stroke-linecap="round" stroke-linejoin="round" stroke-miterlimit="10"/><path class="st6" d="M97 162.9c0 .8 0 1.6-.1 2.4l-1.2 11.4c-.2 2.1-1.4 4.1-3.3 5.1l-1.5.8-7.8 4.3c-1.5.8-3.3.8-4.7 0l-8.6-4.8-.7-.4c-1.9-1-3.1-3-3.3-5.1l-1-9.6c0-13 16-6.5 24.1-14.6 1.7 3.3 7.5 6.3 8.1 10.5z"/><circle class="st4" cx="459.2" cy="406.5" r="66.2"/><path class="st4" d="M459.6 366.6c-25.9 0-27.8 25.8-27.6 49.8 0 0 .9 9.9-8 15.3l8.2-1.5 12.2-2.6 30.2.4 12.5 1.9 7.6 1.2c-6.8-4.3-6.9-10.9-6.6-14.2 1.9-22 .2-40.8-17.3-48.3"/><path class="st6" d="M471.8 418.3l2.6 9.9-15.2 9.8-14.7-10.3 2-10 10.3 5.8c1.8 1 3.9 1 5.7 0l9.3-5.2z"/><path d="M496.2 431.7c2.3.5 4 2.5 4 4.9v21.6s-14.4 14.6-40.8 14.6-41.2-14.8-41.2-14.8v-20.2c0-3.2 3.2-5.6 5.7-6.1l20.4-4 14.8 10.3 15.4-9.9 21.7 3.6z" fill="#77819c" stroke="#77819c" stroke-linecap="round" stroke-linejoin="round" stroke-miterlimit="10"/><path class="st6" d="M477.3 391.4c.9-.3 1 1.9.9 2.9-.5 6-.6 17.5-.6 16.9-.2 2.6-1.7 4.9-4 6.1l-1.8 1-9.4 5.2c-1.8 1-3.9 1-5.7 0l-10.3-5.8-.8-.5c-2.3-1.3-3.8-3.6-4-6.1 0 0-.8-8.7-.7-11.6.1-4.2.8-9.7 5.9-15.4 0 0 7.8 4.4 17.1 1.9-.1.2 5.3 8 13.4 5.4zM271.3 183c39 8.5 67.8 43.6 66.9 84.9-1 47-39.9 84.2-86.9 83.2-47-1-84.2-39.9-83.2-86.9S208 180 255 181"/><path d="M277.8 294.3l23.6 5.6c3.4.8 7.3 5 7.8 8.3v22s-22.8 21.3-54.9 21.3c-36.7 0-57.3-21.1-57.3-21.1v-21.8c.5-3.4 4.4-7.9 7.8-8.7l23.6-5.6c.1 0 20.9-5.6 49.4 0z" fill="#66dab5" stroke="#77819c" stroke-linecap="round" stroke-linejoin="round" stroke-miterlimit="10"/><path class="st6" d="M268.2 286.1c0 25.7-15.5 23.8-15.5 23.8-12.5 0-14.3-15.8-15.8-23.7l2.7-5.6h26.1l2.5 5.5z"/><path class="st6" d="M280.1 271.7c-.4 2.8-2.5 8.4-10.9 14.3l-1.2.9c-10.6 7.2-18.7 8.9-29.6-.3-.7-.6-1.4-1.2-2.1-1.9-9.4-8.9-9.2-13.9-9.2-17.4V247v-3.8s-.9-9.1 7.5-16c0 0 11.9 7.5 28.5 0 0 0 6.7 7.9 15.3 8.6 0 0 1.5 1.5 1.8 11.7v22.3s.1.8-.1 1.9z"/><path d="M280.4 253.5s.8-8.4 2.1-15.1c1.4-7-1.8-13.3-7.6-12.6-.7-16.2-32.1-2.6-36.1-1.9-10 1.8-14-4.6-14-4.6-6.4 18.3 4.4 33.4 35.6 20.1 5.9-2.4 16.6-10.4 20 14.1z" fill-rule="evenodd" clip-rule="evenodd" fill="#fff" stroke="#77819c" stroke-linecap="round" stroke-linejoin="round" stroke-miterlimit="10"/><g><path class="st4" d="M346 98.6c7.1-26.8 31.8-46.4 60.8-45.7 34 .7 60.9 28.8 60.2 62.8s-28.8 60.9-62.8 60.2-61-28.9-60.3-62.9"/><path d="M422.4 137.7l16.1 3.8c2.3.5 5 3.4 5.3 5.7v15s-14.9 13.5-36.8 13.5c-25 0-39.7-13.4-39.7-13.4v-14.9c.3-2.3 3-5.4 5.3-5.9l16.1-3.8c.1 0 14.3-3.8 33.7 0z" fill="#448afa" stroke="#77819c" stroke-linecap="round" stroke-linejoin="round" stroke-miterlimit="10"/><path class="st6" d="M415.9 132.2c0 17.5-10.5 16.2-10.5 16.2-8.5 0-9.7-10.8-10.7-16.2l1.8-3.8h17.8l1.6 3.8z"/><path class="st6" d="M424 122.4c-.3 1.9-1.7 5.7-7.4 9.8-.3.2-.6.4-.8.6-7.2 4.9-12.8 6.1-20.1-.2-.5-.4-1-.8-1.5-1.3-6.4-6.1-6.3-9.4-6.3-11.8v-13.8-2.6s-.6-6.2 5.1-10.9c0 0 8.1 5.1 19.4 0 0 0 4.6 5.4 10.5 5.8 0 0 1 1 1.2 8v15.3s0 .3-.1 1.1z"/><path class="st6" d="M422.7 84c-6.8-5.2-10-.6-19.9-5.2-2.2-1.5-3.6-3.1-3.6-3.1-1.8 3.8-2.1 6-2.1 6-3 1.7-6.1 1.3-6.1 1.3-.1.3-.1.8-.2 1.3v-.1s-.8 1.4-3 2.9c-2.2 1.4-4.6 9-.9 20.8.1.8.3 1.6.4 2.2.2.9.4 1.6.5 2V109s-.6-7.5 5.1-13.2c0 0 8.1 6.2 19.5 0 0 0 4.6 6.5 10.5 7.1 0 0 1 1.2 1.2 9.7 0-.1 5.8-23.1-1.4-28.6z"/></g><path class="st12" d="M73.3 282.1c-5-8.9-7.8-19.2-7.8-30.1 0-3.1.3-6.1.7-9M162.5 301.6c-10.2 7.4-22.7 11.8-36.3 11.7-3.2 0-6.4-.3-9.5-.8M267.7 62.8c7.4-2.6 15.3-3.9 23.6-3.9 14.6 0 28.1 4.3 39.5 11.7M225.7 161.8c-4.4-9.3-6.8-19.7-6.8-30.6 0-3.7.3-7.3.8-10.9M467.5 283c2.4 7 3.8 14.4 3.8 22.2 0 6.2-.9 12.3-2.4 18M359.2 255.4c11.9-10.7 27.7-17.3 45-17.3 2.3 0 4.6.1 6.9.3"/><g><path class="st6" d="M242.6 381.5h-24.5v-11.8c0-3.1-3.5-5-6.1-3.2l-22.2 15H76.6c-5.9 0-10.8 4.8-10.8 10.8v56.5c0 5.9 4.8 10.8 10.8 10.8h166c5.9 0 10.8-4.8 10.8-10.8v-56.5c0-5.9-4.8-10.8-10.8-10.8z"/><path class="st4" d="M122.7 401.6H83.5M129.3 401.6H235M83.5 419.5h105.7M177.8 437.4h39.3M171.3 437.4H83.5"/></g><g><circle cx="319.3" cy="315.9" r="30.1" fill="#ffb415" stroke="#77819c" stroke-linecap="round" stroke-linejoin="round" stroke-miterlimit="10"/><path d="M318 329.4c-4-.3-7.1-1.9-9.1-4.1l2.6-3.6c1.5 1.6 3.7 3.1 6.5 3.5v-7.6c-4-1-8.3-2.5-8.3-7.6 0-4 3.2-7.2 8.3-7.6v-3.6h3.1v3.6c3.2.4 5.8 1.6 7.9 3.6l-2.6 3.4c-1.5-1.5-3.4-2.4-5.3-2.8v6.8c4.1 1.1 8.5 2.6 8.5 7.8 0 4-2.6 7.5-8.5 8v3.5H318v-3.3zm0-16.7v-6.2c-2.2.3-3.6 1.5-3.6 3.2.1 1.6 1.6 2.4 3.6 3zm3.2 5.8v6.8c2.7-.4 3.8-2 3.8-3.5 0-1.8-1.7-2.6-3.8-3.3z" fill="#fff"/></g><g><path d="M257.6 85.1h-45.2v-7c0-1.5 1.2-2.7 2.7-2.7h39.7c1.5 0 2.7 1.2 2.7 2.7v7z" fill="#ac9bfa"/><path class="st17" d="M212.4 84.8v-7.7c0-.9.8-1.7 1.7-1.7h41.8c.9 0 1.7.8 1.7 1.7v8h-3M248.7 62.3c-1.4-1.8-3.6-3-6-3-4.2 0-7.6 3.4-7.6 7.6 0 .6.1 1.2.2 1.7M246.1 73.7c2.5-1.3 4.1-3.8 4.1-6.8 0-.8-.1-1.5-.3-2.3"/><path class="st17" d="M224.1 73.6c-2.5-1.3-4.1-3.8-4.1-6.8 0-4.2 3.4-7.6 7.6-7.6s7.6 3.4 7.6 7.6c0 .6.1 1.2 0 1.8"/><path class="st18" d="M252.6 104.2h1.7v-19h-15.1l-23.5-.1v11.2"/><path class="st18" d="M215.7 99.4v4.8h37.7"/><path class="st18" d="M231.8 75.6h6.5v28.5h-6.5z"/><path d="M238.2 73.4c0-1.7-1.4-3-3.2-3-1.8 0-3.2 1.4-3.2 3h6.4z" fill="#ac9bfa" stroke="#777f99" stroke-linecap="round" stroke-linejoin="round" stroke-miterlimit="10"/></g><g><path d="M83 311.8h-9.5c-.4 0-.7-.3-.7-.7v-17.8c0-.4.3-.7.7-.7H83c.4 0 .7.3.7.7v17.8c0 .4-.3.7-.7.7z" fill="#66dab5" stroke="#777f99" stroke-miterlimit="10"/><path d="M90.3 284.5c0-1.7-.3-6-.3-6s3.9-2.5 5.7 2.2c0 0 1.6 3.1-.1 8.7h10.7c1.5 0 2.7 1.2 2.7 2.7v.6c0 1.4-1 2.5-2.3 2.7h.1a2.732 2.732 0 0 1 2.7 2.7c0 1.5-1.2 2.7-2.7 2.7h-1.6c1.3 0 2.5 1.1 2.5 2.5s-1.1 2.5-2.5 2.5H103c.7 0 1.3.3 1.8.7.5.5.7 1.1.7 1.8 0 1.4-1.1 2.5-2.5 2.5H89.8c-4.7-.1-6-2.8-6-2.8v-13c-.1.1 6.5-3.9 6.5-10.5z" fill="#fff" stroke="#777f99" stroke-linecap="square" stroke-linejoin="bevel" stroke-miterlimit="10"/></g><g><path d="M451.1 259.5l8.1 7.7c1.3 1.3 1.4 3.4.1 4.8-1.3 1.3-3.4 1.4-4.8.1l-8.4-8" fill="none" stroke="#6a7e9c" stroke-linecap="round" stroke-linejoin="round" stroke-miterlimit="10"/><circle cx="436.3" cy="248.9" r="17.9" fill="#ffb415" stroke="#6a7e9c" stroke-linecap="round" stroke-linejoin="round" stroke-miterlimit="10"/><circle class="st6" cx="436.3" cy="248.9" r="12.3"/></g></svg>