<svg xmlns="http://www.w3.org/2000/svg" width="404.7" height="308.5"><style>.st1{fill:none;stroke-linecap:round;stroke-linejoin:round;stroke-dasharray:4,4}.st1,.st2,.st3,.st4{stroke:#77819c;stroke-miterlimit:10}.st2{stroke-linecap:round;stroke-linejoin:round;fill:#f3f5f7}.st3,.st4{fill:#fff}.st4{fill:none;stroke-linecap:round;stroke-linejoin:round}.st5{fill:#fff}.st12,.st5,.st7{stroke:#77819c;stroke-linecap:round;stroke-linejoin:round;stroke-miterlimit:10}.st7{fill-rule:evenodd;clip-rule:evenodd;fill:#fff}.st12{fill:#66dab5}</style><circle cx="55.4" cy="286.7" r="10" fill="none" stroke="#66dab5" stroke-width="2" stroke-miterlimit="10"/><ellipse class="st1" cx="206.9" cy="161.4" rx="182.8" ry="137.2"/><circle class="st2" cx="29.4" cy="171.8" r="28.9"/><path class="st3" d="M17.6 182.1c-.1-11.6-1.6-27.7 12-27.7 1.9 0 3.5.3 4.9.9 7.7 3.3 7.3 14.9 7.1 24.5v2.3l-5.5-.8-13.2-.2-5.3 1z"/><path class="st4" d="M34.4 155.3c7.7 3.3 7.3 14.9 7.1 24.5v2.3l-5.5-.8-13.2-.2-5.3 1.1c-.1-11.6-1.6-27.7 12-27.7"/><path class="st5" d="M34.9 177l1.1 4.3-6.7 4.3-6.4-4.5.9-4.3 4.5 2.5c.8.4 1.7.4 2.5 0l4.1-2.3z"/><path d="M45.5 182.8c1 .2 1.7 1.1 1.7 2.1v9.4s-6.3 6.4-17.8 6.4-18-6.4-18-6.4v-8.8c0-1.4 1.4-2.4 2.5-2.7l8.9-1.7 6.4 4.5 6.7-4.3 9.6 1.5z" fill="#b6c2d6" stroke="#77819c" stroke-linecap="round" stroke-linejoin="round" stroke-miterlimit="10"/><path class="st5" d="M38 166.6v1.3l-.6 6c-.1 1.1-.8 2.1-1.7 2.7l-.8.4-4.1 2.3c-.8.4-1.7.4-2.5 0l-4.5-2.5-.4-.2c-1-.5-1.6-1.6-1.7-2.7l-.5-5c0-6.8 8.4-3.4 12.7-7.7.7 1.6 3.8 3.2 4.1 5.4z"/><path class="st1" d="M187.3 189c7.4 5.8 16.9 9.1 27 8.6 22.4-1 39.7-20.1 38.7-42.5s-20.1-39.7-42.5-38.7c-19.5.9-35.1 15.4-38.2 33.9M171.9 159c.4 8.5 3.4 16.4 8.2 22.7"/><g><path class="st5" d="M207.1 164.1l-1 10.9 6.7 10.3 6.5-10.8-.8-10.5z"/><path class="st7" d="M212.7 133.4c1 0 1.9-.1 1.9-.1v.1h.2c3.7.1 7.2 2.1 9.4 5 2.2 3 2.5 6.7 2.4 10.3-.5 9.2-5.7 19.5-13.8 19.6-8.1-.1-13.3-10.4-13.8-19.6-.2-3.6.1-7.3 2.4-10.3 2.2-3 5.7-4.9 9.4-5h.2v-.1c-.1 0 .7.1 1.7.1z"/><path class="st7" d="M202.8 140.6c4.6 3.2 13 5.2 11.2 4.6-.7-.2-1.4-.9-2-1.6-.4-.5-.8-1.2-1.2-1.9 0 0 1.2 1.4 7.2 3.6 3.2 1.1 5.2 1.5 6.3 1.5 0 0 .1 5.7-.1 8.1-.5 5-5.4 14.5-2.4 16.5 4 2.7 9.5-2.2 8.7-2.5-6.2-1.6-2.7-22.4-3.5-27.1-.7-3.7-2.6-6.4-4.9-8.2-3.7-2.9-11.6-3.6-15.8-1.8-.6.2-1.2.4-1.6.6-.4.2-.8.5-1.3.9-14.7.2 1.3 27.8-8.5 35.3-1.5 1.1 6.7 6 9.8 1 1.9-3.2-4.4-9-4.8-17.2.1 0-.8-5.5 2.9-11.8z"/><path d="M189.7 173.5c-1.4.3-2.5 1.5-2.5 3v12.4s8.8 8.9 25.1 8.9 25.3-9.1 25.3-9.1v-11.5c0-2-2-3.4-3.5-3.7l-15.2-2.3-6.3 5.3-6.2-5.2-16.7 2.2z" fill="#77819c" stroke="#77819c" stroke-linecap="round" stroke-linejoin="round" stroke-miterlimit="10"/></g><g><circle class="st5" cx="133" cy="275.4" r="32.5"/><path class="st3" d="M119.7 286.7c-.1-13.1-1.8-30.8 13.5-30.8 2.1 0 3.9.4 5.5 1 8.6 3.7 8.2 16.7 8 27.6v2.5l-6.1-.9-14.8-.2-6.1.8z"/><path class="st4" d="M133.2 255.9c-12.7 0-13.6 12.7-13.5 24.4 0 0 .4 4.9-3.9 7.5l4-.7 6-1.3 14.8.2 6.1.9 3.7.6c-3.3-2.1-3.4-5.3-3.2-7 1-10.8.1-20-8.5-23.7"/><path class="st5" d="M139.2 281.2l1.3 4.9-7.5 4.8-7.2-5.1 1-4.9 5.1 2.8c.9.5 1.9.5 2.8 0l4.5-2.5z"/><path d="M151.2 287.8c1.1.2 2 1.2 2 2.4v10.6s-7 7.1-20 7.1-20.2-7.3-20.2-7.3v-9.9c0-1.6 1.6-2.7 2.8-3l10-2 7.2 5.1 7.6-4.9 10.6 1.9z" fill="#ffb415" stroke="#77819c" stroke-linecap="round" stroke-linejoin="round" stroke-miterlimit="10"/><path class="st5" d="M141.9 268.1c.5-.1.5 1 .4 1.4-.2 3-.3 8.6-.3 8.3-.1 1.3-.8 2.4-2 3l-.9.5-4.6 2.6c-.9.5-1.9.5-2.8 0l-5.1-2.8-.4-.2c-1.1-.6-1.9-1.7-2-3 0 0-.4-4.2-.4-5.7 0-2 .4-4.8 2.9-7.5 0 0 3.8 2.1 8.4.9.2-.1 2.8 3.7 6.8 2.5z"/></g><g><path class="st5" d="M121.7 1.7c24 5.2 41.7 26.8 41.2 52.2-.6 28.9-24.5 51.8-53.4 51.2S57.6 80.6 58.3 51.7C58.9 22.8 82.8-.1 111.7.5"/><path d="M125.7 70.1l14.5 3.4c2.1.5 4.5 3 4.8 5.1v13.5s-14 13.1-33.8 13.1c-22.6 0-35.2-13-35.2-13V78.9c.3-2.1 2.7-4.8 4.8-5.3l14.5-3.4c0-.1 12.9-3.5 30.4-.1z" fill="#ac9bfa" stroke="#77819c" stroke-linecap="round" stroke-linejoin="round" stroke-miterlimit="10"/><path class="st5" d="M119.8 65.1c0 15.8-9.5 14.6-9.5 14.6-7.7 0-8.8-9.7-9.7-14.6l1.7-3.4h16l1.5 3.4z"/><path class="st5" d="M127.1 56.3c-.3 1.7-1.5 5.1-6.7 8.8-.3.2-.5.4-.8.5-6.5 4.4-11.5 5.5-18.2-.2-.4-.4-.9-.8-1.3-1.2-5.8-5.5-5.7-8.5-5.7-10.7V41.1v-2.3s-.6-5.6 4.6-9.8c0 0 7.3 4.6 17.5 0 0 0 4.1 4.8 9.4 5.3 0 0 .9.9 1.1 7.2v13.7s.2.4.1 1.1z"/><path class="st7" d="M127.3 45.1s.5-5.2 1.3-9.3c.9-4.3-1.1-8.2-4.6-7.7-.4-9.9-19.7-1.6-22.2-1.2-6.1 1.1-8.6-2.8-8.6-2.8-3.9 11.2 2.7 20.6 21.9 12.4 3.5-1.6 10.1-6.5 12.2 8.6z"/></g><g><path class="st2" d="M362.6 288.8c-8.8 7.1-20.1 11.2-32.3 10.9-27.6-.6-49.5-23.4-48.9-51s23.4-49.5 51-48.9 49.5 23.4 48.9 51c-.3 12.1-4.8 23.2-12.2 31.7"/><path d="M304.8 271.9c-1.9.4-4.3 2.2-4.3 4.8V289s12.2 11.2 32.3 10.8c18.3-.4 29.9-11 29.9-11v-12.3c0-2.2-2.2-4.2-4.3-4.6-6.6-1.4-20.1-3.4-26.9-3.4-6.8.1-20.1 2.1-26.7 3.4z" fill="#448afa" stroke="#77819c" stroke-linecap="round" stroke-linejoin="round" stroke-miterlimit="10"/><path class="st5" d="M339.9 264.4c0 14.2-8.6 13.2-8.6 13.2-6.9 0-7.9-8.8-8.7-13.1l1.5-3.1h14.5l1.3 3z"/><path class="st5" d="M346.5 256.4c-.2 1.5-1.4 4.6-6 7.9-.2.2-.5.3-.7.5-5.9 4-10.4 4.9-16.4-.1-.4-.3-.8-.7-1.2-1.1-5.2-4.9-5.1-7.7-5.1-9.6v-11.2-6.5s-.5-3.9 4.2-7.7c0 0 6.6 3.1 15.8-1.1 0 0 3.7 4.4 8.5 4.8 0 0 .8 5.2 1 10.9v12.4s0 .1-.1.8z"/><path class="st7" d="M346.6 249.9c0-.4 2.2-11.3 1.6-16-.5-4.7-3.5-5-4.1-5.1-.6-.1-1-.3-1-.3s-2.5-2.7-7.9-3.5c-5.7-.8-12.8 2.8-16.9.5-2 2.1-.8 6.2-.8 6.2s-1.5.6-1.9 2.6c-.4 2.1 1.5 15.5 1.5 15.5s.8-10.3 2-11.8c0 0 8.7 1.6 24.5-4.5 3.3-1 2.2 12.5 3 16.4z"/></g><g><path class="st5" d="M322.2 76.3c4.8-18.2 21.6-31.4 41.2-31 23 .5 41.3 19.5 40.8 42.6-.5 23-19.5 41.3-42.6 40.8-23-.5-41.3-19.5-40.8-42.6"/><path class="st12" d="M374 102.9l10.9 2.6c1.6.4 3.4 2.3 3.6 3.8v10.2s-10.1 9.2-24.9 9.2c-17 0-26.9-9.1-26.9-9.1v-10.1c.2-1.6 2-3.6 3.6-4l10.9-2.6s9.7-2.6 22.8 0z"/><path class="st3" d="M372.3 66.5c-1.4-1.8-4.4-3.8-9.7-3.7-3 .1-8.8 1-11.7 2.5l1.4 1c-2.3 1.7-3.6 3.8-4.4 5.8-1.2 3.1-.8 6.5.5 9.5.9 2.2 1.3 4.8 1.3 4.8l.1-.3c.7-1.6 1-3.3 1.2-5 .1-1.5.7-3.5 2.8-4.7 3.4-2 6.4-1 9.4-1 3.4 0 5.8-.5 7.4-1.5 3 1.8 3.5 7.1 3.6 8.8 0 .3.1.7.3 1l.1 3s.8-3.7 2.7-6.4c.5-.8.8-1.7.8-2.6-.1-3.3-.8-10.5-5.8-11.2z"/><path class="st5" d="M369.6 99.1c0 11.9-7.1 11-7.1 11-5.8 0-6.6-7.3-7.3-11l1.2-2.6h12.1l1.1 2.6z"/><path class="st5" d="M375.1 92.5c-.2 1.3-1.1 3.9-5 6.6-.2.1-.4.3-.6.4-4.9 3.3-8.7 4.1-13.7-.1-.3-.3-.6-.6-1-.9-4.4-4.1-4.3-6.4-4.3-8v-9.4-1.8s-.4-4.2 3.5-7.4c0 0 5.5 3.5 13.2 0 0 0 3.1 3.6 7.1 4 0 0 .7.7.8 5.4V91.7s.1.2 0 .8z"/><path class="st5" d="M374.2 66.5c-4.6-3.6-6.8-.4-13.5-3.5-1.5-1-2.5-2.1-2.5-2.1-1.2 2.6-1.4 4-1.4 4-2 1.1-4.1.9-4.1.9 0 .2-.1.5-.1.9 0 0-.6 1-2 1.9-1.5 1-3.1 6.1-.6 14.1.1.6.2 1.1.3 1.5.1.6.3 1.1.3 1.3v-2.1s-.4-5.1 3.5-8.9c0 0 5.5 4.2 13.2 0 0 0 3.1 4.4 7.1 4.8 0 0 .7.8.8 6.5 0 0 3.9-15.6-1-19.3z"/></g><path class="st12" d="M185.4 171.3h-7c1.9 21.1 11.6 24.9 11.6 24.9-24.2-5.3-24.1-23.6-24.1-24.9h-7.6l14.1-14 13 14z"/><path fill="none" stroke="#ffb415" stroke-width="2" stroke-miterlimit="10" d="M304.4 16.7l8-7 7 7 7-7 7 7 8-7"/></svg>