<svg xmlns="http://www.w3.org/2000/svg" width="353.8" height="329.8"><style>.st1{fill:#777f99}.st2,.st3{fill:none;stroke:#77819c;stroke-width:.9917;stroke-linecap:round;stroke-linejoin:round;stroke-miterlimit:10}.st3{fill:#fff;stroke-width:.8982}.st4{fill:#ffba4d}.st5{stroke-linecap:round}.st5,.st6,.st8{fill:none;stroke:#77819c;stroke-miterlimit:10}.st8{fill:#66dab5;stroke-linecap:round;stroke-linejoin:round}.st9{fill:#fff}.st12,.st14,.st15{fill:none;stroke:#77819c;stroke-width:.7248;stroke-miterlimit:10}.st14,.st15{stroke-width:.7286;stroke-linecap:round;stroke-linejoin:round}.st15{stroke-width:.7248}.st16{fill:#4d82f4}.st17,.st18{fill:#777f99;stroke:#77819c;stroke-miterlimit:10}.st18{fill:none;stroke:#6a7e9c;stroke-linecap:round;stroke-linejoin:round}</style><path d="M100.9 209.6c-5.4-1.5-10.6-3.4-15.6-5.8-34.1-16-57.8-51-57.8-91.6 0-32.1 14.8-60.7 38-79.2 17-13.6 38.5-21.7 61.8-21.7 49.5 0 90.5 36.4 98.4 84.1" fill="none" stroke="#77819c" stroke-linecap="round" stroke-linejoin="round" stroke-miterlimit="10" stroke-dasharray="4,4"/><path class="st1" d="M187.7 157.8c-9.3-3.1-37.2-7.1-37.2-7.1s-35.2-.4-46.7.5c-4.2.3-13.2 2.2-20 3.8 3-2.1 5.2-6.3 2.7-14.9-7.3-24.6-14-100.3 52.2-93 0 0 45.6 1.8 39.3 80.5 0 0-.6 8.3-1.9 17.9 0 0-3.4 9.8 11.7 10.9-.1.1 0 .6-.1 1.4z"/><path class="st2" d="M59.6 186c3.7-26.6 17.2-29.8 17.2-29.8s3.8-.9 8.7-2M187.7 157.8c1.6.5 2.6 1 2.9 1.5 0 0 6.9 3.1 10.8 18.2"/><path class="st3" d="M129.1 160.9l-12.2 10.8-7.8-20.3z"/><path class="st4" d="M128.3 161l-9.4 8.3-4.9-15.1z"/><path class="st3" d="M129 160.8l12.3 10.8 7.7-20.3z"/><path class="st4" d="M133.4 164l7.7 6.8 6.2-16.1z"/><path class="st3" d="M109 134.1l.1 17.4 19.6 9.4 20.5-9.8.6-17.2s-40.8.4-40.8.2z"/><path class="st3" d="M128 144.3l-21.3-12.1c-2.5-1.4-4.2-3.7-5-6.5-1.4-5.4-3-18.2-1.9-30.4.1-.9.4-1.8.9-2.6 4.5-6.5 27.4-35.8 58.5-4.1 1.6 1.6 2.4 3.8 2.3 6l-1.3 29.2c-.1 1.2-.4 2.4-1.1 3.4-2.3 3.5-9 11.4-25.5 17.4-1.7.8-3.8.6-5.6-.3z"/><g><path class="st5" d="M252.7 77.7c0 5.8.1 9.4.1 9.4l5.8-5.8 5.8 5.8 6.7-6.7 8.5 8.5 7.7-7.7 6.3 6.3 6.1-6.1 6.4 6.4 7.6-7.6-.2-11.4"/><path class="st6" d="M252.7 71.4c-.2-25.1-.5-71.2-.2-70.9h47.9s13 .2 13 18"/><path class="st5" d="M263.3 21h25.4M263.3 34.7h13.4M263.1 61.9h13.4"/><path fill="none" stroke="#77819c" stroke-width="1.254" stroke-linecap="round" stroke-miterlimit="10" d="M263.2 48.2H280"/><path class="st5" d="M282.1 62h5.7"/><circle class="st8" cx="313.6" cy="47.3" r="21.6"/><path class="st9" d="M312.7 57.5c-3-.2-5.4-1.4-6.8-3l1.5-2.1c1.1 1.2 3 2.4 5.3 2.7v-7c-3.1-.8-6.2-1.8-6.2-5.4 0-3 2.6-5.2 6.2-5.5v-2.4h2.1v2.4c2.6.2 4.6 1.2 6 2.7l-1.4 1.9c-1.2-1.3-2.9-2-4.6-2.2v6.1c3.1.8 6.5 1.9 6.5 5.8 0 3-2.1 5.4-6.5 5.8v2.2h-2.1v-2zm0-12.1v-5.7c-2 .2-3.3 1.4-3.3 3 0 1.5 1.4 2.2 3.3 2.7zm2.1 3.3v6.4c2.6-.3 3.7-1.7 3.7-3.3 0-1.8-1.7-2.5-3.7-3.1z"/></g><g><path fill="#ffb415" stroke="#77819c" stroke-width=".983" stroke-miterlimit="10" d="M14.4 250.4h66.8v15.2H14.4z"/><path fill="#fff" stroke="#77819c" stroke-miterlimit="10" d="M18.7 265.7h58.7v43.1H18.7z"/><path class="st5" d="M67.8 245.9c1.3-1.8 2-3.9 2-6.2 0-5.9-4.8-10.7-10.7-10.7-5.9 0-10.7 4.7-10.7 10.6M59.1 250.4c2 0 3.9-.6 5.5-1.5M34.4 229.5c1-.3 2.1-.5 3.2-.5 5.9 0 10.7 4.7 10.7 10.6v63.3M37.7 250.4c-5.9 0-10.7-4.8-10.7-10.7 0-3.2 1.4-6.1 3.6-8.1"/></g><path class="st12" d="M212.8 210.7l-5.4-.3s-5.1.6.3 12.5c0 0 .8 7.4 5.2 7.7"/><circle class="st9" cx="246.3" cy="217.2" r="103.9"/><g><path d="M185.3 301.7c-26-18.9-42.9-49.5-42.9-84.1" fill="#fff" stroke="#77819c" stroke-width=".729" stroke-linecap="round" stroke-linejoin="round" stroke-miterlimit="10"/><path class="st14" d="M350.2 217.6c0 57.4-46.5 103.9-103.9 103.9-19.7 0-38.2-5.5-53.9-15.1M145.3 193c11-45.5 52.1-79.4 101-79.4 49.4 0 90.8 34.5 101.3 80.7"/><path class="st15" d="M169 287.1s3.5-10.7 11.2-13.5l33.2-7.7M279.7 266.1l33.2 7.4s9.6 2.3 11.4 12.7"/><path class="st16" d="M222.3 258.2l-4.5 5.2 11.8 26.3 3.9-.9 11.8-8.9zM266.2 291.7l13.4-25.9-2.7-5.8-25.9 22.8 11.4 9.4z"/><path class="st15" d="M213.7 263.7l3.1-5.9c.4-.7 1.4-1.3 2.1-1.1 1.5.3 3.5 1.1 3.8 1.5.5.6 23 21.9 23 21.9l-16.3 12.1s-3.3-.3-4-.9c-.7-.6-9.8-21.4-11.8-25.9-.2-.6-.2-1.2.1-1.7zM262.3 292.5l-15.7-12.9s23.6-20.2 24.1-20.8c.3-.4 2.6-.8 4-1.1.8-.1 1.6.3 1.9 1l2.8 6.1c.3.5.3 1.2 0 1.7-2.2 4.4-12.3 24.8-13 25.3l-4.1.7zM212.6 230.3l-.3-20.9M246.1 257.7c-6.7 0-13.3-2-18.8-5.8 0 0-14.7-8.1-14.7-21.6M246.5 257.8c7.1 0 14.1-2.2 20-6.3 0 0 14-9.8 14-22v-19.8M221 247.5v9.7M271.5 247.7V258"/><path class="st1" d="M281.4 213.7s2.3-22.7 3.1-27.1c1.1-5.6-.1-22.8-20.6-33.8-10.9-5.9-24-6.6-35.3-1.6-4.6 2-8.4 4.8-8.4 8.3 0 0-2.8.4-3.6.8-6.1 3.2-13.8 12.9-10.5 25.5 3.2 12.5 6.2 29.5 6.2 29.5s2 .8 2-1c0-17.3-.6-19.3.6-20.4 1.9-1.7 8.7-11.4 5.3-21.8 0 0-3.2 7.7 46.1 8.1 0 0 11 6.1 12.7 35.2 0-.1 2.4.7 2.4-1.7z"/></g><path class="st8" d="M158.7 239.1h17.7l-17.7-17.6-17.7-17.6-17.7 17.6-17.7 17.6h19.1c0 3.4.8 49.5 61.8 62.8-.1 0-23-9.5-27.8-62.8z"/><path class="st12" d="M280.3 210.7l5.4-.3s5.1.6-.3 12.5c0 0-.8 7.4-5.2 7.7"/><circle class="st18" cx="29.1" cy="22.1" r="3"/><circle class="st18" cx="350.6" cy="127.4" r="2.7"/><g><path class="st18" d="M130.1 322v7.3M126.5 325.7h7.2"/></g><g><path class="st18" d="M4.1 186.3v7.2M.5 189.9h7.3"/></g><g><path class="st18" d="M217.6 3.3v7.3M214 6.9h7.2"/></g></svg>