<svg xmlns="http://www.w3.org/2000/svg" width="72.6" height="46.5"><style>.st0{fill:none;stroke:#ffb415;stroke-width:4;stroke-linecap:round;stroke-linejoin:round;stroke-miterlimit:10}</style><path class="st0" d="M56.3 15.6h.1c3.8.1 7.3 1.6 10 4.3 2.7 2.7 4.1 6.3 4.1 10.1 0 8-6.5 14.4-14.4 14.4-8 0-14.4-6.5-14.4-14.4 0-9.4 3-16.5 5.4-20.8 2.7-4.7 5.5-7.2 5.6-7.3M13 2c-.1.1-2.9 2.6-5.6 7.3C5 13.5 2 20.6 2 30c0 8 6.5 14.4 14.4 14.4 8 0 14.4-6.5 14.4-14.4 0-3.8-1.5-7.4-4.1-10.1-2.7-2.7-6.2-4.2-10-4.3h-.1"/></svg>