<svg xmlns="http://www.w3.org/2000/svg" width="159" height="135"><style>.st1{fill:none;stroke:#ffb415;stroke-width:2;stroke-linecap:round;stroke-linejoin:round;stroke-miterlimit:10}</style><path d="M150.6 41.4S196 160 75.1 130.2C-45.7 100.4 3.7 38.6 54.4 15.8 106-7.5 128.9-9.7 150.6 41.4z" fill="#fff7e7"/><path class="st1" d="M134.6 27.8c2.7 0 4.9 2.2 4.9 4.9v79.8c0 2.7-2.2 4.9-4.9 4.9H34.7c-2.7 0-4.9-2.2-4.9-4.9"/><path d="M129.2 104.7c0 1.4-1.1 2.5-2.5 2.5H21.9c-1.4 0-2.5-1.1-2.5-2.5V34.1s109.6-.1 109.7 0v64.4" fill="#fff" stroke="#ffb415" stroke-width="2" stroke-linecap="round" stroke-linejoin="round" stroke-miterlimit="10"/><path class="st1" d="M23.6 17.5c-2.3 0-4.1 1.8-4.1 4.1v12.5h109.7V21.6c0-2.3-1.8-4.1-4.1-4.1H30.7"/><path class="st1" d="M42 28.7h-4.8c-1.6 0-2.9-1.3-2.9-2.9 0-1.6 1.3-2.9 2.9-2.9H42c1.6 0 2.9 1.3 2.9 2.9 0 1.6-1.3 2.9-2.9 2.9zM59.4 28.7h-4.8c-1.6 0-2.9-1.3-2.9-2.9 0-1.6 1.3-2.9 2.9-2.9h4.8c1.6 0 2.9 1.3 2.9 2.9 0 1.6-1.3 2.9-2.9 2.9zM76.7 28.7h-4.8c-1.6 0-2.9-1.3-2.9-2.9 0-1.6 1.3-2.9 2.9-2.9h4.8c1.6 0 2.9 1.3 2.9 2.9 0 1.6-1.3 2.9-2.9 2.9zM94.1 28.7h-4.8c-1.6 0-2.9-1.3-2.9-2.9 0-1.6 1.3-2.9 2.9-2.9h4.8c1.6 0 2.9 1.3 2.9 2.9 0 1.6-1.3 2.9-2.9 2.9zM111.4 28.7h-4.8c-1.6 0-2.9-1.3-2.9-2.9 0-1.6 1.3-2.9 2.9-2.9h4.8c1.6 0 2.9 1.3 2.9 2.9 0 1.6-1.3 2.9-2.9 2.9zM29.6 59.2v41.1M29.6 47.7v6.2"/><path d="M63.5 61.3v18.9c0 1.8 1.9 3 3.5 2.1l17-9.1c1.7-.9 1.7-3.2.1-4.2l-17-9.8c-1.6-.9-3.6.3-3.6 2.1z" fill="#ffb415"/></svg>