<svg xmlns="http://www.w3.org/2000/svg" xmlns:xlink="http://www.w3.org/1999/xlink" width="66" height="147" viewBox="0 0 66 147">
  <defs>
    <style>
      .cls-1, .cls-2 {
        fill: #6e819e;
        fill-rule: evenodd;
      }

      .cls-2 {
        filter: url(#filter);
      }
    </style>
    <filter id="filter" x="-0.031" y="75" width="66.031" height="72" filterUnits="userSpaceOnUse">
      <feFlood result="flood" flood-color="#6262ff"/>
      <feComposite result="composite" operator="in" in2="SourceGraphic"/>
      <feBlend result="blend" in2="SourceGraphic"/>
    </filter>
  </defs>
  <path id="icon" class="cls-1" d="M52.284,4.387H50.047a1.125,1.125,0,0,0,0,2.25h2.238A1.125,1.125,0,0,0,52.284,4.387Zm-6.714,0H43.333a1.125,1.125,0,0,0,0,2.25h2.238A1.125,1.125,0,0,0,45.571,4.387ZM60.4,41.569a1.125,1.125,0,0,0-1.119,1.125V55.012H6.688V42.693a1.119,1.119,0,1,0-2.238,0V55.012H2.213V25.875h3.3a1.125,1.125,0,0,0,0-2.25h-3.3a2.25,2.25,0,0,0-2.238,2.25V63.957a2.25,2.25,0,0,0,2.238,2.25H26.829V69.75H21.682a1.125,1.125,0,0,0,0,2.25H44.228a1.125,1.125,0,0,0,0-2.25h-5.09V66.206H63.753a2.25,2.25,0,0,0,2.238-2.25V25.875a2.25,2.25,0,0,0-2.238-2.25H60.341a1.125,1.125,0,0,0,0,2.25h3.412V55.012H61.515V42.693A1.125,1.125,0,0,0,60.4,41.569ZM36.9,69.581H29.067V66.206H36.9v3.375ZM63.753,57.262v6.75H2.213v-6.75H63.753Zm-5.594,4.5H60.4a1.125,1.125,0,0,0,0-2.25H58.159A1.125,1.125,0,0,0,58.159,61.762ZM55.361,0H10.6A2.25,2.25,0,0,0,8.367,2.25V50.062a2.25,2.25,0,0,0,2.238,2.25H55.361a2.25,2.25,0,0,0,2.238-2.25V2.25A2.25,2.25,0,0,0,55.361,0ZM10.6,2.25H55.361V9H10.6V2.25Zm0,47.812V11.25H55.361V50.062H10.6ZM37.514,36.168a1.106,1.106,0,0,0-1.4.226c-0.839.956-2.069,1.35-4.251,1.35s-3.413-.394-4.252-1.35a1.106,1.106,0,0,0-1.4-.226A11.338,11.338,0,0,0,20.4,46.125a1.126,1.126,0,0,0,1.119,1.125h20.7a1.126,1.126,0,0,0,1.119-1.125A11.337,11.337,0,0,0,37.514,36.168ZM22.689,45a8.828,8.828,0,0,1,3.972-6.469,8.282,8.282,0,0,0,5.2,1.463,7.949,7.949,0,0,0,5.2-1.463A9.178,9.178,0,0,1,41.04,45H22.689Zm4.084-11.925a6.995,6.995,0,1,0-1.119-1.969L19.5,34.988a1.159,1.159,0,0,0-.336,1.575,1.1,1.1,0,0,0,1.567.338Zm5.091-8.887a4.5,4.5,0,1,1-4.476,4.5A4.5,4.5,0,0,1,31.864,24.187Z"/>
  <path id="icon_copy" data-name="icon copy" class="cls-2" d="M52.284,79.387H50.047a1.125,1.125,0,0,0,0,2.25h2.238A1.125,1.125,0,0,0,52.284,79.387Zm-6.714,0H43.333a1.125,1.125,0,0,0,0,2.25h2.238A1.125,1.125,0,0,0,45.571,79.387ZM60.4,116.568a1.126,1.126,0,0,0-1.119,1.125v12.319H6.688V117.693a1.119,1.119,0,1,0-2.238,0v12.319H2.213V100.875h3.3a1.125,1.125,0,0,0,0-2.25h-3.3a2.25,2.25,0,0,0-2.238,2.25v38.081a2.25,2.25,0,0,0,2.238,2.25H26.829v3.544H21.682a1.125,1.125,0,0,0,0,2.25H44.228a1.125,1.125,0,0,0,0-2.25h-5.09v-3.544H63.753a2.25,2.25,0,0,0,2.238-2.25V100.875a2.25,2.25,0,0,0-2.238-2.25H60.341a1.125,1.125,0,0,0,0,2.25h3.412v29.137H61.515V117.693A1.126,1.126,0,0,0,60.4,116.568ZM36.9,144.581H29.067v-3.375H36.9v3.375Zm26.854-12.319v6.75H2.213v-6.75H63.753Zm-5.594,4.5H60.4a1.125,1.125,0,0,0,0-2.25H58.159A1.125,1.125,0,0,0,58.159,136.762ZM55.361,75H10.6a2.25,2.25,0,0,0-2.238,2.25v47.812a2.25,2.25,0,0,0,2.238,2.25H55.361a2.25,2.25,0,0,0,2.238-2.25V77.25A2.25,2.25,0,0,0,55.361,75ZM10.6,77.25H55.361V84H10.6V77.25Zm0,47.812V86.25H55.361v38.812H10.6Zm26.909-13.894a1.106,1.106,0,0,0-1.4.226c-0.839.956-2.069,1.35-4.251,1.35s-3.413-.394-4.252-1.35a1.106,1.106,0,0,0-1.4-.226,11.338,11.338,0,0,0-5.818,9.957,1.126,1.126,0,0,0,1.119,1.125h20.7a1.126,1.126,0,0,0,1.119-1.125A11.337,11.337,0,0,0,37.514,111.168ZM22.689,120a8.829,8.829,0,0,1,3.972-6.469,8.281,8.281,0,0,0,5.2,1.463,7.946,7.946,0,0,0,5.2-1.463A9.179,9.179,0,0,1,41.04,120H22.689Zm4.084-11.925a7,7,0,1,0-1.119-1.969L19.5,109.988a1.158,1.158,0,0,0-.336,1.574,1.1,1.1,0,0,0,1.567.338Zm5.091-8.888a4.5,4.5,0,1,1-4.476,4.5A4.5,4.5,0,0,1,31.864,99.187Z"/>
</svg>
